<svg width="1143" height="335" viewBox="0 0 1143 335" fill="none" xmlns="http://www.w3.org/2000/svg">
<path d="M448 271V441" stroke="url(#paint0_linear_1111_4343)" stroke-width="5" stroke-linecap="round"/>
<path d="M1140 546V291.35C1140 273.677 1125.67 259.35 1108 259.35H992C974.327 259.35 960 245.023 960 227.35V0" stroke="url(#paint1_linear_1111_4343)" stroke-width="5"/>
<path d="M612 439L682.5 439C695.755 439 706.5 428.255 706.5 415L706.5 335C706.5 321.745 717.245 311 730.5 311L792 311" stroke="url(#paint2_linear_1111_4343)" stroke-width="5"/>
<path d="M280 188L302.6 188C320.273 188 334.6 202.327 334.6 220L334.6 271C334.6 288.673 348.927 303 366.6 303L384 303" stroke="url(#paint3_linear_1111_4343)" stroke-width="5"/>
<rect x="816.25" y="183.25" width="281.5" height="191.5" rx="7.75" fill="white"/>
<rect x="832" y="199" width="24" height="24" rx="8" fill="#DEE2E6"/>
<path d="M841.866 213.603L839.533 211.27C839.273 211.01 838.86 211.01 838.6 211.27C838.34 211.53 838.34 211.943 838.6 212.203L841.393 214.997C841.653 215.257 842.073 215.257 842.333 214.997L849.4 207.937C849.66 207.677 849.66 207.263 849.4 207.003C849.14 206.743 848.726 206.743 848.466 207.003L841.866 213.603Z" fill="white"/>
<path d="M871.456 212.088H866.912V217H865.344V205.432H872.32V206.872H866.912V210.664H871.456V212.088ZM878.567 209.176H880.055V217H878.711L878.551 215.816C878.327 216.232 877.975 216.568 877.495 216.824C877.015 217.069 876.487 217.192 875.911 217.192C875.015 217.192 874.316 216.909 873.815 216.344C873.313 215.779 873.063 215.011 873.063 214.04V209.176H874.567V213.544C874.567 215.091 875.191 215.864 876.439 215.864C877.132 215.864 877.66 215.645 878.023 215.208C878.385 214.771 878.567 214.136 878.567 213.304V209.176ZM883.453 217H881.949V205.224H883.453V217ZM886.883 217H885.379V205.224H886.883V217ZM894.336 217H892.832V209.176H894.192L894.352 210.376C894.597 209.928 894.949 209.581 895.408 209.336C895.877 209.08 896.389 208.952 896.944 208.952C897.946 208.952 898.698 209.24 899.2 209.816C899.701 210.381 899.952 211.181 899.952 212.216V217H898.448V212.552C898.448 211.069 897.818 210.328 896.56 210.328C895.866 210.328 895.322 210.557 894.928 211.016C894.533 211.475 894.336 212.088 894.336 212.856V217ZM904.003 217.192C903.171 217.192 902.515 216.979 902.035 216.552C901.566 216.115 901.331 215.539 901.331 214.824C901.331 214.109 901.582 213.539 902.083 213.112C902.595 212.675 903.315 212.419 904.243 212.344L906.707 212.152V211.928C906.707 210.744 906.094 210.152 904.867 210.152C904.238 210.152 903.747 210.285 903.395 210.552C903.054 210.819 902.883 211.187 902.883 211.656H901.571C901.571 210.845 901.875 210.195 902.483 209.704C903.102 209.203 903.918 208.952 904.931 208.952C905.934 208.952 906.723 209.219 907.299 209.752C907.886 210.285 908.179 211.064 908.179 212.088V217H906.899L906.739 215.736C906.536 216.184 906.184 216.541 905.683 216.808C905.192 217.064 904.632 217.192 904.003 217.192ZM904.435 216.024C905.15 216.024 905.71 215.811 906.115 215.384C906.52 214.947 906.723 214.36 906.723 213.624V213.208L904.723 213.368C903.475 213.485 902.851 213.955 902.851 214.776C902.851 215.181 902.99 215.491 903.267 215.704C903.544 215.917 903.934 216.024 904.435 216.024ZM911.446 217H909.942V209.176H911.286L911.43 210.2C911.632 209.816 911.936 209.512 912.342 209.288C912.758 209.064 913.232 208.952 913.766 208.952C914.982 208.952 915.808 209.48 916.246 210.536C916.427 210.045 916.742 209.661 917.19 209.384C917.638 209.096 918.166 208.952 918.774 208.952C919.67 208.952 920.374 209.213 920.886 209.736C921.398 210.259 921.654 210.973 921.654 211.88V217H920.182V212.248C920.182 211.64 920.022 211.165 919.702 210.824C919.392 210.483 918.971 210.312 918.438 210.312C917.872 210.312 917.414 210.499 917.062 210.872C916.72 211.245 916.55 211.741 916.55 212.36V217H915.062V212.232C915.062 211.624 914.907 211.155 914.598 210.824C914.288 210.493 913.867 210.328 913.334 210.328C912.758 210.328 912.299 210.515 911.958 210.888C911.616 211.251 911.446 211.741 911.446 212.36V217ZM926.795 217.192C925.643 217.192 924.704 216.813 923.979 216.056C923.264 215.299 922.907 214.312 922.907 213.096C922.907 211.869 923.259 210.872 923.963 210.104C924.677 209.336 925.6 208.952 926.731 208.952C927.84 208.952 928.731 209.304 929.403 210.008C930.075 210.712 930.411 211.645 930.411 212.808V213.368L924.363 213.384C924.416 214.205 924.651 214.84 925.067 215.288C925.493 215.725 926.08 215.944 926.827 215.944C928.021 215.944 928.752 215.485 929.019 214.568H930.427C930.235 215.411 929.824 216.061 929.195 216.52C928.565 216.968 927.765 217.192 926.795 217.192ZM926.731 210.216C926.08 210.216 925.552 210.403 925.147 210.776C924.741 211.149 924.491 211.683 924.395 212.376H928.907C928.907 211.725 928.709 211.203 928.315 210.808C927.92 210.413 927.392 210.216 926.731 210.216Z" fill="#343A40"/>
<path d="M1073.33 215C1073.33 215.733 1072.73 216.333 1072 216.333C1071.27 216.333 1070.67 215.733 1070.67 215C1070.67 214.267 1071.27 213.667 1072 213.667C1072.73 213.667 1073.33 214.267 1073.33 215ZM1072 209.667C1071.27 209.667 1070.67 210.267 1070.67 211C1070.67 211.733 1071.27 212.333 1072 212.333C1072.73 212.333 1073.33 211.733 1073.33 211C1073.33 210.267 1072.73 209.667 1072 209.667ZM1072 205.667C1071.27 205.667 1070.67 206.267 1070.67 207C1070.67 207.733 1071.27 208.333 1072 208.333C1072.73 208.333 1073.33 207.733 1073.33 207C1073.33 206.267 1072.73 205.667 1072 205.667ZM1076 208.333C1076.73 208.333 1077.33 207.733 1077.33 207C1077.33 206.267 1076.73 205.667 1076 205.667C1075.27 205.667 1074.67 206.267 1074.67 207C1074.67 207.733 1075.27 208.333 1076 208.333ZM1076 209.667C1075.27 209.667 1074.67 210.267 1074.67 211C1074.67 211.733 1075.27 212.333 1076 212.333C1076.73 212.333 1077.33 211.733 1077.33 211C1077.33 210.267 1076.73 209.667 1076 209.667ZM1076 213.667C1075.27 213.667 1074.67 214.267 1074.67 215C1074.67 215.733 1075.27 216.333 1076 216.333C1076.73 216.333 1077.33 215.733 1077.33 215C1077.33 214.267 1076.73 213.667 1076 213.667Z" fill="#ADB5BD"/>
<rect x="832.25" y="239.25" width="249.5" height="39.5" rx="7.75" fill="white"/>
<rect x="840" y="247" width="24" height="24" rx="8" fill="#6173E5"/>
<path d="M849.866 261.603L847.533 259.27C847.273 259.01 846.86 259.01 846.6 259.27C846.34 259.53 846.34 259.943 846.6 260.203L849.393 262.997C849.653 263.257 850.073 263.257 850.333 262.997L857.4 255.937C857.66 255.677 857.66 255.263 857.4 255.003C857.14 254.743 856.726 254.743 856.466 255.003L849.866 261.603Z" fill="white"/>
<path d="M873.344 265V253.432H877.76C878.891 253.432 879.776 253.704 880.416 254.248C881.067 254.792 881.392 255.539 881.392 256.488C881.392 257.811 880.816 258.712 879.664 259.192C880.955 259.608 881.6 260.515 881.6 261.912C881.6 262.872 881.269 263.629 880.608 264.184C879.957 264.728 879.061 265 877.92 265H873.344ZM877.664 254.824H874.912V258.536H877.76C878.411 258.536 878.912 258.371 879.264 258.04C879.616 257.699 879.792 257.229 879.792 256.632C879.792 256.056 879.605 255.613 879.232 255.304C878.869 254.984 878.347 254.824 877.664 254.824ZM877.888 259.896H874.912V263.608H877.888C878.56 263.608 879.077 263.443 879.44 263.112C879.803 262.781 879.984 262.317 879.984 261.72C879.984 261.144 879.797 260.696 879.424 260.376C879.061 260.056 878.549 259.896 877.888 259.896ZM888.395 257.176H889.883V265H888.539L888.379 263.816C888.155 264.232 887.803 264.568 887.323 264.824C886.843 265.069 886.315 265.192 885.739 265.192C884.843 265.192 884.144 264.909 883.643 264.344C883.141 263.779 882.891 263.011 882.891 262.04V257.176H884.395V261.544C884.395 263.091 885.019 263.864 886.267 263.864C886.96 263.864 887.488 263.645 887.851 263.208C888.213 262.771 888.395 262.136 888.395 261.304V257.176ZM890.949 262.728H892.389C892.389 263.123 892.527 263.437 892.805 263.672C893.093 263.896 893.487 264.008 893.989 264.008C894.511 264.008 894.917 263.907 895.205 263.704C895.503 263.501 895.653 263.219 895.653 262.856C895.653 262.579 895.573 262.36 895.413 262.2C895.253 262.029 894.975 261.896 894.581 261.8L893.205 261.48C891.839 261.149 891.157 260.424 891.157 259.304C891.157 258.589 891.429 258.019 891.973 257.592C892.517 257.165 893.226 256.952 894.101 256.952C894.954 256.952 895.637 257.176 896.149 257.624C896.671 258.061 896.943 258.653 896.965 259.4H895.525C895.503 259.005 895.365 258.696 895.109 258.472C894.853 258.237 894.501 258.12 894.053 258.12C893.583 258.12 893.221 258.221 892.965 258.424C892.709 258.616 892.581 258.893 892.581 259.256C892.581 259.779 892.965 260.136 893.733 260.328L895.109 260.664C895.791 260.824 896.293 261.069 896.613 261.4C896.933 261.731 897.093 262.184 897.093 262.76C897.093 263.496 896.805 264.088 896.229 264.536C895.653 264.973 894.895 265.192 893.957 265.192C893.039 265.192 892.309 264.968 891.765 264.52C891.221 264.072 890.949 263.475 890.949 262.728ZM899.881 255.032C899.689 255.224 899.454 255.32 899.177 255.32C898.899 255.32 898.665 255.224 898.473 255.032C898.281 254.829 898.185 254.595 898.185 254.328C898.185 254.051 898.281 253.816 898.473 253.624C898.665 253.432 898.899 253.336 899.177 253.336C899.454 253.336 899.689 253.432 899.881 253.624C900.073 253.816 900.169 254.051 900.169 254.328C900.169 254.595 900.073 254.829 899.881 255.032ZM898.441 265V257.176H899.945V265H898.441ZM903.312 265H901.808V257.176H903.168L903.328 258.376C903.573 257.928 903.925 257.581 904.384 257.336C904.853 257.08 905.365 256.952 905.92 256.952C906.923 256.952 907.675 257.24 908.176 257.816C908.677 258.381 908.928 259.181 908.928 260.216V265H907.424V260.552C907.424 259.069 906.795 258.328 905.536 258.328C904.843 258.328 904.299 258.557 903.904 259.016C903.509 259.475 903.312 260.088 903.312 260.856V265ZM914.067 265.192C912.915 265.192 911.976 264.813 911.251 264.056C910.536 263.299 910.179 262.312 910.179 261.096C910.179 259.869 910.531 258.872 911.235 258.104C911.95 257.336 912.872 256.952 914.003 256.952C915.112 256.952 916.003 257.304 916.675 258.008C917.347 258.712 917.683 259.645 917.683 260.808V261.368L911.635 261.384C911.688 262.205 911.923 262.84 912.339 263.288C912.766 263.725 913.352 263.944 914.099 263.944C915.294 263.944 916.024 263.485 916.291 262.568H917.699C917.507 263.411 917.096 264.061 916.467 264.52C915.838 264.968 915.038 265.192 914.067 265.192ZM914.003 258.216C913.352 258.216 912.824 258.403 912.419 258.776C912.014 259.149 911.763 259.683 911.667 260.376H916.179C916.179 259.725 915.982 259.203 915.587 258.808C915.192 258.413 914.664 258.216 914.003 258.216ZM918.403 262.728H919.843C919.843 263.123 919.982 263.437 920.259 263.672C920.547 263.896 920.942 264.008 921.443 264.008C921.966 264.008 922.371 263.907 922.659 263.704C922.958 263.501 923.107 263.219 923.107 262.856C923.107 262.579 923.027 262.36 922.867 262.2C922.707 262.029 922.43 261.896 922.035 261.8L920.659 261.48C919.294 261.149 918.611 260.424 918.611 259.304C918.611 258.589 918.883 258.019 919.427 257.592C919.971 257.165 920.68 256.952 921.555 256.952C922.408 256.952 923.091 257.176 923.603 257.624C924.126 258.061 924.398 258.653 924.419 259.4H922.979C922.958 259.005 922.819 258.696 922.563 258.472C922.307 258.237 921.955 258.12 921.507 258.12C921.038 258.12 920.675 258.221 920.419 258.424C920.163 258.616 920.035 258.893 920.035 259.256C920.035 259.779 920.419 260.136 921.187 260.328L922.563 260.664C923.246 260.824 923.747 261.069 924.067 261.4C924.387 261.731 924.547 262.184 924.547 262.76C924.547 263.496 924.259 264.088 923.683 264.536C923.107 264.973 922.35 265.192 921.411 265.192C920.494 265.192 919.763 264.968 919.219 264.52C918.675 264.072 918.403 263.475 918.403 262.728ZM925.255 262.728H926.695C926.695 263.123 926.834 263.437 927.111 263.672C927.399 263.896 927.794 264.008 928.295 264.008C928.818 264.008 929.223 263.907 929.511 263.704C929.81 263.501 929.959 263.219 929.959 262.856C929.959 262.579 929.879 262.36 929.719 262.2C929.559 262.029 929.282 261.896 928.887 261.8L927.511 261.48C926.146 261.149 925.463 260.424 925.463 259.304C925.463 258.589 925.735 258.019 926.279 257.592C926.823 257.165 927.532 256.952 928.407 256.952C929.26 256.952 929.943 257.176 930.455 257.624C930.978 258.061 931.25 258.653 931.271 259.4H929.831C929.81 259.005 929.671 258.696 929.415 258.472C929.159 258.237 928.807 258.12 928.359 258.12C927.89 258.12 927.527 258.221 927.271 258.424C927.015 258.616 926.887 258.893 926.887 259.256C926.887 259.779 927.271 260.136 928.039 260.328L929.415 260.664C930.098 260.824 930.599 261.069 930.919 261.4C931.239 261.731 931.399 262.184 931.399 262.76C931.399 263.496 931.111 264.088 930.535 264.536C929.959 264.973 929.202 265.192 928.263 265.192C927.346 265.192 926.615 264.968 926.071 264.52C925.527 264.072 925.255 263.475 925.255 262.728ZM938.306 265H936.802V257.176H938.162L938.322 258.376C938.567 257.928 938.919 257.581 939.378 257.336C939.847 257.08 940.359 256.952 940.914 256.952C941.916 256.952 942.668 257.24 943.17 257.816C943.671 258.381 943.922 259.181 943.922 260.216V265H942.418V260.552C942.418 259.069 941.788 258.328 940.53 258.328C939.836 258.328 939.292 258.557 938.898 259.016C938.503 259.475 938.306 260.088 938.306 260.856V265ZM947.973 265.192C947.141 265.192 946.485 264.979 946.005 264.552C945.536 264.115 945.301 263.539 945.301 262.824C945.301 262.109 945.552 261.539 946.053 261.112C946.565 260.675 947.285 260.419 948.213 260.344L950.677 260.152V259.928C950.677 258.744 950.064 258.152 948.837 258.152C948.208 258.152 947.717 258.285 947.365 258.552C947.024 258.819 946.853 259.187 946.853 259.656H945.541C945.541 258.845 945.845 258.195 946.453 257.704C947.072 257.203 947.888 256.952 948.901 256.952C949.904 256.952 950.693 257.219 951.269 257.752C951.856 258.285 952.149 259.064 952.149 260.088V265H950.869L950.709 263.736C950.506 264.184 950.154 264.541 949.653 264.808C949.162 265.064 948.602 265.192 947.973 265.192ZM948.405 264.024C949.12 264.024 949.68 263.811 950.085 263.384C950.49 262.947 950.693 262.36 950.693 261.624V261.208L948.693 261.368C947.445 261.485 946.821 261.955 946.821 262.776C946.821 263.181 946.96 263.491 947.237 263.704C947.514 263.917 947.904 264.024 948.405 264.024ZM955.416 265H953.912V257.176H955.256L955.4 258.2C955.602 257.816 955.906 257.512 956.312 257.288C956.728 257.064 957.202 256.952 957.736 256.952C958.952 256.952 959.778 257.48 960.216 258.536C960.397 258.045 960.712 257.661 961.16 257.384C961.608 257.096 962.136 256.952 962.744 256.952C963.64 256.952 964.344 257.213 964.856 257.736C965.368 258.259 965.624 258.973 965.624 259.88V265H964.152V260.248C964.152 259.64 963.992 259.165 963.672 258.824C963.362 258.483 962.941 258.312 962.408 258.312C961.842 258.312 961.384 258.499 961.032 258.872C960.69 259.245 960.52 259.741 960.52 260.36V265H959.032V260.232C959.032 259.624 958.877 259.155 958.568 258.824C958.258 258.493 957.837 258.328 957.304 258.328C956.728 258.328 956.269 258.515 955.928 258.888C955.586 259.251 955.416 259.741 955.416 260.36V265ZM970.765 265.192C969.613 265.192 968.674 264.813 967.949 264.056C967.234 263.299 966.877 262.312 966.877 261.096C966.877 259.869 967.229 258.872 967.933 258.104C968.647 257.336 969.57 256.952 970.701 256.952C971.81 256.952 972.701 257.304 973.373 258.008C974.045 258.712 974.381 259.645 974.381 260.808V261.368L968.333 261.384C968.386 262.205 968.621 262.84 969.037 263.288C969.463 263.725 970.05 263.944 970.797 263.944C971.991 263.944 972.722 263.485 972.989 262.568H974.397C974.205 263.411 973.794 264.061 973.165 264.52C972.535 264.968 971.735 265.192 970.765 265.192ZM970.701 258.216C970.05 258.216 969.522 258.403 969.117 258.776C968.711 259.149 968.461 259.683 968.365 260.376H972.877C972.877 259.725 972.679 259.203 972.285 258.808C971.89 258.413 971.362 258.216 970.701 258.216Z" fill="black"/>
<path d="M1065.33 263C1065.33 263.733 1064.73 264.333 1064 264.333C1063.27 264.333 1062.67 263.733 1062.67 263C1062.67 262.267 1063.27 261.667 1064 261.667C1064.73 261.667 1065.33 262.267 1065.33 263ZM1064 257.667C1063.27 257.667 1062.67 258.267 1062.67 259C1062.67 259.733 1063.27 260.333 1064 260.333C1064.73 260.333 1065.33 259.733 1065.33 259C1065.33 258.267 1064.73 257.667 1064 257.667ZM1064 253.667C1063.27 253.667 1062.67 254.267 1062.67 255C1062.67 255.733 1063.27 256.333 1064 256.333C1064.73 256.333 1065.33 255.733 1065.33 255C1065.33 254.267 1064.73 253.667 1064 253.667ZM1068 256.333C1068.73 256.333 1069.33 255.733 1069.33 255C1069.33 254.267 1068.73 253.667 1068 253.667C1067.27 253.667 1066.67 254.267 1066.67 255C1066.67 255.733 1067.27 256.333 1068 256.333ZM1068 257.667C1067.27 257.667 1066.67 258.267 1066.67 259C1066.67 259.733 1067.27 260.333 1068 260.333C1068.73 260.333 1069.33 259.733 1069.33 259C1069.33 258.267 1068.73 257.667 1068 257.667ZM1068 261.667C1067.27 261.667 1066.67 262.267 1066.67 263C1066.67 263.733 1067.27 264.333 1068 264.333C1068.73 264.333 1069.33 263.733 1069.33 263C1069.33 262.267 1068.73 261.667 1068 261.667Z" fill="#ADB5BD"/>
<rect x="832.25" y="239.25" width="249.5" height="39.5" rx="7.75" stroke="#E9ECEF" stroke-width="0.5"/>
<rect x="832" y="295" width="24" height="24" rx="8" fill="#DEE2E6"/>
<path d="M841.866 309.603L839.533 307.27C839.273 307.01 838.86 307.01 838.6 307.27C838.34 307.53 838.34 307.943 838.6 308.203L841.393 310.997C841.653 311.257 842.073 311.257 842.333 310.997L849.4 303.937C849.66 303.677 849.66 303.263 849.4 303.003C849.14 302.743 848.726 302.743 848.466 303.003L841.866 309.603Z" fill="white"/>
<path d="M872.4 313H865.344V301.432H872.4V302.872H866.912V306.488H871.856V307.88H866.912V311.544H872.4V313ZM875.6 313H874.096V305.176H875.44L875.584 306.2C875.787 305.816 876.091 305.512 876.496 305.288C876.912 305.064 877.387 304.952 877.92 304.952C879.136 304.952 879.963 305.48 880.4 306.536C880.581 306.045 880.896 305.661 881.344 305.384C881.792 305.096 882.32 304.952 882.928 304.952C883.824 304.952 884.528 305.213 885.04 305.736C885.552 306.259 885.808 306.973 885.808 307.88V313H884.336V308.248C884.336 307.64 884.176 307.165 883.856 306.824C883.547 306.483 883.125 306.312 882.592 306.312C882.027 306.312 881.568 306.499 881.216 306.872C880.875 307.245 880.704 307.741 880.704 308.36V313H879.216V308.232C879.216 307.624 879.061 307.155 878.752 306.824C878.443 306.493 878.021 306.328 877.488 306.328C876.912 306.328 876.453 306.515 876.112 306.888C875.771 307.251 875.6 307.741 875.6 308.36V313ZM889.861 313.192C889.029 313.192 888.373 312.979 887.893 312.552C887.424 312.115 887.189 311.539 887.189 310.824C887.189 310.109 887.44 309.539 887.941 309.112C888.453 308.675 889.173 308.419 890.101 308.344L892.565 308.152V307.928C892.565 306.744 891.952 306.152 890.725 306.152C890.096 306.152 889.605 306.285 889.253 306.552C888.912 306.819 888.741 307.187 888.741 307.656H887.429C887.429 306.845 887.733 306.195 888.341 305.704C888.96 305.203 889.776 304.952 890.789 304.952C891.792 304.952 892.581 305.219 893.157 305.752C893.744 306.285 894.037 307.064 894.037 308.088V313H892.757L892.597 311.736C892.394 312.184 892.042 312.541 891.541 312.808C891.05 313.064 890.49 313.192 889.861 313.192ZM890.293 312.024C891.008 312.024 891.568 311.811 891.973 311.384C892.378 310.947 892.581 310.36 892.581 309.624V309.208L890.581 309.368C889.333 309.485 888.709 309.955 888.709 310.776C888.709 311.181 888.848 311.491 889.125 311.704C889.402 311.917 889.792 312.024 890.293 312.024ZM897.24 303.032C897.048 303.224 896.813 303.32 896.536 303.32C896.259 303.32 896.024 303.224 895.832 303.032C895.64 302.829 895.544 302.595 895.544 302.328C895.544 302.051 895.64 301.816 895.832 301.624C896.024 301.432 896.259 301.336 896.536 301.336C896.813 301.336 897.048 301.432 897.24 301.624C897.432 301.816 897.528 302.051 897.528 302.328C897.528 302.595 897.432 302.829 897.24 303.032ZM895.8 313V305.176H897.304V313H895.8ZM900.703 313H899.199V301.224H900.703V313ZM908.94 313.192C908.108 313.192 907.452 312.979 906.972 312.552C906.503 312.115 906.268 311.539 906.268 310.824C906.268 310.109 906.519 309.539 907.02 309.112C907.532 308.675 908.252 308.419 909.18 308.344L911.644 308.152V307.928C911.644 306.744 911.031 306.152 909.804 306.152C909.175 306.152 908.684 306.285 908.332 306.552C907.991 306.819 907.82 307.187 907.82 307.656H906.508C906.508 306.845 906.812 306.195 907.42 305.704C908.039 305.203 908.855 304.952 909.868 304.952C910.871 304.952 911.66 305.219 912.236 305.752C912.823 306.285 913.116 307.064 913.116 308.088V313H911.836L911.676 311.736C911.474 312.184 911.122 312.541 910.62 312.808C910.13 313.064 909.57 313.192 908.94 313.192ZM909.372 312.024C910.087 312.024 910.647 311.811 911.052 311.384C911.458 310.947 911.66 310.36 911.66 309.624V309.208L909.66 309.368C908.412 309.485 907.788 309.955 907.788 310.776C907.788 311.181 907.927 311.491 908.204 311.704C908.482 311.917 908.871 312.024 909.372 312.024ZM918.015 313.192C916.895 313.192 916.005 312.819 915.343 312.072C914.693 311.315 914.367 310.328 914.367 309.112C914.367 307.885 914.698 306.888 915.359 306.12C916.031 305.341 916.938 304.952 918.079 304.952C918.687 304.952 919.226 305.08 919.695 305.336C920.175 305.592 920.549 305.96 920.815 306.44V301.224H922.303V313H920.959L920.831 311.576C920.575 312.099 920.202 312.499 919.711 312.776C919.221 313.053 918.655 313.192 918.015 313.192ZM916.527 311.064C916.965 311.576 917.562 311.832 918.319 311.832C919.077 311.832 919.679 311.576 920.127 311.064C920.575 310.552 920.799 309.885 920.799 309.064C920.799 308.253 920.575 307.592 920.127 307.08C919.679 306.568 919.077 306.312 918.319 306.312C917.562 306.312 916.965 306.568 916.527 307.08C916.101 307.581 915.887 308.243 915.887 309.064C915.887 309.885 916.101 310.552 916.527 311.064ZM927.289 313.192C926.169 313.192 925.278 312.819 924.617 312.072C923.966 311.315 923.641 310.328 923.641 309.112C923.641 307.885 923.972 306.888 924.633 306.12C925.305 305.341 926.212 304.952 927.353 304.952C927.961 304.952 928.5 305.08 928.969 305.336C929.449 305.592 929.822 305.96 930.089 306.44V301.224H931.577V313H930.233L930.105 311.576C929.849 312.099 929.476 312.499 928.985 312.776C928.494 313.053 927.929 313.192 927.289 313.192ZM925.801 311.064C926.238 311.576 926.836 311.832 927.593 311.832C928.35 311.832 928.953 311.576 929.401 311.064C929.849 310.552 930.073 309.885 930.073 309.064C930.073 308.253 929.849 307.592 929.401 307.08C928.953 306.568 928.35 306.312 927.593 306.312C926.836 306.312 926.238 306.568 925.801 307.08C925.374 307.581 925.161 308.243 925.161 309.064C925.161 309.885 925.374 310.552 925.801 311.064ZM937.907 305.112V306.488H937.235C936.52 306.488 935.955 306.696 935.539 307.112C935.133 307.528 934.931 308.109 934.931 308.856V313H933.427V305.192H934.835L934.931 306.376C935.091 305.96 935.363 305.629 935.747 305.384C936.131 305.139 936.584 305.016 937.107 305.016C937.341 305.016 937.608 305.048 937.907 305.112ZM942.092 313.192C940.94 313.192 940.001 312.813 939.276 312.056C938.561 311.299 938.204 310.312 938.204 309.096C938.204 307.869 938.556 306.872 939.26 306.104C939.975 305.336 940.897 304.952 942.028 304.952C943.137 304.952 944.028 305.304 944.7 306.008C945.372 306.712 945.708 307.645 945.708 308.808V309.368L939.66 309.384C939.713 310.205 939.948 310.84 940.364 311.288C940.791 311.725 941.377 311.944 942.124 311.944C943.319 311.944 944.049 311.485 944.316 310.568H945.724C945.532 311.411 945.121 312.061 944.492 312.52C943.863 312.968 943.063 313.192 942.092 313.192ZM942.028 306.216C941.377 306.216 940.849 306.403 940.444 306.776C940.039 307.149 939.788 307.683 939.692 308.376H944.204C944.204 307.725 944.007 307.203 943.612 306.808C943.217 306.413 942.689 306.216 942.028 306.216ZM946.428 310.728H947.868C947.868 311.123 948.007 311.437 948.284 311.672C948.572 311.896 948.967 312.008 949.468 312.008C949.991 312.008 950.396 311.907 950.684 311.704C950.983 311.501 951.132 311.219 951.132 310.856C951.132 310.579 951.052 310.36 950.892 310.2C950.732 310.029 950.455 309.896 950.06 309.8L948.684 309.48C947.319 309.149 946.636 308.424 946.636 307.304C946.636 306.589 946.908 306.019 947.452 305.592C947.996 305.165 948.705 304.952 949.58 304.952C950.433 304.952 951.116 305.176 951.628 305.624C952.151 306.061 952.423 306.653 952.444 307.4H951.004C950.983 307.005 950.844 306.696 950.588 306.472C950.332 306.237 949.98 306.12 949.532 306.12C949.063 306.12 948.7 306.221 948.444 306.424C948.188 306.616 948.06 306.893 948.06 307.256C948.06 307.779 948.444 308.136 949.212 308.328L950.588 308.664C951.271 308.824 951.772 309.069 952.092 309.4C952.412 309.731 952.572 310.184 952.572 310.76C952.572 311.496 952.284 312.088 951.708 312.536C951.132 312.973 950.375 313.192 949.436 313.192C948.519 313.192 947.788 312.968 947.244 312.52C946.7 312.072 946.428 311.475 946.428 310.728ZM953.28 310.728H954.72C954.72 311.123 954.859 311.437 955.136 311.672C955.424 311.896 955.819 312.008 956.32 312.008C956.843 312.008 957.248 311.907 957.536 311.704C957.835 311.501 957.984 311.219 957.984 310.856C957.984 310.579 957.904 310.36 957.744 310.2C957.584 310.029 957.307 309.896 956.912 309.8L955.536 309.48C954.171 309.149 953.488 308.424 953.488 307.304C953.488 306.589 953.76 306.019 954.304 305.592C954.848 305.165 955.557 304.952 956.432 304.952C957.285 304.952 957.968 305.176 958.48 305.624C959.003 306.061 959.275 306.653 959.296 307.4H957.856C957.835 307.005 957.696 306.696 957.44 306.472C957.184 306.237 956.832 306.12 956.384 306.12C955.915 306.12 955.552 306.221 955.296 306.424C955.04 306.616 954.912 306.893 954.912 307.256C954.912 307.779 955.296 308.136 956.064 308.328L957.44 308.664C958.123 308.824 958.624 309.069 958.944 309.4C959.264 309.731 959.424 310.184 959.424 310.76C959.424 311.496 959.136 312.088 958.56 312.536C957.984 312.973 957.227 313.192 956.288 313.192C955.371 313.192 954.64 312.968 954.096 312.52C953.552 312.072 953.28 311.475 953.28 310.728Z" fill="#343A40"/>
<path d="M1073.33 311C1073.33 311.733 1072.73 312.333 1072 312.333C1071.27 312.333 1070.67 311.733 1070.67 311C1070.67 310.267 1071.27 309.667 1072 309.667C1072.73 309.667 1073.33 310.267 1073.33 311ZM1072 305.667C1071.27 305.667 1070.67 306.267 1070.67 307C1070.67 307.733 1071.27 308.333 1072 308.333C1072.73 308.333 1073.33 307.733 1073.33 307C1073.33 306.267 1072.73 305.667 1072 305.667ZM1072 301.667C1071.27 301.667 1070.67 302.267 1070.67 303C1070.67 303.733 1071.27 304.333 1072 304.333C1072.73 304.333 1073.33 303.733 1073.33 303C1073.33 302.267 1072.73 301.667 1072 301.667ZM1076 304.333C1076.73 304.333 1077.33 303.733 1077.33 303C1077.33 302.267 1076.73 301.667 1076 301.667C1075.27 301.667 1074.67 302.267 1074.67 303C1074.67 303.733 1075.27 304.333 1076 304.333ZM1076 305.667C1075.27 305.667 1074.67 306.267 1074.67 307C1074.67 307.733 1075.27 308.333 1076 308.333C1076.73 308.333 1077.33 307.733 1077.33 307C1077.33 306.267 1076.73 305.667 1076 305.667ZM1076 309.667C1075.27 309.667 1074.67 310.267 1074.67 311C1074.67 311.733 1075.27 312.333 1076 312.333C1076.73 312.333 1077.33 311.733 1077.33 311C1077.33 310.267 1076.73 309.667 1076 309.667Z" fill="#ADB5BD"/>
<rect x="816.25" y="183.25" width="281.5" height="191.5" rx="7.75" stroke="#E9ECEF" stroke-width="0.5"/>
<rect x="102.25" y="239.25" width="281.5" height="71.5" rx="7.75" fill="white"/>
<rect x="118" y="255" width="40" height="40" rx="8" fill="#EDEFFC"/>
<path d="M145 266H131C129.9 266 129 266.9 129 268V282C129 283.1 129.9 284 131 284H145C146.1 284 147 283.1 147 282V268C147 266.9 146.1 266 145 266ZM145 268V277H141.44C141.08 277 140.76 277.19 140.58 277.5C140.06 278.4 139.11 279 138 279C136.89 279 135.94 278.4 135.42 277.5C135.24 277.19 134.91 277 134.56 277H131V268H145Z" fill="#6173E5"/>
<path d="M178.608 268.132C177.368 268.132 176.372 267.724 175.62 266.908C174.868 266.092 174.492 265.012 174.492 263.668C174.492 262.332 174.876 261.252 175.644 260.428C176.42 259.596 177.428 259.18 178.668 259.18C179.644 259.18 180.476 259.448 181.164 259.984C181.86 260.52 182.288 261.232 182.448 262.12H181.188C181.028 261.56 180.72 261.12 180.264 260.8C179.808 260.472 179.264 260.308 178.632 260.308C177.752 260.308 177.048 260.612 176.52 261.22C175.992 261.828 175.728 262.64 175.728 263.656C175.728 264.672 175.992 265.484 176.52 266.092C177.048 266.7 177.752 267.004 178.632 267.004C179.264 267.004 179.816 266.848 180.288 266.536C180.76 266.216 181.076 265.788 181.236 265.252H182.484C182.3 266.116 181.852 266.812 181.14 267.34C180.428 267.868 179.584 268.132 178.608 268.132ZM185.333 268.144C184.709 268.144 184.217 267.984 183.857 267.664C183.505 267.336 183.329 266.904 183.329 266.368C183.329 265.832 183.517 265.404 183.893 265.084C184.277 264.756 184.817 264.564 185.513 264.508L187.361 264.364V264.196C187.361 263.308 186.901 262.864 185.981 262.864C185.509 262.864 185.141 262.964 184.877 263.164C184.621 263.364 184.493 263.64 184.493 263.992H183.509C183.509 263.384 183.737 262.896 184.193 262.528C184.657 262.152 185.269 261.964 186.029 261.964C186.781 261.964 187.373 262.164 187.805 262.564C188.245 262.964 188.465 263.548 188.465 264.316V268H187.505L187.385 267.052C187.233 267.388 186.969 267.656 186.593 267.856C186.225 268.048 185.805 268.144 185.333 268.144ZM185.657 267.268C186.193 267.268 186.613 267.108 186.917 266.788C187.221 266.46 187.373 266.02 187.373 265.468V265.156L185.873 265.276C184.937 265.364 184.469 265.716 184.469 266.332C184.469 266.636 184.573 266.868 184.781 267.028C184.989 267.188 185.281 267.268 185.657 267.268ZM190.027 270.628V262.132H191.047L191.131 263.188C191.323 262.796 191.607 262.496 191.983 262.288C192.359 262.072 192.783 261.964 193.255 261.964C194.087 261.964 194.747 262.248 195.235 262.816C195.731 263.376 195.979 264.112 195.979 265.024C195.979 265.944 195.735 266.696 195.247 267.28C194.767 267.864 194.103 268.156 193.255 268.156C192.783 268.156 192.363 268.06 191.995 267.868C191.627 267.676 191.347 267.4 191.155 267.04V270.628H190.027ZM191.167 265.072C191.167 265.68 191.331 266.176 191.659 266.56C191.995 266.944 192.447 267.136 193.015 267.136C193.583 267.136 194.031 266.944 194.359 266.56C194.687 266.176 194.851 265.68 194.851 265.072C194.851 264.456 194.687 263.956 194.359 263.572C194.031 263.188 193.583 262.996 193.015 262.996C192.447 262.996 191.995 263.188 191.659 263.572C191.331 263.948 191.167 264.448 191.167 265.072ZM198.82 268H197.692V263.08H196.54V262.132H197.692V260.296H198.82V262.132H199.972V263.08H198.82V268ZM202.064 260.524C201.92 260.668 201.744 260.74 201.536 260.74C201.328 260.74 201.152 260.668 201.008 260.524C200.864 260.372 200.792 260.196 200.792 259.996C200.792 259.788 200.864 259.612 201.008 259.468C201.152 259.324 201.328 259.252 201.536 259.252C201.744 259.252 201.92 259.324 202.064 259.468C202.208 259.612 202.28 259.788 202.28 259.996C202.28 260.196 202.208 260.372 202.064 260.524ZM200.984 268V262.132H202.112V268H200.984ZM204.23 267.28C203.654 266.704 203.366 265.964 203.366 265.06C203.366 264.156 203.654 263.416 204.23 262.84C204.806 262.264 205.538 261.976 206.426 261.976C207.306 261.976 208.034 262.264 208.61 262.84C209.186 263.416 209.474 264.156 209.474 265.06C209.474 265.964 209.186 266.704 208.61 267.28C208.034 267.856 207.306 268.144 206.426 268.144C205.538 268.144 204.806 267.856 204.23 267.28ZM205.034 263.56C204.682 263.944 204.506 264.444 204.506 265.06C204.506 265.676 204.682 266.176 205.034 266.56C205.394 266.944 205.858 267.136 206.426 267.136C206.994 267.136 207.454 266.944 207.806 266.56C208.166 266.168 208.346 265.668 208.346 265.06C208.346 264.452 208.166 263.956 207.806 263.572C207.454 263.18 206.994 262.984 206.426 262.984C205.858 262.984 205.394 263.176 205.034 263.56ZM211.85 268H210.722V262.132H211.742L211.862 263.032C212.046 262.696 212.31 262.436 212.654 262.252C213.006 262.06 213.39 261.964 213.806 261.964C214.558 261.964 215.122 262.18 215.498 262.612C215.874 263.036 216.062 263.636 216.062 264.412V268H214.934V264.664C214.934 263.552 214.462 262.996 213.518 262.996C212.998 262.996 212.59 263.168 212.294 263.512C211.998 263.856 211.85 264.316 211.85 264.892V268Z" fill="#6C757D"/>
<path d="M180.66 285.464C183.288 285.464 185.016 283.682 185.016 281.144C185.016 278.57 183.306 276.842 180.66 276.842H175.458V290H177.762V285.464H180.66ZM180.21 278.894C181.74 278.894 182.604 279.686 182.604 281.126C182.604 282.566 181.758 283.412 180.174 283.412H177.762V278.894H180.21ZM188.565 290.234C189.951 290.234 191.157 289.604 191.535 288.686L191.697 290H193.623V284.6C193.623 282.134 192.147 280.838 189.753 280.838C187.341 280.838 185.757 282.098 185.757 284.024H187.629C187.629 283.088 188.349 282.548 189.645 282.548C190.761 282.548 191.481 283.034 191.481 284.24V284.438L188.817 284.636C186.711 284.798 185.523 285.824 185.523 287.462C185.523 289.136 186.675 290.234 188.565 290.234ZM189.285 288.578C188.295 288.578 187.755 288.182 187.755 287.372C187.755 286.652 188.277 286.202 189.645 286.076L191.499 285.932V286.4C191.499 287.768 190.635 288.578 189.285 288.578ZM201 281.072C200.64 280.982 200.334 280.946 200.028 280.946C198.84 280.946 197.994 281.54 197.616 282.422L197.49 281.126H195.42V290H197.616V285.68C197.616 283.952 198.606 283.106 200.19 283.106H201V281.072ZM204.421 290.234C205.807 290.234 207.013 289.604 207.391 288.686L207.553 290H209.479V284.6C209.479 282.134 208.003 280.838 205.609 280.838C203.197 280.838 201.613 282.098 201.613 284.024H203.485C203.485 283.088 204.205 282.548 205.501 282.548C206.617 282.548 207.337 283.034 207.337 284.24V284.438L204.673 284.636C202.567 284.798 201.379 285.824 201.379 287.462C201.379 289.136 202.531 290.234 204.421 290.234ZM205.141 288.578C204.151 288.578 203.611 288.182 203.611 287.372C203.611 286.652 204.133 286.202 205.501 286.076L207.355 285.932V286.4C207.355 287.768 206.491 288.578 205.141 288.578ZM210.772 285.356C210.772 287.93 212.428 289.82 214.948 289.82C216.226 289.82 217.324 289.298 217.882 288.47V289.946C217.882 291.422 216.91 292.376 215.398 292.376C214.048 292.376 213.166 291.692 213.022 290.54H210.826C211.096 292.916 212.842 294.374 215.398 294.374C218.278 294.374 220.06 292.52 220.06 289.55V281.108H218.026L217.9 282.332C217.378 281.378 216.334 280.82 215.002 280.82C212.464 280.82 210.772 282.764 210.772 285.356ZM212.986 285.302C212.986 283.844 213.922 282.746 215.38 282.746C216.91 282.746 217.828 283.79 217.828 285.302C217.828 286.85 216.892 287.912 215.38 287.912C213.94 287.912 212.986 286.796 212.986 285.302ZM227.553 281.072C227.193 280.982 226.887 280.946 226.581 280.946C225.393 280.946 224.547 281.54 224.169 282.422L224.043 281.126H221.973V290H224.169V285.68C224.169 283.952 225.159 283.106 226.743 283.106H227.553V281.072ZM230.974 290.234C232.36 290.234 233.566 289.604 233.944 288.686L234.106 290H236.032V284.6C236.032 282.134 234.556 280.838 232.162 280.838C229.75 280.838 228.166 282.098 228.166 284.024H230.038C230.038 283.088 230.758 282.548 232.054 282.548C233.17 282.548 233.89 283.034 233.89 284.24V284.438L231.226 284.636C229.12 284.798 227.932 285.824 227.932 287.462C227.932 289.136 229.084 290.234 230.974 290.234ZM231.694 288.578C230.704 288.578 230.164 288.182 230.164 287.372C230.164 286.652 230.686 286.202 232.054 286.076L233.908 285.932V286.4C233.908 287.768 233.044 288.578 231.694 288.578ZM237.829 294.122H240.025V288.812C240.583 289.712 241.735 290.234 243.067 290.234C245.713 290.234 247.225 288.218 247.225 285.446C247.225 282.656 245.569 280.838 243.067 280.838C241.717 280.838 240.547 281.432 240.007 282.458L239.863 281.108H237.829V294.122ZM240.043 285.554C240.043 283.952 241.033 282.836 242.545 282.836C244.093 282.836 245.011 283.97 245.011 285.554C245.011 287.138 244.093 288.254 242.545 288.254C241.033 288.254 240.043 287.156 240.043 285.554ZM250.809 290V285.14C250.809 283.808 251.619 282.836 253.005 282.836C254.121 282.836 254.859 283.556 254.859 285.05V290H257.055V284.528C257.055 282.224 255.903 280.838 253.707 280.838C252.429 280.838 251.385 281.396 250.827 282.26V276.608H248.613V290H250.809ZM265.541 290V285.14C265.541 283.808 266.351 282.836 267.737 282.836C268.853 282.836 269.591 283.556 269.591 285.05V290H271.787V284.528C271.787 282.224 270.635 280.838 268.439 280.838C267.161 280.838 266.117 281.396 265.559 282.26V276.608H263.345V290H265.541ZM277.562 290.234C279.884 290.234 281.504 289.064 281.882 287.12H279.848C279.596 287.966 278.804 288.434 277.598 288.434C276.14 288.434 275.312 287.642 275.15 286.076L281.846 286.058V285.392C281.846 282.62 280.154 280.838 277.49 280.838C274.88 280.838 273.062 282.764 273.062 285.554C273.062 288.308 274.916 290.234 277.562 290.234ZM277.508 282.638C278.822 282.638 279.668 283.448 279.668 284.672H275.204C275.42 283.34 276.212 282.638 277.508 282.638ZM288.824 281.072C288.464 280.982 288.158 280.946 287.852 280.946C286.664 280.946 285.818 281.54 285.44 282.422L285.314 281.126H283.244V290H285.44V285.68C285.44 283.952 286.43 283.106 288.014 283.106H288.824V281.072ZM293.629 290.234C295.951 290.234 297.571 289.064 297.949 287.12H295.915C295.663 287.966 294.871 288.434 293.665 288.434C292.207 288.434 291.379 287.642 291.217 286.076L297.913 286.058V285.392C297.913 282.62 296.221 280.838 293.557 280.838C290.947 280.838 289.129 282.764 289.129 285.554C289.129 288.308 290.983 290.234 293.629 290.234ZM293.575 282.638C294.889 282.638 295.735 283.448 295.735 284.672H291.271C291.487 283.34 292.279 282.638 293.575 282.638Z" fill="black"/>
<rect x="102.25" y="239.25" width="281.5" height="71.5" rx="7.75" stroke="#E9ECEF" stroke-width="0.5"/>
<rect x="408.25" y="119.25" width="383.5" height="151.5" rx="7.75" fill="white"/>
<rect x="424" y="135" width="120" height="120" rx="8" fill="#F8F9FA"/>
<path d="M496 204.333V185.667C496 184.2 494.8 183 493.333 183H474.667C473.2 183 472 184.2 472 185.667V204.333C472 205.8 473.2 207 474.667 207H493.333C494.8 207 496 205.8 496 204.333ZM479.867 197.64L482.667 201.013L486.8 195.693C487.067 195.347 487.6 195.347 487.867 195.707L492.547 201.947C492.88 202.387 492.56 203.013 492.013 203.013H476.027C475.467 203.013 475.16 202.373 475.507 201.933L478.827 197.667C479.08 197.32 479.587 197.307 479.867 197.64Z" fill="#CED4DA"/>
<rect x="568" y="147" width="40" height="40" rx="20" fill="#F2F8F5"/>
<path d="M588 167C590.21 167 592 165.21 592 163C592 160.79 590.21 159 588 159C585.79 159 584 160.79 584 163C584 165.21 585.79 167 588 167ZM588 169C585.33 169 580 170.34 580 173V174C580 174.55 580.45 175 581 175H595C595.55 175 596 174.55 596 174V173C596 170.34 590.67 169 588 169Z" fill="#86C1A1"/>
<path d="M716.097 163.702L717.057 164.662L713.804 167.916L711.611 165.722C711.351 165.462 710.931 165.462 710.671 165.722L706.671 169.729C706.411 169.989 706.411 170.409 706.671 170.669C706.931 170.929 707.351 170.929 707.611 170.669L711.137 167.136L713.331 169.329C713.591 169.589 714.011 169.589 714.271 169.329L717.997 165.609L718.957 166.569C719.164 166.776 719.524 166.629 719.524 166.336V163.469C719.531 163.282 719.384 163.136 719.197 163.136H716.337C716.037 163.136 715.891 163.496 716.097 163.702Z" fill="#86C1A1"/>
<path d="M725.96 167.344V168.568H728.348V170.968H729.572V168.568H731.96V167.344H729.572V164.956H728.348V167.344H725.96Z" fill="#86C1A1"/>
<path d="M739.558 171.988V170.56H735.91L737.494 169.204C738.826 168.064 739.498 167.14 739.498 165.916C739.498 164.14 738.334 163.072 736.462 163.072C734.602 163.072 733.378 164.32 733.366 166.24H734.89C734.902 165.112 735.502 164.44 736.462 164.44C737.386 164.44 737.926 165.004 737.926 166C737.926 166.84 737.53 167.416 736.342 168.424L733.474 170.848V172L739.558 171.988ZM747.167 170.332V168.988H746.099V163.228H744.167L740.195 168.988V170.332H744.647V172H746.099V170.332H747.167ZM741.827 168.988L744.647 164.884V168.988H741.827ZM752.609 165.364C752.609 164.02 751.649 163.06 750.317 163.06C748.985 163.06 748.025 164.02 748.025 165.364C748.025 166.72 748.985 167.668 750.317 167.668C751.649 167.668 752.609 166.72 752.609 165.364ZM757.421 163.24H755.957L749.297 172H750.761L757.421 163.24ZM751.445 165.364C751.445 166.06 750.989 166.54 750.317 166.54C749.657 166.54 749.201 166.06 749.201 165.364C749.201 164.668 749.645 164.188 750.317 164.188C750.989 164.188 751.445 164.668 751.445 165.364ZM758.705 169.852C758.705 168.508 757.757 167.548 756.425 167.548C755.081 167.548 754.133 168.508 754.133 169.852C754.133 171.196 755.081 172.156 756.425 172.156C757.757 172.156 758.705 171.196 758.705 169.852ZM757.541 169.852C757.541 170.548 757.085 171.028 756.425 171.028C755.753 171.028 755.297 170.548 755.297 169.852C755.297 169.156 755.753 168.676 756.425 168.676C757.085 168.676 757.541 169.156 757.541 169.852Z" fill="black"/>
<rect x="697.25" y="155.25" width="70.5" height="23.5" rx="11.75" stroke="#BCDCCB" stroke-width="0.5"/>
<path d="M575.02 222.216C578.134 222.216 580.546 220.38 581.05 217.608H578.656C578.224 219.066 576.856 220.002 575.074 220.002C572.662 220.002 571.114 218.202 571.114 215.412C571.114 212.604 572.644 210.84 575.074 210.84C576.82 210.84 578.134 211.74 578.584 213.27H581.014C580.564 210.444 578.242 208.626 575.128 208.626C571.276 208.626 568.702 211.344 568.702 215.43C568.702 219.552 571.186 222.216 575.02 222.216ZM581.91 217.536C581.91 220.308 583.908 222.216 586.662 222.216C589.416 222.216 591.414 220.308 591.414 217.536C591.414 214.764 589.416 212.856 586.662 212.856C583.908 212.856 581.91 214.764 581.91 217.536ZM584.106 217.536C584.106 215.916 585.15 214.818 586.662 214.818C588.174 214.818 589.218 215.916 589.218 217.536C589.218 219.156 588.174 220.254 586.662 220.254C585.15 220.254 584.106 219.156 584.106 217.536ZM594.991 222V216.96C594.991 215.52 595.837 214.836 596.881 214.836C597.925 214.836 598.591 215.502 598.591 216.744V222H600.787V216.96C600.787 215.502 601.597 214.818 602.659 214.818C603.703 214.818 604.387 215.484 604.387 216.762V222H606.565V216.186C606.565 214.134 605.377 212.838 603.217 212.838C601.867 212.838 600.823 213.504 600.373 214.53C599.905 213.504 598.969 212.838 597.619 212.838C596.341 212.838 595.441 213.414 594.991 214.152L594.811 213.108H592.795V222H594.991ZM608.361 226.122H610.557V220.812C611.115 221.712 612.267 222.234 613.599 222.234C616.245 222.234 617.757 220.218 617.757 217.446C617.757 214.656 616.101 212.838 613.599 212.838C612.249 212.838 611.079 213.432 610.539 214.458L610.395 213.108H608.361V226.122ZM610.575 217.554C610.575 215.952 611.565 214.836 613.077 214.836C614.625 214.836 615.543 215.97 615.543 217.554C615.543 219.138 614.625 220.254 613.077 220.254C611.565 220.254 610.575 219.156 610.575 217.554ZM621.791 222.234C623.177 222.234 624.383 221.604 624.761 220.686L624.923 222H626.849V216.6C626.849 214.134 625.373 212.838 622.979 212.838C620.567 212.838 618.983 214.098 618.983 216.024H620.855C620.855 215.088 621.575 214.548 622.871 214.548C623.987 214.548 624.707 215.034 624.707 216.24V216.438L622.043 216.636C619.937 216.798 618.749 217.824 618.749 219.462C618.749 221.136 619.901 222.234 621.791 222.234ZM622.511 220.578C621.521 220.578 620.981 220.182 620.981 219.372C620.981 218.652 621.503 218.202 622.871 218.076L624.725 217.932V218.4C624.725 219.768 623.861 220.578 622.511 220.578ZM630.843 222V217.212C630.843 215.772 631.671 214.836 633.021 214.836C634.155 214.836 634.893 215.556 634.893 217.05V222H637.089V216.528C637.089 214.224 635.937 212.838 633.705 212.838C632.499 212.838 631.419 213.36 630.861 214.26L630.681 213.108H628.647V222H630.843ZM637.936 226.122C638.422 226.248 638.962 226.32 639.574 226.32C641.032 226.32 641.968 225.636 642.634 223.98L646.99 213.108H644.722L642.31 219.588L640.024 213.108H637.702L641.284 222.378L641.032 223.044C640.654 224.088 640.114 224.286 639.25 224.286H637.936V226.122Z" fill="black"/>
<path d="M568.588 232.608C568.588 231.74 568.905 231.04 569.54 230.508C570.184 229.967 571.029 229.696 572.074 229.696C573.035 229.696 573.81 229.948 574.398 230.452C574.986 230.956 575.308 231.647 575.364 232.524H573.978C573.941 232.02 573.754 231.628 573.418 231.348C573.082 231.068 572.629 230.928 572.06 230.928C571.425 230.928 570.917 231.077 570.534 231.376C570.151 231.675 569.96 232.071 569.96 232.566C569.96 233.359 570.431 233.868 571.374 234.092L573.04 234.484C574.701 234.867 575.532 235.767 575.532 237.186C575.532 238.091 575.205 238.815 574.552 239.356C573.908 239.897 573.045 240.168 571.962 240.168C570.926 240.168 570.091 239.916 569.456 239.412C568.821 238.908 568.485 238.222 568.448 237.354H569.848C569.867 237.839 570.063 238.227 570.436 238.516C570.819 238.796 571.327 238.936 571.962 238.936C572.634 238.936 573.166 238.791 573.558 238.502C573.959 238.203 574.16 237.802 574.16 237.298C574.16 236.495 573.693 235.987 572.76 235.772L571.094 235.394C569.423 235.011 568.588 234.083 568.588 232.608ZM578.068 239.986H576.752V229.696H578.068V234.204C578.292 233.821 578.605 233.518 579.006 233.294C579.407 233.07 579.869 232.958 580.392 232.958C581.251 232.958 581.895 233.21 582.324 233.714C582.763 234.218 582.982 234.918 582.982 235.814V240H581.666V236.108C581.666 234.811 581.12 234.162 580.028 234.162C579.412 234.162 578.931 234.363 578.586 234.764C578.241 235.156 578.068 235.655 578.068 236.262V239.986ZM585.085 239.16C584.413 238.488 584.077 237.625 584.077 236.57C584.077 235.515 584.413 234.652 585.085 233.98C585.757 233.308 586.611 232.972 587.647 232.972C588.673 232.972 589.523 233.308 590.195 233.98C590.867 234.652 591.203 235.515 591.203 236.57C591.203 237.625 590.867 238.488 590.195 239.16C589.523 239.832 588.673 240.168 587.647 240.168C586.611 240.168 585.757 239.832 585.085 239.16ZM586.023 234.82C585.612 235.268 585.407 235.851 585.407 236.57C585.407 237.289 585.612 237.872 586.023 238.32C586.443 238.768 586.984 238.992 587.647 238.992C588.309 238.992 588.846 238.768 589.257 238.32C589.677 237.863 589.887 237.279 589.887 236.57C589.887 235.861 589.677 235.282 589.257 234.834C588.846 234.377 588.309 234.148 587.647 234.148C586.984 234.148 586.443 234.372 586.023 234.82ZM596.3 233.098V234.302H595.712C595.086 234.302 594.592 234.484 594.228 234.848C593.873 235.212 593.696 235.721 593.696 236.374V240H592.38V233.168H593.612L593.696 234.204C593.836 233.84 594.074 233.551 594.41 233.336C594.746 233.121 595.142 233.014 595.6 233.014C595.805 233.014 596.038 233.042 596.3 233.098ZM599.459 240H598.143V234.26H596.799V233.154H598.143V231.012H599.459V233.154H600.803V234.26H599.459V240ZM607.996 240.168C607.016 240.168 606.237 239.841 605.658 239.188C605.089 238.525 604.804 237.662 604.804 236.598C604.804 235.525 605.094 234.652 605.672 233.98C606.26 233.299 607.054 232.958 608.052 232.958C608.584 232.958 609.056 233.07 609.466 233.294C609.886 233.518 610.213 233.84 610.446 234.26V229.696H611.748V240H610.572L610.46 238.754C610.236 239.211 609.91 239.561 609.48 239.804C609.051 240.047 608.556 240.168 607.996 240.168ZM606.694 238.306C607.077 238.754 607.6 238.978 608.262 238.978C608.925 238.978 609.452 238.754 609.844 238.306C610.236 237.858 610.432 237.275 610.432 236.556C610.432 235.847 610.236 235.268 609.844 234.82C609.452 234.372 608.925 234.148 608.262 234.148C607.6 234.148 607.077 234.372 606.694 234.82C606.321 235.259 606.134 235.837 606.134 236.556C606.134 237.275 606.321 237.858 606.694 238.306ZM616.321 240.168C615.313 240.168 614.492 239.837 613.857 239.174C613.232 238.511 612.919 237.648 612.919 236.584C612.919 235.511 613.227 234.638 613.843 233.966C614.468 233.294 615.276 232.958 616.265 232.958C617.236 232.958 618.015 233.266 618.603 233.882C619.191 234.498 619.485 235.315 619.485 236.332V236.822L614.193 236.836C614.24 237.555 614.445 238.11 614.809 238.502C615.182 238.885 615.696 239.076 616.349 239.076C617.394 239.076 618.034 238.675 618.267 237.872H619.499C619.331 238.609 618.972 239.179 618.421 239.58C617.87 239.972 617.17 240.168 616.321 240.168ZM616.265 234.064C615.696 234.064 615.234 234.227 614.879 234.554C614.524 234.881 614.305 235.347 614.221 235.954H618.169C618.169 235.385 617.996 234.927 617.651 234.582C617.306 234.237 616.844 234.064 616.265 234.064ZM620.115 238.012H621.375C621.375 238.357 621.496 238.633 621.739 238.838C621.991 239.034 622.336 239.132 622.775 239.132C623.232 239.132 623.587 239.043 623.839 238.866C624.1 238.689 624.231 238.441 624.231 238.124C624.231 237.881 624.161 237.69 624.021 237.55C623.881 237.401 623.638 237.284 623.293 237.2L622.089 236.92C620.894 236.631 620.297 235.996 620.297 235.016C620.297 234.391 620.535 233.891 621.011 233.518C621.487 233.145 622.108 232.958 622.873 232.958C623.62 232.958 624.217 233.154 624.665 233.546C625.122 233.929 625.36 234.447 625.379 235.1H624.119C624.1 234.755 623.979 234.484 623.755 234.288C623.531 234.083 623.223 233.98 622.831 233.98C622.42 233.98 622.103 234.069 621.879 234.246C621.655 234.414 621.543 234.657 621.543 234.974C621.543 235.431 621.879 235.744 622.551 235.912L623.755 236.206C624.352 236.346 624.791 236.561 625.071 236.85C625.351 237.139 625.491 237.536 625.491 238.04C625.491 238.684 625.239 239.202 624.735 239.594C624.231 239.977 623.568 240.168 622.747 240.168C621.944 240.168 621.305 239.972 620.829 239.58C620.353 239.188 620.115 238.665 620.115 238.012ZM626.222 236.584C626.222 235.511 626.53 234.638 627.146 233.966C627.772 233.294 628.584 232.958 629.582 232.958C630.441 232.958 631.15 233.187 631.71 233.644C632.28 234.092 632.625 234.699 632.746 235.464H631.43C631.318 235.035 631.099 234.708 630.772 234.484C630.455 234.251 630.072 234.134 629.624 234.134C628.999 234.134 628.49 234.358 628.098 234.806C627.716 235.245 627.524 235.833 627.524 236.57C627.524 237.307 627.706 237.895 628.07 238.334C628.444 238.773 628.943 238.992 629.568 238.992C630.035 238.992 630.432 238.88 630.758 238.656C631.094 238.423 631.323 238.101 631.444 237.69H632.76C632.63 238.437 632.27 239.039 631.682 239.496C631.094 239.944 630.39 240.168 629.568 240.168C628.56 240.168 627.748 239.841 627.132 239.188C626.526 238.535 626.222 237.667 626.222 236.584ZM637.789 233.098V234.302H637.201C636.575 234.302 636.081 234.484 635.717 234.848C635.362 235.212 635.185 235.721 635.185 236.374V240H633.869V233.168H635.101L635.185 234.204C635.325 233.84 635.563 233.551 635.899 233.336C636.235 233.121 636.631 233.014 637.089 233.014C637.294 233.014 637.527 233.042 637.789 233.098ZM640.003 231.278C639.835 231.446 639.63 231.53 639.387 231.53C639.144 231.53 638.939 231.446 638.771 231.278C638.603 231.101 638.519 230.895 638.519 230.662C638.519 230.419 638.603 230.214 638.771 230.046C638.939 229.878 639.144 229.794 639.387 229.794C639.63 229.794 639.835 229.878 640.003 230.046C640.171 230.214 640.255 230.419 640.255 230.662C640.255 230.895 640.171 231.101 640.003 231.278ZM638.743 240V233.154H640.059V240H638.743ZM641.69 243.066V233.154H642.88L642.978 234.386C643.202 233.929 643.533 233.579 643.972 233.336C644.41 233.084 644.905 232.958 645.456 232.958C646.426 232.958 647.196 233.289 647.766 233.952C648.344 234.605 648.634 235.464 648.634 236.528C648.634 237.601 648.349 238.479 647.78 239.16C647.22 239.841 646.445 240.182 645.456 240.182C644.905 240.182 644.415 240.07 643.986 239.846C643.556 239.622 643.23 239.3 643.006 238.88V243.066H641.69ZM643.02 236.584C643.02 237.293 643.211 237.872 643.594 238.32C643.986 238.768 644.513 238.992 645.176 238.992C645.838 238.992 646.361 238.768 646.744 238.32C647.126 237.872 647.318 237.293 647.318 236.584C647.318 235.865 647.126 235.282 646.744 234.834C646.361 234.386 645.838 234.162 645.176 234.162C644.513 234.162 643.986 234.386 643.594 234.834C643.211 235.273 643.02 235.856 643.02 236.584ZM651.668 240H650.352V234.26H649.008V233.154H650.352V231.012H651.668V233.154H653.012V234.26H651.668V240ZM655.173 231.278C655.005 231.446 654.8 231.53 654.557 231.53C654.314 231.53 654.109 231.446 653.941 231.278C653.773 231.101 653.689 230.895 653.689 230.662C653.689 230.419 653.773 230.214 653.941 230.046C654.109 229.878 654.314 229.794 654.557 229.794C654.8 229.794 655.005 229.878 655.173 230.046C655.341 230.214 655.425 230.419 655.425 230.662C655.425 230.895 655.341 231.101 655.173 231.278ZM653.913 240V233.154H655.229V240H653.913ZM657.419 239.16C656.747 238.488 656.411 237.625 656.411 236.57C656.411 235.515 656.747 234.652 657.419 233.98C658.091 233.308 658.945 232.972 659.981 232.972C661.008 232.972 661.857 233.308 662.529 233.98C663.201 234.652 663.537 235.515 663.537 236.57C663.537 237.625 663.201 238.488 662.529 239.16C661.857 239.832 661.008 240.168 659.981 240.168C658.945 240.168 658.091 239.832 657.419 239.16ZM658.357 234.82C657.947 235.268 657.741 235.851 657.741 236.57C657.741 237.289 657.947 237.872 658.357 238.32C658.777 238.768 659.319 238.992 659.981 238.992C660.644 238.992 661.181 238.768 661.591 238.32C662.011 237.863 662.221 237.279 662.221 236.57C662.221 235.861 662.011 235.282 661.591 234.834C661.181 234.377 660.644 234.148 659.981 234.148C659.319 234.148 658.777 234.372 658.357 234.82ZM666.03 240H664.714V233.154H665.904L666.044 234.204C666.259 233.812 666.567 233.509 666.968 233.294C667.379 233.07 667.827 232.958 668.312 232.958C669.19 232.958 669.848 233.21 670.286 233.714C670.725 234.209 670.944 234.909 670.944 235.814V240H669.628V236.108C669.628 234.811 669.078 234.162 667.976 234.162C667.37 234.162 666.894 234.363 666.548 234.764C666.203 235.165 666.03 235.702 666.03 236.374V240ZM677.351 239.986H676.035V229.696H677.351V234.204C677.575 233.821 677.888 233.518 678.289 233.294C678.69 233.07 679.152 232.958 679.675 232.958C680.534 232.958 681.178 233.21 681.607 233.714C682.046 234.218 682.265 234.918 682.265 235.814V240H680.949V236.108C680.949 234.811 680.403 234.162 679.311 234.162C678.695 234.162 678.214 234.363 677.869 234.764C677.524 235.156 677.351 235.655 677.351 236.262V239.986ZM686.762 240.168C685.754 240.168 684.932 239.837 684.298 239.174C683.672 238.511 683.36 237.648 683.36 236.584C683.36 235.511 683.668 234.638 684.284 233.966C684.909 233.294 685.716 232.958 686.706 232.958C687.676 232.958 688.456 233.266 689.044 233.882C689.632 234.498 689.926 235.315 689.926 236.332V236.822L684.634 236.836C684.68 237.555 684.886 238.11 685.25 238.502C685.623 238.885 686.136 239.076 686.79 239.076C687.835 239.076 688.474 238.675 688.708 237.872H689.94C689.772 238.609 689.412 239.179 688.862 239.58C688.311 239.972 687.611 240.168 686.762 240.168ZM686.706 234.064C686.136 234.064 685.674 234.227 685.32 234.554C684.965 234.881 684.746 235.347 684.662 235.954H688.61C688.61 235.385 688.437 234.927 688.092 234.582C687.746 234.237 687.284 234.064 686.706 234.064ZM695.036 233.098V234.302H694.448C693.822 234.302 693.328 234.484 692.964 234.848C692.609 235.212 692.432 235.721 692.432 236.374V240H691.116V233.168H692.348L692.432 234.204C692.572 233.84 692.81 233.551 693.146 233.336C693.482 233.121 693.878 233.014 694.336 233.014C694.541 233.014 694.774 233.042 695.036 233.098ZM698.698 240.168C697.69 240.168 696.869 239.837 696.234 239.174C695.609 238.511 695.296 237.648 695.296 236.584C695.296 235.511 695.604 234.638 696.22 233.966C696.845 233.294 697.653 232.958 698.642 232.958C699.613 232.958 700.392 233.266 700.98 233.882C701.568 234.498 701.862 235.315 701.862 236.332V236.822L696.57 236.836C696.617 237.555 696.822 238.11 697.186 238.502C697.559 238.885 698.073 239.076 698.726 239.076C699.771 239.076 700.411 238.675 700.644 237.872H701.876C701.708 238.609 701.349 239.179 700.798 239.58C700.247 239.972 699.547 240.168 698.698 240.168ZM698.642 234.064C698.073 234.064 697.611 234.227 697.256 234.554C696.901 234.881 696.682 235.347 696.598 235.954H700.546C700.546 235.385 700.373 234.927 700.028 234.582C699.683 234.237 699.221 234.064 698.642 234.064Z" fill="#6C757D"/>
<rect x="408.25" y="119.25" width="383.5" height="151.5" rx="7.75" stroke="#E9ECEF" stroke-width="0.5"/>
<rect x="0.25" y="151.25" width="281.5" height="71.5" rx="7.75" fill="white"/>
<rect x="16" y="167" width="40" height="40" rx="20" fill="#FCF3ED"/>
<path d="M36 187C38.21 187 40 185.21 40 183C40 180.79 38.21 179 36 179C33.79 179 32 180.79 32 183C32 185.21 33.79 187 36 187ZM36 189C33.33 189 28 190.34 28 193V194C28 194.55 28.45 195 29 195H43C43.55 195 44 194.55 44 194V193C44 190.34 38.67 189 36 189Z" fill="#E59661"/>
<path d="M69.458 186H74.786C77.504 186 79.07 184.686 79.07 182.436C79.07 180.906 78.368 179.862 76.982 179.412C78.224 178.89 78.872 177.846 78.872 176.388C78.872 174.192 77.288 172.842 74.696 172.842H69.458V186ZM74.498 174.876C75.794 174.876 76.514 175.488 76.514 176.622C76.514 177.792 75.812 178.458 74.552 178.458H71.762V174.876H74.498ZM74.696 180.402C75.974 180.402 76.712 181.032 76.712 182.148C76.712 183.336 75.992 183.966 74.696 183.966H71.762V180.402H74.696ZM84.4766 186.234C86.7986 186.234 88.4186 185.064 88.7966 183.12H86.7626C86.5106 183.966 85.7186 184.434 84.5126 184.434C83.0546 184.434 82.2266 183.642 82.0646 182.076L88.7606 182.058V181.392C88.7606 178.62 87.0686 176.838 84.4046 176.838C81.7946 176.838 79.9766 178.764 79.9766 181.554C79.9766 184.308 81.8306 186.234 84.4766 186.234ZM84.4226 178.638C85.7366 178.638 86.5826 179.448 86.5826 180.672H82.1186C82.3346 179.34 83.1266 178.638 84.4226 178.638ZM92.3721 186V172.608H90.1941V186H92.3721ZM95.4137 175.326C96.1337 175.326 96.7277 174.732 96.7277 173.994C96.7277 173.256 96.1337 172.68 95.4137 172.68C94.6577 172.68 94.0637 173.256 94.0637 173.994C94.0637 174.732 94.6577 175.326 95.4137 175.326ZM94.3157 186H96.5117V177.108H94.3157V186ZM100.617 186V181.212C100.617 179.772 101.445 178.836 102.795 178.836C103.929 178.836 104.667 179.556 104.667 181.05V186H106.863V180.528C106.863 178.224 105.711 176.838 103.479 176.838C102.273 176.838 101.193 177.36 100.635 178.26L100.455 177.108H98.4206V186H100.617ZM112.314 186.234C113.664 186.234 114.816 185.64 115.356 184.614L115.5 186H117.516V172.608H115.338V178.242C114.78 177.36 113.682 176.838 112.44 176.838C109.758 176.838 108.138 178.818 108.138 181.59C108.138 184.344 109.74 186.234 112.314 186.234ZM112.8 184.218C111.27 184.218 110.334 183.102 110.334 181.518C110.334 179.934 111.27 178.8 112.8 178.8C114.33 178.8 115.32 179.916 115.32 181.518C115.32 183.12 114.33 184.218 112.8 184.218ZM122.091 186.234C123.477 186.234 124.683 185.604 125.061 184.686L125.223 186H127.149V180.6C127.149 178.134 125.673 176.838 123.279 176.838C120.867 176.838 119.283 178.098 119.283 180.024H121.155C121.155 179.088 121.875 178.548 123.171 178.548C124.287 178.548 125.007 179.034 125.007 180.24V180.438L122.343 180.636C120.237 180.798 119.049 181.824 119.049 183.462C119.049 185.136 120.201 186.234 122.091 186.234ZM122.811 184.578C121.821 184.578 121.281 184.182 121.281 183.372C121.281 182.652 121.803 182.202 123.171 182.076L125.025 181.932V182.4C125.025 183.768 124.161 184.578 122.811 184.578Z" fill="black"/>
<path d="M72.608 204.132C71.368 204.132 70.372 203.724 69.62 202.908C68.868 202.092 68.492 201.012 68.492 199.668C68.492 198.332 68.876 197.252 69.644 196.428C70.42 195.596 71.428 195.18 72.668 195.18C73.644 195.18 74.476 195.448 75.164 195.984C75.86 196.52 76.288 197.232 76.448 198.12H75.188C75.028 197.56 74.72 197.12 74.264 196.8C73.808 196.472 73.264 196.308 72.632 196.308C71.752 196.308 71.048 196.612 70.52 197.22C69.992 197.828 69.728 198.64 69.728 199.656C69.728 200.672 69.992 201.484 70.52 202.092C71.048 202.7 71.752 203.004 72.632 203.004C73.264 203.004 73.816 202.848 74.288 202.536C74.76 202.216 75.076 201.788 75.236 201.252H76.484C76.3 202.116 75.852 202.812 75.14 203.34C74.428 203.868 73.584 204.132 72.608 204.132ZM78.214 203.28C77.638 202.704 77.35 201.964 77.35 201.06C77.35 200.156 77.638 199.416 78.214 198.84C78.79 198.264 79.522 197.976 80.41 197.976C81.29 197.976 82.018 198.264 82.594 198.84C83.17 199.416 83.458 200.156 83.458 201.06C83.458 201.964 83.17 202.704 82.594 203.28C82.018 203.856 81.29 204.144 80.41 204.144C79.522 204.144 78.79 203.856 78.214 203.28ZM79.018 199.56C78.666 199.944 78.49 200.444 78.49 201.06C78.49 201.676 78.666 202.176 79.018 202.56C79.378 202.944 79.842 203.136 80.41 203.136C80.978 203.136 81.438 202.944 81.79 202.56C82.15 202.168 82.33 201.668 82.33 201.06C82.33 200.452 82.15 199.956 81.79 199.572C81.438 199.18 80.978 198.984 80.41 198.984C79.842 198.984 79.378 199.176 79.018 199.56ZM85.8346 204H84.7066V198.132H85.7266L85.8466 199.032C86.0306 198.696 86.2946 198.436 86.6386 198.252C86.9906 198.06 87.3746 197.964 87.7906 197.964C88.5426 197.964 89.1066 198.18 89.4826 198.612C89.8586 199.036 90.0466 199.636 90.0466 200.412V204H88.9186V200.664C88.9186 199.552 88.4466 198.996 87.5026 198.996C86.9826 198.996 86.5746 199.168 86.2786 199.512C85.9826 199.856 85.8346 200.316 85.8346 200.892V204ZM93.265 204H92.137V199.08H90.985V198.132H92.137V196.296H93.265V198.132H94.417V199.08H93.265V204ZM97.9027 204.144C97.0387 204.144 96.3347 203.86 95.7907 203.292C95.2547 202.724 94.9867 201.984 94.9867 201.072C94.9867 200.152 95.2507 199.404 95.7787 198.828C96.3147 198.252 97.0067 197.964 97.8547 197.964C98.6867 197.964 99.3547 198.228 99.8587 198.756C100.363 199.284 100.615 199.984 100.615 200.856V201.276L96.0787 201.288C96.1187 201.904 96.2947 202.38 96.6067 202.716C96.9267 203.044 97.3667 203.208 97.9267 203.208C98.8227 203.208 99.3707 202.864 99.5707 202.176H100.627C100.483 202.808 100.175 203.296 99.7027 203.64C99.2307 203.976 98.6307 204.144 97.9027 204.144ZM97.8547 198.912C97.3667 198.912 96.9707 199.052 96.6667 199.332C96.3627 199.612 96.1747 200.012 96.1027 200.532H99.4867C99.4867 200.044 99.3387 199.652 99.0427 199.356C98.7467 199.06 98.3507 198.912 97.8547 198.912ZM103.003 204H101.875V198.132H102.895L103.015 199.032C103.199 198.696 103.463 198.436 103.807 198.252C104.159 198.06 104.543 197.964 104.959 197.964C105.711 197.964 106.275 198.18 106.651 198.612C107.027 199.036 107.215 199.636 107.215 200.412V204H106.087V200.664C106.087 199.552 105.615 198.996 104.671 198.996C104.151 198.996 103.743 199.168 103.447 199.512C103.151 199.856 103.003 200.316 103.003 200.892V204ZM110.433 204H109.305V199.08H108.153V198.132H109.305V196.296H110.433V198.132H111.585V199.08H110.433V204ZM119.671 204.132C118.431 204.132 117.435 203.724 116.683 202.908C115.931 202.092 115.555 201.012 115.555 199.668C115.555 198.332 115.939 197.252 116.707 196.428C117.483 195.596 118.491 195.18 119.731 195.18C120.707 195.18 121.539 195.448 122.227 195.984C122.923 196.52 123.351 197.232 123.511 198.12H122.251C122.091 197.56 121.783 197.12 121.327 196.8C120.871 196.472 120.327 196.308 119.695 196.308C118.815 196.308 118.111 196.612 117.583 197.22C117.055 197.828 116.791 198.64 116.791 199.656C116.791 200.672 117.055 201.484 117.583 202.092C118.111 202.7 118.815 203.004 119.695 203.004C120.327 203.004 120.879 202.848 121.351 202.536C121.823 202.216 122.139 201.788 122.299 201.252H123.547C123.363 202.116 122.915 202.812 122.203 203.34C121.491 203.868 120.647 204.132 119.671 204.132ZM128.156 198.084V199.116H127.652C127.116 199.116 126.692 199.272 126.38 199.584C126.076 199.896 125.924 200.332 125.924 200.892V204H124.796V198.144H125.852L125.924 199.032C126.044 198.72 126.248 198.472 126.536 198.288C126.824 198.104 127.164 198.012 127.556 198.012C127.732 198.012 127.932 198.036 128.156 198.084ZM131.536 204.144C130.672 204.144 129.968 203.86 129.424 203.292C128.888 202.724 128.62 201.984 128.62 201.072C128.62 200.152 128.884 199.404 129.412 198.828C129.948 198.252 130.64 197.964 131.488 197.964C132.32 197.964 132.988 198.228 133.492 198.756C133.996 199.284 134.247 199.984 134.247 200.856V201.276L129.712 201.288C129.752 201.904 129.928 202.38 130.24 202.716C130.56 203.044 131 203.208 131.56 203.208C132.456 203.208 133.004 202.864 133.204 202.176H134.26C134.116 202.808 133.808 203.296 133.336 203.64C132.864 203.976 132.264 204.144 131.536 204.144ZM131.488 198.912C131 198.912 130.604 199.052 130.3 199.332C129.996 199.612 129.808 200.012 129.736 200.532H133.12C133.12 200.044 132.972 199.652 132.676 199.356C132.38 199.06 131.984 198.912 131.488 198.912ZM137.165 204.144C136.541 204.144 136.049 203.984 135.689 203.664C135.337 203.336 135.161 202.904 135.161 202.368C135.161 201.832 135.349 201.404 135.725 201.084C136.109 200.756 136.649 200.564 137.345 200.508L139.193 200.364V200.196C139.193 199.308 138.733 198.864 137.813 198.864C137.341 198.864 136.973 198.964 136.709 199.164C136.453 199.364 136.325 199.64 136.325 199.992H135.341C135.341 199.384 135.569 198.896 136.025 198.528C136.489 198.152 137.101 197.964 137.861 197.964C138.613 197.964 139.205 198.164 139.637 198.564C140.077 198.964 140.297 199.548 140.297 200.316V204H139.337L139.217 203.052C139.065 203.388 138.801 203.656 138.425 203.856C138.057 204.048 137.637 204.144 137.165 204.144ZM137.489 203.268C138.025 203.268 138.445 203.108 138.749 202.788C139.053 202.46 139.205 202.02 139.205 201.468V201.156L137.705 201.276C136.769 201.364 136.301 201.716 136.301 202.332C136.301 202.636 136.405 202.868 136.613 203.028C136.821 203.188 137.113 203.268 137.489 203.268ZM143.421 204H142.293V199.08H141.141V198.132H142.293V196.296H143.421V198.132H144.573V199.08H143.421V204ZM146.007 203.28C145.431 202.704 145.143 201.964 145.143 201.06C145.143 200.156 145.431 199.416 146.007 198.84C146.583 198.264 147.315 197.976 148.203 197.976C149.083 197.976 149.811 198.264 150.387 198.84C150.963 199.416 151.251 200.156 151.251 201.06C151.251 201.964 150.963 202.704 150.387 203.28C149.811 203.856 149.083 204.144 148.203 204.144C147.315 204.144 146.583 203.856 146.007 203.28ZM146.811 199.56C146.459 199.944 146.283 200.444 146.283 201.06C146.283 201.676 146.459 202.176 146.811 202.56C147.171 202.944 147.635 203.136 148.203 203.136C148.771 203.136 149.231 202.944 149.583 202.56C149.943 202.168 150.123 201.668 150.123 201.06C150.123 200.452 149.943 199.956 149.583 199.572C149.231 199.18 148.771 198.984 148.203 198.984C147.635 198.984 147.171 199.176 146.811 199.56ZM155.86 198.084V199.116H155.356C154.82 199.116 154.396 199.272 154.084 199.584C153.78 199.896 153.628 200.332 153.628 200.892V204H152.5V198.144H153.556L153.628 199.032C153.748 198.72 153.952 198.472 154.24 198.288C154.528 198.104 154.868 198.012 155.26 198.012C155.436 198.012 155.636 198.036 155.86 198.084Z" fill="#6C757D"/>
<path d="M224.098 190.301L225.058 189.341L221.804 186.087L219.611 188.281C219.351 188.541 218.931 188.541 218.671 188.281L214.671 184.274C214.411 184.014 214.411 183.594 214.671 183.334C214.931 183.074 215.351 183.074 215.611 183.334L219.138 186.867L221.331 184.674C221.591 184.414 222.011 184.414 222.271 184.674L225.998 188.394L226.958 187.434C227.164 187.227 227.524 187.374 227.524 187.667V190.527C227.524 190.714 227.378 190.861 227.191 190.861H224.331C224.038 190.867 223.891 190.507 224.098 190.301Z" fill="#E56161"/>
<path d="M233.744 189.444H237.608V188.148H233.744V189.444Z" fill="#E56161"/>
<path d="M238.848 189.516C238.848 191.112 240.156 192.144 242.184 192.144C244.224 192.144 245.532 191.1 245.532 189.516C245.532 188.46 244.932 187.608 244.008 187.284C244.788 186.96 245.22 186.3 245.22 185.448C245.22 184.02 244.008 183.072 242.208 183.072C240.396 183.072 239.16 184.032 239.16 185.424C239.16 186.276 239.58 186.936 240.348 187.284C239.436 187.632 238.848 188.472 238.848 189.516ZM240.552 185.556C240.552 184.836 241.188 184.38 242.184 184.38C243.168 184.38 243.792 184.836 243.792 185.568C243.792 186.3 243.168 186.756 242.184 186.756C241.188 186.756 240.552 186.288 240.552 185.556ZM240.348 189.408C240.348 188.556 241.056 188.028 242.184 188.028C243.312 188.028 244.02 188.556 244.02 189.408C244.02 190.26 243.312 190.788 242.196 190.788C241.056 190.788 240.348 190.26 240.348 189.408ZM251.023 185.364C251.023 184.02 250.063 183.06 248.731 183.06C247.399 183.06 246.439 184.02 246.439 185.364C246.439 186.72 247.399 187.668 248.731 187.668C250.063 187.668 251.023 186.72 251.023 185.364ZM255.835 183.24H254.371L247.711 192H249.175L255.835 183.24ZM249.859 185.364C249.859 186.06 249.403 186.54 248.731 186.54C248.071 186.54 247.615 186.06 247.615 185.364C247.615 184.668 248.059 184.188 248.731 184.188C249.403 184.188 249.859 184.668 249.859 185.364ZM257.119 189.852C257.119 188.508 256.171 187.548 254.839 187.548C253.495 187.548 252.547 188.508 252.547 189.852C252.547 191.196 253.495 192.156 254.839 192.156C256.171 192.156 257.119 191.196 257.119 189.852ZM255.955 189.852C255.955 190.548 255.499 191.028 254.839 191.028C254.167 191.028 253.711 190.548 253.711 189.852C253.711 189.156 254.167 188.676 254.839 188.676C255.499 188.676 255.955 189.156 255.955 189.852Z" fill="black"/>
<rect x="205.25" y="175.25" width="60.5" height="23.5" rx="11.75" stroke="#F1A7A7" stroke-width="0.5"/>
<rect x="0.25" y="151.25" width="281.5" height="71.5" rx="7.75" stroke="#E9ECEF" stroke-width="0.5"/>
<defs>
<linearGradient id="paint0_linear_1111_4343" x1="448" y1="271" x2="448" y2="441" gradientUnits="userSpaceOnUse">
<stop stop-color="#EDEFFC"/>
<stop offset="0.505208" stop-color="#A7B1F1"/>
<stop offset="1" stop-color="#EDEFFC" stop-opacity="0"/>
</linearGradient>
<linearGradient id="paint1_linear_1111_4343" x1="960" y1="0" x2="1234.78" y2="493.194" gradientUnits="userSpaceOnUse">
<stop stop-color="#EDEFFC" stop-opacity="0"/>
<stop offset="0.329512" stop-color="#A7B1F1"/>
<stop offset="1" stop-color="#EDEFFC" stop-opacity="0"/>
</linearGradient>
<linearGradient id="paint2_linear_1111_4343" x1="792" y1="311" x2="592.264" y2="362.59" gradientUnits="userSpaceOnUse">
<stop stop-color="#EDEFFC" stop-opacity="0"/>
<stop offset="0.329512" stop-color="#A7B1F1"/>
<stop offset="1" stop-color="#EDEFFC" stop-opacity="0"/>
</linearGradient>
<linearGradient id="paint3_linear_1111_4343" x1="384" y1="303" x2="264.203" y2="283.101" gradientUnits="userSpaceOnUse">
<stop stop-color="#EDEFFC" stop-opacity="0"/>
<stop offset="0.627876" stop-color="#A7B1F1"/>
<stop offset="1" stop-color="#EDEFFC" stop-opacity="0"/>
</linearGradient>
</defs>
</svg>
