<svg width="749" height="708" viewBox="0 0 749 708" fill="none" xmlns="http://www.w3.org/2000/svg">
<g filter="url(#filter0_f_1114_13827)">
<ellipse cx="58.5143" cy="59.5" rx="58.5143" ry="59.5" transform="matrix(1 0 0 -1 437.972 367.016)" fill="#E5CB61"/>
</g>
<g filter="url(#filter1_f_1114_13827)">
<ellipse cx="117.029" cy="119" rx="117.029" ry="119" transform="matrix(1 0 0 -1 235 473)" fill="#6173E5"/>
</g>
<g filter="url(#filter2_f_1114_13827)">
<ellipse cx="36.5714" cy="37.1875" rx="36.5714" ry="37.1875" transform="matrix(1 0 0 -1 459.914 404.203)" fill="#E56161"/>
</g>
<rect x="203.25" y="108.25" width="383.5" height="391.5" rx="7.75" fill="white"/>
<rect x="227" y="132" width="24" height="24" rx="8" fill="#EDEFFC"/>
<path d="M234.667 142.333H236.667V148C236.667 148.553 236.22 149 235.667 149C235.113 149 234.667 148.553 234.667 148V142.333ZM235.667 139C236.22 139 236.667 139.447 236.667 140V141.667H234.667V140C234.667 139.447 235.113 139 235.667 139ZM241.333 146.333H243.333V148C243.333 148.553 242.887 149 242.333 149C241.78 149 241.333 148.553 241.333 148V146.333ZM238 144.333H240V148C240 148.553 239.553 149 239 149C238.447 149 238 148.553 238 148V144.333ZM239 141.667C239.553 141.667 240 142.113 240 142.667V143.667H238V142.667C238 142.113 238.447 141.667 239 141.667ZM243.333 145.667H241.333V145.333C241.333 144.78 241.78 144.333 242.333 144.333C242.887 144.333 243.333 144.78 243.333 145.333V145.667Z" fill="#6173E5"/>
<path d="M265.304 139.712C264.067 139.712 263.091 140.128 262.376 140.96C261.661 141.792 261.304 142.901 261.304 144.288C261.304 145.664 261.667 146.747 262.392 147.536C263.128 148.315 264.104 148.704 265.32 148.704C266.365 148.704 267.219 148.427 267.88 147.872C268.541 147.307 268.872 146.469 268.872 145.36V145.024H265V143.632H270.344V150.016H269.032L268.92 148.448C268.6 148.971 268.104 149.392 267.432 149.712C266.771 150.032 266.024 150.192 265.192 150.192C263.549 150.192 262.216 149.648 261.192 148.56C260.168 147.472 259.656 146.037 259.656 144.256C259.656 142.485 260.179 141.04 261.224 139.92C262.269 138.8 263.64 138.24 265.336 138.24C266.605 138.24 267.688 138.576 268.584 139.248C269.48 139.92 270.024 140.811 270.216 141.92H268.552C268.339 141.205 267.939 140.661 267.352 140.288C266.776 139.904 266.093 139.712 265.304 139.712ZM276.482 142.112V143.488H275.81C275.096 143.488 274.53 143.696 274.114 144.112C273.709 144.528 273.506 145.109 273.506 145.856V150H272.002V142.192H273.41L273.506 143.376C273.666 142.96 273.938 142.629 274.322 142.384C274.706 142.139 275.16 142.016 275.682 142.016C275.917 142.016 276.184 142.048 276.482 142.112ZM279.549 150.192C278.717 150.192 278.061 149.979 277.581 149.552C277.111 149.115 276.877 148.539 276.877 147.824C276.877 147.109 277.127 146.539 277.629 146.112C278.141 145.675 278.861 145.419 279.789 145.344L282.253 145.152V144.928C282.253 143.744 281.639 143.152 280.413 143.152C279.783 143.152 279.293 143.285 278.941 143.552C278.599 143.819 278.429 144.187 278.429 144.656H277.117C277.117 143.845 277.421 143.195 278.029 142.704C278.647 142.203 279.463 141.952 280.477 141.952C281.479 141.952 282.269 142.219 282.845 142.752C283.431 143.285 283.725 144.064 283.725 145.088V150H282.445L282.285 148.736C282.082 149.184 281.73 149.541 281.229 149.808C280.738 150.064 280.178 150.192 279.549 150.192ZM279.981 149.024C280.695 149.024 281.255 148.811 281.661 148.384C282.066 147.947 282.269 147.36 282.269 146.624V146.208L280.269 146.368C279.021 146.485 278.397 146.955 278.397 147.776C278.397 148.181 278.535 148.491 278.813 148.704C279.09 148.917 279.479 149.024 279.981 149.024ZM285.487 153.504V142.176H286.847L286.959 143.584C287.215 143.061 287.594 142.661 288.095 142.384C288.597 142.096 289.162 141.952 289.791 141.952C290.901 141.952 291.781 142.331 292.431 143.088C293.093 143.835 293.423 144.816 293.423 146.032C293.423 147.259 293.098 148.261 292.447 149.04C291.807 149.819 290.922 150.208 289.791 150.208C289.162 150.208 288.602 150.08 288.111 149.824C287.621 149.568 287.247 149.2 286.991 148.72V153.504H285.487ZM287.007 146.096C287.007 146.907 287.226 147.568 287.663 148.08C288.111 148.592 288.714 148.848 289.471 148.848C290.229 148.848 290.826 148.592 291.263 148.08C291.701 147.568 291.919 146.907 291.919 146.096C291.919 145.275 291.701 144.608 291.263 144.096C290.826 143.584 290.229 143.328 289.471 143.328C288.714 143.328 288.111 143.584 287.663 144.096C287.226 144.597 287.007 145.264 287.007 146.096ZM296.265 149.984H294.761V138.224H296.265V143.376C296.521 142.939 296.878 142.592 297.337 142.336C297.796 142.08 298.324 141.952 298.921 141.952C299.902 141.952 300.638 142.24 301.129 142.816C301.63 143.392 301.881 144.192 301.881 145.216V150H300.377V145.552C300.377 144.069 299.753 143.328 298.505 143.328C297.801 143.328 297.252 143.557 296.857 144.016C296.462 144.464 296.265 145.035 296.265 145.728V149.984Z" fill="black"/>
<path d="M551 142.667C550.267 142.667 549.667 143.267 549.667 144C549.667 144.733 550.267 145.333 551 145.333C551.734 145.333 552.334 144.733 552.334 144C552.334 143.267 551.734 142.667 551 142.667ZM559 142.667C558.267 142.667 557.667 143.267 557.667 144C557.667 144.733 558.267 145.333 559 145.333C559.734 145.333 560.334 144.733 560.334 144C560.334 143.267 559.734 142.667 559 142.667ZM555 142.667C554.267 142.667 553.667 143.267 553.667 144C553.667 144.733 554.267 145.333 555 145.333C555.734 145.333 556.334 144.733 556.334 144C556.334 143.267 555.734 142.667 555 142.667Z" fill="#343A40"/>
<path d="M227 172H563" stroke="#E9ECEF"/>
<path d="M229.244 201.38V209H230.372V200.324H227.42V201.38H229.244ZM231.959 204.668C231.959 207.368 233.291 209.156 235.535 209.156C237.767 209.156 239.099 207.368 239.099 204.668C239.099 201.98 237.707 200.156 235.535 200.156C233.351 200.156 231.959 201.98 231.959 204.668ZM233.123 204.668C233.123 202.508 234.011 201.212 235.535 201.212C237.059 201.212 237.935 202.508 237.935 204.668C237.935 206.804 237.059 208.1 235.535 208.1C234.011 208.1 233.123 206.804 233.123 204.668ZM240.279 204.668C240.279 207.368 241.611 209.156 243.855 209.156C246.087 209.156 247.419 207.368 247.419 204.668C247.419 201.98 246.027 200.156 243.855 200.156C241.671 200.156 240.279 201.98 240.279 204.668ZM241.443 204.668C241.443 202.508 242.331 201.212 243.855 201.212C245.379 201.212 246.255 202.508 246.255 204.668C246.255 206.804 245.379 208.1 243.855 208.1C242.331 208.1 241.443 206.804 241.443 204.668Z" fill="#ADB5BD"/>
<path d="M227.096 244.324H233.156V245.404L229.868 253H228.644L231.968 245.404H227.096V244.324ZM236.551 253.144C235.663 253.144 234.951 252.884 234.415 252.364C233.887 251.844 233.623 251.152 233.623 250.288H234.787C234.787 250.848 234.947 251.288 235.267 251.608C235.587 251.928 236.023 252.088 236.575 252.088C237.159 252.088 237.627 251.912 237.979 251.56C238.331 251.2 238.507 250.724 238.507 250.132C238.507 249.564 238.335 249.1 237.991 248.74C237.647 248.372 237.179 248.188 236.587 248.188C236.227 248.188 235.887 248.264 235.567 248.416C235.247 248.568 234.987 248.772 234.787 249.028L233.791 248.776L234.847 244.324H239.191V245.404H235.699L235.123 247.708C235.587 247.356 236.147 247.18 236.803 247.18C237.675 247.18 238.375 247.452 238.903 247.996C239.439 248.54 239.707 249.236 239.707 250.084C239.707 250.988 239.415 251.724 238.831 252.292C238.247 252.86 237.487 253.144 236.551 253.144Z" fill="#ADB5BD"/>
<path d="M230.504 297.144C229.616 297.144 228.904 296.884 228.368 296.364C227.84 295.844 227.576 295.152 227.576 294.288H228.74C228.74 294.848 228.9 295.288 229.22 295.608C229.54 295.928 229.976 296.088 230.528 296.088C231.112 296.088 231.58 295.912 231.932 295.56C232.284 295.2 232.46 294.724 232.46 294.132C232.46 293.564 232.288 293.1 231.944 292.74C231.6 292.372 231.132 292.188 230.54 292.188C230.18 292.188 229.84 292.264 229.52 292.416C229.2 292.568 228.94 292.772 228.74 293.028L227.744 292.776L228.8 288.324H233.144V289.404H229.652L229.076 291.708C229.54 291.356 230.1 291.18 230.756 291.18C231.628 291.18 232.328 291.452 232.856 291.996C233.392 292.54 233.66 293.236 233.66 294.084C233.66 294.988 233.368 295.724 232.784 296.292C232.2 296.86 231.44 297.144 230.504 297.144ZM234.678 292.668C234.678 291.316 235.002 290.228 235.65 289.404C236.298 288.572 237.166 288.156 238.254 288.156C239.334 288.156 240.198 288.572 240.846 289.404C241.494 290.228 241.818 291.316 241.818 292.668C241.818 294.028 241.498 295.116 240.858 295.932C240.226 296.748 239.358 297.156 238.254 297.156C237.142 297.156 236.266 296.752 235.626 295.944C234.994 295.128 234.678 294.036 234.678 292.668ZM235.842 292.668C235.842 293.74 236.054 294.58 236.478 295.188C236.902 295.796 237.494 296.1 238.254 296.1C239.014 296.1 239.602 295.796 240.018 295.188C240.442 294.58 240.654 293.74 240.654 292.668C240.654 291.58 240.442 290.732 240.018 290.124C239.602 289.516 239.014 289.212 238.254 289.212C237.494 289.212 236.902 289.52 236.478 290.136C236.054 290.744 235.842 291.588 235.842 292.668Z" fill="#ADB5BD"/>
<path d="M233.408 340.988L227.552 341V340.1L230.348 337.688C231.052 337.08 231.528 336.592 231.776 336.224C232.024 335.848 232.148 335.428 232.148 334.964C232.148 334.42 232 333.996 231.704 333.692C231.408 333.38 231 333.224 230.48 333.224C229.944 333.224 229.512 333.408 229.184 333.776C228.864 334.136 228.7 334.624 228.692 335.24H227.516C227.532 334.312 227.812 333.568 228.356 333.008C228.9 332.448 229.612 332.168 230.492 332.168C231.364 332.168 232.056 332.416 232.568 332.912C233.088 333.4 233.348 334.06 233.348 334.892C233.348 335.5 233.184 336.056 232.856 336.56C232.536 337.064 231.984 337.656 231.2 338.336L229.4 339.896H233.408V340.988ZM237.324 341.144C236.436 341.144 235.724 340.884 235.188 340.364C234.66 339.844 234.396 339.152 234.396 338.288H235.56C235.56 338.848 235.72 339.288 236.04 339.608C236.36 339.928 236.796 340.088 237.348 340.088C237.932 340.088 238.4 339.912 238.752 339.56C239.104 339.2 239.28 338.724 239.28 338.132C239.28 337.564 239.108 337.1 238.764 336.74C238.42 336.372 237.952 336.188 237.36 336.188C237 336.188 236.66 336.264 236.34 336.416C236.02 336.568 235.76 336.772 235.56 337.028L234.564 336.776L235.62 332.324H239.964V333.404H236.472L235.896 335.708C236.36 335.356 236.92 335.18 237.576 335.18C238.448 335.18 239.148 335.452 239.676 335.996C240.212 336.54 240.48 337.236 240.48 338.084C240.48 338.988 240.188 339.724 239.604 340.292C239.02 340.86 238.26 341.144 237.324 341.144Z" fill="#ADB5BD"/>
<rect x="275" y="216" width="32" height="128" rx="4" fill="#D7EAE0"/>
<path d="M289.14 358.252L287.112 361H285.744L287.916 358.12C287.612 358.24 287.308 358.3 287.004 358.3C286.116 358.3 285.392 358.016 284.832 357.448C284.272 356.872 283.992 356.148 283.992 355.276C283.992 354.38 284.292 353.64 284.892 353.056C285.5 352.464 286.252 352.168 287.148 352.168C288.052 352.168 288.808 352.468 289.416 353.068C290.032 353.668 290.34 354.408 290.34 355.288C290.34 355.792 290.252 356.26 290.076 356.692C289.9 357.116 289.588 357.636 289.14 358.252ZM289.14 355.276C289.14 354.676 288.952 354.184 288.576 353.8C288.208 353.416 287.732 353.224 287.148 353.224C286.572 353.224 286.1 353.42 285.732 353.812C285.364 354.196 285.18 354.684 285.18 355.276C285.18 355.868 285.364 356.356 285.732 356.74C286.1 357.116 286.572 357.304 287.148 357.304C287.732 357.304 288.208 357.116 288.576 356.74C288.952 356.356 289.14 355.868 289.14 355.276ZM292.422 355.072L294.45 352.324H295.818L293.646 355.204C293.95 355.084 294.254 355.024 294.558 355.024C295.446 355.024 296.17 355.312 296.73 355.888C297.29 356.456 297.57 357.172 297.57 358.036C297.57 358.94 297.27 359.684 296.67 360.268C296.07 360.852 295.318 361.144 294.414 361.144C293.518 361.144 292.762 360.848 292.146 360.256C291.53 359.656 291.222 358.916 291.222 358.036C291.222 357.524 291.31 357.056 291.486 356.632C291.662 356.208 291.974 355.688 292.422 355.072ZM292.974 356.596C292.606 356.972 292.422 357.456 292.422 358.048C292.422 358.64 292.606 359.128 292.974 359.512C293.35 359.896 293.83 360.088 294.414 360.088C294.99 360.088 295.462 359.896 295.83 359.512C296.198 359.128 296.382 358.64 296.382 358.048C296.382 357.456 296.198 356.972 295.83 356.596C295.462 356.212 294.99 356.02 294.414 356.02C293.83 356.02 293.35 356.212 292.974 356.596Z" fill="#ADB5BD"/>
<path d="M323 196V344" stroke="#E9ECEF" stroke-width="0.5"/>
<g filter="url(#filter3_d_1114_13827)">
<rect x="339" y="264" width="32" height="80" rx="4" fill="#E59661"/>
</g>
<path d="M349.192 355.072L351.22 352.324H352.588L350.416 355.204C350.72 355.084 351.024 355.024 351.328 355.024C352.216 355.024 352.94 355.312 353.5 355.888C354.06 356.456 354.34 357.172 354.34 358.036C354.34 358.94 354.04 359.684 353.44 360.268C352.84 360.852 352.088 361.144 351.184 361.144C350.288 361.144 349.532 360.848 348.916 360.256C348.3 359.656 347.992 358.916 347.992 358.036C347.992 357.524 348.08 357.056 348.256 356.632C348.432 356.208 348.744 355.688 349.192 355.072ZM349.744 356.596C349.376 356.972 349.192 357.456 349.192 358.048C349.192 358.64 349.376 359.128 349.744 359.512C350.12 359.896 350.6 360.088 351.184 360.088C351.76 360.088 352.232 359.896 352.6 359.512C352.968 359.128 353.152 358.64 353.152 358.048C353.152 357.456 352.968 356.972 352.6 356.596C352.232 356.212 351.76 356.02 351.184 356.02C350.6 356.02 350.12 356.212 349.744 356.596ZM361.892 359.248H360.86V361H359.732V359.248H355.244V358.204L359.336 352.324H360.86V358.204H361.892V359.248ZM356.516 358.204H359.732V353.572L356.516 358.204Z" fill="#343A40"/>
<path d="M387 196V344" stroke="#E9ECEF" stroke-width="0.5"/>
<rect x="403" y="240" width="32" height="104" rx="4" fill="#CAD0F6"/>
<path d="M411.564 358.588C411.564 358.068 411.704 357.612 411.984 357.22C412.272 356.82 412.656 356.532 413.136 356.356C412.296 355.996 411.876 355.36 411.876 354.448C411.876 353.768 412.14 353.22 412.668 352.804C413.204 352.38 413.904 352.168 414.768 352.168C415.624 352.168 416.312 352.38 416.832 352.804C417.36 353.228 417.624 353.78 417.624 354.46C417.624 354.908 417.512 355.296 417.288 355.624C417.072 355.952 416.76 356.196 416.352 356.356C416.84 356.516 417.228 356.796 417.516 357.196C417.804 357.596 417.948 358.064 417.948 358.6C417.948 359.36 417.656 359.976 417.072 360.448C416.488 360.912 415.716 361.144 414.756 361.144C413.788 361.144 413.012 360.912 412.428 360.448C411.852 359.976 411.564 359.356 411.564 358.588ZM412.956 354.52C412.956 354.944 413.116 355.284 413.436 355.54C413.764 355.796 414.2 355.924 414.744 355.924C415.288 355.924 415.72 355.8 416.04 355.552C416.36 355.304 416.52 354.968 416.52 354.544C416.52 354.128 416.36 353.8 416.04 353.56C415.72 353.312 415.288 353.188 414.744 353.188C414.208 353.188 413.776 353.312 413.448 353.56C413.12 353.8 412.956 354.12 412.956 354.52ZM412.716 358.504C412.716 358.992 412.9 359.38 413.268 359.668C413.644 359.956 414.14 360.1 414.756 360.1C415.372 360.1 415.864 359.956 416.232 359.668C416.6 359.38 416.784 358.992 416.784 358.504C416.784 358.024 416.6 357.644 416.232 357.364C415.864 357.076 415.368 356.932 414.744 356.932C414.128 356.932 413.636 357.076 413.268 357.364C412.9 357.644 412.716 358.024 412.716 358.504ZM419.088 356.668C419.088 355.316 419.412 354.228 420.06 353.404C420.708 352.572 421.576 352.156 422.664 352.156C423.744 352.156 424.608 352.572 425.256 353.404C425.904 354.228 426.228 355.316 426.228 356.668C426.228 358.028 425.908 359.116 425.268 359.932C424.636 360.748 423.768 361.156 422.664 361.156C421.552 361.156 420.676 360.752 420.036 359.944C419.404 359.128 419.088 358.036 419.088 356.668ZM420.252 356.668C420.252 357.74 420.464 358.58 420.888 359.188C421.312 359.796 421.904 360.1 422.664 360.1C423.424 360.1 424.012 359.796 424.428 359.188C424.852 358.58 425.064 357.74 425.064 356.668C425.064 355.58 424.852 354.732 424.428 354.124C424.012 353.516 423.424 353.212 422.664 353.212C421.904 353.212 421.312 353.52 420.888 354.136C420.464 354.744 420.252 355.588 420.252 356.668Z" fill="#ADB5BD"/>
<path d="M451 196V344" stroke="#E9ECEF" stroke-width="0.5"/>
<rect x="467" y="297" width="32" height="47" rx="4" fill="#F6CACA"/>
<path d="M482.056 359.248V358.204H481.024V352.324H479.5L475.408 358.204V359.248H479.896V361H481.024V359.248H482.056ZM476.68 358.204L479.896 353.572V358.204H476.68ZM483.193 358.588C483.193 360.124 484.453 361.144 486.385 361.144C488.305 361.144 489.577 360.124 489.577 358.6C489.577 357.532 488.953 356.668 487.981 356.356C488.797 356.032 489.253 355.348 489.253 354.46C489.253 353.092 488.101 352.168 486.397 352.168C484.669 352.168 483.505 353.092 483.505 354.448C483.505 355.324 483.949 356.008 484.765 356.356C483.805 356.704 483.193 357.544 483.193 358.588ZM484.585 354.52C484.585 353.716 485.293 353.188 486.373 353.188C487.465 353.188 488.149 353.716 488.149 354.544C488.149 355.384 487.465 355.924 486.373 355.924C485.293 355.924 484.585 355.372 484.585 354.52ZM484.345 358.504C484.345 357.544 485.137 356.932 486.373 356.932C487.621 356.932 488.413 357.544 488.413 358.504C488.413 359.476 487.609 360.1 486.385 360.1C485.149 360.1 484.345 359.476 484.345 358.504Z" fill="#ADB5BD"/>
<path d="M515 196V344" stroke="#E9ECEF" stroke-width="0.5"/>
<rect x="531" y="280" width="32" height="64" rx="4" fill="#F6EECA"/>
<path d="M543.004 361.144C542.116 361.144 541.404 360.884 540.868 360.364C540.34 359.844 540.076 359.152 540.076 358.288H541.24C541.24 358.848 541.4 359.288 541.72 359.608C542.04 359.928 542.476 360.088 543.028 360.088C543.612 360.088 544.08 359.912 544.432 359.56C544.784 359.2 544.96 358.724 544.96 358.132C544.96 357.564 544.788 357.1 544.444 356.74C544.1 356.372 543.632 356.188 543.04 356.188C542.68 356.188 542.34 356.264 542.02 356.416C541.7 356.568 541.44 356.772 541.24 357.028L540.244 356.776L541.3 352.324H545.644V353.404H542.152L541.576 355.708C542.04 355.356 542.6 355.18 543.256 355.18C544.128 355.18 544.828 355.452 545.356 355.996C545.892 356.54 546.16 357.236 546.16 358.084C546.16 358.988 545.868 359.724 545.284 360.292C544.7 360.86 543.94 361.144 543.004 361.144ZM548.282 355.072L550.31 352.324H551.678L549.506 355.204C549.81 355.084 550.114 355.024 550.418 355.024C551.306 355.024 552.03 355.312 552.59 355.888C553.15 356.456 553.43 357.172 553.43 358.036C553.43 358.94 553.13 359.684 552.53 360.268C551.93 360.852 551.178 361.144 550.274 361.144C549.378 361.144 548.622 360.848 548.006 360.256C547.39 359.656 547.082 358.916 547.082 358.036C547.082 357.524 547.17 357.056 547.346 356.632C547.522 356.208 547.834 355.688 548.282 355.072ZM548.834 356.596C548.466 356.972 548.282 357.456 548.282 358.048C548.282 358.64 548.466 359.128 548.834 359.512C549.21 359.896 549.69 360.088 550.274 360.088C550.85 360.088 551.322 359.896 551.69 359.512C552.058 359.128 552.242 358.64 552.242 358.048C552.242 357.456 552.058 356.972 551.69 356.596C551.322 356.212 550.85 356.02 550.274 356.02C549.69 356.02 549.21 356.212 548.834 356.596Z" fill="#ADB5BD"/>
<path d="M227 388H563" stroke="#E9ECEF"/>
<g clip-path="url(#clip0_1114_13827)">
<rect x="227" y="396" width="336" height="32" rx="8" fill="white"/>
<path d="M228.333 412C228.333 408.32 231.32 405.333 235 405.333C238.68 405.333 241.667 408.32 241.667 412C241.667 415.68 238.68 418.667 235 418.667C231.32 418.667 228.333 415.68 228.333 412ZM235 416C237.207 416 239 414.207 239 412C239 409.793 237.207 408 235 408C232.793 408 231 409.793 231 412C231 414.207 232.793 416 235 416Z" fill="#6173E5"/>
<path d="M248.176 417H252.18C254.182 417 255.4 415.978 255.4 414.298C255.4 413.094 254.826 412.282 253.706 411.918C254.714 411.498 255.218 410.714 255.218 409.552C255.218 407.886 254.014 406.878 252.04 406.878H248.176V417ZM251.956 408.096C253.146 408.096 253.818 408.67 253.818 409.678C253.818 410.728 253.174 411.344 252.04 411.344H249.548V408.096H251.956ZM252.152 412.534C253.314 412.534 253.986 413.122 253.986 414.13C253.986 415.18 253.328 415.782 252.152 415.782H249.548V412.534H252.152ZM257.957 417V406.696H256.641V417H257.957ZM264.347 410.154V413.766C264.347 415.236 263.689 416.006 262.485 416.006C261.477 416.006 260.847 415.446 260.847 413.976V410.154H259.531V414.41C259.531 416.09 260.427 417.168 262.023 417.168C263.031 417.168 263.941 416.678 264.333 415.964L264.473 417H265.649V410.154H264.347ZM270.095 417.168C271.789 417.168 272.937 416.342 273.273 414.872H272.041C271.817 415.656 271.145 416.076 270.123 416.076C268.821 416.076 268.065 415.278 267.967 413.836L273.259 413.822V413.332C273.259 411.302 271.985 409.958 270.039 409.958C268.051 409.958 266.693 411.442 266.693 413.584C266.693 415.712 268.079 417.168 270.095 417.168ZM270.039 411.064C271.201 411.064 271.943 411.82 271.943 412.954H267.995C268.163 411.75 268.891 411.064 270.039 411.064Z" fill="black"/>
<path d="M299.333 412C299.333 408.32 302.32 405.333 306 405.333C309.68 405.333 312.666 408.32 312.666 412C312.666 415.68 309.68 418.667 306 418.667C302.32 418.667 299.333 415.68 299.333 412ZM306 416C308.206 416 310 414.207 310 412C310 409.793 308.206 408 306 408C303.793 408 302 409.793 302 412C302 414.207 303.793 416 306 416Z" fill="#86C1A1"/>
<path d="M323.516 407.998C324.86 407.998 325.98 408.642 326.358 409.93H327.814C327.478 407.984 325.756 406.71 323.544 406.71C320.562 406.71 318.574 408.894 318.574 411.974C318.574 415.096 320.548 417.168 323.418 417.168C324.902 417.168 326.134 416.524 326.68 415.642L326.778 417.014H327.926V411.428H323.25V412.646H326.638V412.94C326.638 414.984 325.252 415.866 323.53 415.866C321.444 415.866 320.016 414.452 320.016 412.002C320.016 409.608 321.332 407.998 323.516 407.998ZM333.297 410.098C333.031 410.042 332.835 410.014 332.597 410.014C331.659 410.014 330.973 410.49 330.693 411.204L330.609 410.168H329.377V417H330.693V413.374C330.693 412.058 331.463 411.302 332.709 411.302H333.297V410.098ZM336.959 417.168C338.653 417.168 339.801 416.342 340.137 414.872H338.905C338.681 415.656 338.009 416.076 336.987 416.076C335.685 416.076 334.929 415.278 334.831 413.836L340.123 413.822V413.332C340.123 411.302 338.849 409.958 336.903 409.958C334.915 409.958 333.557 411.442 333.557 413.584C333.557 415.712 334.943 417.168 336.959 417.168ZM336.903 411.064C338.065 411.064 338.807 411.82 338.807 412.954H334.859C335.027 411.75 335.755 411.064 336.903 411.064ZM344.267 417.168C345.961 417.168 347.109 416.342 347.445 414.872H346.213C345.989 415.656 345.317 416.076 344.295 416.076C342.993 416.076 342.237 415.278 342.139 413.836L347.431 413.822V413.332C347.431 411.302 346.157 409.958 344.211 409.958C342.223 409.958 340.865 411.442 340.865 413.584C340.865 415.712 342.251 417.168 344.267 417.168ZM344.211 411.064C345.373 411.064 346.115 411.82 346.115 412.954H342.167C342.335 411.75 343.063 411.064 344.211 411.064ZM349.937 417V413.374C349.937 412.044 350.651 411.162 351.883 411.162C352.891 411.162 353.535 411.722 353.535 413.108V417H354.851V412.814C354.851 411.064 354.025 409.958 352.219 409.958C351.253 409.958 350.385 410.42 349.951 411.204L349.811 410.154H348.621V417H349.937Z" fill="black"/>
<path d="M381.333 412C381.333 408.32 384.32 405.333 388 405.333C391.68 405.333 394.666 408.32 394.666 412C394.666 415.68 391.68 418.667 388 418.667C384.32 418.667 381.333 415.68 381.333 412ZM388 416C390.206 416 392 414.207 392 412C392 409.793 390.206 408 388 408C385.793 408 384 409.793 384 412C384 414.207 385.793 416 388 416Z" fill="#E56161"/>
<path d="M402.548 417H401.176V406.878H404.998C406.081 406.878 406.925 407.149 407.532 407.69C408.148 408.231 408.456 408.973 408.456 409.916C408.456 410.616 408.283 411.209 407.938 411.694C407.602 412.179 407.121 412.525 406.496 412.73L408.554 417H407.028L405.138 412.996H402.548V417ZM402.548 408.11V411.778H405.012C405.647 411.778 406.137 411.615 406.482 411.288C406.837 410.961 407.014 410.509 407.014 409.93C407.014 409.342 406.837 408.894 406.482 408.586C406.127 408.269 405.633 408.11 404.998 408.11H402.548ZM412.294 417.168C411.286 417.168 410.465 416.837 409.83 416.174C409.205 415.511 408.892 414.648 408.892 413.584C408.892 412.511 409.2 411.638 409.816 410.966C410.441 410.294 411.249 409.958 412.238 409.958C413.209 409.958 413.988 410.266 414.576 410.882C415.164 411.498 415.458 412.315 415.458 413.332V413.822L410.166 413.836C410.213 414.555 410.418 415.11 410.782 415.502C411.155 415.885 411.669 416.076 412.322 416.076C413.367 416.076 414.007 415.675 414.24 414.872H415.472C415.304 415.609 414.945 416.179 414.394 416.58C413.843 416.972 413.143 417.168 412.294 417.168ZM412.238 411.064C411.669 411.064 411.207 411.227 410.852 411.554C410.497 411.881 410.278 412.347 410.194 412.954H414.142C414.142 412.385 413.969 411.927 413.624 411.582C413.279 411.237 412.817 411.064 412.238 411.064ZM419.392 417.168C418.412 417.168 417.633 416.841 417.054 416.188C416.485 415.525 416.2 414.662 416.2 413.598C416.2 412.525 416.489 411.652 417.068 410.98C417.656 410.299 418.449 409.958 419.448 409.958C419.98 409.958 420.451 410.07 420.862 410.294C421.282 410.518 421.609 410.84 421.842 411.26V406.696H423.144V417H421.968L421.856 415.754C421.632 416.211 421.305 416.561 420.876 416.804C420.447 417.047 419.952 417.168 419.392 417.168ZM418.09 415.306C418.473 415.754 418.995 415.978 419.658 415.978C420.321 415.978 420.848 415.754 421.24 415.306C421.632 414.858 421.828 414.275 421.828 413.556C421.828 412.847 421.632 412.268 421.24 411.82C420.848 411.372 420.321 411.148 419.658 411.148C418.995 411.148 418.473 411.372 418.09 411.82C417.717 412.259 417.53 412.837 417.53 413.556C417.53 414.275 417.717 414.858 418.09 415.306Z" fill="black"/>
<path d="M450.333 412C450.333 408.32 453.32 405.333 457 405.333C460.68 405.333 463.666 408.32 463.666 412C463.666 415.68 460.68 418.667 457 418.667C453.32 418.667 450.333 415.68 450.333 412ZM457 416C459.206 416 461 414.207 461 412C461 409.793 459.206 408 457 408C454.793 408 453 409.793 453 412C453 414.207 454.793 416 457 416Z" fill="#E59661"/>
<path d="M479.304 411.932C479.304 408.852 477.302 406.696 474.432 406.696C471.576 406.696 469.574 408.866 469.574 411.932C469.574 415.012 471.562 417.168 474.418 417.168C477.288 417.168 479.304 415.012 479.304 411.932ZM477.862 411.932C477.862 414.27 476.49 415.852 474.432 415.852C472.374 415.852 471.016 414.284 471.016 411.932C471.016 409.58 472.374 408.026 474.432 408.026C476.49 408.026 477.862 409.58 477.862 411.932ZM484.475 410.098C484.209 410.042 484.013 410.014 483.775 410.014C482.837 410.014 482.151 410.49 481.871 411.204L481.787 410.168H480.555V417H481.871V413.374C481.871 412.058 482.641 411.302 483.887 411.302H484.475V410.098ZM487.158 417.168C488.264 417.168 489.202 416.678 489.552 415.894L489.692 417H490.812V412.702C490.812 410.854 489.664 409.958 487.97 409.958C486.206 409.958 485.03 410.896 485.03 412.324H486.178C486.178 411.498 486.808 411.008 487.914 411.008C488.838 411.008 489.524 411.414 489.524 412.562V412.758L487.368 412.926C485.758 413.052 484.82 413.836 484.82 415.096C484.82 416.342 485.688 417.168 487.158 417.168ZM487.536 416.146C486.682 416.146 486.15 415.782 486.15 415.054C486.15 414.382 486.626 413.934 487.788 413.822L489.538 413.682V414.046C489.538 415.334 488.782 416.146 487.536 416.146ZM493.67 417V413.374C493.67 412.044 494.384 411.162 495.616 411.162C496.624 411.162 497.268 411.722 497.268 413.108V417H498.584V412.814C498.584 411.064 497.758 409.958 495.952 409.958C494.986 409.958 494.118 410.42 493.684 411.204L493.544 410.154H492.354V417H493.67ZM499.693 413.402C499.693 415.32 500.925 416.818 502.871 416.818C503.949 416.818 504.845 416.342 505.293 415.544V416.916C505.293 418.218 504.453 419.058 503.165 419.058C502.017 419.058 501.261 418.47 501.093 417.462H499.777C500.029 419.198 501.303 420.248 503.165 420.248C505.265 420.248 506.595 418.876 506.595 416.72V410.154H505.419L505.321 411.316C504.887 410.462 504.033 409.958 502.927 409.958C500.939 409.958 499.693 411.47 499.693 413.402ZM501.009 413.374C501.009 412.114 501.793 411.106 503.109 411.106C504.453 411.106 505.237 412.058 505.237 413.374C505.237 414.718 504.425 415.67 503.095 415.67C501.807 415.67 501.009 414.662 501.009 413.374ZM511.168 417.168C512.862 417.168 514.01 416.342 514.346 414.872H513.114C512.89 415.656 512.218 416.076 511.196 416.076C509.894 416.076 509.138 415.278 509.04 413.836L514.332 413.822V413.332C514.332 411.302 513.058 409.958 511.112 409.958C509.124 409.958 507.766 411.442 507.766 413.584C507.766 415.712 509.152 417.168 511.168 417.168ZM511.112 411.064C512.274 411.064 513.016 411.82 513.016 412.954H509.068C509.236 411.75 509.964 411.064 511.112 411.064Z" fill="black"/>
<path d="M540.333 412C540.333 408.32 543.32 405.333 547 405.333C550.68 405.333 553.666 408.32 553.666 412C553.666 415.68 550.68 418.667 547 418.667C543.32 418.667 540.333 415.68 540.333 412ZM547 416C549.206 416 551 414.207 551 412C551 409.793 549.206 408 547 408C544.793 408 543 409.793 543 412C543 414.207 544.793 416 547 416Z" fill="#E5CB61"/>
<path d="M562.57 412.884L559.14 406.878H560.68L562.934 410.924C562.999 411.036 563.111 411.26 563.27 411.596L563.606 410.924L565.846 406.878H567.344L563.942 412.884V417H562.57V412.884ZM569.735 417.168C568.727 417.168 567.906 416.837 567.271 416.174C566.646 415.511 566.333 414.648 566.333 413.584C566.333 412.511 566.641 411.638 567.257 410.966C567.883 410.294 568.69 409.958 569.679 409.958C570.65 409.958 571.429 410.266 572.017 410.882C572.605 411.498 572.899 412.315 572.899 413.332V413.822L567.607 413.836C567.654 414.555 567.859 415.11 568.223 415.502C568.597 415.885 569.11 416.076 569.763 416.076C570.809 416.076 571.448 415.675 571.681 414.872H572.913C572.745 415.609 572.386 416.179 571.835 416.58C571.285 416.972 570.585 417.168 569.735 417.168ZM569.679 411.064C569.11 411.064 568.648 411.227 568.293 411.554C567.939 411.881 567.719 412.347 567.635 412.954H571.583C571.583 412.385 571.411 411.927 571.065 411.582C570.72 411.237 570.258 411.064 569.679 411.064ZM575.433 417H574.117V406.696H575.433V417ZM578.435 417H577.119V406.696H578.435V417ZM580.652 416.16C579.98 415.488 579.644 414.625 579.644 413.57C579.644 412.515 579.98 411.652 580.652 410.98C581.324 410.308 582.178 409.972 583.214 409.972C584.24 409.972 585.09 410.308 585.762 410.98C586.434 411.652 586.77 412.515 586.77 413.57C586.77 414.625 586.434 415.488 585.762 416.16C585.09 416.832 584.24 417.168 583.214 417.168C582.178 417.168 581.324 416.832 580.652 416.16ZM581.59 411.82C581.179 412.268 580.974 412.851 580.974 413.57C580.974 414.289 581.179 414.872 581.59 415.32C582.01 415.768 582.551 415.992 583.214 415.992C583.876 415.992 584.413 415.768 584.824 415.32C585.244 414.863 585.454 414.279 585.454 413.57C585.454 412.861 585.244 412.282 584.824 411.834C584.413 411.377 583.876 411.148 583.214 411.148C582.551 411.148 582.01 411.372 581.59 411.82ZM589.102 417L586.862 410.154H588.22L589.354 413.71C589.522 414.261 589.662 414.802 589.774 415.334C589.858 414.867 590.007 414.326 590.222 413.71L591.37 410.154H592.714L593.848 413.71C594.007 414.195 594.156 414.737 594.296 415.334C594.408 414.811 594.553 414.27 594.73 413.71L595.878 410.154H597.25L594.912 417H593.666L592.476 413.332C592.261 412.679 592.117 412.147 592.042 411.736C591.977 412.035 591.827 412.571 591.594 413.346L590.404 417H589.102Z" fill="black"/>
<rect x="227" y="396" width="336" height="32" fill="url(#paint0_linear_1114_13827)"/>
</g>
<path d="M241 460.47C240.74 460.21 240.32 460.21 240.06 460.47L237 463.53C236.74 463.79 236.74 464.21 237 464.47L240.06 467.53C240.32 467.79 240.74 467.79 241 467.53C241.26 467.27 241.26 466.85 241 466.59L238.414 463.997L241 461.41C241.26 461.15 241.254 460.723 241 460.47Z" fill="black"/>
<rect x="227.5" y="452.5" width="23" height="23" rx="11.5" stroke="#E9ECEF"/>
<rect x="291" y="462" width="35.2" height="4" rx="2" fill="#E9ECEF"/>
<rect x="334.2" y="462" width="35.2" height="4" rx="2" fill="#E9ECEF"/>
<rect x="377.4" y="462" width="35.2" height="4" rx="2" fill="#E9ECEF"/>
<rect x="420.6" y="462" width="35.2" height="4" rx="2" fill="#E9ECEF"/>
<rect x="463.8" y="462" width="35.2" height="4" rx="2" fill="#6173E5"/>
<path d="M549 460.474C548.74 460.734 548.74 461.154 549 461.414L551.586 464L549 466.587C548.74 466.847 548.74 467.267 549 467.527C549.26 467.787 549.68 467.787 549.94 467.527L553 464.467C553.26 464.207 553.26 463.787 553 463.527L549.94 460.467C549.686 460.214 549.26 460.214 549 460.474Z" fill="black"/>
<rect x="539.5" y="452.5" width="23" height="23" rx="11.5" stroke="#E9ECEF"/>
<rect x="203.25" y="108.25" width="383.5" height="391.5" rx="7.75" stroke="#E9ECEF" stroke-width="0.5"/>
<rect x="179.25" y="436.25" width="383.5" height="151.5" rx="7.75" fill="white"/>
<rect x="195" y="452" width="120" height="120" rx="8" fill="#F8F9FA"/>
<path d="M267 521.333V502.667C267 501.2 265.8 500 264.333 500H245.667C244.2 500 243 501.2 243 502.667V521.333C243 522.8 244.2 524 245.667 524H264.333C265.8 524 267 522.8 267 521.333ZM250.867 514.64L253.667 518.013L257.8 512.693C258.067 512.347 258.6 512.347 258.867 512.707L263.547 518.947C263.88 519.387 263.56 520.013 263.013 520.013H247.027C246.467 520.013 246.16 519.373 246.507 518.933L249.827 514.667C250.08 514.32 250.587 514.307 250.867 514.64Z" fill="#CED4DA"/>
<rect x="339" y="464" width="40" height="40" rx="20" fill="#EDEFFC"/>
<path d="M359 484C361.21 484 363 482.21 363 480C363 477.79 361.21 476 359 476C356.79 476 355 477.79 355 480C355 482.21 356.79 484 359 484ZM359 486C356.33 486 351 487.34 351 490V491C351 491.55 351.45 492 352 492H366C366.55 492 367 491.55 367 491V490C367 487.34 361.67 486 359 486Z" fill="#6173E5"/>
<path d="M487.097 480.703L488.057 481.663L484.804 484.916L482.611 482.723C482.351 482.463 481.931 482.463 481.671 482.723L477.671 486.729C477.411 486.989 477.411 487.409 477.671 487.669C477.931 487.929 478.351 487.929 478.611 487.669L482.137 484.136L484.331 486.329C484.591 486.589 485.011 486.589 485.271 486.329L488.997 482.609L489.957 483.569C490.164 483.776 490.524 483.629 490.524 483.336V480.469C490.531 480.283 490.384 480.136 490.197 480.136H487.337C487.037 480.136 486.891 480.496 487.097 480.703Z" fill="#86C1A1"/>
<path d="M496.96 484.344V485.568H499.348V487.968H500.572V485.568H502.96V484.344H500.572V481.956H499.348V484.344H496.96Z" fill="#86C1A1"/>
<path d="M510.558 488.988V487.56H506.91L508.494 486.204C509.826 485.064 510.498 484.14 510.498 482.916C510.498 481.14 509.334 480.072 507.462 480.072C505.602 480.072 504.378 481.32 504.366 483.24H505.89C505.902 482.112 506.502 481.44 507.462 481.44C508.386 481.44 508.926 482.004 508.926 483C508.926 483.84 508.53 484.416 507.342 485.424L504.474 487.848V489L510.558 488.988ZM518.167 487.332V485.988H517.099V480.228H515.167L511.195 485.988V487.332H515.647V489H517.099V487.332H518.167ZM512.827 485.988L515.647 481.884V485.988H512.827ZM523.609 482.364C523.609 481.02 522.649 480.06 521.317 480.06C519.985 480.06 519.025 481.02 519.025 482.364C519.025 483.72 519.985 484.668 521.317 484.668C522.649 484.668 523.609 483.72 523.609 482.364ZM528.421 480.24H526.957L520.297 489H521.761L528.421 480.24ZM522.445 482.364C522.445 483.06 521.989 483.54 521.317 483.54C520.657 483.54 520.201 483.06 520.201 482.364C520.201 481.668 520.645 481.188 521.317 481.188C521.989 481.188 522.445 481.668 522.445 482.364ZM529.705 486.852C529.705 485.508 528.757 484.548 527.425 484.548C526.081 484.548 525.133 485.508 525.133 486.852C525.133 488.196 526.081 489.156 527.425 489.156C528.757 489.156 529.705 488.196 529.705 486.852ZM528.541 486.852C528.541 487.548 528.085 488.028 527.425 488.028C526.753 488.028 526.297 487.548 526.297 486.852C526.297 486.156 526.753 485.676 527.425 485.676C528.085 485.676 528.541 486.156 528.541 486.852Z" fill="black"/>
<rect x="468.25" y="472.25" width="70.5" height="23.5" rx="11.75" stroke="#BCDCCB" stroke-width="0.5"/>
<path d="M346.02 539.216C349.134 539.216 351.546 537.38 352.05 534.608H349.656C349.224 536.066 347.856 537.002 346.074 537.002C343.662 537.002 342.114 535.202 342.114 532.412C342.114 529.604 343.644 527.84 346.074 527.84C347.82 527.84 349.134 528.74 349.584 530.27H352.014C351.564 527.444 349.242 525.626 346.128 525.626C342.276 525.626 339.702 528.344 339.702 532.43C339.702 536.552 342.186 539.216 346.02 539.216ZM352.91 534.536C352.91 537.308 354.908 539.216 357.662 539.216C360.416 539.216 362.414 537.308 362.414 534.536C362.414 531.764 360.416 529.856 357.662 529.856C354.908 529.856 352.91 531.764 352.91 534.536ZM355.106 534.536C355.106 532.916 356.15 531.818 357.662 531.818C359.174 531.818 360.218 532.916 360.218 534.536C360.218 536.156 359.174 537.254 357.662 537.254C356.15 537.254 355.106 536.156 355.106 534.536ZM365.991 539V533.96C365.991 532.52 366.837 531.836 367.881 531.836C368.925 531.836 369.591 532.502 369.591 533.744V539H371.787V533.96C371.787 532.502 372.597 531.818 373.659 531.818C374.703 531.818 375.387 532.484 375.387 533.762V539H377.565V533.186C377.565 531.134 376.377 529.838 374.217 529.838C372.867 529.838 371.823 530.504 371.373 531.53C370.905 530.504 369.969 529.838 368.619 529.838C367.341 529.838 366.441 530.414 365.991 531.152L365.811 530.108H363.795V539H365.991ZM379.361 543.122H381.557V537.812C382.115 538.712 383.267 539.234 384.599 539.234C387.245 539.234 388.757 537.218 388.757 534.446C388.757 531.656 387.101 529.838 384.599 529.838C383.249 529.838 382.079 530.432 381.539 531.458L381.395 530.108H379.361V543.122ZM381.575 534.554C381.575 532.952 382.565 531.836 384.077 531.836C385.625 531.836 386.543 532.97 386.543 534.554C386.543 536.138 385.625 537.254 384.077 537.254C382.565 537.254 381.575 536.156 381.575 534.554ZM392.791 539.234C394.177 539.234 395.383 538.604 395.761 537.686L395.923 539H397.849V533.6C397.849 531.134 396.373 529.838 393.979 529.838C391.567 529.838 389.983 531.098 389.983 533.024H391.855C391.855 532.088 392.575 531.548 393.871 531.548C394.987 531.548 395.707 532.034 395.707 533.24V533.438L393.043 533.636C390.937 533.798 389.749 534.824 389.749 536.462C389.749 538.136 390.901 539.234 392.791 539.234ZM393.511 537.578C392.521 537.578 391.981 537.182 391.981 536.372C391.981 535.652 392.503 535.202 393.871 535.076L395.725 534.932V535.4C395.725 536.768 394.861 537.578 393.511 537.578ZM401.843 539V534.212C401.843 532.772 402.671 531.836 404.021 531.836C405.155 531.836 405.893 532.556 405.893 534.05V539H408.089V533.528C408.089 531.224 406.937 529.838 404.705 529.838C403.499 529.838 402.419 530.36 401.861 531.26L401.681 530.108H399.647V539H401.843ZM408.936 543.122C409.422 543.248 409.962 543.32 410.574 543.32C412.032 543.32 412.968 542.636 413.634 540.98L417.99 530.108H415.722L413.31 536.588L411.024 530.108H408.702L412.284 539.378L412.032 540.044C411.654 541.088 411.114 541.286 410.25 541.286H408.936V543.122ZM425.565 539V534.212C425.565 532.772 426.393 531.836 427.743 531.836C428.877 531.836 429.615 532.556 429.615 534.05V539H431.811V533.528C431.811 531.224 430.659 529.838 428.427 529.838C427.221 529.838 426.141 530.36 425.583 531.26L425.403 530.108H423.369V539H425.565ZM436.255 539.234C437.641 539.234 438.847 538.604 439.225 537.686L439.387 539H441.313V533.6C441.313 531.134 439.837 529.838 437.443 529.838C435.031 529.838 433.447 531.098 433.447 533.024H435.319C435.319 532.088 436.039 531.548 437.335 531.548C438.451 531.548 439.171 532.034 439.171 533.24V533.438L436.507 533.636C434.401 533.798 433.213 534.824 433.213 536.462C433.213 538.136 434.365 539.234 436.255 539.234ZM436.975 537.578C435.985 537.578 435.445 537.182 435.445 536.372C435.445 535.652 435.967 535.202 437.335 535.076L439.189 534.932V535.4C439.189 536.768 438.325 537.578 436.975 537.578ZM445.306 539V533.96C445.306 532.52 446.152 531.836 447.196 531.836C448.24 531.836 448.906 532.502 448.906 533.744V539H451.102V533.96C451.102 532.502 451.912 531.818 452.974 531.818C454.018 531.818 454.702 532.484 454.702 533.762V539H456.88V533.186C456.88 531.134 455.692 529.838 453.532 529.838C452.182 529.838 451.138 530.504 450.688 531.53C450.22 530.504 449.284 529.838 447.934 529.838C446.656 529.838 445.756 530.414 445.306 531.152L445.126 530.108H443.11V539H445.306ZM462.654 539.234C464.976 539.234 466.596 538.064 466.974 536.12H464.94C464.688 536.966 463.896 537.434 462.69 537.434C461.232 537.434 460.404 536.642 460.242 535.076L466.938 535.058V534.392C466.938 531.62 465.246 529.838 462.582 529.838C459.972 529.838 458.154 531.764 458.154 534.554C458.154 537.308 460.008 539.234 462.654 539.234ZM462.6 531.638C463.914 531.638 464.76 532.448 464.76 533.672H460.296C460.512 532.34 461.304 531.638 462.6 531.638Z" fill="black"/>
<path d="M339.588 549.608C339.588 548.74 339.905 548.04 340.54 547.508C341.184 546.967 342.029 546.696 343.074 546.696C344.035 546.696 344.81 546.948 345.398 547.452C345.986 547.956 346.308 548.647 346.364 549.524H344.978C344.941 549.02 344.754 548.628 344.418 548.348C344.082 548.068 343.629 547.928 343.06 547.928C342.425 547.928 341.917 548.077 341.534 548.376C341.151 548.675 340.96 549.071 340.96 549.566C340.96 550.359 341.431 550.868 342.374 551.092L344.04 551.484C345.701 551.867 346.532 552.767 346.532 554.186C346.532 555.091 346.205 555.815 345.552 556.356C344.908 556.897 344.045 557.168 342.962 557.168C341.926 557.168 341.091 556.916 340.456 556.412C339.821 555.908 339.485 555.222 339.448 554.354H340.848C340.867 554.839 341.063 555.227 341.436 555.516C341.819 555.796 342.327 555.936 342.962 555.936C343.634 555.936 344.166 555.791 344.558 555.502C344.959 555.203 345.16 554.802 345.16 554.298C345.16 553.495 344.693 552.987 343.76 552.772L342.094 552.394C340.423 552.011 339.588 551.083 339.588 549.608ZM349.068 556.986H347.752V546.696H349.068V551.204C349.292 550.821 349.605 550.518 350.006 550.294C350.407 550.07 350.869 549.958 351.392 549.958C352.251 549.958 352.895 550.21 353.324 550.714C353.763 551.218 353.982 551.918 353.982 552.814V557H352.666V553.108C352.666 551.811 352.12 551.162 351.028 551.162C350.412 551.162 349.931 551.363 349.586 551.764C349.241 552.156 349.068 552.655 349.068 553.262V556.986ZM356.085 556.16C355.413 555.488 355.077 554.625 355.077 553.57C355.077 552.515 355.413 551.652 356.085 550.98C356.757 550.308 357.611 549.972 358.647 549.972C359.673 549.972 360.523 550.308 361.195 550.98C361.867 551.652 362.203 552.515 362.203 553.57C362.203 554.625 361.867 555.488 361.195 556.16C360.523 556.832 359.673 557.168 358.647 557.168C357.611 557.168 356.757 556.832 356.085 556.16ZM357.023 551.82C356.612 552.268 356.407 552.851 356.407 553.57C356.407 554.289 356.612 554.872 357.023 555.32C357.443 555.768 357.984 555.992 358.647 555.992C359.309 555.992 359.846 555.768 360.257 555.32C360.677 554.863 360.887 554.279 360.887 553.57C360.887 552.861 360.677 552.282 360.257 551.834C359.846 551.377 359.309 551.148 358.647 551.148C357.984 551.148 357.443 551.372 357.023 551.82ZM367.3 550.098V551.302H366.712C366.086 551.302 365.592 551.484 365.228 551.848C364.873 552.212 364.696 552.721 364.696 553.374V557H363.38V550.168H364.612L364.696 551.204C364.836 550.84 365.074 550.551 365.41 550.336C365.746 550.121 366.142 550.014 366.6 550.014C366.805 550.014 367.038 550.042 367.3 550.098ZM370.459 557H369.143V551.26H367.799V550.154H369.143V548.012H370.459V550.154H371.803V551.26H370.459V557ZM378.996 557.168C378.016 557.168 377.237 556.841 376.658 556.188C376.089 555.525 375.804 554.662 375.804 553.598C375.804 552.525 376.094 551.652 376.672 550.98C377.26 550.299 378.054 549.958 379.052 549.958C379.584 549.958 380.056 550.07 380.466 550.294C380.886 550.518 381.213 550.84 381.446 551.26V546.696H382.748V557H381.572L381.46 555.754C381.236 556.211 380.91 556.561 380.48 556.804C380.051 557.047 379.556 557.168 378.996 557.168ZM377.694 555.306C378.077 555.754 378.6 555.978 379.262 555.978C379.925 555.978 380.452 555.754 380.844 555.306C381.236 554.858 381.432 554.275 381.432 553.556C381.432 552.847 381.236 552.268 380.844 551.82C380.452 551.372 379.925 551.148 379.262 551.148C378.6 551.148 378.077 551.372 377.694 551.82C377.321 552.259 377.134 552.837 377.134 553.556C377.134 554.275 377.321 554.858 377.694 555.306ZM387.321 557.168C386.313 557.168 385.492 556.837 384.857 556.174C384.232 555.511 383.919 554.648 383.919 553.584C383.919 552.511 384.227 551.638 384.843 550.966C385.468 550.294 386.276 549.958 387.265 549.958C388.236 549.958 389.015 550.266 389.603 550.882C390.191 551.498 390.485 552.315 390.485 553.332V553.822L385.193 553.836C385.24 554.555 385.445 555.11 385.809 555.502C386.182 555.885 386.696 556.076 387.349 556.076C388.394 556.076 389.034 555.675 389.267 554.872H390.499C390.331 555.609 389.972 556.179 389.421 556.58C388.87 556.972 388.17 557.168 387.321 557.168ZM387.265 551.064C386.696 551.064 386.234 551.227 385.879 551.554C385.524 551.881 385.305 552.347 385.221 552.954H389.169C389.169 552.385 388.996 551.927 388.651 551.582C388.306 551.237 387.844 551.064 387.265 551.064ZM391.115 555.012H392.375C392.375 555.357 392.496 555.633 392.739 555.838C392.991 556.034 393.336 556.132 393.775 556.132C394.232 556.132 394.587 556.043 394.839 555.866C395.1 555.689 395.231 555.441 395.231 555.124C395.231 554.881 395.161 554.69 395.021 554.55C394.881 554.401 394.638 554.284 394.293 554.2L393.089 553.92C391.894 553.631 391.297 552.996 391.297 552.016C391.297 551.391 391.535 550.891 392.011 550.518C392.487 550.145 393.108 549.958 393.873 549.958C394.62 549.958 395.217 550.154 395.665 550.546C396.122 550.929 396.36 551.447 396.379 552.1H395.119C395.1 551.755 394.979 551.484 394.755 551.288C394.531 551.083 394.223 550.98 393.831 550.98C393.42 550.98 393.103 551.069 392.879 551.246C392.655 551.414 392.543 551.657 392.543 551.974C392.543 552.431 392.879 552.744 393.551 552.912L394.755 553.206C395.352 553.346 395.791 553.561 396.071 553.85C396.351 554.139 396.491 554.536 396.491 555.04C396.491 555.684 396.239 556.202 395.735 556.594C395.231 556.977 394.568 557.168 393.747 557.168C392.944 557.168 392.305 556.972 391.829 556.58C391.353 556.188 391.115 555.665 391.115 555.012ZM397.222 553.584C397.222 552.511 397.53 551.638 398.146 550.966C398.772 550.294 399.584 549.958 400.582 549.958C401.441 549.958 402.15 550.187 402.71 550.644C403.28 551.092 403.625 551.699 403.746 552.464H402.43C402.318 552.035 402.099 551.708 401.772 551.484C401.455 551.251 401.072 551.134 400.624 551.134C399.999 551.134 399.49 551.358 399.098 551.806C398.716 552.245 398.524 552.833 398.524 553.57C398.524 554.307 398.706 554.895 399.07 555.334C399.444 555.773 399.943 555.992 400.568 555.992C401.035 555.992 401.432 555.88 401.758 555.656C402.094 555.423 402.323 555.101 402.444 554.69H403.76C403.63 555.437 403.27 556.039 402.682 556.496C402.094 556.944 401.39 557.168 400.568 557.168C399.56 557.168 398.748 556.841 398.132 556.188C397.526 555.535 397.222 554.667 397.222 553.584ZM408.789 550.098V551.302H408.201C407.575 551.302 407.081 551.484 406.717 551.848C406.362 552.212 406.185 552.721 406.185 553.374V557H404.869V550.168H406.101L406.185 551.204C406.325 550.84 406.563 550.551 406.899 550.336C407.235 550.121 407.631 550.014 408.089 550.014C408.294 550.014 408.527 550.042 408.789 550.098ZM411.003 548.278C410.835 548.446 410.63 548.53 410.387 548.53C410.144 548.53 409.939 548.446 409.771 548.278C409.603 548.101 409.519 547.895 409.519 547.662C409.519 547.419 409.603 547.214 409.771 547.046C409.939 546.878 410.144 546.794 410.387 546.794C410.63 546.794 410.835 546.878 411.003 547.046C411.171 547.214 411.255 547.419 411.255 547.662C411.255 547.895 411.171 548.101 411.003 548.278ZM409.743 557V550.154H411.059V557H409.743ZM412.69 560.066V550.154H413.88L413.978 551.386C414.202 550.929 414.533 550.579 414.972 550.336C415.41 550.084 415.905 549.958 416.456 549.958C417.426 549.958 418.196 550.289 418.766 550.952C419.344 551.605 419.634 552.464 419.634 553.528C419.634 554.601 419.349 555.479 418.78 556.16C418.22 556.841 417.445 557.182 416.456 557.182C415.905 557.182 415.415 557.07 414.986 556.846C414.556 556.622 414.23 556.3 414.006 555.88V560.066H412.69ZM414.02 553.584C414.02 554.293 414.211 554.872 414.594 555.32C414.986 555.768 415.513 555.992 416.176 555.992C416.838 555.992 417.361 555.768 417.744 555.32C418.126 554.872 418.318 554.293 418.318 553.584C418.318 552.865 418.126 552.282 417.744 551.834C417.361 551.386 416.838 551.162 416.176 551.162C415.513 551.162 414.986 551.386 414.594 551.834C414.211 552.273 414.02 552.856 414.02 553.584ZM422.668 557H421.352V551.26H420.008V550.154H421.352V548.012H422.668V550.154H424.012V551.26H422.668V557ZM426.173 548.278C426.005 548.446 425.8 548.53 425.557 548.53C425.314 548.53 425.109 548.446 424.941 548.278C424.773 548.101 424.689 547.895 424.689 547.662C424.689 547.419 424.773 547.214 424.941 547.046C425.109 546.878 425.314 546.794 425.557 546.794C425.8 546.794 426.005 546.878 426.173 547.046C426.341 547.214 426.425 547.419 426.425 547.662C426.425 547.895 426.341 548.101 426.173 548.278ZM424.913 557V550.154H426.229V557H424.913ZM428.419 556.16C427.747 555.488 427.411 554.625 427.411 553.57C427.411 552.515 427.747 551.652 428.419 550.98C429.091 550.308 429.945 549.972 430.981 549.972C432.008 549.972 432.857 550.308 433.529 550.98C434.201 551.652 434.537 552.515 434.537 553.57C434.537 554.625 434.201 555.488 433.529 556.16C432.857 556.832 432.008 557.168 430.981 557.168C429.945 557.168 429.091 556.832 428.419 556.16ZM429.357 551.82C428.947 552.268 428.741 552.851 428.741 553.57C428.741 554.289 428.947 554.872 429.357 555.32C429.777 555.768 430.319 555.992 430.981 555.992C431.644 555.992 432.181 555.768 432.591 555.32C433.011 554.863 433.221 554.279 433.221 553.57C433.221 552.861 433.011 552.282 432.591 551.834C432.181 551.377 431.644 551.148 430.981 551.148C430.319 551.148 429.777 551.372 429.357 551.82ZM437.03 557H435.714V550.154H436.904L437.044 551.204C437.259 550.812 437.567 550.509 437.968 550.294C438.379 550.07 438.827 549.958 439.312 549.958C440.19 549.958 440.848 550.21 441.286 550.714C441.725 551.209 441.944 551.909 441.944 552.814V557H440.628V553.108C440.628 551.811 440.078 551.162 438.976 551.162C438.37 551.162 437.894 551.363 437.548 551.764C437.203 552.165 437.03 552.702 437.03 553.374V557ZM448.351 556.986H447.035V546.696H448.351V551.204C448.575 550.821 448.888 550.518 449.289 550.294C449.69 550.07 450.152 549.958 450.675 549.958C451.534 549.958 452.178 550.21 452.607 550.714C453.046 551.218 453.265 551.918 453.265 552.814V557H451.949V553.108C451.949 551.811 451.403 551.162 450.311 551.162C449.695 551.162 449.214 551.363 448.869 551.764C448.524 552.156 448.351 552.655 448.351 553.262V556.986ZM457.762 557.168C456.754 557.168 455.932 556.837 455.298 556.174C454.672 555.511 454.36 554.648 454.36 553.584C454.36 552.511 454.668 551.638 455.284 550.966C455.909 550.294 456.716 549.958 457.706 549.958C458.676 549.958 459.456 550.266 460.044 550.882C460.632 551.498 460.926 552.315 460.926 553.332V553.822L455.634 553.836C455.68 554.555 455.886 555.11 456.25 555.502C456.623 555.885 457.136 556.076 457.79 556.076C458.835 556.076 459.474 555.675 459.708 554.872H460.94C460.772 555.609 460.412 556.179 459.862 556.58C459.311 556.972 458.611 557.168 457.762 557.168ZM457.706 551.064C457.136 551.064 456.674 551.227 456.32 551.554C455.965 551.881 455.746 552.347 455.662 552.954H459.61C459.61 552.385 459.437 551.927 459.092 551.582C458.746 551.237 458.284 551.064 457.706 551.064ZM466.036 550.098V551.302H465.448C464.822 551.302 464.328 551.484 463.964 551.848C463.609 552.212 463.432 552.721 463.432 553.374V557H462.116V550.168H463.348L463.432 551.204C463.572 550.84 463.81 550.551 464.146 550.336C464.482 550.121 464.878 550.014 465.336 550.014C465.541 550.014 465.774 550.042 466.036 550.098ZM469.698 557.168C468.69 557.168 467.869 556.837 467.234 556.174C466.609 555.511 466.296 554.648 466.296 553.584C466.296 552.511 466.604 551.638 467.22 550.966C467.845 550.294 468.653 549.958 469.642 549.958C470.613 549.958 471.392 550.266 471.98 550.882C472.568 551.498 472.862 552.315 472.862 553.332V553.822L467.57 553.836C467.617 554.555 467.822 555.11 468.186 555.502C468.559 555.885 469.073 556.076 469.726 556.076C470.771 556.076 471.411 555.675 471.644 554.872H472.876C472.708 555.609 472.349 556.179 471.798 556.58C471.247 556.972 470.547 557.168 469.698 557.168ZM469.642 551.064C469.073 551.064 468.611 551.227 468.256 551.554C467.901 551.881 467.682 552.347 467.598 552.954H471.546C471.546 552.385 471.373 551.927 471.028 551.582C470.683 551.237 470.221 551.064 469.642 551.064Z" fill="#6C757D"/>
<rect x="179.25" y="436.25" width="383.5" height="151.5" rx="7.75" stroke="#E9ECEF" stroke-width="0.5"/>
<g filter="url(#filter4_d_1114_13827)">
<rect x="211" y="184" width="282" height="72" rx="8" fill="white" shape-rendering="crispEdges"/>
<rect x="227" y="200" width="40" height="40" rx="20" fill="#FCF3ED"/>
<path d="M247 220C249.21 220 251 218.21 251 216C251 213.79 249.21 212 247 212C244.79 212 243 213.79 243 216C243 218.21 244.79 220 247 220ZM247 222C244.33 222 239 223.34 239 226V227C239 227.55 239.45 228 240 228H254C254.55 228 255 227.55 255 227V226C255 223.34 249.67 222 247 222Z" fill="#E59661"/>
<path d="M280.458 219H285.786C288.504 219 290.07 217.686 290.07 215.436C290.07 213.906 289.368 212.862 287.982 212.412C289.224 211.89 289.872 210.846 289.872 209.388C289.872 207.192 288.288 205.842 285.696 205.842H280.458V219ZM285.498 207.876C286.794 207.876 287.514 208.488 287.514 209.622C287.514 210.792 286.812 211.458 285.552 211.458H282.762V207.876H285.498ZM285.696 213.402C286.974 213.402 287.712 214.032 287.712 215.148C287.712 216.336 286.992 216.966 285.696 216.966H282.762V213.402H285.696ZM295.477 219.234C297.799 219.234 299.419 218.064 299.797 216.12H297.763C297.511 216.966 296.719 217.434 295.513 217.434C294.055 217.434 293.227 216.642 293.065 215.076L299.761 215.058V214.392C299.761 211.62 298.069 209.838 295.405 209.838C292.795 209.838 290.977 211.764 290.977 214.554C290.977 217.308 292.831 219.234 295.477 219.234ZM295.423 211.638C296.737 211.638 297.583 212.448 297.583 213.672H293.119C293.335 212.34 294.127 211.638 295.423 211.638ZM303.372 219V205.608H301.194V219H303.372ZM306.414 208.326C307.134 208.326 307.728 207.732 307.728 206.994C307.728 206.256 307.134 205.68 306.414 205.68C305.658 205.68 305.064 206.256 305.064 206.994C305.064 207.732 305.658 208.326 306.414 208.326ZM305.316 219H307.512V210.108H305.316V219ZM311.617 219V214.212C311.617 212.772 312.445 211.836 313.795 211.836C314.929 211.836 315.667 212.556 315.667 214.05V219H317.863V213.528C317.863 211.224 316.711 209.838 314.479 209.838C313.273 209.838 312.193 210.36 311.635 211.26L311.455 210.108H309.421V219H311.617ZM323.314 219.234C324.664 219.234 325.816 218.64 326.356 217.614L326.5 219H328.516V205.608H326.338V211.242C325.78 210.36 324.682 209.838 323.44 209.838C320.758 209.838 319.138 211.818 319.138 214.59C319.138 217.344 320.74 219.234 323.314 219.234ZM323.8 217.218C322.27 217.218 321.334 216.102 321.334 214.518C321.334 212.934 322.27 211.8 323.8 211.8C325.33 211.8 326.32 212.916 326.32 214.518C326.32 216.12 325.33 217.218 323.8 217.218ZM333.091 219.234C334.477 219.234 335.683 218.604 336.061 217.686L336.223 219H338.149V213.6C338.149 211.134 336.673 209.838 334.279 209.838C331.867 209.838 330.283 211.098 330.283 213.024H332.155C332.155 212.088 332.875 211.548 334.171 211.548C335.287 211.548 336.007 212.034 336.007 213.24V213.438L333.343 213.636C331.237 213.798 330.049 214.824 330.049 216.462C330.049 218.136 331.201 219.234 333.091 219.234ZM333.811 217.578C332.821 217.578 332.281 217.182 332.281 216.372C332.281 215.652 332.803 215.202 334.171 215.076L336.025 214.932V215.4C336.025 216.768 335.161 217.578 333.811 217.578Z" fill="black"/>
<path d="M284.306 237.154C286.462 237.154 288.212 235.88 288.674 233.99H287.596C287.162 235.334 285.902 236.188 284.32 236.188C282.122 236.188 280.652 234.508 280.652 231.988C280.652 229.454 282.122 227.774 284.32 227.774C285.888 227.774 287.12 228.656 287.54 230.098H288.618C288.212 228.11 286.518 226.808 284.362 226.808C281.534 226.808 279.602 228.908 279.602 231.988C279.602 235.068 281.506 237.154 284.306 237.154ZM289.451 233.612C289.451 235.67 290.907 237.168 292.895 237.168C294.883 237.168 296.339 235.67 296.339 233.612C296.339 231.54 294.883 230.042 292.895 230.042C290.907 230.042 289.451 231.54 289.451 233.612ZM290.431 233.598C290.431 232.03 291.439 230.91 292.895 230.91C294.337 230.91 295.359 232.03 295.359 233.598C295.359 235.194 294.337 236.3 292.895 236.3C291.439 236.3 290.431 235.194 290.431 233.598ZM298.57 237V233.458C298.57 231.932 299.354 230.924 300.74 230.924C301.86 230.924 302.574 231.484 302.574 233.066V237H303.54V232.856C303.54 231.148 302.77 230.042 300.908 230.042C299.928 230.042 299.032 230.532 298.584 231.4L298.444 230.224H297.604V237H298.57ZM306.74 237V231.036H308.098V230.224H306.74V228.082H305.788V230.224H304.43V231.036H305.788V237H306.74ZM311.849 237.168C313.445 237.168 314.495 236.398 314.859 234.97H313.935C313.683 235.866 312.969 236.342 311.863 236.342C310.407 236.342 309.539 235.39 309.469 233.738H314.859V233.262C314.859 231.344 313.613 230.042 311.779 230.042C309.847 230.042 308.531 231.498 308.531 233.612C308.531 235.74 309.861 237.168 311.849 237.168ZM311.779 230.868C313.053 230.868 313.893 231.736 313.893 233.038H309.497C309.665 231.708 310.505 230.868 311.779 230.868ZM317.09 237V233.458C317.09 231.932 317.874 230.924 319.26 230.924C320.38 230.924 321.094 231.484 321.094 233.066V237H322.06V232.856C322.06 231.148 321.29 230.042 319.428 230.042C318.448 230.042 317.552 230.532 317.104 231.4L316.964 230.224H316.124V237H317.09ZM325.259 237V231.036H326.617V230.224H325.259V228.082H324.307V230.224H322.949V231.036H324.307V237H325.259ZM335.496 237.154C337.652 237.154 339.402 235.88 339.864 233.99H338.786C338.352 235.334 337.092 236.188 335.51 236.188C333.312 236.188 331.842 234.508 331.842 231.988C331.842 229.454 333.312 227.774 335.51 227.774C337.078 227.774 338.31 228.656 338.73 230.098H339.808C339.402 228.11 337.708 226.808 335.552 226.808C332.724 226.808 330.792 228.908 330.792 231.988C330.792 235.068 332.696 237.154 335.496 237.154ZM344.659 230.14C344.421 230.084 344.239 230.07 344.029 230.07C343.077 230.07 342.363 230.546 342.097 231.274L342.027 230.224H341.117V237H342.083V233.136C342.083 231.848 342.881 231.008 344.127 231.008H344.659V230.14ZM348.245 237.168C349.841 237.168 350.891 236.398 351.255 234.97H350.331C350.079 235.866 349.365 236.342 348.259 236.342C346.803 236.342 345.935 235.39 345.865 233.738H351.255V233.262C351.255 231.344 350.009 230.042 348.175 230.042C346.243 230.042 344.927 231.498 344.927 233.612C344.927 235.74 346.257 237.168 348.245 237.168ZM348.175 230.868C349.449 230.868 350.289 231.736 350.289 233.038H345.893C346.061 231.708 346.901 230.868 348.175 230.868ZM354.397 237.168C355.545 237.168 356.469 236.664 356.889 235.81L357.015 237H357.827V232.618C357.827 230.826 356.679 230.042 355.111 230.042C353.445 230.042 352.325 230.924 352.325 232.296H353.207C353.207 231.386 353.907 230.854 355.083 230.854C356.077 230.854 356.875 231.274 356.875 232.604V232.828L354.635 233.01C353.053 233.136 352.101 233.92 352.101 235.166C352.101 236.356 352.955 237.168 354.397 237.168ZM354.621 236.384C353.697 236.384 353.081 235.964 353.081 235.138C353.081 234.382 353.599 233.822 354.873 233.71L356.875 233.556V233.92C356.875 235.39 356.049 236.384 354.621 236.384ZM360.917 237V231.036H362.275V230.224H360.917V228.082H359.965V230.224H358.607V231.036H359.965V237H360.917ZM362.708 233.612C362.708 235.67 364.164 237.168 366.152 237.168C368.14 237.168 369.596 235.67 369.596 233.612C369.596 231.54 368.14 230.042 366.152 230.042C364.164 230.042 362.708 231.54 362.708 233.612ZM363.688 233.598C363.688 232.03 364.696 230.91 366.152 230.91C367.594 230.91 368.616 232.03 368.616 233.598C368.616 235.194 367.594 236.3 366.152 236.3C364.696 236.3 363.688 235.194 363.688 233.598ZM374.403 230.14C374.165 230.084 373.983 230.07 373.773 230.07C372.821 230.07 372.107 230.546 371.841 231.274L371.771 230.224H370.861V237H371.827V233.136C371.827 231.848 372.625 231.008 373.871 231.008H374.403V230.14Z" fill="#6C757D"/>
<path d="M425.097 216.703L426.057 217.663L422.804 220.916L420.611 218.723C420.351 218.463 419.931 218.463 419.671 218.723L415.671 222.729C415.411 222.989 415.411 223.409 415.671 223.669C415.931 223.929 416.351 223.929 416.611 223.669L420.137 220.136L422.331 222.329C422.591 222.589 423.011 222.589 423.271 222.329L426.997 218.609L427.957 219.569C428.164 219.776 428.524 219.629 428.524 219.336V216.469C428.531 216.283 428.384 216.136 428.197 216.136H425.337C425.037 216.136 424.891 216.496 425.097 216.703Z" fill="#86C1A1"/>
<path d="M434.96 220.344V221.568H437.348V223.968H438.572V221.568H440.96V220.344H438.572V217.956H437.348V220.344H434.96Z" fill="#86C1A1"/>
<path d="M443.686 218.808C442.702 220.14 442.354 220.908 442.354 221.964C442.354 223.764 443.77 225.156 445.666 225.156C447.538 225.156 448.93 223.848 448.93 221.976C448.93 220.2 447.706 218.928 445.894 218.928C445.678 218.928 445.45 218.964 445.234 219.024L447.334 216.228H445.582L443.686 218.808ZM443.926 221.976C443.926 220.92 444.622 220.188 445.666 220.188C446.674 220.188 447.382 220.92 447.382 221.976C447.382 223.044 446.662 223.788 445.666 223.788C444.634 223.788 443.926 223.044 443.926 221.976ZM456.671 223.332V221.988H455.603V216.228H453.671L449.699 221.988V223.332H454.151V225H455.603V223.332H456.671ZM451.331 221.988L454.151 217.884V221.988H451.331ZM462.113 218.364C462.113 217.02 461.153 216.06 459.821 216.06C458.489 216.06 457.529 217.02 457.529 218.364C457.529 219.72 458.489 220.668 459.821 220.668C461.153 220.668 462.113 219.72 462.113 218.364ZM466.925 216.24H465.461L458.801 225H460.265L466.925 216.24ZM460.949 218.364C460.949 219.06 460.493 219.54 459.821 219.54C459.161 219.54 458.705 219.06 458.705 218.364C458.705 217.668 459.149 217.188 459.821 217.188C460.493 217.188 460.949 217.668 460.949 218.364ZM468.209 222.852C468.209 221.508 467.261 220.548 465.929 220.548C464.585 220.548 463.637 221.508 463.637 222.852C463.637 224.196 464.585 225.156 465.929 225.156C467.261 225.156 468.209 224.196 468.209 222.852ZM467.045 222.852C467.045 223.548 466.589 224.028 465.929 224.028C465.257 224.028 464.801 223.548 464.801 222.852C464.801 222.156 465.257 221.676 465.929 221.676C466.589 221.676 467.045 222.156 467.045 222.852Z" fill="black"/>
<rect x="406.25" y="208.25" width="70.5" height="23.5" rx="11.75" stroke="#BCDCCB" stroke-width="0.5"/>
</g>
<defs>
<filter id="filter0_f_1114_13827" x="320.899" y="130.942" width="351.175" height="353.146" filterUnits="userSpaceOnUse" color-interpolation-filters="sRGB">
<feFlood flood-opacity="0" result="BackgroundImageFix"/>
<feBlend mode="normal" in="SourceGraphic" in2="BackgroundImageFix" result="shape"/>
<feGaussianBlur stdDeviation="58.5366" result="effect1_foregroundBlur_1114_13827"/>
</filter>
<filter id="filter1_f_1114_13827" x="0.853683" y="0.853683" width="702.35" height="706.293" filterUnits="userSpaceOnUse" color-interpolation-filters="sRGB">
<feFlood flood-opacity="0" result="BackgroundImageFix"/>
<feBlend mode="normal" in="SourceGraphic" in2="BackgroundImageFix" result="shape"/>
<feGaussianBlur stdDeviation="117.073" result="effect1_foregroundBlur_1114_13827"/>
</filter>
<filter id="filter2_f_1114_13827" x="342.841" y="212.755" width="307.289" height="308.521" filterUnits="userSpaceOnUse" color-interpolation-filters="sRGB">
<feFlood flood-opacity="0" result="BackgroundImageFix"/>
<feBlend mode="normal" in="SourceGraphic" in2="BackgroundImageFix" result="shape"/>
<feGaussianBlur stdDeviation="58.5366" result="effect1_foregroundBlur_1114_13827"/>
</filter>
<filter id="filter3_d_1114_13827" x="275" y="224" width="160" height="208" filterUnits="userSpaceOnUse" color-interpolation-filters="sRGB">
<feFlood flood-opacity="0" result="BackgroundImageFix"/>
<feColorMatrix in="SourceAlpha" type="matrix" values="0 0 0 0 0 0 0 0 0 0 0 0 0 0 0 0 0 0 127 0" result="hardAlpha"/>
<feOffset dy="24"/>
<feGaussianBlur stdDeviation="32"/>
<feComposite in2="hardAlpha" operator="out"/>
<feColorMatrix type="matrix" values="0 0 0 0 0.88 0 0 0 0 0.88 0 0 0 0 0.88 0 0 0 0.48 0"/>
<feBlend mode="normal" in2="BackgroundImageFix" result="effect1_dropShadow_1114_13827"/>
<feBlend mode="normal" in="SourceGraphic" in2="effect1_dropShadow_1114_13827" result="shape"/>
</filter>
<filter id="filter4_d_1114_13827" x="147" y="144" width="410" height="200" filterUnits="userSpaceOnUse" color-interpolation-filters="sRGB">
<feFlood flood-opacity="0" result="BackgroundImageFix"/>
<feColorMatrix in="SourceAlpha" type="matrix" values="0 0 0 0 0 0 0 0 0 0 0 0 0 0 0 0 0 0 127 0" result="hardAlpha"/>
<feOffset dy="24"/>
<feGaussianBlur stdDeviation="32"/>
<feComposite in2="hardAlpha" operator="out"/>
<feColorMatrix type="matrix" values="0 0 0 0 0.88 0 0 0 0 0.88 0 0 0 0 0.88 0 0 0 0.48 0"/>
<feBlend mode="normal" in2="BackgroundImageFix" result="effect1_dropShadow_1114_13827"/>
<feBlend mode="normal" in="SourceGraphic" in2="effect1_dropShadow_1114_13827" result="shape"/>
</filter>
<linearGradient id="paint0_linear_1114_13827" x1="227" y1="412" x2="563" y2="412" gradientUnits="userSpaceOnUse">
<stop offset="0.857143" stop-color="white" stop-opacity="0"/>
<stop offset="1" stop-color="white"/>
</linearGradient>
<clipPath id="clip0_1114_13827">
<rect x="227" y="396" width="336" height="32" rx="8" fill="white"/>
</clipPath>
</defs>
</svg>
