<svg width="632" height="588" viewBox="0 0 632 588" fill="none" xmlns="http://www.w3.org/2000/svg">
<g filter="url(#filter0_f_1114_13616)">
<ellipse cx="45.7143" cy="46.4844" rx="45.7143" ry="46.4844" transform="matrix(1 0 0 -1 349.572 304.168)" fill="#E5CB61"/>
</g>
<g filter="url(#filter1_f_1114_13616)">
<ellipse cx="91.4286" cy="92.9688" rx="91.4286" ry="92.9688" transform="matrix(1 0 0 -1 191 386.969)" fill="#6173E5"/>
</g>
<g filter="url(#filter2_f_1114_13616)">
<ellipse cx="28.5714" cy="29.0527" rx="28.5714" ry="29.0527" transform="matrix(1 0 0 -1 366.714 333.221)" fill="#E56161"/>
</g>
<rect x="124" y="64" width="384" height="352" rx="8" fill="white"/>
<rect x="148" y="88" width="24" height="24" rx="8" fill="#EDEFFC"/>
<path d="M166 97.6666C165.033 97.6666 164.493 98.6266 164.713 99.34L162.347 101.713C162.147 101.653 161.853 101.653 161.653 101.713L159.953 100.013C160.18 99.3 159.64 98.3333 158.667 98.3333C157.7 98.3333 157.153 99.2933 157.38 100.013L154.34 103.047C153.627 102.827 152.667 103.367 152.667 104.333C152.667 105.067 153.267 105.667 154 105.667C154.967 105.667 155.507 104.707 155.287 103.993L158.32 100.953C158.52 101.013 158.813 101.013 159.013 100.953L160.713 102.653C160.487 103.367 161.027 104.333 162 104.333C162.967 104.333 163.513 103.373 163.287 102.653L165.66 100.287C166.373 100.507 167.333 99.9666 167.333 99C167.333 98.2666 166.733 97.6666 166 97.6666Z" fill="#6173E5"/>
<path d="M162 98.3333L162.627 96.9533L164 96.3333L162.627 95.7133L162 94.3333L161.387 95.7133L160 96.3333L161.387 96.9533L162 98.3333Z" fill="#6173E5"/>
<path d="M154.333 99.6666L154.667 98.3333L156 98L154.667 97.6666L154.333 96.3333L154 97.6666L152.667 98L154 98.3333L154.333 99.6666Z" fill="#6173E5"/>
<path d="M182.912 94.432V106H181.344V94.432H182.912ZM186.538 106H185.034V98.176H186.394L186.554 99.376C186.799 98.928 187.151 98.5813 187.61 98.336C188.079 98.08 188.591 97.952 189.146 97.952C190.148 97.952 190.9 98.24 191.402 98.816C191.903 99.3813 192.154 100.181 192.154 101.216V106H190.65V101.552C190.65 100.069 190.02 99.328 188.762 99.328C188.068 99.328 187.524 99.5573 187.13 100.016C186.735 100.475 186.538 101.088 186.538 101.856V106ZM193.183 103.728H194.623C194.623 104.123 194.762 104.437 195.039 104.672C195.327 104.896 195.722 105.008 196.223 105.008C196.746 105.008 197.151 104.907 197.439 104.704C197.738 104.501 197.887 104.219 197.887 103.856C197.887 103.579 197.807 103.36 197.647 103.2C197.487 103.029 197.21 102.896 196.815 102.8L195.439 102.48C194.074 102.149 193.391 101.424 193.391 100.304C193.391 99.5893 193.663 99.0187 194.207 98.592C194.751 98.1653 195.46 97.952 196.335 97.952C197.188 97.952 197.871 98.176 198.383 98.624C198.906 99.0613 199.178 99.6533 199.199 100.4H197.759C197.738 100.005 197.599 99.696 197.343 99.472C197.087 99.2373 196.735 99.12 196.287 99.12C195.818 99.12 195.455 99.2213 195.199 99.424C194.943 99.616 194.815 99.8933 194.815 100.256C194.815 100.779 195.199 101.136 195.967 101.328L197.343 101.664C198.026 101.824 198.527 102.069 198.847 102.4C199.167 102.731 199.327 103.184 199.327 103.76C199.327 104.496 199.039 105.088 198.463 105.536C197.887 105.973 197.13 106.192 196.191 106.192C195.274 106.192 194.543 105.968 193.999 105.52C193.455 105.072 193.183 104.475 193.183 103.728ZM202.115 96.032C201.923 96.224 201.688 96.32 201.411 96.32C201.134 96.32 200.899 96.224 200.707 96.032C200.515 95.8293 200.419 95.5947 200.419 95.328C200.419 95.0507 200.515 94.816 200.707 94.624C200.899 94.432 201.134 94.336 201.411 94.336C201.688 94.336 201.923 94.432 202.115 94.624C202.307 94.816 202.403 95.0507 202.403 95.328C202.403 95.5947 202.307 95.8293 202.115 96.032ZM200.675 106V98.176H202.179V106H200.675ZM203.546 101.888C203.546 100.757 203.882 99.8187 204.554 99.072C205.237 98.3253 206.133 97.952 207.242 97.952C207.872 97.952 208.421 98.0907 208.89 98.368C209.37 98.6347 209.733 99.0133 209.978 99.504L210.09 98.176H211.434V105.68C211.434 106.917 211.077 107.899 210.362 108.624C209.658 109.349 208.709 109.712 207.514 109.712C206.448 109.712 205.573 109.429 204.89 108.864C204.208 108.299 203.792 107.52 203.642 106.528H205.146C205.242 107.104 205.498 107.552 205.914 107.872C206.33 108.192 206.864 108.352 207.514 108.352C208.25 108.352 208.837 108.128 209.274 107.68C209.722 107.243 209.946 106.651 209.946 105.904V104.336C209.69 104.795 209.317 105.152 208.826 105.408C208.346 105.664 207.797 105.792 207.178 105.792C206.09 105.792 205.21 105.424 204.538 104.688C203.877 103.941 203.546 103.008 203.546 101.888ZM205.05 101.856C205.05 102.613 205.264 103.243 205.69 103.744C206.128 104.235 206.709 104.48 207.434 104.48C208.181 104.48 208.773 104.24 209.21 103.76C209.658 103.269 209.882 102.635 209.882 101.856C209.882 101.088 209.664 100.464 209.226 99.984C208.8 99.504 208.208 99.264 207.45 99.264C206.714 99.264 206.128 99.5093 205.69 100C205.264 100.491 205.05 101.109 205.05 101.856ZM214.789 105.984H213.285V94.224H214.789V99.376C215.045 98.9387 215.402 98.592 215.861 98.336C216.32 98.08 216.848 97.952 217.445 97.952C218.426 97.952 219.162 98.24 219.653 98.816C220.154 99.392 220.405 100.192 220.405 101.216V106H218.901V101.552C218.901 100.069 218.277 99.328 217.029 99.328C216.325 99.328 215.776 99.5573 215.381 100.016C214.986 100.464 214.789 101.035 214.789 101.728V105.984ZM224.376 106H222.872V99.44H221.336V98.176H222.872V95.728H224.376V98.176H225.912V99.44H224.376V106Z" fill="black"/>
<path d="M472 98.6667C471.267 98.6667 470.667 99.2667 470.667 100C470.667 100.733 471.267 101.333 472 101.333C472.733 101.333 473.333 100.733 473.333 100C473.333 99.2667 472.733 98.6667 472 98.6667ZM480 98.6667C479.267 98.6667 478.667 99.2667 478.667 100C478.667 100.733 479.267 101.333 480 101.333C480.733 101.333 481.333 100.733 481.333 100C481.333 99.2667 480.733 98.6667 480 98.6667ZM476 98.6667C475.267 98.6667 474.667 99.2667 474.667 100C474.667 100.733 475.267 101.333 476 101.333C476.733 101.333 477.333 100.733 477.333 100C477.333 99.2667 476.733 98.6667 476 98.6667Z" fill="#343A40"/>
<path d="M148 128H484" stroke="#E9ECEF"/>
<rect x="148" y="152" width="107" height="24" rx="12" fill="#F2F8F5"/>
<path d="M167.097 160.703L168.057 161.663L164.804 164.916L162.611 162.723C162.351 162.463 161.931 162.463 161.671 162.723L157.671 166.729C157.411 166.989 157.411 167.409 157.671 167.669C157.931 167.929 158.351 167.929 158.611 167.669L162.137 164.136L164.331 166.329C164.591 166.589 165.011 166.589 165.271 166.329L168.997 162.609L169.957 163.569C170.164 163.776 170.524 163.629 170.524 163.336V160.469C170.531 160.283 170.384 160.136 170.197 160.136H167.337C167.037 160.136 166.891 160.496 167.097 160.703Z" fill="#86C1A1"/>
<path d="M180.608 169.132C179.368 169.132 178.372 168.724 177.62 167.908C176.868 167.092 176.492 166.012 176.492 164.668C176.492 163.332 176.876 162.252 177.644 161.428C178.42 160.596 179.428 160.18 180.668 160.18C181.644 160.18 182.476 160.448 183.164 160.984C183.86 161.52 184.288 162.232 184.448 163.12H183.188C183.028 162.56 182.72 162.12 182.264 161.8C181.808 161.472 181.264 161.308 180.632 161.308C179.752 161.308 179.048 161.612 178.52 162.22C177.992 162.828 177.728 163.64 177.728 164.656C177.728 165.672 177.992 166.484 178.52 167.092C179.048 167.7 179.752 168.004 180.632 168.004C181.264 168.004 181.816 167.848 182.288 167.536C182.76 167.216 183.076 166.788 183.236 166.252H184.484C184.3 167.116 183.852 167.812 183.14 168.34C182.428 168.868 181.584 169.132 180.608 169.132ZM187.333 169.144C186.709 169.144 186.217 168.984 185.857 168.664C185.505 168.336 185.329 167.904 185.329 167.368C185.329 166.832 185.517 166.404 185.893 166.084C186.277 165.756 186.817 165.564 187.513 165.508L189.361 165.364V165.196C189.361 164.308 188.901 163.864 187.981 163.864C187.509 163.864 187.141 163.964 186.877 164.164C186.621 164.364 186.493 164.64 186.493 164.992H185.509C185.509 164.384 185.737 163.896 186.193 163.528C186.657 163.152 187.269 162.964 188.029 162.964C188.781 162.964 189.373 163.164 189.805 163.564C190.245 163.964 190.465 164.548 190.465 165.316V169H189.505L189.385 168.052C189.233 168.388 188.969 168.656 188.593 168.856C188.225 169.048 187.805 169.144 187.333 169.144ZM187.657 168.268C188.193 168.268 188.613 168.108 188.917 167.788C189.221 167.46 189.373 167.02 189.373 166.468V166.156L187.873 166.276C186.937 166.364 186.469 166.716 186.469 167.332C186.469 167.636 186.573 167.868 186.781 168.028C186.989 168.188 187.281 168.268 187.657 168.268ZM192.027 171.628V163.132H193.047L193.131 164.188C193.323 163.796 193.607 163.496 193.983 163.288C194.359 163.072 194.783 162.964 195.255 162.964C196.087 162.964 196.747 163.248 197.235 163.816C197.731 164.376 197.979 165.112 197.979 166.024C197.979 166.944 197.735 167.696 197.247 168.28C196.767 168.864 196.103 169.156 195.255 169.156C194.783 169.156 194.363 169.06 193.995 168.868C193.627 168.676 193.347 168.4 193.155 168.04V171.628H192.027ZM193.167 166.072C193.167 166.68 193.331 167.176 193.659 167.56C193.995 167.944 194.447 168.136 195.015 168.136C195.583 168.136 196.031 167.944 196.359 167.56C196.687 167.176 196.851 166.68 196.851 166.072C196.851 165.456 196.687 164.956 196.359 164.572C196.031 164.188 195.583 163.996 195.015 163.996C194.447 163.996 193.995 164.188 193.659 164.572C193.331 164.948 193.167 165.448 193.167 166.072ZM200.82 169H199.692V164.08H198.54V163.132H199.692V161.296H200.82V163.132H201.972V164.08H200.82V169ZM204.064 161.524C203.92 161.668 203.744 161.74 203.536 161.74C203.328 161.74 203.152 161.668 203.008 161.524C202.864 161.372 202.792 161.196 202.792 160.996C202.792 160.788 202.864 160.612 203.008 160.468C203.152 160.324 203.328 160.252 203.536 160.252C203.744 160.252 203.92 160.324 204.064 160.468C204.208 160.612 204.28 160.788 204.28 160.996C204.28 161.196 204.208 161.372 204.064 161.524ZM202.984 169V163.132H204.112V169H202.984ZM206.23 168.28C205.654 167.704 205.366 166.964 205.366 166.06C205.366 165.156 205.654 164.416 206.23 163.84C206.806 163.264 207.538 162.976 208.426 162.976C209.306 162.976 210.034 163.264 210.61 163.84C211.186 164.416 211.474 165.156 211.474 166.06C211.474 166.964 211.186 167.704 210.61 168.28C210.034 168.856 209.306 169.144 208.426 169.144C207.538 169.144 206.806 168.856 206.23 168.28ZM207.034 164.56C206.682 164.944 206.506 165.444 206.506 166.06C206.506 166.676 206.682 167.176 207.034 167.56C207.394 167.944 207.858 168.136 208.426 168.136C208.994 168.136 209.454 167.944 209.806 167.56C210.166 167.168 210.346 166.668 210.346 166.06C210.346 165.452 210.166 164.956 209.806 164.572C209.454 164.18 208.994 163.984 208.426 163.984C207.858 163.984 207.394 164.176 207.034 164.56ZM213.85 169H212.722V163.132H213.742L213.862 164.032C214.046 163.696 214.31 163.436 214.654 163.252C215.006 163.06 215.39 162.964 215.806 162.964C216.558 162.964 217.122 163.18 217.498 163.612C217.874 164.036 218.062 164.636 218.062 165.412V169H216.934V165.664C216.934 164.552 216.462 163.996 215.518 163.996C214.998 163.996 214.59 164.168 214.294 164.512C213.998 164.856 213.85 165.316 213.85 165.892V169ZM224.034 168.988H222.906V160.168H224.034V164.032C224.226 163.704 224.494 163.444 224.838 163.252C225.182 163.06 225.578 162.964 226.026 162.964C226.762 162.964 227.314 163.18 227.682 163.612C228.058 164.044 228.246 164.644 228.246 165.412V169H227.118V165.664C227.118 164.552 226.65 163.996 225.714 163.996C225.186 163.996 224.774 164.168 224.478 164.512C224.182 164.848 224.034 165.276 224.034 165.796V168.988ZM232.34 169.144C231.476 169.144 230.772 168.86 230.228 168.292C229.692 167.724 229.424 166.984 229.424 166.072C229.424 165.152 229.688 164.404 230.216 163.828C230.752 163.252 231.444 162.964 232.292 162.964C233.124 162.964 233.792 163.228 234.296 163.756C234.8 164.284 235.052 164.984 235.052 165.856V166.276L230.516 166.288C230.556 166.904 230.732 167.38 231.044 167.716C231.364 168.044 231.804 168.208 232.364 168.208C233.26 168.208 233.808 167.864 234.008 167.176H235.064C234.92 167.808 234.612 168.296 234.14 168.64C233.668 168.976 233.068 169.144 232.34 169.144ZM232.292 163.912C231.804 163.912 231.408 164.052 231.104 164.332C230.8 164.612 230.612 165.012 230.54 165.532H233.924C233.924 165.044 233.776 164.652 233.48 164.356C233.184 164.06 232.788 163.912 232.292 163.912ZM239.672 163.084V164.116H239.168C238.632 164.116 238.208 164.272 237.896 164.584C237.592 164.896 237.44 165.332 237.44 165.892V169H236.312V163.144H237.368L237.44 164.032C237.56 163.72 237.764 163.472 238.052 163.288C238.34 163.104 238.68 163.012 239.072 163.012C239.248 163.012 239.448 163.036 239.672 163.084ZM243.051 169.144C242.187 169.144 241.483 168.86 240.939 168.292C240.403 167.724 240.135 166.984 240.135 166.072C240.135 165.152 240.399 164.404 240.927 163.828C241.463 163.252 242.155 162.964 243.003 162.964C243.835 162.964 244.503 163.228 245.007 163.756C245.511 164.284 245.763 164.984 245.763 165.856V166.276L241.227 166.288C241.267 166.904 241.443 167.38 241.755 167.716C242.075 168.044 242.515 168.208 243.075 168.208C243.971 168.208 244.519 167.864 244.719 167.176H245.775C245.631 167.808 245.323 168.296 244.851 168.64C244.379 168.976 243.779 169.144 243.051 169.144ZM243.003 163.912C242.515 163.912 242.119 164.052 241.815 164.332C241.511 164.612 241.323 165.012 241.251 165.532H244.635C244.635 165.044 244.487 164.652 244.191 164.356C243.895 164.06 243.499 163.912 243.003 163.912Z" fill="black"/>
<path d="M152.48 216.272V221.984H163.624V233.184H169.336V221.984H180.48V216.272H169.336V205.128H163.624V216.272H152.48Z" fill="#86C1A1"/>
<path d="M213.697 237.944V231.28H196.673L204.065 224.952C210.281 219.632 213.417 215.32 213.417 209.608C213.417 201.32 207.985 196.336 199.249 196.336C190.569 196.336 184.857 202.16 184.801 211.12H191.913C191.969 205.856 194.769 202.72 199.249 202.72C203.561 202.72 206.081 205.352 206.081 210C206.081 213.92 204.233 216.608 198.689 221.312L185.305 232.624V238L213.697 237.944ZM246.968 230.216V223.944H241.984V197.064H232.968L214.432 223.944V230.216H235.208V238H241.984V230.216H246.968ZM222.048 223.944L235.208 204.792V223.944H222.048ZM270.123 207.032C270.123 200.76 265.643 196.28 259.427 196.28C253.211 196.28 248.731 200.76 248.731 207.032C248.731 213.36 253.211 217.784 259.427 217.784C265.643 217.784 270.123 213.36 270.123 207.032ZM292.579 197.12H285.747L254.667 238H261.499L292.579 197.12ZM264.691 207.032C264.691 210.28 262.563 212.52 259.427 212.52C256.347 212.52 254.219 210.28 254.219 207.032C254.219 203.784 256.291 201.544 259.427 201.544C262.563 201.544 264.691 203.784 264.691 207.032ZM298.571 227.976C298.571 221.704 294.147 217.224 287.931 217.224C281.659 217.224 277.235 221.704 277.235 227.976C277.235 234.248 281.659 238.728 287.931 238.728C294.147 238.728 298.571 234.248 298.571 227.976ZM293.139 227.976C293.139 231.224 291.011 233.464 287.931 233.464C284.795 233.464 282.667 231.224 282.667 227.976C282.667 224.728 284.795 222.488 287.931 222.488C291.011 222.488 293.139 224.728 293.139 227.976Z" fill="black"/>
<path d="M394.728 222H396.744L399.288 213.488L401.784 222H403.768L407.32 210.304H405.24L403.352 216.496C403.176 217.088 403.016 217.712 402.792 218.8C402.6 217.808 402.424 217.136 402.232 216.48L400.424 210.304H398.168L396.328 216.48C396.12 217.152 395.944 217.76 395.752 218.8C395.576 217.776 395.4 217.12 395.224 216.48L393.368 210.304H391.24L394.728 222ZM410.646 222.208C412.71 222.208 414.15 221.168 414.486 219.44H412.678C412.454 220.192 411.75 220.608 410.678 220.608C409.382 220.608 408.646 219.904 408.502 218.512L414.454 218.496V217.904C414.454 215.44 412.95 213.856 410.582 213.856C408.262 213.856 406.646 215.568 406.646 218.048C406.646 220.496 408.294 222.208 410.646 222.208ZM410.598 215.456C411.766 215.456 412.518 216.176 412.518 217.264H408.55C408.742 216.08 409.446 215.456 410.598 215.456ZM419.232 222.208C421.296 222.208 422.736 221.168 423.072 219.44H421.264C421.04 220.192 420.336 220.608 419.264 220.608C417.968 220.608 417.232 219.904 417.088 218.512L423.04 218.496V217.904C423.04 215.44 421.536 213.856 419.168 213.856C416.848 213.856 415.232 215.568 415.232 218.048C415.232 220.496 416.88 222.208 419.232 222.208ZM419.184 215.456C420.352 215.456 421.104 216.176 421.104 217.264H417.136C417.328 216.08 418.032 215.456 419.184 215.456ZM426.25 222V219.872L427.402 218.672L429.466 222H431.706L428.762 217.232L431.77 214.096H429.322L426.25 217.408V210.096H424.314V222H426.25ZM434.54 222V210.096H432.604V222H434.54ZM435.579 225.664C436.011 225.776 436.491 225.84 437.035 225.84C438.331 225.84 439.163 225.232 439.755 223.76L443.627 214.096H441.611L439.467 219.856L437.435 214.096H435.371L438.555 222.336L438.331 222.928C437.995 223.856 437.515 224.032 436.747 224.032H435.579V225.664Z" fill="black"/>
<path d="M458.583 214L455.997 216.587L453.41 214C453.15 213.74 452.73 213.74 452.47 214C452.21 214.26 452.21 214.68 452.47 214.94L455.53 218C455.79 218.26 456.21 218.26 456.47 218L459.53 214.94C459.79 214.68 459.79 214.26 459.53 214C459.27 213.747 458.843 213.74 458.583 214Z" fill="#343A40"/>
<rect x="375.5" y="196.5" width="108" height="39" rx="19.5" stroke="#E9ECEF"/>
<path d="M149.824 282H148.192L152.416 270.432H154.16L158.4 282H156.752L155.712 279.12H150.848L149.824 282ZM153.088 272.928L151.328 277.76H155.248L153.472 272.928C153.376 272.661 153.312 272.437 153.28 272.256C153.248 272.416 153.184 272.64 153.088 272.928ZM162.777 279.728H164.217C164.217 280.123 164.355 280.437 164.633 280.672C164.921 280.896 165.315 281.008 165.817 281.008C166.339 281.008 166.745 280.907 167.033 280.704C167.331 280.501 167.481 280.219 167.481 279.856C167.481 279.579 167.401 279.36 167.241 279.2C167.081 279.029 166.803 278.896 166.409 278.8L165.033 278.48C163.667 278.149 162.985 277.424 162.985 276.304C162.985 275.589 163.257 275.019 163.801 274.592C164.345 274.165 165.054 273.952 165.929 273.952C166.782 273.952 167.465 274.176 167.977 274.624C168.499 275.061 168.771 275.653 168.793 276.4H167.353C167.331 276.005 167.193 275.696 166.937 275.472C166.681 275.237 166.329 275.12 165.881 275.12C165.411 275.12 165.049 275.221 164.793 275.424C164.537 275.616 164.409 275.893 164.409 276.256C164.409 276.779 164.793 277.136 165.561 277.328L166.937 277.664C167.619 277.824 168.121 278.069 168.441 278.4C168.761 278.731 168.921 279.184 168.921 279.76C168.921 280.496 168.633 281.088 168.057 281.536C167.481 281.973 166.723 282.192 165.785 282.192C164.867 282.192 164.137 281.968 163.593 281.52C163.049 281.072 162.777 280.475 162.777 279.728ZM171.773 281.984H170.269V270.224H171.773V275.376C172.029 274.939 172.386 274.592 172.845 274.336C173.303 274.08 173.831 273.952 174.429 273.952C175.41 273.952 176.146 274.24 176.637 274.816C177.138 275.392 177.389 276.192 177.389 277.216V282H175.885V277.552C175.885 276.069 175.261 275.328 174.013 275.328C173.309 275.328 172.759 275.557 172.365 276.016C171.97 276.464 171.773 277.035 171.773 277.728V281.984ZM179.792 281.04C179.024 280.272 178.64 279.285 178.64 278.08C178.64 276.875 179.024 275.888 179.792 275.12C180.56 274.352 181.536 273.968 182.72 273.968C183.893 273.968 184.864 274.352 185.632 275.12C186.4 275.888 186.784 276.875 186.784 278.08C186.784 279.285 186.4 280.272 185.632 281.04C184.864 281.808 183.893 282.192 182.72 282.192C181.536 282.192 180.56 281.808 179.792 281.04ZM180.864 276.08C180.394 276.592 180.16 277.259 180.16 278.08C180.16 278.901 180.394 279.568 180.864 280.08C181.344 280.592 181.962 280.848 182.72 280.848C183.477 280.848 184.09 280.592 184.56 280.08C185.04 279.557 185.28 278.891 185.28 278.08C185.28 277.269 185.04 276.608 184.56 276.096C184.09 275.573 183.477 275.312 182.72 275.312C181.962 275.312 181.344 275.568 180.864 276.08ZM192.609 274.112V275.488H191.937C191.222 275.488 190.657 275.696 190.241 276.112C189.835 276.528 189.633 277.109 189.633 277.856V282H188.129V274.192H189.537L189.633 275.376C189.793 274.96 190.065 274.629 190.449 274.384C190.833 274.139 191.286 274.016 191.809 274.016C192.043 274.016 192.31 274.048 192.609 274.112ZM196.22 282H194.716V275.44H193.18V274.176H194.716V271.728H196.22V274.176H197.756V275.44H196.22V282ZM205.976 282.192C204.856 282.192 203.966 281.819 203.304 281.072C202.654 280.315 202.328 279.328 202.328 278.112C202.328 276.885 202.659 275.888 203.32 275.12C203.992 274.341 204.899 273.952 206.04 273.952C206.648 273.952 207.187 274.08 207.656 274.336C208.136 274.592 208.51 274.96 208.776 275.44V270.224H210.264V282H208.92L208.792 280.576C208.536 281.099 208.163 281.499 207.672 281.776C207.182 282.053 206.616 282.192 205.976 282.192ZM204.488 280.064C204.926 280.576 205.523 280.832 206.28 280.832C207.038 280.832 207.64 280.576 208.088 280.064C208.536 279.552 208.76 278.885 208.76 278.064C208.76 277.253 208.536 276.592 208.088 276.08C207.64 275.568 207.038 275.312 206.28 275.312C205.523 275.312 204.926 275.568 204.488 276.08C204.062 276.581 203.848 277.243 203.848 278.064C203.848 278.885 204.062 279.552 204.488 280.064ZM215.49 282.192C214.338 282.192 213.4 281.813 212.674 281.056C211.96 280.299 211.602 279.312 211.602 278.096C211.602 276.869 211.954 275.872 212.658 275.104C213.373 274.336 214.296 273.952 215.426 273.952C216.536 273.952 217.426 274.304 218.098 275.008C218.77 275.712 219.106 276.645 219.106 277.808V278.368L213.058 278.384C213.112 279.205 213.346 279.84 213.762 280.288C214.189 280.725 214.776 280.944 215.522 280.944C216.717 280.944 217.448 280.485 217.714 279.568H219.122C218.93 280.411 218.52 281.061 217.89 281.52C217.261 281.968 216.461 282.192 215.49 282.192ZM215.426 275.216C214.776 275.216 214.248 275.403 213.842 275.776C213.437 276.149 213.186 276.683 213.09 277.376H217.602C217.602 276.725 217.405 276.203 217.01 275.808C216.616 275.413 216.088 275.216 215.426 275.216ZM219.826 279.728H221.266C221.266 280.123 221.405 280.437 221.682 280.672C221.97 280.896 222.365 281.008 222.866 281.008C223.389 281.008 223.794 280.907 224.082 280.704C224.381 280.501 224.53 280.219 224.53 279.856C224.53 279.579 224.45 279.36 224.29 279.2C224.13 279.029 223.853 278.896 223.458 278.8L222.082 278.48C220.717 278.149 220.034 277.424 220.034 276.304C220.034 275.589 220.306 275.019 220.85 274.592C221.394 274.165 222.103 273.952 222.978 273.952C223.831 273.952 224.514 274.176 225.026 274.624C225.549 275.061 225.821 275.653 225.842 276.4H224.402C224.381 276.005 224.242 275.696 223.986 275.472C223.73 275.237 223.378 275.12 222.93 275.12C222.461 275.12 222.098 275.221 221.842 275.424C221.586 275.616 221.458 275.893 221.458 276.256C221.458 276.779 221.842 277.136 222.61 277.328L223.986 277.664C224.669 277.824 225.17 278.069 225.49 278.4C225.81 278.731 225.97 279.184 225.97 279.76C225.97 280.496 225.682 281.088 225.106 281.536C224.53 281.973 223.773 282.192 222.834 282.192C221.917 282.192 221.186 281.968 220.642 281.52C220.098 281.072 219.826 280.475 219.826 279.728ZM226.806 278.096C226.806 276.869 227.158 275.872 227.862 275.104C228.577 274.336 229.505 273.952 230.646 273.952C231.627 273.952 232.438 274.213 233.078 274.736C233.729 275.248 234.123 275.941 234.262 276.816H232.758C232.63 276.325 232.379 275.952 232.006 275.696C231.643 275.429 231.206 275.296 230.694 275.296C229.979 275.296 229.398 275.552 228.95 276.064C228.513 276.565 228.294 277.237 228.294 278.08C228.294 278.923 228.502 279.595 228.918 280.096C229.345 280.597 229.915 280.848 230.63 280.848C231.163 280.848 231.617 280.72 231.99 280.464C232.374 280.197 232.635 279.829 232.774 279.36H234.278C234.129 280.213 233.718 280.901 233.046 281.424C232.374 281.936 231.569 282.192 230.63 282.192C229.478 282.192 228.55 281.819 227.846 281.072C227.153 280.325 226.806 279.333 226.806 278.096ZM240.025 274.112V275.488H239.353C238.638 275.488 238.073 275.696 237.657 276.112C237.252 276.528 237.049 277.109 237.049 277.856V282H235.545V274.192H236.953L237.049 275.376C237.209 274.96 237.481 274.629 237.865 274.384C238.249 274.139 238.702 274.016 239.225 274.016C239.46 274.016 239.726 274.048 240.025 274.112ZM242.555 272.032C242.363 272.224 242.129 272.32 241.851 272.32C241.574 272.32 241.339 272.224 241.147 272.032C240.955 271.829 240.859 271.595 240.859 271.328C240.859 271.051 240.955 270.816 241.147 270.624C241.339 270.432 241.574 270.336 241.851 270.336C242.129 270.336 242.363 270.432 242.555 270.624C242.747 270.816 242.843 271.051 242.843 271.328C242.843 271.595 242.747 271.829 242.555 272.032ZM241.115 282V274.176H242.619V282H241.115ZM244.483 285.504V274.176H245.843L245.955 275.584C246.211 275.061 246.59 274.661 247.091 274.384C247.592 274.096 248.158 273.952 248.787 273.952C249.896 273.952 250.776 274.331 251.427 275.088C252.088 275.835 252.419 276.816 252.419 278.032C252.419 279.259 252.094 280.261 251.443 281.04C250.803 281.819 249.918 282.208 248.787 282.208C248.158 282.208 247.598 282.08 247.107 281.824C246.616 281.568 246.243 281.2 245.987 280.72V285.504H244.483ZM246.003 278.096C246.003 278.907 246.222 279.568 246.659 280.08C247.107 280.592 247.71 280.848 248.467 280.848C249.224 280.848 249.822 280.592 250.259 280.08C250.696 279.568 250.915 278.907 250.915 278.096C250.915 277.275 250.696 276.608 250.259 276.096C249.822 275.584 249.224 275.328 248.467 275.328C247.71 275.328 247.107 275.584 246.659 276.096C246.222 276.597 246.003 277.264 246.003 278.096ZM255.887 282H254.383V275.44H252.847V274.176H254.383V271.728H255.887V274.176H257.423V275.44H255.887V282ZM259.892 272.032C259.7 272.224 259.466 272.32 259.188 272.32C258.911 272.32 258.676 272.224 258.484 272.032C258.292 271.829 258.196 271.595 258.196 271.328C258.196 271.051 258.292 270.816 258.484 270.624C258.676 270.432 258.911 270.336 259.188 270.336C259.466 270.336 259.7 270.432 259.892 270.624C260.084 270.816 260.18 271.051 260.18 271.328C260.18 271.595 260.084 271.829 259.892 272.032ZM258.452 282V274.176H259.956V282H258.452ZM262.46 281.04C261.692 280.272 261.308 279.285 261.308 278.08C261.308 276.875 261.692 275.888 262.46 275.12C263.228 274.352 264.204 273.968 265.388 273.968C266.561 273.968 267.532 274.352 268.3 275.12C269.068 275.888 269.452 276.875 269.452 278.08C269.452 279.285 269.068 280.272 268.3 281.04C267.532 281.808 266.561 282.192 265.388 282.192C264.204 282.192 263.228 281.808 262.46 281.04ZM263.532 276.08C263.063 276.592 262.828 277.259 262.828 278.08C262.828 278.901 263.063 279.568 263.532 280.08C264.012 280.592 264.631 280.848 265.388 280.848C266.145 280.848 266.759 280.592 267.228 280.08C267.708 279.557 267.948 278.891 267.948 278.08C267.948 277.269 267.708 276.608 267.228 276.096C266.759 275.573 266.145 275.312 265.388 275.312C264.631 275.312 264.012 275.568 263.532 276.08ZM272.301 282H270.797V274.176H272.157L272.317 275.376C272.562 274.928 272.914 274.581 273.373 274.336C273.842 274.08 274.354 273.952 274.909 273.952C275.911 273.952 276.663 274.24 277.165 274.816C277.666 275.381 277.917 276.181 277.917 277.216V282H276.413V277.552C276.413 276.069 275.783 275.328 274.525 275.328C273.831 275.328 273.287 275.557 272.893 276.016C272.498 276.475 272.301 277.088 272.301 277.856V282ZM283.223 278.096C283.223 276.869 283.575 275.872 284.279 275.104C284.994 274.336 285.922 273.952 287.063 273.952C288.044 273.952 288.855 274.213 289.495 274.736C290.146 275.248 290.54 275.941 290.679 276.816H289.175C289.047 276.325 288.796 275.952 288.423 275.696C288.06 275.429 287.623 275.296 287.111 275.296C286.396 275.296 285.815 275.552 285.367 276.064C284.93 276.565 284.711 277.237 284.711 278.08C284.711 278.923 284.919 279.595 285.335 280.096C285.762 280.597 286.332 280.848 287.047 280.848C287.58 280.848 288.034 280.72 288.407 280.464C288.791 280.197 289.052 279.829 289.191 279.36H290.695C290.546 280.213 290.135 280.901 289.463 281.424C288.791 281.936 287.986 282.192 287.047 282.192C285.895 282.192 284.967 281.819 284.263 281.072C283.57 280.325 283.223 279.333 283.223 278.096ZM294.25 282.192C293.418 282.192 292.762 281.979 292.282 281.552C291.812 281.115 291.578 280.539 291.578 279.824C291.578 279.109 291.828 278.539 292.33 278.112C292.842 277.675 293.562 277.419 294.49 277.344L296.954 277.152V276.928C296.954 275.744 296.34 275.152 295.114 275.152C294.484 275.152 293.994 275.285 293.642 275.552C293.3 275.819 293.13 276.187 293.13 276.656H291.818C291.818 275.845 292.122 275.195 292.73 274.704C293.348 274.203 294.164 273.952 295.178 273.952C296.18 273.952 296.97 274.219 297.546 274.752C298.132 275.285 298.426 276.064 298.426 277.088V282H297.146L296.986 280.736C296.783 281.184 296.431 281.541 295.93 281.808C295.439 282.064 294.879 282.192 294.25 282.192ZM294.682 281.024C295.396 281.024 295.956 280.811 296.362 280.384C296.767 279.947 296.97 279.36 296.97 278.624V278.208L294.97 278.368C293.722 278.485 293.098 278.955 293.098 279.776C293.098 280.181 293.236 280.491 293.514 280.704C293.791 280.917 294.18 281.024 294.682 281.024ZM301.693 282H300.189V274.176H301.549L301.709 275.376C301.954 274.928 302.306 274.581 302.765 274.336C303.234 274.08 303.746 273.952 304.301 273.952C305.303 273.952 306.055 274.24 306.557 274.816C307.058 275.381 307.309 276.181 307.309 277.216V282H305.805V277.552C305.805 276.069 305.175 275.328 303.917 275.328C303.223 275.328 302.679 275.557 302.285 276.016C301.89 276.475 301.693 277.088 301.693 277.856V282ZM314.487 282H313.127V270.224H314.631V275.52C314.887 275.019 315.26 274.635 315.751 274.368C316.252 274.091 316.828 273.952 317.479 273.952C318.577 273.952 319.447 274.341 320.087 275.12C320.737 275.899 321.063 276.901 321.063 278.128C321.063 279.333 320.727 280.315 320.055 281.072C319.393 281.819 318.503 282.192 317.383 282.192C316.753 282.192 316.193 282.053 315.703 281.776C315.223 281.499 314.855 281.099 314.599 280.576L314.487 282ZM314.647 278.064C314.647 278.896 314.865 279.568 315.303 280.08C315.751 280.581 316.353 280.832 317.111 280.832C317.868 280.832 318.465 280.576 318.903 280.064C319.34 279.552 319.559 278.885 319.559 278.064C319.559 277.253 319.34 276.592 318.903 276.08C318.465 275.568 317.868 275.312 317.111 275.312C316.353 275.312 315.751 275.568 315.303 276.08C314.865 276.592 314.647 277.253 314.647 278.064ZM325.777 282.192C324.625 282.192 323.686 281.813 322.961 281.056C322.246 280.299 321.889 279.312 321.889 278.096C321.889 276.869 322.241 275.872 322.945 275.104C323.659 274.336 324.582 273.952 325.713 273.952C326.822 273.952 327.713 274.304 328.385 275.008C329.057 275.712 329.392 276.645 329.392 277.808V278.368L323.345 278.384C323.398 279.205 323.633 279.84 324.049 280.288C324.475 280.725 325.062 280.944 325.809 280.944C327.003 280.944 327.734 280.485 328.001 279.568H329.409C329.217 280.411 328.806 281.061 328.177 281.52C327.547 281.968 326.747 282.192 325.777 282.192ZM325.713 275.216C325.062 275.216 324.534 275.403 324.129 275.776C323.723 276.149 323.473 276.683 323.377 277.376H327.889C327.889 276.725 327.691 276.203 327.297 275.808C326.902 275.413 326.374 275.216 325.713 275.216ZM337.095 282.192C336.263 282.192 335.607 281.979 335.127 281.552C334.658 281.115 334.423 280.539 334.423 279.824C334.423 279.109 334.674 278.539 335.175 278.112C335.687 277.675 336.407 277.419 337.335 277.344L339.799 277.152V276.928C339.799 275.744 339.186 275.152 337.959 275.152C337.33 275.152 336.839 275.285 336.487 275.552C336.146 275.819 335.975 276.187 335.975 276.656H334.663C334.663 275.845 334.967 275.195 335.575 274.704C336.194 274.203 337.01 273.952 338.023 273.952C339.026 273.952 339.815 274.219 340.391 274.752C340.978 275.285 341.271 276.064 341.271 277.088V282H339.991L339.831 280.736C339.629 281.184 339.277 281.541 338.775 281.808C338.285 282.064 337.725 282.192 337.095 282.192ZM337.527 281.024C338.242 281.024 338.802 280.811 339.207 280.384C339.613 279.947 339.815 279.36 339.815 278.624V278.208L337.815 278.368C336.567 278.485 335.943 278.955 335.943 279.776C335.943 280.181 336.082 280.491 336.359 280.704C336.637 280.917 337.026 281.024 337.527 281.024ZM346.17 282.192C345.05 282.192 344.16 281.819 343.498 281.072C342.848 280.315 342.522 279.328 342.522 278.112C342.522 276.885 342.853 275.888 343.514 275.12C344.186 274.341 345.093 273.952 346.234 273.952C346.842 273.952 347.381 274.08 347.85 274.336C348.33 274.592 348.704 274.96 348.97 275.44V270.224H350.458V282H349.114L348.986 280.576C348.73 281.099 348.357 281.499 347.866 281.776C347.376 282.053 346.81 282.192 346.17 282.192ZM344.682 280.064C345.12 280.576 345.717 280.832 346.474 280.832C347.232 280.832 347.834 280.576 348.282 280.064C348.73 279.552 348.954 278.885 348.954 278.064C348.954 277.253 348.73 276.592 348.282 276.08C347.834 275.568 347.232 275.312 346.474 275.312C345.717 275.312 345.12 275.568 344.682 276.08C344.256 276.581 344.042 277.243 344.042 278.064C344.042 278.885 344.256 279.552 344.682 280.064ZM355.444 282.192C354.324 282.192 353.433 281.819 352.772 281.072C352.121 280.315 351.796 279.328 351.796 278.112C351.796 276.885 352.127 275.888 352.788 275.12C353.46 274.341 354.367 273.952 355.508 273.952C356.116 273.952 356.655 274.08 357.124 274.336C357.604 274.592 357.977 274.96 358.244 275.44V270.224H359.732V282H358.388L358.26 280.576C358.004 281.099 357.631 281.499 357.14 281.776C356.649 282.053 356.084 282.192 355.444 282.192ZM353.956 280.064C354.393 280.576 354.991 280.832 355.748 280.832C356.505 280.832 357.108 280.576 357.556 280.064C358.004 279.552 358.228 278.885 358.228 278.064C358.228 277.253 358.004 276.592 357.556 276.08C357.108 275.568 356.505 275.312 355.748 275.312C354.991 275.312 354.393 275.568 353.956 276.08C353.529 276.581 353.316 277.243 353.316 278.064C353.316 278.885 353.529 279.552 353.956 280.064ZM364.958 282.192C363.806 282.192 362.867 281.813 362.142 281.056C361.427 280.299 361.07 279.312 361.07 278.096C361.07 276.869 361.422 275.872 362.126 275.104C362.84 274.336 363.763 273.952 364.894 273.952C366.003 273.952 366.894 274.304 367.566 275.008C368.238 275.712 368.574 276.645 368.574 277.808V278.368L362.526 278.384C362.579 279.205 362.814 279.84 363.23 280.288C363.656 280.725 364.243 280.944 364.99 280.944C366.184 280.944 366.915 280.485 367.182 279.568H368.59C368.398 280.411 367.987 281.061 367.358 281.52C366.728 281.968 365.928 282.192 364.958 282.192ZM364.894 275.216C364.243 275.216 363.715 275.403 363.31 275.776C362.904 276.149 362.654 276.683 362.558 277.376H367.07C367.07 276.725 366.872 276.203 366.478 275.808C366.083 275.413 365.555 275.216 364.894 275.216ZM373.07 282.192C371.95 282.192 371.059 281.819 370.398 281.072C369.747 280.315 369.422 279.328 369.422 278.112C369.422 276.885 369.752 275.888 370.414 275.12C371.086 274.341 371.992 273.952 373.134 273.952C373.742 273.952 374.28 274.08 374.75 274.336C375.23 274.592 375.603 274.96 375.87 275.44V270.224H377.358V282H376.014L375.886 280.576C375.63 281.099 375.256 281.499 374.766 281.776C374.275 282.053 373.71 282.192 373.07 282.192ZM371.582 280.064C372.019 280.576 372.616 280.832 373.374 280.832C374.131 280.832 374.734 280.576 375.182 280.064C375.63 279.552 375.854 278.885 375.854 278.064C375.854 277.253 375.63 276.592 375.182 276.08C374.734 275.568 374.131 275.312 373.374 275.312C372.616 275.312 372.019 275.568 371.582 276.08C371.155 276.581 370.942 277.243 370.942 278.064C370.942 278.885 371.155 279.552 371.582 280.064ZM384.766 281.984H383.262V270.224H384.766V275.376C385.022 274.939 385.38 274.592 385.838 274.336C386.297 274.08 386.825 273.952 387.422 273.952C388.404 273.952 389.14 274.24 389.63 274.816C390.132 275.392 390.382 276.192 390.382 277.216V282H388.878V277.552C388.878 276.069 388.254 275.328 387.006 275.328C386.302 275.328 385.753 275.557 385.358 276.016C384.964 276.464 384.766 277.035 384.766 277.728V281.984ZM395.521 282.192C394.369 282.192 393.431 281.813 392.705 281.056C391.991 280.299 391.633 279.312 391.633 278.096C391.633 276.869 391.985 275.872 392.689 275.104C393.404 274.336 394.327 273.952 395.457 273.952C396.567 273.952 397.457 274.304 398.129 275.008C398.801 275.712 399.137 276.645 399.137 277.808V278.368L393.089 278.384C393.143 279.205 393.377 279.84 393.793 280.288C394.22 280.725 394.807 280.944 395.553 280.944C396.748 280.944 397.479 280.485 397.745 279.568H399.153C398.961 280.411 398.551 281.061 397.921 281.52C397.292 281.968 396.492 282.192 395.521 282.192ZM395.457 275.216C394.807 275.216 394.279 275.403 393.873 275.776C393.468 276.149 393.217 276.683 393.121 277.376H397.633C397.633 276.725 397.436 276.203 397.041 275.808C396.647 275.413 396.119 275.216 395.457 275.216ZM404.977 274.112V275.488H404.305C403.591 275.488 403.025 275.696 402.609 276.112C402.204 276.528 402.001 277.109 402.001 277.856V282H400.497V274.192H401.905L402.001 275.376C402.161 274.96 402.433 274.629 402.817 274.384C403.201 274.139 403.655 274.016 404.177 274.016C404.412 274.016 404.679 274.048 404.977 274.112ZM409.163 282.192C408.011 282.192 407.072 281.813 406.347 281.056C405.632 280.299 405.275 279.312 405.275 278.096C405.275 276.869 405.627 275.872 406.331 275.104C407.045 274.336 407.968 273.952 409.099 273.952C410.208 273.952 411.099 274.304 411.771 275.008C412.443 275.712 412.779 276.645 412.779 277.808V278.368L406.731 278.384C406.784 279.205 407.019 279.84 407.435 280.288C407.861 280.725 408.448 280.944 409.195 280.944C410.389 280.944 411.12 280.485 411.387 279.568H412.795C412.603 280.411 412.192 281.061 411.563 281.52C410.933 281.968 410.133 282.192 409.163 282.192ZM409.099 275.216C408.448 275.216 407.92 275.403 407.515 275.776C407.109 276.149 406.859 276.683 406.763 277.376H411.275C411.275 276.725 411.077 276.203 410.683 275.808C410.288 275.413 409.76 275.216 409.099 275.216ZM420.402 282H418.898V275.44H417.362V274.176H418.898V271.728H420.402V274.176H421.938V275.44H420.402V282ZM423.529 281.04C422.761 280.272 422.377 279.285 422.377 278.08C422.377 276.875 422.761 275.888 423.529 275.12C424.297 274.352 425.273 273.968 426.457 273.968C427.631 273.968 428.601 274.352 429.369 275.12C430.137 275.888 430.521 276.875 430.521 278.08C430.521 279.285 430.137 280.272 429.369 281.04C428.601 281.808 427.631 282.192 426.457 282.192C425.273 282.192 424.297 281.808 423.529 281.04ZM424.601 276.08C424.132 276.592 423.897 277.259 423.897 278.08C423.897 278.901 424.132 279.568 424.601 280.08C425.081 280.592 425.7 280.848 426.457 280.848C427.215 280.848 427.828 280.592 428.297 280.08C428.777 279.557 429.017 278.891 429.017 278.08C429.017 277.269 428.777 276.608 428.297 276.096C427.828 275.573 427.215 275.312 426.457 275.312C425.7 275.312 425.081 275.568 424.601 276.08ZM437.361 272.032C437.169 272.224 436.934 272.32 436.657 272.32C436.38 272.32 436.145 272.224 435.953 272.032C435.761 271.829 435.665 271.595 435.665 271.328C435.665 271.051 435.761 270.816 435.953 270.624C436.145 270.432 436.38 270.336 436.657 270.336C436.934 270.336 437.169 270.432 437.361 270.624C437.553 270.816 437.649 271.051 437.649 271.328C437.649 271.595 437.553 271.829 437.361 272.032ZM435.921 282V274.176H437.425V282H435.921ZM440.793 282H439.289V274.176H440.649L440.809 275.376C441.054 274.928 441.406 274.581 441.865 274.336C442.334 274.08 442.846 273.952 443.401 273.952C444.403 273.952 445.155 274.24 445.657 274.816C446.158 275.381 446.409 276.181 446.409 277.216V282H444.905V277.552C444.905 276.069 444.275 275.328 443.017 275.328C442.323 275.328 441.779 275.557 441.385 276.016C440.99 276.475 440.793 277.088 440.793 277.856V282ZM447.34 274.176H448.492V272.928C448.492 272.011 448.716 271.333 449.164 270.896C449.612 270.448 450.214 270.224 450.972 270.224C451.324 270.224 451.633 270.245 451.9 270.288V271.584H451.228C450.769 271.584 450.449 271.696 450.268 271.92C450.086 272.133 449.996 272.469 449.996 272.928V274.176H451.852V275.44H449.996V282H448.492V275.44H447.34V274.176ZM453.336 281.04C452.568 280.272 452.184 279.285 452.184 278.08C452.184 276.875 452.568 275.888 453.336 275.12C454.104 274.352 455.08 273.968 456.264 273.968C457.437 273.968 458.408 274.352 459.176 275.12C459.944 275.888 460.328 276.875 460.328 278.08C460.328 279.285 459.944 280.272 459.176 281.04C458.408 281.808 457.437 282.192 456.264 282.192C455.08 282.192 454.104 281.808 453.336 281.04ZM454.408 276.08C453.938 276.592 453.704 277.259 453.704 278.08C453.704 278.901 453.938 279.568 454.408 280.08C454.888 280.592 455.506 280.848 456.264 280.848C457.021 280.848 457.634 280.592 458.104 280.08C458.584 279.557 458.824 278.891 458.824 278.08C458.824 277.269 458.584 276.608 458.104 276.096C457.634 275.573 457.021 275.312 456.264 275.312C455.506 275.312 454.888 275.568 454.408 276.08ZM466.152 274.112V275.488H465.48C464.766 275.488 464.2 275.696 463.784 276.112C463.379 276.528 463.176 277.109 463.176 277.856V282H461.672V274.192H463.08L463.176 275.376C463.336 274.96 463.608 274.629 463.992 274.384C464.376 274.139 464.83 274.016 465.352 274.016C465.587 274.016 465.854 274.048 466.152 274.112ZM468.747 282H467.243V274.176H468.587L468.731 275.2C468.934 274.816 469.238 274.512 469.643 274.288C470.059 274.064 470.534 273.952 471.067 273.952C472.283 273.952 473.11 274.48 473.547 275.536C473.728 275.045 474.043 274.661 474.491 274.384C474.939 274.096 475.467 273.952 476.075 273.952C476.971 273.952 477.675 274.213 478.187 274.736C478.699 275.259 478.955 275.973 478.955 276.88V282H477.483V277.248C477.483 276.64 477.323 276.165 477.003 275.824C476.694 275.483 476.272 275.312 475.739 275.312C475.174 275.312 474.715 275.499 474.363 275.872C474.022 276.245 473.851 276.741 473.851 277.36V282H472.363V277.232C472.363 276.624 472.208 276.155 471.899 275.824C471.59 275.493 471.168 275.328 470.635 275.328C470.059 275.328 469.6 275.515 469.259 275.888C468.918 276.251 468.747 276.741 468.747 277.36V282ZM151.296 306H149.792V299.44H148.256V298.176H149.792V295.728H151.296V298.176H152.832V299.44H151.296V306ZM155.366 305.984H153.862V294.224H155.366V299.376C155.622 298.939 155.979 298.592 156.438 298.336C156.896 298.08 157.424 297.952 158.022 297.952C159.003 297.952 159.739 298.24 160.23 298.816C160.731 299.392 160.982 300.192 160.982 301.216V306H159.478V301.552C159.478 300.069 158.854 299.328 157.606 299.328C156.902 299.328 156.352 299.557 155.958 300.016C155.563 300.464 155.366 301.035 155.366 301.728V305.984ZM166.121 306.192C164.969 306.192 164.03 305.813 163.305 305.056C162.59 304.299 162.233 303.312 162.233 302.096C162.233 300.869 162.585 299.872 163.289 299.104C164.004 298.336 164.926 297.952 166.057 297.952C167.166 297.952 168.057 298.304 168.729 299.008C169.401 299.712 169.737 300.645 169.737 301.808V302.368L163.689 302.384C163.742 303.205 163.977 303.84 164.393 304.288C164.82 304.725 165.406 304.944 166.153 304.944C167.348 304.944 168.078 304.485 168.345 303.568H169.753C169.561 304.411 169.15 305.061 168.521 305.52C167.892 305.968 167.092 306.192 166.121 306.192ZM166.057 299.216C165.406 299.216 164.878 299.403 164.473 299.776C164.068 300.149 163.817 300.683 163.721 301.376H168.233C168.233 300.725 168.036 300.203 167.641 299.808C167.246 299.413 166.718 299.216 166.057 299.216ZM174.64 302.096C174.64 300.869 174.992 299.872 175.696 299.104C176.41 298.336 177.338 297.952 178.48 297.952C179.461 297.952 180.272 298.213 180.912 298.736C181.562 299.248 181.957 299.941 182.096 300.816H180.592C180.464 300.325 180.213 299.952 179.84 299.696C179.477 299.429 179.04 299.296 178.528 299.296C177.813 299.296 177.232 299.552 176.784 300.064C176.346 300.565 176.128 301.237 176.128 302.08C176.128 302.923 176.336 303.595 176.752 304.096C177.178 304.597 177.749 304.848 178.464 304.848C178.997 304.848 179.45 304.72 179.824 304.464C180.208 304.197 180.469 303.829 180.608 303.36H182.112C181.962 304.213 181.552 304.901 180.88 305.424C180.208 305.936 179.402 306.192 178.464 306.192C177.312 306.192 176.384 305.819 175.68 305.072C174.986 304.325 174.64 303.333 174.64 302.096ZM188.787 298.176H190.275V306H188.931L188.771 304.816C188.547 305.232 188.195 305.568 187.715 305.824C187.235 306.069 186.707 306.192 186.131 306.192C185.235 306.192 184.536 305.909 184.035 305.344C183.533 304.779 183.283 304.011 183.283 303.04V298.176H184.787V302.544C184.787 304.091 185.411 304.864 186.659 304.864C187.352 304.864 187.88 304.645 188.243 304.208C188.605 303.771 188.787 303.136 188.787 302.304V298.176ZM191.341 303.728H192.781C192.781 304.123 192.919 304.437 193.197 304.672C193.485 304.896 193.879 305.008 194.381 305.008C194.903 305.008 195.309 304.907 195.597 304.704C195.895 304.501 196.045 304.219 196.045 303.856C196.045 303.579 195.965 303.36 195.805 303.2C195.645 303.029 195.367 302.896 194.973 302.8L193.597 302.48C192.231 302.149 191.549 301.424 191.549 300.304C191.549 299.589 191.821 299.019 192.365 298.592C192.909 298.165 193.618 297.952 194.493 297.952C195.346 297.952 196.029 298.176 196.541 298.624C197.063 299.061 197.335 299.653 197.357 300.4H195.917C195.895 300.005 195.757 299.696 195.501 299.472C195.245 299.237 194.893 299.12 194.445 299.12C193.975 299.12 193.613 299.221 193.357 299.424C193.101 299.616 192.973 299.893 192.973 300.256C192.973 300.779 193.357 301.136 194.125 301.328L195.501 301.664C196.183 301.824 196.685 302.069 197.005 302.4C197.325 302.731 197.485 303.184 197.485 303.76C197.485 304.496 197.197 305.088 196.621 305.536C196.045 305.973 195.287 306.192 194.349 306.192C193.431 306.192 192.701 305.968 192.157 305.52C191.613 305.072 191.341 304.475 191.341 303.728ZM201.04 306H199.536V299.44H198V298.176H199.536V295.728H201.04V298.176H202.576V299.44H201.04V306ZM204.168 305.04C203.4 304.272 203.016 303.285 203.016 302.08C203.016 300.875 203.4 299.888 204.168 299.12C204.936 298.352 205.912 297.968 207.096 297.968C208.269 297.968 209.24 298.352 210.008 299.12C210.776 299.888 211.16 300.875 211.16 302.08C211.16 303.285 210.776 304.272 210.008 305.04C209.24 305.808 208.269 306.192 207.096 306.192C205.912 306.192 204.936 305.808 204.168 305.04ZM205.24 300.08C204.771 300.592 204.536 301.259 204.536 302.08C204.536 302.901 204.771 303.568 205.24 304.08C205.72 304.592 206.339 304.848 207.096 304.848C207.853 304.848 208.467 304.592 208.936 304.08C209.416 303.557 209.656 302.891 209.656 302.08C209.656 301.269 209.416 300.608 208.936 300.096C208.467 299.573 207.853 299.312 207.096 299.312C206.339 299.312 205.72 299.568 205.24 300.08ZM214.009 306H212.505V298.176H213.849L213.993 299.2C214.196 298.816 214.5 298.512 214.905 298.288C215.321 298.064 215.796 297.952 216.329 297.952C217.545 297.952 218.372 298.48 218.809 299.536C218.99 299.045 219.305 298.661 219.753 298.384C220.201 298.096 220.729 297.952 221.337 297.952C222.233 297.952 222.937 298.213 223.449 298.736C223.961 299.259 224.217 299.973 224.217 300.88V306H222.745V301.248C222.745 300.64 222.585 300.165 222.265 299.824C221.956 299.483 221.534 299.312 221.001 299.312C220.436 299.312 219.977 299.499 219.625 299.872C219.284 300.245 219.113 300.741 219.113 301.36V306H217.625V301.232C217.625 300.624 217.47 300.155 217.161 299.824C216.852 299.493 216.43 299.328 215.897 299.328C215.321 299.328 214.862 299.515 214.521 299.888C214.18 300.251 214.009 300.741 214.009 301.36V306ZM229.358 306.192C228.206 306.192 227.267 305.813 226.542 305.056C225.827 304.299 225.47 303.312 225.47 302.096C225.47 300.869 225.822 299.872 226.526 299.104C227.24 298.336 228.163 297.952 229.294 297.952C230.403 297.952 231.294 298.304 231.966 299.008C232.638 299.712 232.974 300.645 232.974 301.808V302.368L226.926 302.384C226.979 303.205 227.214 303.84 227.63 304.288C228.056 304.725 228.643 304.944 229.39 304.944C230.584 304.944 231.315 304.485 231.582 303.568H232.99C232.798 304.411 232.387 305.061 231.758 305.52C231.128 305.968 230.328 306.192 229.358 306.192ZM229.294 299.216C228.643 299.216 228.115 299.403 227.71 299.776C227.304 300.149 227.054 300.683 226.958 301.376H231.47C231.47 300.725 231.272 300.203 230.878 299.808C230.483 299.413 229.955 299.216 229.294 299.216ZM238.814 298.112V299.488H238.142C237.427 299.488 236.862 299.696 236.446 300.112C236.04 300.528 235.838 301.109 235.838 301.856V306H234.334V298.192H235.742L235.838 299.376C235.998 298.96 236.27 298.629 236.654 298.384C237.038 298.139 237.491 298.016 238.014 298.016C238.248 298.016 238.515 298.048 238.814 298.112ZM246.247 306.192C245.415 306.192 244.759 305.979 244.279 305.552C243.81 305.115 243.575 304.539 243.575 303.824C243.575 303.109 243.826 302.539 244.327 302.112C244.839 301.675 245.559 301.419 246.487 301.344L248.951 301.152V300.928C248.951 299.744 248.338 299.152 247.111 299.152C246.482 299.152 245.991 299.285 245.639 299.552C245.298 299.819 245.127 300.187 245.127 300.656H243.815C243.815 299.845 244.119 299.195 244.727 298.704C245.346 298.203 246.162 297.952 247.175 297.952C248.178 297.952 248.967 298.219 249.543 298.752C250.13 299.285 250.423 300.064 250.423 301.088V306H249.143L248.983 304.736C248.781 305.184 248.429 305.541 247.927 305.808C247.437 306.064 246.877 306.192 246.247 306.192ZM246.679 305.024C247.394 305.024 247.954 304.811 248.359 304.384C248.765 303.947 248.967 303.36 248.967 302.624V302.208L246.967 302.368C245.719 302.485 245.095 302.955 245.095 303.776C245.095 304.181 245.234 304.491 245.511 304.704C245.789 304.917 246.178 305.024 246.679 305.024ZM253.546 306H252.186V294.224H253.69V299.52C253.946 299.019 254.319 298.635 254.81 298.368C255.311 298.091 255.887 297.952 256.538 297.952C257.637 297.952 258.506 298.341 259.146 299.12C259.797 299.899 260.122 300.901 260.122 302.128C260.122 303.333 259.786 304.315 259.114 305.072C258.453 305.819 257.562 306.192 256.442 306.192C255.813 306.192 255.253 306.053 254.762 305.776C254.282 305.499 253.914 305.099 253.658 304.576L253.546 306ZM253.706 302.064C253.706 302.896 253.925 303.568 254.362 304.08C254.81 304.581 255.413 304.832 256.17 304.832C256.927 304.832 257.525 304.576 257.962 304.064C258.399 303.552 258.618 302.885 258.618 302.064C258.618 301.253 258.399 300.592 257.962 300.08C257.525 299.568 256.927 299.312 256.17 299.312C255.413 299.312 254.81 299.568 254.362 300.08C253.925 300.592 253.706 301.253 253.706 302.064ZM262.1 305.04C261.332 304.272 260.948 303.285 260.948 302.08C260.948 300.875 261.332 299.888 262.1 299.12C262.868 298.352 263.844 297.968 265.028 297.968C266.201 297.968 267.172 298.352 267.94 299.12C268.708 299.888 269.092 300.875 269.092 302.08C269.092 303.285 268.708 304.272 267.94 305.04C267.172 305.808 266.201 306.192 265.028 306.192C263.844 306.192 262.868 305.808 262.1 305.04ZM263.172 300.08C262.703 300.592 262.468 301.259 262.468 302.08C262.468 302.901 262.703 303.568 263.172 304.08C263.652 304.592 264.271 304.848 265.028 304.848C265.785 304.848 266.399 304.592 266.868 304.08C267.348 303.557 267.588 302.891 267.588 302.08C267.588 301.269 267.348 300.608 266.868 300.096C266.399 299.573 265.785 299.312 265.028 299.312C264.271 299.312 263.652 299.568 263.172 300.08ZM275.657 298.176H277.145V306H275.801L275.641 304.816C275.417 305.232 275.065 305.568 274.585 305.824C274.105 306.069 273.577 306.192 273.001 306.192C272.105 306.192 271.407 305.909 270.905 305.344C270.404 304.779 270.153 304.011 270.153 303.04V298.176H271.657V302.544C271.657 304.091 272.281 304.864 273.529 304.864C274.223 304.864 274.751 304.645 275.113 304.208C275.476 303.771 275.657 303.136 275.657 302.304V298.176ZM281.215 306H279.711V299.44H278.175V298.176H279.711V295.728H281.215V298.176H282.751V299.44H281.215V306ZM290.124 306.192C289.292 306.192 288.636 305.979 288.156 305.552C287.687 305.115 287.452 304.539 287.452 303.824C287.452 303.109 287.703 302.539 288.204 302.112C288.716 301.675 289.436 301.419 290.364 301.344L292.828 301.152V300.928C292.828 299.744 292.215 299.152 290.988 299.152C290.359 299.152 289.868 299.285 289.516 299.552C289.175 299.819 289.004 300.187 289.004 300.656H287.692C287.692 299.845 287.996 299.195 288.604 298.704C289.223 298.203 290.039 297.952 291.052 297.952C292.055 297.952 292.844 298.219 293.42 298.752C294.007 299.285 294.3 300.064 294.3 301.088V306H293.02L292.86 304.736C292.657 305.184 292.305 305.541 291.804 305.808C291.313 306.064 290.753 306.192 290.124 306.192ZM290.556 305.024C291.271 305.024 291.831 304.811 292.236 304.384C292.641 303.947 292.844 303.36 292.844 302.624V302.208L290.844 302.368C289.596 302.485 288.972 302.955 288.972 303.776C288.972 304.181 289.111 304.491 289.388 304.704C289.665 304.917 290.055 305.024 290.556 305.024ZM300.118 309.504V298.176H301.478L301.59 299.584C301.846 299.061 302.225 298.661 302.726 298.384C303.227 298.096 303.793 297.952 304.422 297.952C305.531 297.952 306.411 298.331 307.062 299.088C307.723 299.835 308.054 300.816 308.054 302.032C308.054 303.259 307.729 304.261 307.078 305.04C306.438 305.819 305.553 306.208 304.422 306.208C303.793 306.208 303.233 306.08 302.742 305.824C302.251 305.568 301.878 305.2 301.622 304.72V309.504H300.118ZM301.638 302.096C301.638 302.907 301.857 303.568 302.294 304.08C302.742 304.592 303.345 304.848 304.102 304.848C304.859 304.848 305.457 304.592 305.894 304.08C306.331 303.568 306.55 302.907 306.55 302.096C306.55 301.275 306.331 300.608 305.894 300.096C305.457 299.584 304.859 299.328 304.102 299.328C303.345 299.328 302.742 299.584 302.294 300.096C301.857 300.597 301.638 301.264 301.638 302.096ZM311.68 306.192C310.848 306.192 310.192 305.979 309.712 305.552C309.242 305.115 309.008 304.539 309.008 303.824C309.008 303.109 309.258 302.539 309.76 302.112C310.272 301.675 310.992 301.419 311.92 301.344L314.384 301.152V300.928C314.384 299.744 313.77 299.152 312.544 299.152C311.914 299.152 311.424 299.285 311.072 299.552C310.73 299.819 310.56 300.187 310.56 300.656H309.248C309.248 299.845 309.552 299.195 310.16 298.704C310.778 298.203 311.594 297.952 312.608 297.952C313.61 297.952 314.4 298.219 314.976 298.752C315.562 299.285 315.856 300.064 315.856 301.088V306H314.576L314.416 304.736C314.213 305.184 313.861 305.541 313.36 305.808C312.869 306.064 312.309 306.192 311.68 306.192ZM312.112 305.024C312.826 305.024 313.386 304.811 313.792 304.384C314.197 303.947 314.4 303.36 314.4 302.624V302.208L312.4 302.368C311.152 302.485 310.528 302.955 310.528 303.776C310.528 304.181 310.666 304.491 310.944 304.704C311.221 304.917 311.61 305.024 312.112 305.024ZM322.099 298.112V299.488H321.427C320.712 299.488 320.147 299.696 319.731 300.112C319.325 300.528 319.123 301.109 319.123 301.856V306H317.619V298.192H319.027L319.123 299.376C319.283 298.96 319.555 298.629 319.939 298.384C320.323 298.139 320.776 298.016 321.299 298.016C321.533 298.016 321.8 298.048 322.099 298.112ZM325.71 306H324.206V299.44H322.67V298.176H324.206V295.728H325.71V298.176H327.246V299.44H325.71V306ZM329.716 296.032C329.524 296.224 329.289 296.32 329.012 296.32C328.734 296.32 328.5 296.224 328.308 296.032C328.116 295.829 328.02 295.595 328.02 295.328C328.02 295.051 328.116 294.816 328.308 294.624C328.5 294.432 328.734 294.336 329.012 294.336C329.289 294.336 329.524 294.432 329.716 294.624C329.908 294.816 330.004 295.051 330.004 295.328C330.004 295.595 329.908 295.829 329.716 296.032ZM328.276 306V298.176H329.78V306H328.276ZM331.131 302.096C331.131 300.869 331.483 299.872 332.187 299.104C332.902 298.336 333.83 297.952 334.971 297.952C335.952 297.952 336.763 298.213 337.403 298.736C338.054 299.248 338.448 299.941 338.587 300.816H337.083C336.955 300.325 336.704 299.952 336.331 299.696C335.968 299.429 335.531 299.296 335.019 299.296C334.304 299.296 333.723 299.552 333.275 300.064C332.838 300.565 332.619 301.237 332.619 302.08C332.619 302.923 332.827 303.595 333.243 304.096C333.67 304.597 334.24 304.848 334.955 304.848C335.488 304.848 335.942 304.72 336.315 304.464C336.699 304.197 336.96 303.829 337.099 303.36H338.603C338.454 304.213 338.043 304.901 337.371 305.424C336.699 305.936 335.894 306.192 334.955 306.192C333.803 306.192 332.875 305.819 332.171 305.072C331.478 304.325 331.131 303.333 331.131 302.096ZM345.278 298.176H346.766V306H345.422L345.262 304.816C345.038 305.232 344.686 305.568 344.206 305.824C343.726 306.069 343.198 306.192 342.622 306.192C341.726 306.192 341.027 305.909 340.526 305.344C340.025 304.779 339.774 304.011 339.774 303.04V298.176H341.278V302.544C341.278 304.091 341.902 304.864 343.15 304.864C343.843 304.864 344.371 304.645 344.734 304.208C345.097 303.771 345.278 303.136 345.278 302.304V298.176ZM350.164 306H348.66V294.224H350.164V306ZM354.346 306.192C353.514 306.192 352.858 305.979 352.378 305.552C351.909 305.115 351.674 304.539 351.674 303.824C351.674 303.109 351.925 302.539 352.426 302.112C352.938 301.675 353.658 301.419 354.586 301.344L357.05 301.152V300.928C357.05 299.744 356.437 299.152 355.21 299.152C354.581 299.152 354.09 299.285 353.738 299.552C353.397 299.819 353.226 300.187 353.226 300.656H351.914C351.914 299.845 352.218 299.195 352.826 298.704C353.445 298.203 354.261 297.952 355.274 297.952C356.277 297.952 357.066 298.219 357.642 298.752C358.229 299.285 358.522 300.064 358.522 301.088V306H357.242L357.082 304.736C356.879 305.184 356.527 305.541 356.026 305.808C355.535 306.064 354.975 306.192 354.346 306.192ZM354.778 305.024C355.493 305.024 356.053 304.811 356.458 304.384C356.863 303.947 357.066 303.36 357.066 302.624V302.208L355.066 302.368C353.818 302.485 353.194 302.955 353.194 303.776C353.194 304.181 353.333 304.491 353.61 304.704C353.887 304.917 354.277 305.024 354.778 305.024ZM364.765 298.112V299.488H364.093C363.378 299.488 362.813 299.696 362.397 300.112C361.992 300.528 361.789 301.109 361.789 301.856V306H360.285V298.192H361.693L361.789 299.376C361.949 298.96 362.221 298.629 362.605 298.384C362.989 298.139 363.442 298.016 363.965 298.016C364.2 298.016 364.466 298.048 364.765 298.112ZM369.078 298.176H370.23V296.928C370.23 296.011 370.454 295.333 370.902 294.896C371.35 294.448 371.953 294.224 372.71 294.224C373.062 294.224 373.372 294.245 373.638 294.288V295.584H372.966C372.508 295.584 372.188 295.696 372.006 295.92C371.825 296.133 371.734 296.469 371.734 296.928V298.176H373.59V299.44H371.734V306H370.23V299.44H369.078V298.176ZM377.81 306.192C376.658 306.192 375.72 305.813 374.994 305.056C374.28 304.299 373.922 303.312 373.922 302.096C373.922 300.869 374.274 299.872 374.978 299.104C375.693 298.336 376.616 297.952 377.746 297.952C378.856 297.952 379.746 298.304 380.418 299.008C381.09 299.712 381.426 300.645 381.426 301.808V302.368L375.378 302.384C375.432 303.205 375.666 303.84 376.082 304.288C376.509 304.725 377.096 304.944 377.842 304.944C379.037 304.944 379.768 304.485 380.034 303.568H381.442C381.25 304.411 380.84 305.061 380.21 305.52C379.581 305.968 378.781 306.192 377.81 306.192ZM377.746 299.216C377.096 299.216 376.568 299.403 376.162 299.776C375.757 300.149 375.506 300.683 375.41 301.376H379.922C379.922 300.725 379.725 300.203 379.33 299.808C378.936 299.413 378.408 299.216 377.746 299.216ZM384.996 306.192C384.164 306.192 383.508 305.979 383.028 305.552C382.559 305.115 382.324 304.539 382.324 303.824C382.324 303.109 382.575 302.539 383.076 302.112C383.588 301.675 384.308 301.419 385.236 301.344L387.7 301.152V300.928C387.7 299.744 387.087 299.152 385.86 299.152C385.231 299.152 384.74 299.285 384.388 299.552C384.047 299.819 383.876 300.187 383.876 300.656H382.564C382.564 299.845 382.868 299.195 383.476 298.704C384.095 298.203 384.911 297.952 385.924 297.952C386.927 297.952 387.716 298.219 388.292 298.752C388.879 299.285 389.172 300.064 389.172 301.088V306H387.892L387.732 304.736C387.529 305.184 387.177 305.541 386.676 305.808C386.185 306.064 385.625 306.192 384.996 306.192ZM385.428 305.024C386.143 305.024 386.703 304.811 387.108 304.384C387.513 303.947 387.716 303.36 387.716 302.624V302.208L385.716 302.368C384.468 302.485 383.844 302.955 383.844 303.776C383.844 304.181 383.983 304.491 384.26 304.704C384.537 304.917 384.927 305.024 385.428 305.024ZM393.018 306H391.514V299.44H389.978V298.176H391.514V295.728H393.018V298.176H394.554V299.44H393.018V306ZM400.992 298.176H402.48V306H401.136L400.976 304.816C400.752 305.232 400.4 305.568 399.92 305.824C399.44 306.069 398.912 306.192 398.336 306.192C397.44 306.192 396.741 305.909 396.24 305.344C395.738 304.779 395.488 304.011 395.488 303.04V298.176H396.992V302.544C396.992 304.091 397.616 304.864 398.864 304.864C399.557 304.864 400.085 304.645 400.448 304.208C400.81 303.771 400.992 303.136 400.992 302.304V298.176ZM408.822 298.112V299.488H408.15C407.435 299.488 406.87 299.696 406.454 300.112C406.048 300.528 405.846 301.109 405.846 301.856V306H404.342V298.192H405.75L405.846 299.376C406.006 298.96 406.278 298.629 406.662 298.384C407.046 298.139 407.499 298.016 408.022 298.016C408.256 298.016 408.523 298.048 408.822 298.112ZM413.007 306.192C411.855 306.192 410.916 305.813 410.191 305.056C409.476 304.299 409.119 303.312 409.119 302.096C409.119 300.869 409.471 299.872 410.175 299.104C410.89 298.336 411.812 297.952 412.943 297.952C414.052 297.952 414.943 298.304 415.615 299.008C416.287 299.712 416.623 300.645 416.623 301.808V302.368L410.575 302.384C410.628 303.205 410.863 303.84 411.279 304.288C411.706 304.725 412.292 304.944 413.039 304.944C414.234 304.944 414.964 304.485 415.231 303.568H416.639C416.447 304.411 416.036 305.061 415.407 305.52C414.778 305.968 413.978 306.192 413.007 306.192ZM412.943 299.216C412.292 299.216 411.764 299.403 411.359 299.776C410.954 300.149 410.703 300.683 410.607 301.376H415.119C415.119 300.725 414.922 300.203 414.527 299.808C414.132 299.413 413.604 299.216 412.943 299.216ZM419.419 305.856C419.195 306.08 418.928 306.192 418.619 306.192C418.309 306.192 418.037 306.08 417.803 305.856C417.579 305.632 417.467 305.371 417.467 305.072C417.467 304.763 417.579 304.496 417.803 304.272C418.037 304.048 418.309 303.936 418.619 303.936C418.928 303.936 419.195 304.048 419.419 304.272C419.643 304.496 419.755 304.763 419.755 305.072C419.755 305.371 419.643 305.632 419.419 305.856Z" fill="black"/>
<path d="M155.333 332.667H156.667V334H155.333V332.667ZM155.333 335.333H156.667V339.333H155.333V335.333ZM156 329.333C152.32 329.333 149.333 332.32 149.333 336C149.333 339.68 152.32 342.667 156 342.667C159.68 342.667 162.667 339.68 162.667 336C162.667 332.32 159.68 329.333 156 329.333ZM156 341.333C153.06 341.333 150.667 338.94 150.667 336C150.667 333.06 153.06 330.667 156 330.667C158.94 330.667 161.333 333.06 161.333 336C161.333 338.94 158.94 341.333 156 341.333Z" fill="#E59661"/>
<path d="M169.044 341L169.884 338.72H173.844L174.684 341H175.584L172.392 332.408H171.324L168.168 341H169.044ZM171.744 333.62C171.792 333.5 171.84 333.344 171.852 333.272C171.864 333.356 171.924 333.5 171.96 333.62L173.568 337.964H170.148L171.744 333.62ZM178.679 341.144C179.651 341.144 180.467 340.712 180.875 339.812L180.959 341H181.679V332.252H180.851V336.296C180.443 335.456 179.675 335.036 178.715 335.036C176.987 335.036 175.991 336.356 175.991 338.108C175.991 339.848 176.987 341.144 178.679 341.144ZM178.823 340.388C177.563 340.388 176.831 339.428 176.831 338.084C176.831 336.752 177.563 335.78 178.823 335.78C180.095 335.78 180.839 336.752 180.839 338.084C180.839 339.428 180.095 340.388 178.823 340.388ZM185.687 341.144C186.659 341.144 187.475 340.712 187.883 339.812L187.967 341H188.687V332.252H187.859V336.296C187.451 335.456 186.683 335.036 185.723 335.036C183.995 335.036 182.999 336.356 182.999 338.108C182.999 339.848 183.995 341.144 185.687 341.144ZM185.831 340.388C184.571 340.388 183.839 339.428 183.839 338.084C183.839 336.752 184.571 335.78 185.831 335.78C187.103 335.78 187.847 336.752 187.847 338.084C187.847 339.428 187.103 340.388 185.831 340.388ZM190.823 333.596C191.159 333.596 191.447 333.32 191.447 332.984C191.447 332.648 191.159 332.36 190.823 332.36C190.487 332.36 190.211 332.648 190.211 332.984C190.211 333.32 190.487 333.596 190.823 333.596ZM190.415 341H191.243V335.192H190.415V341ZM194.301 341V335.888H195.465V335.192H194.301V333.356H193.485V335.192H192.321V335.888H193.485V341H194.301ZM196.952 333.596C197.288 333.596 197.576 333.32 197.576 332.984C197.576 332.648 197.288 332.36 196.952 332.36C196.616 332.36 196.34 332.648 196.34 332.984C196.34 333.32 196.616 333.596 196.952 333.596ZM196.544 341H197.372V335.192H196.544V341ZM198.69 338.096C198.69 339.86 199.938 341.144 201.642 341.144C203.346 341.144 204.594 339.86 204.594 338.096C204.594 336.32 203.346 335.036 201.642 335.036C199.938 335.036 198.69 336.32 198.69 338.096ZM199.53 338.084C199.53 336.74 200.394 335.78 201.642 335.78C202.878 335.78 203.754 336.74 203.754 338.084C203.754 339.452 202.878 340.4 201.642 340.4C200.394 340.4 199.53 339.452 199.53 338.084ZM206.747 341V337.964C206.747 336.656 207.419 335.792 208.607 335.792C209.567 335.792 210.179 336.272 210.179 337.628V341H211.007V337.448C211.007 335.984 210.347 335.036 208.751 335.036C207.911 335.036 207.143 335.456 206.759 336.2L206.639 335.192H205.919V341H206.747ZM214.325 341.144C215.309 341.144 216.101 340.712 216.461 339.98L216.569 341H217.265V337.244C217.265 335.708 216.281 335.036 214.937 335.036C213.509 335.036 212.549 335.792 212.549 336.968H213.305C213.305 336.188 213.905 335.732 214.913 335.732C215.765 335.732 216.449 336.092 216.449 337.232V337.424L214.529 337.58C213.173 337.688 212.357 338.36 212.357 339.428C212.357 340.448 213.089 341.144 214.325 341.144ZM214.517 340.472C213.725 340.472 213.197 340.112 213.197 339.404C213.197 338.756 213.641 338.276 214.733 338.18L216.449 338.048V338.36C216.449 339.62 215.741 340.472 214.517 340.472ZM219.791 341V332.252H218.963V341H219.791ZM225.288 333.596C225.624 333.596 225.912 333.32 225.912 332.984C225.912 332.648 225.624 332.36 225.288 332.36C224.952 332.36 224.676 332.648 224.676 332.984C224.676 333.32 224.952 333.596 225.288 333.596ZM224.88 341H225.708V335.192H224.88V341ZM228.262 341V337.964C228.262 336.656 228.934 335.792 230.122 335.792C231.082 335.792 231.694 336.272 231.694 337.628V341H232.522V337.448C232.522 335.984 231.862 335.036 230.266 335.036C229.426 335.036 228.658 335.456 228.274 336.2L228.154 335.192H227.434V341H228.262ZM233.525 335.192V335.888H234.413V341H235.241V335.888H236.609V335.192H235.241V334.064C235.241 333.38 235.433 333.008 236.165 333.008H236.657V332.3C236.465 332.264 236.225 332.252 236.021 332.252C235.133 332.252 234.413 332.756 234.413 334.064V335.192H233.525ZM237.151 338.096C237.151 339.86 238.399 341.144 240.103 341.144C241.807 341.144 243.055 339.86 243.055 338.096C243.055 336.32 241.807 335.036 240.103 335.036C238.399 335.036 237.151 336.32 237.151 338.096ZM237.991 338.084C237.991 336.74 238.855 335.78 240.103 335.78C241.339 335.78 242.215 336.74 242.215 338.084C242.215 339.452 241.339 340.4 240.103 340.4C238.855 340.4 237.991 339.452 237.991 338.084ZM247.416 335.12C247.212 335.072 247.056 335.06 246.876 335.06C246.06 335.06 245.448 335.468 245.22 336.092L245.16 335.192H244.38V341H245.208V337.688C245.208 336.584 245.892 335.864 246.96 335.864H247.416V335.12ZM249.344 341V337.4C249.344 336.512 249.932 335.792 250.904 335.792C251.78 335.792 252.344 336.368 252.344 337.352V341H253.16V337.412C253.16 336.512 253.736 335.78 254.708 335.78C255.596 335.78 256.148 336.368 256.148 337.364V341H256.952V337.196C256.952 335.852 256.124 335.036 254.864 335.036C253.928 335.036 253.22 335.516 252.956 336.272C252.68 335.516 251.996 335.036 251.084 335.036C250.268 335.036 249.62 335.408 249.332 336.02L249.236 335.192H248.516V341H249.344ZM260.286 341.144C261.27 341.144 262.062 340.712 262.422 339.98L262.53 341H263.226V337.244C263.226 335.708 262.242 335.036 260.898 335.036C259.47 335.036 258.51 335.792 258.51 336.968H259.266C259.266 336.188 259.866 335.732 260.874 335.732C261.726 335.732 262.41 336.092 262.41 337.232V337.424L260.49 337.58C259.134 337.688 258.318 338.36 258.318 339.428C258.318 340.448 259.05 341.144 260.286 341.144ZM260.478 340.472C259.686 340.472 259.158 340.112 259.158 339.404C259.158 338.756 259.602 338.276 260.694 338.18L262.41 338.048V338.36C262.41 339.62 261.702 340.472 260.478 340.472ZM266.114 341V335.888H267.278V335.192H266.114V333.356H265.298V335.192H264.134V335.888H265.298V341H266.114ZM268.764 333.596C269.1 333.596 269.388 333.32 269.388 332.984C269.388 332.648 269.1 332.36 268.764 332.36C268.428 332.36 268.152 332.648 268.152 332.984C268.152 333.32 268.428 333.596 268.764 333.596ZM268.356 341H269.184V335.192H268.356V341ZM270.503 338.096C270.503 339.86 271.751 341.144 273.455 341.144C275.159 341.144 276.407 339.86 276.407 338.096C276.407 336.32 275.159 335.036 273.455 335.036C271.751 335.036 270.503 336.32 270.503 338.096ZM271.343 338.084C271.343 336.74 272.207 335.78 273.455 335.78C274.691 335.78 275.567 336.74 275.567 338.084C275.567 339.452 274.691 340.4 273.455 340.4C272.207 340.4 271.343 339.452 271.343 338.084ZM278.559 341V337.964C278.559 336.656 279.231 335.792 280.419 335.792C281.379 335.792 281.991 336.272 281.991 337.628V341H282.819V337.448C282.819 335.984 282.159 335.036 280.563 335.036C279.723 335.036 278.955 335.456 278.571 336.2L278.451 335.192H277.731V341H278.559ZM287.39 338.108C287.39 339.932 288.506 341.144 290.15 341.144C291.47 341.144 292.502 340.364 292.778 339.176H291.938C291.71 339.92 291.014 340.4 290.15 340.4C288.974 340.4 288.206 339.476 288.206 338.096C288.206 336.668 289.034 335.768 290.21 335.768C291.014 335.768 291.71 336.212 291.926 337.016H292.754C292.526 335.816 291.542 335.036 290.198 335.036C288.506 335.036 287.39 336.284 287.39 338.108ZM295.7 341.144C296.684 341.144 297.476 340.712 297.836 339.98L297.944 341H298.64V337.244C298.64 335.708 297.656 335.036 296.312 335.036C294.884 335.036 293.924 335.792 293.924 336.968H294.68C294.68 336.188 295.28 335.732 296.288 335.732C297.14 335.732 297.824 336.092 297.824 337.232V337.424L295.904 337.58C294.548 337.688 293.732 338.36 293.732 339.428C293.732 340.448 294.464 341.144 295.7 341.144ZM295.892 340.472C295.1 340.472 294.572 340.112 294.572 339.404C294.572 338.756 295.016 338.276 296.108 338.18L297.824 338.048V338.36C297.824 339.62 297.116 340.472 295.892 340.472ZM301.13 341V337.964C301.13 336.656 301.802 335.792 302.99 335.792C303.95 335.792 304.562 336.272 304.562 337.628V341H305.39V337.448C305.39 335.984 304.73 335.036 303.134 335.036C302.294 335.036 301.526 335.456 301.142 336.2L301.021 335.192H300.302V341H301.13ZM311.088 341L311.172 339.812C311.58 340.712 312.384 341.144 313.356 341.144C315.048 341.144 316.056 339.848 316.056 338.108C316.056 336.356 315.072 335.036 313.38 335.036C312.396 335.036 311.604 335.468 311.196 336.32V332.252H310.368V341H311.088ZM311.208 338.084C311.208 336.752 311.952 335.78 313.224 335.78C314.484 335.78 315.216 336.752 315.216 338.084C315.216 339.428 314.484 340.388 313.224 340.388C311.952 340.388 311.208 339.428 311.208 338.084ZM319.812 341.144C321.18 341.144 322.08 340.484 322.392 339.26H321.6C321.384 340.028 320.772 340.436 319.824 340.436C318.576 340.436 317.832 339.62 317.772 338.204H322.392V337.796C322.392 336.152 321.324 335.036 319.752 335.036C318.096 335.036 316.968 336.284 316.968 338.096C316.968 339.92 318.108 341.144 319.812 341.144ZM319.752 335.744C320.844 335.744 321.564 336.488 321.564 337.604H317.796C317.94 336.464 318.66 335.744 319.752 335.744ZM328.712 341.144C329.696 341.144 330.488 340.712 330.848 339.98L330.956 341H331.652V337.244C331.652 335.708 330.668 335.036 329.324 335.036C327.896 335.036 326.936 335.792 326.936 336.968H327.692C327.692 336.188 328.292 335.732 329.3 335.732C330.152 335.732 330.836 336.092 330.836 337.232V337.424L328.916 337.58C327.56 337.688 326.744 338.36 326.744 339.428C326.744 340.448 327.476 341.144 328.712 341.144ZM328.904 340.472C328.112 340.472 327.584 340.112 327.584 339.404C327.584 338.756 328.028 338.276 329.12 338.18L330.836 338.048V338.36C330.836 339.62 330.128 340.472 328.904 340.472ZM335.593 341.144C336.565 341.144 337.381 340.712 337.789 339.812L337.873 341H338.593V332.252H337.765V336.296C337.357 335.456 336.589 335.036 335.629 335.036C333.901 335.036 332.905 336.356 332.905 338.108C332.905 339.848 333.901 341.144 335.593 341.144ZM335.737 340.388C334.477 340.388 333.745 339.428 333.745 338.084C333.745 336.752 334.477 335.78 335.737 335.78C337.009 335.78 337.753 336.752 337.753 338.084C337.753 339.428 337.009 340.388 335.737 340.388ZM342.601 341.144C343.573 341.144 344.389 340.712 344.797 339.812L344.881 341H345.601V332.252H344.773V336.296C344.365 335.456 343.597 335.036 342.637 335.036C340.909 335.036 339.913 336.356 339.913 338.108C339.913 339.848 340.909 341.144 342.601 341.144ZM342.745 340.388C341.485 340.388 340.753 339.428 340.753 338.084C340.753 336.752 341.485 335.78 342.745 335.78C344.017 335.78 344.761 336.752 344.761 338.084C344.761 339.428 344.017 340.388 342.745 340.388ZM349.765 341.144C351.133 341.144 352.033 340.484 352.345 339.26H351.553C351.337 340.028 350.725 340.436 349.777 340.436C348.529 340.436 347.785 339.62 347.725 338.204H352.345V337.796C352.345 336.152 351.277 335.036 349.705 335.036C348.049 335.036 346.921 336.284 346.921 338.096C346.921 339.92 348.061 341.144 349.765 341.144ZM349.705 335.744C350.797 335.744 351.517 336.488 351.517 337.604H347.749C347.893 336.464 348.613 335.744 349.705 335.744ZM355.949 341.144C356.921 341.144 357.737 340.712 358.145 339.812L358.229 341H358.949V332.252H358.121V336.296C357.713 335.456 356.945 335.036 355.985 335.036C354.257 335.036 353.261 336.356 353.261 338.108C353.261 339.848 354.257 341.144 355.949 341.144ZM356.093 340.388C354.833 340.388 354.101 339.428 354.101 338.084C354.101 336.752 354.833 335.78 356.093 335.78C357.365 335.78 358.109 336.752 358.109 338.084C358.109 339.428 357.365 340.388 356.093 340.388ZM364.833 340.988V337.832C364.833 336.716 365.481 335.792 366.729 335.792C367.629 335.792 368.265 336.272 368.265 337.628V341H369.093V337.448C369.093 335.984 368.409 335.036 366.885 335.036C365.913 335.036 365.205 335.504 364.833 336.2V332.252H364.005V340.988H364.833ZM373.179 341.144C374.547 341.144 375.447 340.484 375.759 339.26H374.967C374.751 340.028 374.139 340.436 373.191 340.436C371.943 340.436 371.199 339.62 371.139 338.204H375.759V337.796C375.759 336.152 374.691 335.036 373.119 335.036C371.463 335.036 370.335 336.284 370.335 338.096C370.335 339.92 371.475 341.144 373.179 341.144ZM373.119 335.744C374.211 335.744 374.931 336.488 374.931 337.604H371.163C371.307 336.464 372.027 335.744 373.119 335.744ZM380.119 335.12C379.915 335.072 379.759 335.06 379.579 335.06C378.763 335.06 378.151 335.468 377.923 336.092L377.863 335.192H377.083V341H377.911V337.688C377.911 336.584 378.595 335.864 379.663 335.864H380.119V335.12ZM383.433 341.144C384.801 341.144 385.701 340.484 386.013 339.26H385.221C385.005 340.028 384.393 340.436 383.445 340.436C382.197 340.436 381.453 339.62 381.393 338.204H386.013V337.796C386.013 336.152 384.945 335.036 383.373 335.036C381.717 335.036 380.589 336.284 380.589 338.096C380.589 339.92 381.729 341.144 383.433 341.144ZM383.373 335.744C384.465 335.744 385.185 336.488 385.185 337.604H381.417C381.561 336.464 382.281 335.744 383.373 335.744ZM387.681 341.132C388.089 341.132 388.437 340.796 388.437 340.4C388.437 339.992 388.089 339.644 387.681 339.644C387.273 339.644 386.925 339.992 386.925 340.4C386.925 340.796 387.273 341.132 387.681 341.132Z" fill="black"/>
<path d="M162 376.47C161.74 376.21 161.32 376.21 161.06 376.47L158 379.53C157.74 379.79 157.74 380.21 158 380.47L161.06 383.53C161.32 383.79 161.74 383.79 162 383.53C162.26 383.27 162.26 382.85 162 382.59L159.414 379.997L162 377.41C162.26 377.15 162.254 376.723 162 376.47Z" fill="black"/>
<rect x="148.5" y="368.5" width="23" height="23" rx="11.5" stroke="#E9ECEF"/>
<rect x="212" y="378" width="35.2" height="4" rx="2" fill="#6173E5"/>
<rect x="255.2" y="378" width="35.2" height="4" rx="2" fill="#E9ECEF"/>
<rect x="298.4" y="378" width="35.2" height="4" rx="2" fill="#E9ECEF"/>
<rect x="341.6" y="378" width="35.2" height="4" rx="2" fill="#E9ECEF"/>
<rect x="384.8" y="378" width="35.2" height="4" rx="2" fill="#E9ECEF"/>
<path d="M470 376.474C469.74 376.734 469.74 377.154 470 377.414L472.587 380L470 382.587C469.74 382.847 469.74 383.267 470 383.527C470.26 383.787 470.68 383.787 470.94 383.527L474 380.467C474.26 380.207 474.26 379.787 474 379.527L470.94 376.467C470.687 376.214 470.26 376.214 470 376.474Z" fill="black"/>
<rect x="460.5" y="368.5" width="23" height="23" rx="11.5" stroke="#E9ECEF"/>
<rect x="175.25" y="354.25" width="281.5" height="161.5" rx="7.75" fill="white"/>
<path d="M200.458 397H205.786C208.504 397 210.07 395.686 210.07 393.436C210.07 391.906 209.368 390.862 207.982 390.412C209.224 389.89 209.872 388.846 209.872 387.388C209.872 385.192 208.288 383.842 205.696 383.842H200.458V397ZM205.498 385.876C206.794 385.876 207.514 386.488 207.514 387.622C207.514 388.792 206.812 389.458 205.552 389.458H202.762V385.876H205.498ZM205.696 391.402C206.974 391.402 207.712 392.032 207.712 393.148C207.712 394.336 206.992 394.966 205.696 394.966H202.762V391.402H205.696ZM214.145 397.234C215.531 397.234 216.737 396.604 217.115 395.686L217.277 397H219.203V391.6C219.203 389.134 217.727 387.838 215.333 387.838C212.921 387.838 211.337 389.098 211.337 391.024H213.209C213.209 390.088 213.929 389.548 215.225 389.548C216.341 389.548 217.061 390.034 217.061 391.24V391.438L214.397 391.636C212.291 391.798 211.103 392.824 211.103 394.462C211.103 396.136 212.255 397.234 214.145 397.234ZM214.865 395.578C213.875 395.578 213.335 395.182 213.335 394.372C213.335 393.652 213.857 393.202 215.225 393.076L217.079 392.932V393.4C217.079 394.768 216.215 395.578 214.865 395.578ZM220.316 394.3C220.316 396.046 221.72 397.234 223.934 397.234C226.13 397.234 227.66 396.118 227.66 394.318C227.66 392.95 226.904 392.266 225.41 391.924L223.808 391.546C223.052 391.366 222.656 391.042 222.656 390.538C222.656 389.872 223.16 389.476 224.024 389.476C224.87 389.476 225.374 389.962 225.392 390.718H227.48C227.462 388.99 226.112 387.838 224.114 387.838C222.062 387.838 220.586 388.882 220.586 390.628C220.586 392.05 221.36 392.806 222.962 393.166L224.564 393.544C225.356 393.724 225.59 394.048 225.59 394.498C225.59 395.146 225.032 395.56 224.006 395.56C222.998 395.56 222.422 395.074 222.404 394.3H220.316ZM230.07 386.326C230.79 386.326 231.384 385.732 231.384 384.994C231.384 384.256 230.79 383.68 230.07 383.68C229.314 383.68 228.72 384.256 228.72 384.994C228.72 385.732 229.314 386.326 230.07 386.326ZM228.972 397H231.168V388.108H228.972V397ZM232.555 392.536C232.555 395.362 234.319 397.234 237.019 397.234C239.341 397.234 241.069 395.812 241.339 393.742H239.125C238.891 394.714 238.117 395.254 237.019 395.254C235.615 395.254 234.751 394.21 234.751 392.536C234.751 390.862 235.687 389.8 237.091 389.8C238.135 389.8 238.873 390.322 239.125 391.33H241.321C241.087 389.188 239.431 387.838 237.001 387.838C234.373 387.838 232.555 389.782 232.555 392.536ZM252.631 392.464C255.259 392.464 256.987 390.682 256.987 388.144C256.987 385.57 255.277 383.842 252.631 383.842H247.429V397H249.733V392.464H252.631ZM252.181 385.894C253.711 385.894 254.575 386.686 254.575 388.126C254.575 389.566 253.729 390.412 252.145 390.412H249.733V385.894H252.181ZM260.455 397V383.608H258.277V397H260.455ZM265.045 397.234C266.431 397.234 267.637 396.604 268.015 395.686L268.177 397H270.103V391.6C270.103 389.134 268.627 387.838 266.233 387.838C263.821 387.838 262.237 389.098 262.237 391.024H264.109C264.109 390.088 264.829 389.548 266.125 389.548C267.241 389.548 267.961 390.034 267.961 391.24V391.438L265.297 391.636C263.191 391.798 262.003 392.824 262.003 394.462C262.003 396.136 263.155 397.234 265.045 397.234ZM265.765 395.578C264.775 395.578 264.235 395.182 264.235 394.372C264.235 393.652 264.757 393.202 266.125 393.076L267.979 392.932V393.4C267.979 394.768 267.115 395.578 265.765 395.578ZM274.096 397V392.212C274.096 390.772 274.924 389.836 276.274 389.836C277.408 389.836 278.146 390.556 278.146 392.05V397H280.342V391.528C280.342 389.224 279.19 387.838 276.958 387.838C275.752 387.838 274.672 388.36 274.114 389.26L273.934 388.108H271.9V397H274.096Z" fill="black"/>
<rect x="286" y="380" width="62" height="20" rx="10" fill="#F2F8F5"/>
<path d="M296.796 395V391.856C296.796 390.764 296.784 389.936 296.7 389.408L298.92 395H300.336L302.568 389.396C302.484 390.02 302.484 390.536 302.484 392.3V395H303.972V386.228H302.46L299.628 393.212L296.796 386.228H295.308V395H296.796ZM305.349 392.024C305.349 393.872 306.681 395.144 308.517 395.144C310.353 395.144 311.685 393.872 311.685 392.024C311.685 390.176 310.353 388.904 308.517 388.904C306.681 388.904 305.349 390.176 305.349 392.024ZM306.813 392.024C306.813 390.944 307.509 390.212 308.517 390.212C309.525 390.212 310.221 390.944 310.221 392.024C310.221 393.104 309.525 393.836 308.517 393.836C307.509 393.836 306.813 393.104 306.813 392.024ZM314.31 395V391.808C314.31 390.848 314.862 390.224 315.762 390.224C316.518 390.224 317.01 390.704 317.01 391.7V395H318.474V391.352C318.474 389.816 317.706 388.892 316.218 388.892C315.414 388.892 314.694 389.24 314.322 389.84L314.202 389.072H312.846V395H314.31ZM321.928 395V390.296H323.08V389.072H321.928V387.224H320.464V389.072H319.324V390.296H320.464V395H321.928ZM325.454 395V391.76C325.454 390.872 325.994 390.224 326.918 390.224C327.662 390.224 328.154 390.704 328.154 391.7V395H329.618V391.352C329.618 389.816 328.85 388.892 327.386 388.892C326.534 388.892 325.838 389.264 325.466 389.84V386.072H323.99V395H325.454ZM332.533 395V386.072H331.081V395H332.533ZM333.553 397.748C333.877 397.832 334.237 397.88 334.645 397.88C335.617 397.88 336.241 397.424 336.685 396.32L339.589 389.072H338.077L336.469 393.392L334.945 389.072H333.397L335.785 395.252L335.617 395.696C335.365 396.392 335.005 396.524 334.429 396.524H333.553V397.748Z" fill="#86C1A1"/>
<path d="M199.616 407.58C199.616 408.952 200.442 409.848 202.01 410.226L203.704 410.646C204.782 410.898 205.286 411.486 205.286 412.382C205.286 413.53 204.348 414.244 202.878 414.244C201.506 414.244 200.582 413.558 200.526 412.508H199.49C199.616 414.146 200.932 415.168 202.878 415.168C204.95 415.168 206.294 414.062 206.294 412.326C206.294 410.968 205.482 410.072 203.914 409.694L202.192 409.274C201.142 409.008 200.624 408.448 200.624 407.566C200.624 406.432 201.548 405.704 202.962 405.704C204.222 405.704 204.992 406.348 205.104 407.482H206.126C205.972 405.802 204.782 404.794 202.976 404.794C200.96 404.794 199.616 405.9 199.616 407.58ZM208.583 414.986V411.304C208.583 410.002 209.339 408.924 210.795 408.924C211.845 408.924 212.587 409.484 212.587 411.066V415H213.553V410.856C213.553 409.148 212.755 408.042 210.977 408.042C209.843 408.042 209.017 408.588 208.583 409.4V404.794H207.617V414.986H208.583ZM214.722 411.612C214.722 413.67 216.178 415.168 218.166 415.168C220.154 415.168 221.61 413.67 221.61 411.612C221.61 409.54 220.154 408.042 218.166 408.042C216.178 408.042 214.722 409.54 214.722 411.612ZM215.702 411.598C215.702 410.03 216.71 408.91 218.166 408.91C219.608 408.91 220.63 410.03 220.63 411.598C220.63 413.194 219.608 414.3 218.166 414.3C216.71 414.3 215.702 413.194 215.702 411.598ZM226.417 408.14C226.179 408.084 225.997 408.07 225.787 408.07C224.835 408.07 224.121 408.546 223.855 409.274L223.785 408.224H222.875V415H223.841V411.136C223.841 409.848 224.639 409.008 225.885 409.008H226.417V408.14ZM229.249 415V409.036H230.607V408.224H229.249V406.082H228.297V408.224H226.939V409.036H228.297V415H229.249ZM237.847 415.168C238.981 415.168 239.933 414.664 240.409 413.614L240.507 415H241.347V404.794H240.381V409.512C239.905 408.532 239.009 408.042 237.889 408.042C235.873 408.042 234.711 409.582 234.711 411.626C234.711 413.656 235.873 415.168 237.847 415.168ZM238.015 414.286C236.545 414.286 235.691 413.166 235.691 411.598C235.691 410.044 236.545 408.91 238.015 408.91C239.499 408.91 240.367 410.044 240.367 411.598C240.367 413.166 239.499 414.286 238.015 414.286ZM245.925 415.168C247.521 415.168 248.571 414.398 248.935 412.97H248.011C247.759 413.866 247.045 414.342 245.939 414.342C244.483 414.342 243.615 413.39 243.545 411.738H248.935V411.262C248.935 409.344 247.689 408.042 245.855 408.042C243.923 408.042 242.607 409.498 242.607 411.612C242.607 413.74 243.937 415.168 245.925 415.168ZM245.855 408.868C247.129 408.868 247.969 409.736 247.969 411.038H243.573C243.741 409.708 244.581 408.868 245.855 408.868ZM249.626 413.096C249.626 414.356 250.578 415.168 252.104 415.168C253.644 415.168 254.68 414.37 254.68 413.152C254.68 412.172 254.148 411.626 252.972 411.332L251.81 411.038C251.068 410.856 250.704 410.492 250.704 409.974C250.704 409.246 251.236 408.84 252.188 408.84C253.098 408.84 253.644 409.302 253.672 410.086H254.61C254.568 408.826 253.644 408.042 252.216 408.042C250.76 408.042 249.766 408.798 249.766 409.988C249.766 410.912 250.34 411.528 251.516 411.822L252.678 412.116C253.476 412.312 253.756 412.634 253.756 413.194C253.756 413.922 253.14 414.37 252.09 414.37C251.138 414.37 250.55 413.88 250.55 413.096H249.626ZM255.514 411.626C255.514 413.754 256.816 415.168 258.734 415.168C260.274 415.168 261.478 414.258 261.8 412.872H260.82C260.554 413.74 259.742 414.3 258.734 414.3C257.362 414.3 256.466 413.222 256.466 411.612C256.466 409.946 257.432 408.896 258.804 408.896C259.742 408.896 260.554 409.414 260.806 410.352H261.772C261.506 408.952 260.358 408.042 258.79 408.042C256.816 408.042 255.514 409.498 255.514 411.626ZM266.525 408.14C266.287 408.084 266.105 408.07 265.895 408.07C264.943 408.07 264.229 408.546 263.963 409.274L263.893 408.224H262.983V415H263.949V411.136C263.949 409.848 264.747 409.008 265.993 409.008H266.525V408.14ZM268.006 406.362C268.398 406.362 268.734 406.04 268.734 405.648C268.734 405.256 268.398 404.92 268.006 404.92C267.614 404.92 267.292 405.256 267.292 405.648C267.292 406.04 267.614 406.362 268.006 406.362ZM267.53 415H268.496V408.224H267.53V415ZM270.23 417.954H271.196V413.698C271.672 414.678 272.582 415.168 273.73 415.168C275.732 415.168 276.866 413.628 276.866 411.584C276.866 409.54 275.69 408.042 273.73 408.042C272.596 408.042 271.644 408.546 271.168 409.596L271.07 408.224H270.23V417.954ZM271.21 411.612C271.21 410.044 272.078 408.924 273.562 408.924C275.032 408.924 275.886 410.044 275.886 411.612C275.886 413.166 275.032 414.3 273.562 414.3C272.078 414.3 271.21 413.166 271.21 411.612ZM279.611 415V409.036H280.969V408.224H279.611V406.082H278.659V408.224H277.301V409.036H278.659V415H279.611ZM282.423 406.362C282.815 406.362 283.151 406.04 283.151 405.648C283.151 405.256 282.815 404.92 282.423 404.92C282.031 404.92 281.709 405.256 281.709 405.648C281.709 406.04 282.031 406.362 282.423 406.362ZM281.947 415H282.913V408.224H281.947V415ZM284.172 411.612C284.172 413.67 285.628 415.168 287.616 415.168C289.604 415.168 291.06 413.67 291.06 411.612C291.06 409.54 289.604 408.042 287.616 408.042C285.628 408.042 284.172 409.54 284.172 411.612ZM285.152 411.598C285.152 410.03 286.16 408.91 287.616 408.91C289.058 408.91 290.08 410.03 290.08 411.598C290.08 413.194 289.058 414.3 287.616 414.3C286.16 414.3 285.152 413.194 285.152 411.598ZM293.291 415V411.458C293.291 409.932 294.075 408.924 295.461 408.924C296.581 408.924 297.295 409.484 297.295 411.066V415H298.261V410.856C298.261 409.148 297.491 408.042 295.629 408.042C294.649 408.042 293.753 408.532 293.305 409.4L293.165 408.224H292.325V415H293.291ZM304.475 414.986V411.304C304.475 410.002 305.231 408.924 306.687 408.924C307.737 408.924 308.479 409.484 308.479 411.066V415H309.445V410.856C309.445 409.148 308.647 408.042 306.869 408.042C305.735 408.042 304.909 408.588 304.475 409.4V404.794H303.509V414.986H304.475ZM313.932 415.168C315.528 415.168 316.578 414.398 316.942 412.97H316.018C315.766 413.866 315.052 414.342 313.946 414.342C312.49 414.342 311.622 413.39 311.552 411.738H316.942V411.262C316.942 409.344 315.696 408.042 313.862 408.042C311.93 408.042 310.614 409.498 310.614 411.612C310.614 413.74 311.944 415.168 313.932 415.168ZM313.862 408.868C315.136 408.868 315.976 409.736 315.976 411.038H311.58C311.748 409.708 312.588 408.868 313.862 408.868ZM321.749 408.14C321.511 408.084 321.329 408.07 321.119 408.07C320.167 408.07 319.453 408.546 319.187 409.274L319.117 408.224H318.207V415H319.173V411.136C319.173 409.848 319.971 409.008 321.217 409.008H321.749V408.14ZM325.335 415.168C326.931 415.168 327.981 414.398 328.345 412.97H327.421C327.169 413.866 326.455 414.342 325.349 414.342C323.893 414.342 323.025 413.39 322.955 411.738H328.345V411.262C328.345 409.344 327.099 408.042 325.265 408.042C323.333 408.042 322.017 409.498 322.017 411.612C322.017 413.74 323.347 415.168 325.335 415.168ZM325.265 408.868C326.539 408.868 327.379 409.736 327.379 411.038H322.983C323.151 409.708 323.991 408.868 325.265 408.868Z" fill="#343A40"/>
<rect x="393" y="378" width="40" height="40" rx="20" fill="#F8F9FA"/>
<path d="M409 396.667C408.267 396.667 407.667 397.267 407.667 398C407.667 398.733 408.267 399.333 409 399.333C409.733 399.333 410.333 398.733 410.333 398C410.333 397.267 409.733 396.667 409 396.667ZM417 396.667C416.267 396.667 415.667 397.267 415.667 398C415.667 398.733 416.267 399.333 417 399.333C417.733 399.333 418.333 398.733 418.333 398C418.333 397.267 417.733 396.667 417 396.667ZM413 396.667C412.267 396.667 411.667 397.267 411.667 398C411.667 398.733 412.267 399.333 413 399.333C413.733 399.333 414.333 398.733 414.333 398C414.333 397.267 413.733 396.667 413 396.667Z" fill="#343A40"/>
<path d="M207.32 477.04H209.784V474.32C214.072 473.84 216.824 471.152 216.824 467.248C216.824 463.856 214.968 461.872 210.872 460.976L209.784 460.72V453.84C211.448 454.192 212.408 455.312 212.472 457.04H216.44C216.312 453.2 213.816 450.672 209.784 450.256V447.536H207.32V450.256C203.064 450.704 200.248 453.392 200.248 457.136C200.248 460.656 202.264 462.896 206.296 463.76L207.32 463.984V470.8C205.24 470.544 204.056 469.392 204.024 467.568H199.928C200.024 471.472 202.872 474.064 207.32 474.384V477.04ZM207.192 460.144C205.144 459.696 204.248 458.704 204.248 457.008C204.248 455.28 205.4 454.128 207.32 453.808V460.176L207.192 460.144ZM210.008 464.56C211.928 464.976 212.856 465.968 212.856 467.6C212.856 469.232 211.704 470.352 209.784 470.736V464.496L210.008 464.56ZM218.322 467.376C218.322 471.632 221.81 474.384 227.218 474.384C232.658 474.384 236.146 471.6 236.146 467.376C236.146 464.56 234.546 462.288 232.082 461.424C234.162 460.56 235.314 458.8 235.314 456.528C235.314 452.72 232.082 450.192 227.282 450.192C222.45 450.192 219.154 452.752 219.154 456.464C219.154 458.736 220.274 460.496 222.322 461.424C219.89 462.352 218.322 464.592 218.322 467.376ZM222.866 456.816C222.866 454.896 224.562 453.68 227.218 453.68C229.842 453.68 231.506 454.896 231.506 456.848C231.506 458.8 229.842 460.016 227.218 460.016C224.562 460.016 222.866 458.768 222.866 456.816ZM222.322 467.088C222.322 464.816 224.21 463.408 227.218 463.408C230.226 463.408 232.114 464.816 232.114 467.088C232.114 469.36 230.226 470.768 227.25 470.768C224.21 470.768 222.322 469.36 222.322 467.088Z" fill="black"/>
<path d="M240.816 471L244.188 462.408H243.348L240 471H240.816ZM245.278 471V467.4C245.278 466.512 245.866 465.792 246.838 465.792C247.714 465.792 248.278 466.368 248.278 467.352V471H249.094V467.412C249.094 466.512 249.67 465.78 250.642 465.78C251.53 465.78 252.082 466.368 252.082 467.364V471H252.886V467.196C252.886 465.852 252.058 465.036 250.798 465.036C249.862 465.036 249.154 465.516 248.89 466.272C248.614 465.516 247.93 465.036 247.018 465.036C246.202 465.036 245.554 465.408 245.266 466.02L245.17 465.192H244.45V471H245.278ZM254.144 468.096C254.144 469.86 255.392 471.144 257.096 471.144C258.8 471.144 260.048 469.86 260.048 468.096C260.048 466.32 258.8 465.036 257.096 465.036C255.392 465.036 254.144 466.32 254.144 468.096ZM254.984 468.084C254.984 466.74 255.848 465.78 257.096 465.78C258.332 465.78 259.208 466.74 259.208 468.084C259.208 469.452 258.332 470.4 257.096 470.4C255.848 470.4 254.984 469.452 254.984 468.084ZM262.2 471V467.964C262.2 466.656 262.872 465.792 264.06 465.792C265.02 465.792 265.632 466.272 265.632 467.628V471H266.46V467.448C266.46 465.984 265.8 465.036 264.204 465.036C263.364 465.036 262.596 465.456 262.212 466.2L262.092 465.192H261.372V471H262.2ZM269.442 471V465.888H270.606V465.192H269.442V463.356H268.626V465.192H267.462V465.888H268.626V471H269.442ZM272.512 470.988V467.832C272.512 466.716 273.16 465.792 274.408 465.792C275.308 465.792 275.944 466.272 275.944 467.628V471H276.772V467.448C276.772 465.984 276.088 465.036 274.564 465.036C273.592 465.036 272.884 465.504 272.512 466.2V462.252H271.684V470.988H272.512Z" fill="#343A40"/>
<path d="M352.244 463.38V471H353.372V462.324H350.42V463.38H352.244ZM356.063 465.072C355.175 466.284 354.863 467.004 354.863 468.036C354.863 469.788 356.255 471.144 358.055 471.144C359.843 471.144 361.211 469.848 361.211 468.036C361.211 466.32 359.999 465.024 358.199 465.024C357.899 465.024 357.587 465.084 357.287 465.204L359.459 462.324H358.091L356.063 465.072ZM356.063 468.048C356.063 466.86 356.879 466.02 358.055 466.02C359.207 466.02 360.023 466.86 360.023 468.048C360.023 469.236 359.207 470.088 358.055 470.088C356.879 470.088 356.063 469.236 356.063 468.048ZM365.42 468.06C365.42 469.872 366.716 471.144 368.48 471.144C370.232 471.144 371.528 469.872 371.528 468.06C371.528 466.248 370.232 464.976 368.48 464.976C366.716 464.976 365.42 466.248 365.42 468.06ZM366.56 468.06C366.56 466.836 367.34 465.984 368.48 465.984C369.608 465.984 370.4 466.836 370.4 468.06C370.4 469.284 369.608 470.136 368.48 470.136C367.34 470.136 366.56 469.284 366.56 468.06ZM372.118 465.132V466.08H372.982V471H374.11V466.08H375.502V465.132H374.11V464.196C374.11 463.56 374.302 463.188 375.034 463.188H375.538V462.216C375.31 462.18 375.058 462.168 374.842 462.168C373.774 462.168 372.982 462.756 372.982 464.196V465.132H372.118ZM385.424 470.988V469.896H381.416L383.216 468.336C384.752 467.004 385.364 466.128 385.364 464.892C385.364 463.224 384.248 462.168 382.508 462.168C380.744 462.168 379.568 463.38 379.532 465.24H380.708C380.732 464.004 381.428 463.224 382.496 463.224C383.54 463.224 384.164 463.872 384.164 464.964C384.164 465.888 383.768 466.476 382.364 467.688L379.568 470.1V471L385.424 470.988ZM392.74 469.248V468.204H391.708V462.324H390.184L386.092 468.204V469.248H390.58V471H391.708V469.248H392.74ZM387.364 468.204L390.58 463.572V468.204H387.364ZM401.466 465.132V468.228C401.466 469.488 400.902 470.148 399.87 470.148C399.006 470.148 398.466 469.668 398.466 468.408V465.132H397.338V468.78C397.338 470.22 398.106 471.144 399.474 471.144C400.338 471.144 401.118 470.724 401.454 470.112L401.574 471H402.582V465.132H401.466ZM403.621 469.296C403.621 470.412 404.497 471.144 405.877 471.144C407.269 471.144 408.229 470.436 408.229 469.32C408.229 468.444 407.737 467.988 406.741 467.748L405.709 467.496C405.133 467.352 404.845 467.088 404.845 466.692C404.845 466.152 405.241 465.84 405.949 465.84C406.633 465.84 407.029 466.212 407.053 466.8H408.133C408.109 465.684 407.269 464.964 405.985 464.964C404.689 464.964 403.777 465.648 403.777 466.728C403.777 467.592 404.269 468.108 405.313 468.36L406.345 468.6C406.957 468.756 407.149 468.996 407.149 469.392C407.149 469.932 406.693 470.256 405.901 470.256C405.157 470.256 404.701 469.896 404.701 469.296H403.621ZM412.012 471.144C413.464 471.144 414.448 470.436 414.736 469.176H413.68C413.488 469.848 412.912 470.208 412.036 470.208C410.92 470.208 410.272 469.524 410.188 468.288L414.724 468.276V467.856C414.724 466.116 413.632 464.964 411.964 464.964C410.26 464.964 409.096 466.236 409.096 468.072C409.096 469.896 410.284 471.144 412.012 471.144ZM411.964 465.912C412.96 465.912 413.596 466.56 413.596 467.532H410.212C410.356 466.5 410.98 465.912 411.964 465.912ZM419.344 465.084C419.116 465.036 418.948 465.012 418.744 465.012C417.94 465.012 417.352 465.42 417.112 466.032L417.04 465.144H415.984V471H417.112V467.892C417.112 466.764 417.772 466.116 418.84 466.116H419.344V465.084ZM419.922 469.296C419.922 470.412 420.798 471.144 422.178 471.144C423.57 471.144 424.53 470.436 424.53 469.32C424.53 468.444 424.038 467.988 423.042 467.748L422.01 467.496C421.434 467.352 421.146 467.088 421.146 466.692C421.146 466.152 421.542 465.84 422.25 465.84C422.934 465.84 423.33 466.212 423.354 466.8H424.434C424.41 465.684 423.57 464.964 422.286 464.964C420.99 464.964 420.078 465.648 420.078 466.728C420.078 467.592 420.57 468.108 421.614 468.36L422.646 468.6C423.258 468.756 423.45 468.996 423.45 469.392C423.45 469.932 422.994 470.256 422.202 470.256C421.458 470.256 421.002 469.896 421.002 469.296H419.922Z" fill="black"/>
<g opacity="0.8">
<rect x="199.25" y="484.25" width="233.5" height="7.5" rx="3.75" fill="#F2F8F5"/>
<rect x="199" y="484" width="180" height="8" fill="#86C1A1"/>
<rect x="199.25" y="484.25" width="233.5" height="7.5" rx="3.75" stroke="#D7EAE0" stroke-width="0.5"/>
</g>
<rect x="175.25" y="354.25" width="281.5" height="161.5" rx="7.75" stroke="#E9ECEF" stroke-width="0.5"/>
<defs>
<filter id="filter0_f_1114_13616" x="258.108" y="119.736" width="274.356" height="275.896" filterUnits="userSpaceOnUse" color-interpolation-filters="sRGB">
<feFlood flood-opacity="0" result="BackgroundImageFix"/>
<feBlend mode="normal" in="SourceGraphic" in2="BackgroundImageFix" result="shape"/>
<feGaussianBlur stdDeviation="45.7317" result="effect1_foregroundBlur_1114_13616"/>
</filter>
<filter id="filter1_f_1114_13616" x="8.0731" y="18.1043" width="548.711" height="551.791" filterUnits="userSpaceOnUse" color-interpolation-filters="sRGB">
<feFlood flood-opacity="0" result="BackgroundImageFix"/>
<feBlend mode="normal" in="SourceGraphic" in2="BackgroundImageFix" result="shape"/>
<feGaussianBlur stdDeviation="91.4634" result="effect1_foregroundBlur_1114_13616"/>
</filter>
<filter id="filter2_f_1114_13616" x="275.251" y="183.652" width="240.07" height="241.032" filterUnits="userSpaceOnUse" color-interpolation-filters="sRGB">
<feFlood flood-opacity="0" result="BackgroundImageFix"/>
<feBlend mode="normal" in="SourceGraphic" in2="BackgroundImageFix" result="shape"/>
<feGaussianBlur stdDeviation="45.7317" result="effect1_foregroundBlur_1114_13616"/>
</filter>
</defs>
</svg>
