<svg width="729" height="708" viewBox="0 0 729 708" fill="none" xmlns="http://www.w3.org/2000/svg">
<g filter="url(#filter0_f_1114_13779)">
<ellipse cx="58.5143" cy="59.5" rx="58.5143" ry="59.5" transform="matrix(1 0 0 -1 437.972 367.016)" fill="#E5CB61"/>
</g>
<g filter="url(#filter1_f_1114_13779)">
<ellipse cx="117.029" cy="119" rx="117.029" ry="119" transform="matrix(1 0 0 -1 235 473)" fill="#6173E5"/>
</g>
<g filter="url(#filter2_f_1114_13779)">
<ellipse cx="36.5714" cy="37.1875" rx="36.5714" ry="37.1875" transform="matrix(1 0 0 -1 459.914 404.203)" fill="#E56161"/>
</g>
<g filter="url(#filter3_d_1114_13779)">
<rect x="356" y="519" width="282" height="72" rx="8" fill="white" shape-rendering="crispEdges"/>
<rect x="372" y="535" width="40" height="40" rx="8" fill="#EDEFFC"/>
<path d="M399 546H385C383.9 546 383 546.9 383 548V562C383 563.1 383.9 564 385 564H399C400.1 564 401 563.1 401 562V548C401 546.9 400.1 546 399 546ZM399 548V557H395.44C395.08 557 394.76 557.19 394.58 557.5C394.06 558.4 393.11 559 392 559C390.89 559 389.94 558.4 389.42 557.5C389.24 557.19 388.91 557 388.56 557H385V548H399Z" fill="#6173E5"/>
<path d="M432.608 548.132C431.368 548.132 430.372 547.724 429.62 546.908C428.868 546.092 428.492 545.012 428.492 543.668C428.492 542.332 428.876 541.252 429.644 540.428C430.42 539.596 431.428 539.18 432.668 539.18C433.644 539.18 434.476 539.448 435.164 539.984C435.86 540.52 436.288 541.232 436.448 542.12H435.188C435.028 541.56 434.72 541.12 434.264 540.8C433.808 540.472 433.264 540.308 432.632 540.308C431.752 540.308 431.048 540.612 430.52 541.22C429.992 541.828 429.728 542.64 429.728 543.656C429.728 544.672 429.992 545.484 430.52 546.092C431.048 546.7 431.752 547.004 432.632 547.004C433.264 547.004 433.816 546.848 434.288 546.536C434.76 546.216 435.076 545.788 435.236 545.252H436.484C436.3 546.116 435.852 546.812 435.14 547.34C434.428 547.868 433.584 548.132 432.608 548.132ZM439.333 548.144C438.709 548.144 438.217 547.984 437.857 547.664C437.505 547.336 437.329 546.904 437.329 546.368C437.329 545.832 437.517 545.404 437.893 545.084C438.277 544.756 438.817 544.564 439.513 544.508L441.361 544.364V544.196C441.361 543.308 440.901 542.864 439.981 542.864C439.509 542.864 439.141 542.964 438.877 543.164C438.621 543.364 438.493 543.64 438.493 543.992H437.509C437.509 543.384 437.737 542.896 438.193 542.528C438.657 542.152 439.269 541.964 440.029 541.964C440.781 541.964 441.373 542.164 441.805 542.564C442.245 542.964 442.465 543.548 442.465 544.316V548H441.505L441.385 547.052C441.233 547.388 440.969 547.656 440.593 547.856C440.225 548.048 439.805 548.144 439.333 548.144ZM439.657 547.268C440.193 547.268 440.613 547.108 440.917 546.788C441.221 546.46 441.373 546.02 441.373 545.468V545.156L439.873 545.276C438.937 545.364 438.469 545.716 438.469 546.332C438.469 546.636 438.573 546.868 438.781 547.028C438.989 547.188 439.281 547.268 439.657 547.268ZM444.027 550.628V542.132H445.047L445.131 543.188C445.323 542.796 445.607 542.496 445.983 542.288C446.359 542.072 446.783 541.964 447.255 541.964C448.087 541.964 448.747 542.248 449.235 542.816C449.731 543.376 449.979 544.112 449.979 545.024C449.979 545.944 449.735 546.696 449.247 547.28C448.767 547.864 448.103 548.156 447.255 548.156C446.783 548.156 446.363 548.06 445.995 547.868C445.627 547.676 445.347 547.4 445.155 547.04V550.628H444.027ZM445.167 545.072C445.167 545.68 445.331 546.176 445.659 546.56C445.995 546.944 446.447 547.136 447.015 547.136C447.583 547.136 448.031 546.944 448.359 546.56C448.687 546.176 448.851 545.68 448.851 545.072C448.851 544.456 448.687 543.956 448.359 543.572C448.031 543.188 447.583 542.996 447.015 542.996C446.447 542.996 445.995 543.188 445.659 543.572C445.331 543.948 445.167 544.448 445.167 545.072ZM452.82 548H451.692V543.08H450.54V542.132H451.692V540.296H452.82V542.132H453.972V543.08H452.82V548ZM456.064 540.524C455.92 540.668 455.744 540.74 455.536 540.74C455.328 540.74 455.152 540.668 455.008 540.524C454.864 540.372 454.792 540.196 454.792 539.996C454.792 539.788 454.864 539.612 455.008 539.468C455.152 539.324 455.328 539.252 455.536 539.252C455.744 539.252 455.92 539.324 456.064 539.468C456.208 539.612 456.28 539.788 456.28 539.996C456.28 540.196 456.208 540.372 456.064 540.524ZM454.984 548V542.132H456.112V548H454.984ZM458.23 547.28C457.654 546.704 457.366 545.964 457.366 545.06C457.366 544.156 457.654 543.416 458.23 542.84C458.806 542.264 459.538 541.976 460.426 541.976C461.306 541.976 462.034 542.264 462.61 542.84C463.186 543.416 463.474 544.156 463.474 545.06C463.474 545.964 463.186 546.704 462.61 547.28C462.034 547.856 461.306 548.144 460.426 548.144C459.538 548.144 458.806 547.856 458.23 547.28ZM459.034 543.56C458.682 543.944 458.506 544.444 458.506 545.06C458.506 545.676 458.682 546.176 459.034 546.56C459.394 546.944 459.858 547.136 460.426 547.136C460.994 547.136 461.454 546.944 461.806 546.56C462.166 546.168 462.346 545.668 462.346 545.06C462.346 544.452 462.166 543.956 461.806 543.572C461.454 543.18 460.994 542.984 460.426 542.984C459.858 542.984 459.394 543.176 459.034 543.56ZM465.85 548H464.722V542.132H465.742L465.862 543.032C466.046 542.696 466.31 542.436 466.654 542.252C467.006 542.06 467.39 541.964 467.806 541.964C468.558 541.964 469.122 542.18 469.498 542.612C469.874 543.036 470.062 543.636 470.062 544.412V548H468.934V544.664C468.934 543.552 468.462 542.996 467.518 542.996C466.998 542.996 466.59 543.168 466.294 543.512C465.998 543.856 465.85 544.316 465.85 544.892V548Z" fill="#343A40"/>
<path d="M434.66 565.464C437.288 565.464 439.016 563.682 439.016 561.144C439.016 558.57 437.306 556.842 434.66 556.842H429.458V570H431.762V565.464H434.66ZM434.21 558.894C435.74 558.894 436.604 559.686 436.604 561.126C436.604 562.566 435.758 563.412 434.174 563.412H431.762V558.894H434.21ZM442.565 570.234C443.951 570.234 445.157 569.604 445.535 568.686L445.697 570H447.623V564.6C447.623 562.134 446.147 560.838 443.753 560.838C441.341 560.838 439.757 562.098 439.757 564.024H441.629C441.629 563.088 442.349 562.548 443.645 562.548C444.761 562.548 445.481 563.034 445.481 564.24V564.438L442.817 564.636C440.711 564.798 439.523 565.824 439.523 567.462C439.523 569.136 440.675 570.234 442.565 570.234ZM443.285 568.578C442.295 568.578 441.755 568.182 441.755 567.372C441.755 566.652 442.277 566.202 443.645 566.076L445.499 565.932V566.4C445.499 567.768 444.635 568.578 443.285 568.578ZM455 561.072C454.64 560.982 454.334 560.946 454.028 560.946C452.84 560.946 451.994 561.54 451.616 562.422L451.49 561.126H449.42V570H451.616V565.68C451.616 563.952 452.606 563.106 454.19 563.106H455V561.072ZM458.421 570.234C459.807 570.234 461.013 569.604 461.391 568.686L461.553 570H463.479V564.6C463.479 562.134 462.003 560.838 459.609 560.838C457.197 560.838 455.613 562.098 455.613 564.024H457.485C457.485 563.088 458.205 562.548 459.501 562.548C460.617 562.548 461.337 563.034 461.337 564.24V564.438L458.673 564.636C456.567 564.798 455.379 565.824 455.379 567.462C455.379 569.136 456.531 570.234 458.421 570.234ZM459.141 568.578C458.151 568.578 457.611 568.182 457.611 567.372C457.611 566.652 458.133 566.202 459.501 566.076L461.355 565.932V566.4C461.355 567.768 460.491 568.578 459.141 568.578ZM464.772 565.356C464.772 567.93 466.428 569.82 468.948 569.82C470.226 569.82 471.324 569.298 471.882 568.47V569.946C471.882 571.422 470.91 572.376 469.398 572.376C468.048 572.376 467.166 571.692 467.022 570.54H464.826C465.096 572.916 466.842 574.374 469.398 574.374C472.278 574.374 474.06 572.52 474.06 569.55V561.108H472.026L471.9 562.332C471.378 561.378 470.334 560.82 469.002 560.82C466.464 560.82 464.772 562.764 464.772 565.356ZM466.986 565.302C466.986 563.844 467.922 562.746 469.38 562.746C470.91 562.746 471.828 563.79 471.828 565.302C471.828 566.85 470.892 567.912 469.38 567.912C467.94 567.912 466.986 566.796 466.986 565.302ZM481.553 561.072C481.193 560.982 480.887 560.946 480.581 560.946C479.393 560.946 478.547 561.54 478.169 562.422L478.043 561.126H475.973V570H478.169V565.68C478.169 563.952 479.159 563.106 480.743 563.106H481.553V561.072ZM484.974 570.234C486.36 570.234 487.566 569.604 487.944 568.686L488.106 570H490.032V564.6C490.032 562.134 488.556 560.838 486.162 560.838C483.75 560.838 482.166 562.098 482.166 564.024H484.038C484.038 563.088 484.758 562.548 486.054 562.548C487.17 562.548 487.89 563.034 487.89 564.24V564.438L485.226 564.636C483.12 564.798 481.932 565.824 481.932 567.462C481.932 569.136 483.084 570.234 484.974 570.234ZM485.694 568.578C484.704 568.578 484.164 568.182 484.164 567.372C484.164 566.652 484.686 566.202 486.054 566.076L487.908 565.932V566.4C487.908 567.768 487.044 568.578 485.694 568.578ZM491.829 574.122H494.025V568.812C494.583 569.712 495.735 570.234 497.067 570.234C499.713 570.234 501.225 568.218 501.225 565.446C501.225 562.656 499.569 560.838 497.067 560.838C495.717 560.838 494.547 561.432 494.007 562.458L493.863 561.108H491.829V574.122ZM494.043 565.554C494.043 563.952 495.033 562.836 496.545 562.836C498.093 562.836 499.011 563.97 499.011 565.554C499.011 567.138 498.093 568.254 496.545 568.254C495.033 568.254 494.043 567.156 494.043 565.554ZM504.809 570V565.14C504.809 563.808 505.619 562.836 507.005 562.836C508.121 562.836 508.859 563.556 508.859 565.05V570H511.055V564.528C511.055 562.224 509.903 560.838 507.707 560.838C506.429 560.838 505.385 561.396 504.827 562.26V556.608H502.613V570H504.809ZM519.541 570V565.14C519.541 563.808 520.351 562.836 521.737 562.836C522.853 562.836 523.591 563.556 523.591 565.05V570H525.787V564.528C525.787 562.224 524.635 560.838 522.439 560.838C521.161 560.838 520.117 561.396 519.559 562.26V556.608H517.345V570H519.541ZM531.562 570.234C533.884 570.234 535.504 569.064 535.882 567.12H533.848C533.596 567.966 532.804 568.434 531.598 568.434C530.14 568.434 529.312 567.642 529.15 566.076L535.846 566.058V565.392C535.846 562.62 534.154 560.838 531.49 560.838C528.88 560.838 527.062 562.764 527.062 565.554C527.062 568.308 528.916 570.234 531.562 570.234ZM531.508 562.638C532.822 562.638 533.668 563.448 533.668 564.672H529.204C529.42 563.34 530.212 562.638 531.508 562.638ZM542.824 561.072C542.464 560.982 542.158 560.946 541.852 560.946C540.664 560.946 539.818 561.54 539.44 562.422L539.314 561.126H537.244V570H539.44V565.68C539.44 563.952 540.43 563.106 542.014 563.106H542.824V561.072ZM547.629 570.234C549.951 570.234 551.571 569.064 551.949 567.12H549.915C549.663 567.966 548.871 568.434 547.665 568.434C546.207 568.434 545.379 567.642 545.217 566.076L551.913 566.058V565.392C551.913 562.62 550.221 560.838 547.557 560.838C544.947 560.838 543.129 562.764 543.129 565.554C543.129 568.308 544.983 570.234 547.629 570.234ZM547.575 562.638C548.889 562.638 549.735 563.448 549.735 564.672H545.271C545.487 563.34 546.279 562.638 547.575 562.638Z" fill="black"/>
<rect x="356.25" y="519.25" width="281.5" height="71.5" rx="7.75" stroke="#E9ECEF" stroke-width="0.5" shape-rendering="crispEdges"/>
</g>
<g filter="url(#filter4_d_1114_13779)">
<rect x="152" y="333" width="282" height="162" rx="8" fill="white" shape-rendering="crispEdges"/>
<path d="M177.458 376H182.786C185.504 376 187.07 374.686 187.07 372.436C187.07 370.906 186.368 369.862 184.982 369.412C186.224 368.89 186.872 367.846 186.872 366.388C186.872 364.192 185.288 362.842 182.696 362.842H177.458V376ZM182.498 364.876C183.794 364.876 184.514 365.488 184.514 366.622C184.514 367.792 183.812 368.458 182.552 368.458H179.762V364.876H182.498ZM182.696 370.402C183.974 370.402 184.712 371.032 184.712 372.148C184.712 373.336 183.992 373.966 182.696 373.966H179.762V370.402H182.696ZM191.145 376.234C192.531 376.234 193.737 375.604 194.115 374.686L194.277 376H196.203V370.6C196.203 368.134 194.727 366.838 192.333 366.838C189.921 366.838 188.337 368.098 188.337 370.024H190.209C190.209 369.088 190.929 368.548 192.225 368.548C193.341 368.548 194.061 369.034 194.061 370.24V370.438L191.397 370.636C189.291 370.798 188.103 371.824 188.103 373.462C188.103 375.136 189.255 376.234 191.145 376.234ZM191.865 374.578C190.875 374.578 190.335 374.182 190.335 373.372C190.335 372.652 190.857 372.202 192.225 372.076L194.079 371.932V372.4C194.079 373.768 193.215 374.578 191.865 374.578ZM197.316 373.3C197.316 375.046 198.72 376.234 200.934 376.234C203.13 376.234 204.66 375.118 204.66 373.318C204.66 371.95 203.904 371.266 202.41 370.924L200.808 370.546C200.052 370.366 199.656 370.042 199.656 369.538C199.656 368.872 200.16 368.476 201.024 368.476C201.87 368.476 202.374 368.962 202.392 369.718H204.48C204.462 367.99 203.112 366.838 201.114 366.838C199.062 366.838 197.586 367.882 197.586 369.628C197.586 371.05 198.36 371.806 199.962 372.166L201.564 372.544C202.356 372.724 202.59 373.048 202.59 373.498C202.59 374.146 202.032 374.56 201.006 374.56C199.998 374.56 199.422 374.074 199.404 373.3H197.316ZM207.07 365.326C207.79 365.326 208.384 364.732 208.384 363.994C208.384 363.256 207.79 362.68 207.07 362.68C206.314 362.68 205.72 363.256 205.72 363.994C205.72 364.732 206.314 365.326 207.07 365.326ZM205.972 376H208.168V367.108H205.972V376ZM209.555 371.536C209.555 374.362 211.319 376.234 214.019 376.234C216.341 376.234 218.069 374.812 218.339 372.742H216.125C215.891 373.714 215.117 374.254 214.019 374.254C212.615 374.254 211.751 373.21 211.751 371.536C211.751 369.862 212.687 368.8 214.091 368.8C215.135 368.8 215.873 369.322 216.125 370.33H218.321C218.087 368.188 216.431 366.838 214.001 366.838C211.373 366.838 209.555 368.782 209.555 371.536ZM229.631 371.464C232.259 371.464 233.987 369.682 233.987 367.144C233.987 364.57 232.277 362.842 229.631 362.842H224.429V376H226.733V371.464H229.631ZM229.181 364.894C230.711 364.894 231.575 365.686 231.575 367.126C231.575 368.566 230.729 369.412 229.145 369.412H226.733V364.894H229.181ZM237.455 376V362.608H235.277V376H237.455ZM242.045 376.234C243.431 376.234 244.637 375.604 245.015 374.686L245.177 376H247.103V370.6C247.103 368.134 245.627 366.838 243.233 366.838C240.821 366.838 239.237 368.098 239.237 370.024H241.109C241.109 369.088 241.829 368.548 243.125 368.548C244.241 368.548 244.961 369.034 244.961 370.24V370.438L242.297 370.636C240.191 370.798 239.003 371.824 239.003 373.462C239.003 375.136 240.155 376.234 242.045 376.234ZM242.765 374.578C241.775 374.578 241.235 374.182 241.235 373.372C241.235 372.652 241.757 372.202 243.125 372.076L244.979 371.932V372.4C244.979 373.768 244.115 374.578 242.765 374.578ZM251.096 376V371.212C251.096 369.772 251.924 368.836 253.274 368.836C254.408 368.836 255.146 369.556 255.146 371.05V376H257.342V370.528C257.342 368.224 256.19 366.838 253.958 366.838C252.752 366.838 251.672 367.36 251.114 368.26L250.934 367.108H248.9V376H251.096Z" fill="black"/>
<rect x="263" y="359" width="62" height="20" rx="10" fill="#F2F8F5"/>
<path d="M273.796 374V370.856C273.796 369.764 273.784 368.936 273.7 368.408L275.92 374H277.336L279.568 368.396C279.484 369.02 279.484 369.536 279.484 371.3V374H280.972V365.228H279.46L276.628 372.212L273.796 365.228H272.308V374H273.796ZM282.349 371.024C282.349 372.872 283.681 374.144 285.517 374.144C287.353 374.144 288.685 372.872 288.685 371.024C288.685 369.176 287.353 367.904 285.517 367.904C283.681 367.904 282.349 369.176 282.349 371.024ZM283.813 371.024C283.813 369.944 284.509 369.212 285.517 369.212C286.525 369.212 287.221 369.944 287.221 371.024C287.221 372.104 286.525 372.836 285.517 372.836C284.509 372.836 283.813 372.104 283.813 371.024ZM291.31 374V370.808C291.31 369.848 291.862 369.224 292.762 369.224C293.518 369.224 294.01 369.704 294.01 370.7V374H295.474V370.352C295.474 368.816 294.706 367.892 293.218 367.892C292.414 367.892 291.694 368.24 291.322 368.84L291.202 368.072H289.846V374H291.31ZM298.928 374V369.296H300.08V368.072H298.928V366.224H297.464V368.072H296.324V369.296H297.464V374H298.928ZM302.454 374V370.76C302.454 369.872 302.994 369.224 303.918 369.224C304.662 369.224 305.154 369.704 305.154 370.7V374H306.618V370.352C306.618 368.816 305.85 367.892 304.386 367.892C303.534 367.892 302.838 368.264 302.466 368.84V365.072H300.99V374H302.454ZM309.533 374V365.072H308.081V374H309.533ZM310.553 376.748C310.877 376.832 311.237 376.88 311.645 376.88C312.617 376.88 313.241 376.424 313.685 375.32L316.589 368.072H315.077L313.469 372.392L311.945 368.072H310.397L312.785 374.252L312.617 374.696C312.365 375.392 312.005 375.524 311.429 375.524H310.553V376.748Z" fill="#86C1A1"/>
<path d="M176.616 386.58C176.616 387.952 177.442 388.848 179.01 389.226L180.704 389.646C181.782 389.898 182.286 390.486 182.286 391.382C182.286 392.53 181.348 393.244 179.878 393.244C178.506 393.244 177.582 392.558 177.526 391.508H176.49C176.616 393.146 177.932 394.168 179.878 394.168C181.95 394.168 183.294 393.062 183.294 391.326C183.294 389.968 182.482 389.072 180.914 388.694L179.192 388.274C178.142 388.008 177.624 387.448 177.624 386.566C177.624 385.432 178.548 384.704 179.962 384.704C181.222 384.704 181.992 385.348 182.104 386.482H183.126C182.972 384.802 181.782 383.794 179.976 383.794C177.96 383.794 176.616 384.9 176.616 386.58ZM185.583 393.986V390.304C185.583 389.002 186.339 387.924 187.795 387.924C188.845 387.924 189.587 388.484 189.587 390.066V394H190.553V389.856C190.553 388.148 189.755 387.042 187.977 387.042C186.843 387.042 186.017 387.588 185.583 388.4V383.794H184.617V393.986H185.583ZM191.722 390.612C191.722 392.67 193.178 394.168 195.166 394.168C197.154 394.168 198.61 392.67 198.61 390.612C198.61 388.54 197.154 387.042 195.166 387.042C193.178 387.042 191.722 388.54 191.722 390.612ZM192.702 390.598C192.702 389.03 193.71 387.91 195.166 387.91C196.608 387.91 197.63 389.03 197.63 390.598C197.63 392.194 196.608 393.3 195.166 393.3C193.71 393.3 192.702 392.194 192.702 390.598ZM203.417 387.14C203.179 387.084 202.997 387.07 202.787 387.07C201.835 387.07 201.121 387.546 200.855 388.274L200.785 387.224H199.875V394H200.841V390.136C200.841 388.848 201.639 388.008 202.885 388.008H203.417V387.14ZM206.249 394V388.036H207.607V387.224H206.249V385.082H205.297V387.224H203.939V388.036H205.297V394H206.249ZM214.847 394.168C215.981 394.168 216.933 393.664 217.409 392.614L217.507 394H218.347V383.794H217.381V388.512C216.905 387.532 216.009 387.042 214.889 387.042C212.873 387.042 211.711 388.582 211.711 390.626C211.711 392.656 212.873 394.168 214.847 394.168ZM215.015 393.286C213.545 393.286 212.691 392.166 212.691 390.598C212.691 389.044 213.545 387.91 215.015 387.91C216.499 387.91 217.367 389.044 217.367 390.598C217.367 392.166 216.499 393.286 215.015 393.286ZM222.925 394.168C224.521 394.168 225.571 393.398 225.935 391.97H225.011C224.759 392.866 224.045 393.342 222.939 393.342C221.483 393.342 220.615 392.39 220.545 390.738H225.935V390.262C225.935 388.344 224.689 387.042 222.855 387.042C220.923 387.042 219.607 388.498 219.607 390.612C219.607 392.74 220.937 394.168 222.925 394.168ZM222.855 387.868C224.129 387.868 224.969 388.736 224.969 390.038H220.573C220.741 388.708 221.581 387.868 222.855 387.868ZM226.626 392.096C226.626 393.356 227.578 394.168 229.104 394.168C230.644 394.168 231.68 393.37 231.68 392.152C231.68 391.172 231.148 390.626 229.972 390.332L228.81 390.038C228.068 389.856 227.704 389.492 227.704 388.974C227.704 388.246 228.236 387.84 229.188 387.84C230.098 387.84 230.644 388.302 230.672 389.086H231.61C231.568 387.826 230.644 387.042 229.216 387.042C227.76 387.042 226.766 387.798 226.766 388.988C226.766 389.912 227.34 390.528 228.516 390.822L229.678 391.116C230.476 391.312 230.756 391.634 230.756 392.194C230.756 392.922 230.14 393.37 229.09 393.37C228.138 393.37 227.55 392.88 227.55 392.096H226.626ZM232.514 390.626C232.514 392.754 233.816 394.168 235.734 394.168C237.274 394.168 238.478 393.258 238.8 391.872H237.82C237.554 392.74 236.742 393.3 235.734 393.3C234.362 393.3 233.466 392.222 233.466 390.612C233.466 388.946 234.432 387.896 235.804 387.896C236.742 387.896 237.554 388.414 237.806 389.352H238.772C238.506 387.952 237.358 387.042 235.79 387.042C233.816 387.042 232.514 388.498 232.514 390.626ZM243.525 387.14C243.287 387.084 243.105 387.07 242.895 387.07C241.943 387.07 241.229 387.546 240.963 388.274L240.893 387.224H239.983V394H240.949V390.136C240.949 388.848 241.747 388.008 242.993 388.008H243.525V387.14ZM245.006 385.362C245.398 385.362 245.734 385.04 245.734 384.648C245.734 384.256 245.398 383.92 245.006 383.92C244.614 383.92 244.292 384.256 244.292 384.648C244.292 385.04 244.614 385.362 245.006 385.362ZM244.53 394H245.496V387.224H244.53V394ZM247.23 396.954H248.196V392.698C248.672 393.678 249.582 394.168 250.73 394.168C252.732 394.168 253.866 392.628 253.866 390.584C253.866 388.54 252.69 387.042 250.73 387.042C249.596 387.042 248.644 387.546 248.168 388.596L248.07 387.224H247.23V396.954ZM248.21 390.612C248.21 389.044 249.078 387.924 250.562 387.924C252.032 387.924 252.886 389.044 252.886 390.612C252.886 392.166 252.032 393.3 250.562 393.3C249.078 393.3 248.21 392.166 248.21 390.612ZM256.611 394V388.036H257.969V387.224H256.611V385.082H255.659V387.224H254.301V388.036H255.659V394H256.611ZM259.423 385.362C259.815 385.362 260.151 385.04 260.151 384.648C260.151 384.256 259.815 383.92 259.423 383.92C259.031 383.92 258.709 384.256 258.709 384.648C258.709 385.04 259.031 385.362 259.423 385.362ZM258.947 394H259.913V387.224H258.947V394ZM261.172 390.612C261.172 392.67 262.628 394.168 264.616 394.168C266.604 394.168 268.06 392.67 268.06 390.612C268.06 388.54 266.604 387.042 264.616 387.042C262.628 387.042 261.172 388.54 261.172 390.612ZM262.152 390.598C262.152 389.03 263.16 387.91 264.616 387.91C266.058 387.91 267.08 389.03 267.08 390.598C267.08 392.194 266.058 393.3 264.616 393.3C263.16 393.3 262.152 392.194 262.152 390.598ZM270.291 394V390.458C270.291 388.932 271.075 387.924 272.461 387.924C273.581 387.924 274.295 388.484 274.295 390.066V394H275.261V389.856C275.261 388.148 274.491 387.042 272.629 387.042C271.649 387.042 270.753 387.532 270.305 388.4L270.165 387.224H269.325V394H270.291ZM281.475 393.986V390.304C281.475 389.002 282.231 387.924 283.687 387.924C284.737 387.924 285.479 388.484 285.479 390.066V394H286.445V389.856C286.445 388.148 285.647 387.042 283.869 387.042C282.735 387.042 281.909 387.588 281.475 388.4V383.794H280.509V393.986H281.475ZM290.932 394.168C292.528 394.168 293.578 393.398 293.942 391.97H293.018C292.766 392.866 292.052 393.342 290.946 393.342C289.49 393.342 288.622 392.39 288.552 390.738H293.942V390.262C293.942 388.344 292.696 387.042 290.862 387.042C288.93 387.042 287.614 388.498 287.614 390.612C287.614 392.74 288.944 394.168 290.932 394.168ZM290.862 387.868C292.136 387.868 292.976 388.736 292.976 390.038H288.58C288.748 388.708 289.588 387.868 290.862 387.868ZM298.749 387.14C298.511 387.084 298.329 387.07 298.119 387.07C297.167 387.07 296.453 387.546 296.187 388.274L296.117 387.224H295.207V394H296.173V390.136C296.173 388.848 296.971 388.008 298.217 388.008H298.749V387.14ZM302.335 394.168C303.931 394.168 304.981 393.398 305.345 391.97H304.421C304.169 392.866 303.455 393.342 302.349 393.342C300.893 393.342 300.025 392.39 299.955 390.738H305.345V390.262C305.345 388.344 304.099 387.042 302.265 387.042C300.333 387.042 299.017 388.498 299.017 390.612C299.017 392.74 300.347 394.168 302.335 394.168ZM302.265 387.868C303.539 387.868 304.379 388.736 304.379 390.038H299.983C300.151 388.708 300.991 387.868 302.265 387.868Z" fill="#343A40"/>
<rect x="370" y="357" width="40" height="40" rx="20" fill="#F8F9FA"/>
<path d="M386 375.667C385.267 375.667 384.667 376.267 384.667 377C384.667 377.733 385.267 378.333 386 378.333C386.733 378.333 387.333 377.733 387.333 377C387.333 376.267 386.733 375.667 386 375.667ZM394 375.667C393.267 375.667 392.667 376.267 392.667 377C392.667 377.733 393.267 378.333 394 378.333C394.733 378.333 395.333 377.733 395.333 377C395.333 376.267 394.733 375.667 394 375.667ZM390 375.667C389.267 375.667 388.667 376.267 388.667 377C388.667 377.733 389.267 378.333 390 378.333C390.733 378.333 391.333 377.733 391.333 377C391.333 376.267 390.733 375.667 390 375.667Z" fill="#343A40"/>
<path d="M184.32 456.04H186.784V453.32C191.072 452.84 193.824 450.152 193.824 446.248C193.824 442.856 191.968 440.872 187.872 439.976L186.784 439.72V432.84C188.448 433.192 189.408 434.312 189.472 436.04H193.44C193.312 432.2 190.816 429.672 186.784 429.256V426.536H184.32V429.256C180.064 429.704 177.248 432.392 177.248 436.136C177.248 439.656 179.264 441.896 183.296 442.76L184.32 442.984V449.8C182.24 449.544 181.056 448.392 181.024 446.568H176.928C177.024 450.472 179.872 453.064 184.32 453.384V456.04ZM184.192 439.144C182.144 438.696 181.248 437.704 181.248 436.008C181.248 434.28 182.4 433.128 184.32 432.808V439.176L184.192 439.144ZM187.008 443.56C188.928 443.976 189.856 444.968 189.856 446.6C189.856 448.232 188.704 449.352 186.784 449.736V443.496L187.008 443.56ZM195.322 446.376C195.322 450.632 198.81 453.384 204.218 453.384C209.658 453.384 213.146 450.6 213.146 446.376C213.146 443.56 211.546 441.288 209.082 440.424C211.162 439.56 212.314 437.8 212.314 435.528C212.314 431.72 209.082 429.192 204.282 429.192C199.45 429.192 196.154 431.752 196.154 435.464C196.154 437.736 197.274 439.496 199.322 440.424C196.89 441.352 195.322 443.592 195.322 446.376ZM199.866 435.816C199.866 433.896 201.562 432.68 204.218 432.68C206.842 432.68 208.506 433.896 208.506 435.848C208.506 437.8 206.842 439.016 204.218 439.016C201.562 439.016 199.866 437.768 199.866 435.816ZM199.322 446.088C199.322 443.816 201.21 442.408 204.218 442.408C207.226 442.408 209.114 443.816 209.114 446.088C209.114 448.36 207.226 449.768 204.25 449.768C201.21 449.768 199.322 448.36 199.322 446.088Z" fill="black"/>
<path d="M217.816 450L221.188 441.408H220.348L217 450H217.816ZM222.278 450V446.4C222.278 445.512 222.866 444.792 223.838 444.792C224.714 444.792 225.278 445.368 225.278 446.352V450H226.094V446.412C226.094 445.512 226.67 444.78 227.642 444.78C228.53 444.78 229.082 445.368 229.082 446.364V450H229.886V446.196C229.886 444.852 229.058 444.036 227.798 444.036C226.862 444.036 226.154 444.516 225.89 445.272C225.614 444.516 224.93 444.036 224.018 444.036C223.202 444.036 222.554 444.408 222.266 445.02L222.17 444.192H221.45V450H222.278ZM231.144 447.096C231.144 448.86 232.392 450.144 234.096 450.144C235.8 450.144 237.048 448.86 237.048 447.096C237.048 445.32 235.8 444.036 234.096 444.036C232.392 444.036 231.144 445.32 231.144 447.096ZM231.984 447.084C231.984 445.74 232.848 444.78 234.096 444.78C235.332 444.78 236.208 445.74 236.208 447.084C236.208 448.452 235.332 449.4 234.096 449.4C232.848 449.4 231.984 448.452 231.984 447.084ZM239.2 450V446.964C239.2 445.656 239.872 444.792 241.06 444.792C242.02 444.792 242.632 445.272 242.632 446.628V450H243.46V446.448C243.46 444.984 242.8 444.036 241.204 444.036C240.364 444.036 239.596 444.456 239.212 445.2L239.092 444.192H238.372V450H239.2ZM246.442 450V444.888H247.606V444.192H246.442V442.356H245.626V444.192H244.462V444.888H245.626V450H246.442ZM249.512 449.988V446.832C249.512 445.716 250.16 444.792 251.408 444.792C252.308 444.792 252.944 445.272 252.944 446.628V450H253.772V446.448C253.772 444.984 253.088 444.036 251.564 444.036C250.592 444.036 249.884 444.504 249.512 445.2V441.252H248.684V449.988H249.512Z" fill="#343A40"/>
<path d="M329.244 442.38H327.42V441.324H330.372V450H329.244V442.38ZM333.063 444.072L335.091 441.324H336.459L334.287 444.204C334.591 444.084 334.895 444.024 335.199 444.024C336.087 444.024 336.811 444.312 337.371 444.888C337.931 445.456 338.211 446.172 338.211 447.036C338.211 447.94 337.911 448.684 337.311 449.268C336.711 449.852 335.959 450.144 335.055 450.144C334.159 450.144 333.403 449.848 332.787 449.256C332.171 448.656 331.863 447.916 331.863 447.036C331.863 446.524 331.951 446.056 332.127 445.632C332.303 445.208 332.615 444.688 333.063 444.072ZM333.615 445.596C333.247 445.972 333.063 446.456 333.063 447.048C333.063 447.64 333.247 448.128 333.615 448.512C333.991 448.896 334.471 449.088 335.055 449.088C335.631 449.088 336.103 448.896 336.471 448.512C336.839 448.128 337.023 447.64 337.023 447.048C337.023 446.456 336.839 445.972 336.471 445.596C336.103 445.212 335.631 445.02 335.055 445.02C334.471 445.02 333.991 445.212 333.615 445.596ZM343.284 449.28C342.708 448.704 342.42 447.964 342.42 447.06C342.42 446.156 342.708 445.416 343.284 444.84C343.86 444.264 344.592 443.976 345.48 443.976C346.36 443.976 347.088 444.264 347.664 444.84C348.24 445.416 348.528 446.156 348.528 447.06C348.528 447.964 348.24 448.704 347.664 449.28C347.088 449.856 346.36 450.144 345.48 450.144C344.592 450.144 343.86 449.856 343.284 449.28ZM344.088 445.56C343.736 445.944 343.56 446.444 343.56 447.06C343.56 447.676 343.736 448.176 344.088 448.56C344.448 448.944 344.912 449.136 345.48 449.136C346.048 449.136 346.508 448.944 346.86 448.56C347.22 448.168 347.4 447.668 347.4 447.06C347.4 446.452 347.22 445.956 346.86 445.572C346.508 445.18 346.048 444.984 345.48 444.984C344.912 444.984 344.448 445.176 344.088 445.56ZM349.118 444.132H349.982V443.196C349.982 442.508 350.15 442 350.486 441.672C350.822 441.336 351.274 441.168 351.842 441.168C352.106 441.168 352.338 441.184 352.538 441.216V442.188H352.034C351.69 442.188 351.45 442.272 351.314 442.44C351.178 442.6 351.11 442.852 351.11 443.196V444.132H352.502V445.08H351.11V450H349.982V445.08H349.118V444.132ZM362.424 449.988L356.568 450V449.1L359.364 446.688C360.068 446.08 360.544 445.592 360.792 445.224C361.04 444.848 361.164 444.428 361.164 443.964C361.164 443.42 361.016 442.996 360.72 442.692C360.424 442.38 360.016 442.224 359.496 442.224C358.96 442.224 358.528 442.408 358.2 442.776C357.88 443.136 357.716 443.624 357.708 444.24H356.532C356.548 443.312 356.828 442.568 357.372 442.008C357.916 441.448 358.628 441.168 359.508 441.168C360.38 441.168 361.072 441.416 361.584 441.912C362.104 442.4 362.364 443.06 362.364 443.892C362.364 444.5 362.2 445.056 361.872 445.56C361.552 446.064 361 446.656 360.216 447.336L358.416 448.896H362.424V449.988ZM369.74 448.248H368.708V450H367.58V448.248H363.092V447.204L367.184 441.324H368.708V447.204H369.74V448.248ZM364.364 447.204H367.58V442.572L364.364 447.204ZM378.466 444.132H379.582V450H378.574L378.454 449.112C378.286 449.424 378.022 449.676 377.662 449.868C377.302 450.052 376.906 450.144 376.474 450.144C375.802 450.144 375.278 449.932 374.902 449.508C374.526 449.084 374.338 448.508 374.338 447.78V444.132H375.466V447.408C375.466 448.568 375.934 449.148 376.87 449.148C377.39 449.148 377.786 448.984 378.058 448.656C378.33 448.328 378.466 447.852 378.466 447.228V444.132ZM380.621 448.296H381.701C381.701 448.592 381.805 448.828 382.013 449.004C382.229 449.172 382.525 449.256 382.901 449.256C383.293 449.256 383.597 449.18 383.813 449.028C384.037 448.876 384.149 448.664 384.149 448.392C384.149 448.184 384.089 448.02 383.969 447.9C383.849 447.772 383.641 447.672 383.345 447.6L382.313 447.36C381.289 447.112 380.777 446.568 380.777 445.728C380.777 445.192 380.981 444.764 381.389 444.444C381.797 444.124 382.329 443.964 382.985 443.964C383.625 443.964 384.137 444.132 384.521 444.468C384.913 444.796 385.117 445.24 385.133 445.8H384.053C384.037 445.504 383.933 445.272 383.741 445.104C383.549 444.928 383.285 444.84 382.949 444.84C382.597 444.84 382.325 444.916 382.133 445.068C381.941 445.212 381.845 445.42 381.845 445.692C381.845 446.084 382.133 446.352 382.709 446.496L383.741 446.748C384.253 446.868 384.629 447.052 384.869 447.3C385.109 447.548 385.229 447.888 385.229 448.32C385.229 448.872 385.013 449.316 384.581 449.652C384.149 449.98 383.581 450.144 382.877 450.144C382.189 450.144 381.641 449.976 381.233 449.64C380.825 449.304 380.621 448.856 380.621 448.296ZM389.012 450.144C388.148 450.144 387.444 449.86 386.9 449.292C386.364 448.724 386.096 447.984 386.096 447.072C386.096 446.152 386.36 445.404 386.888 444.828C387.424 444.252 388.116 443.964 388.964 443.964C389.796 443.964 390.464 444.228 390.968 444.756C391.472 445.284 391.724 445.984 391.724 446.856V447.276L387.188 447.288C387.228 447.904 387.404 448.38 387.716 448.716C388.036 449.044 388.476 449.208 389.036 449.208C389.932 449.208 390.48 448.864 390.68 448.176H391.736C391.592 448.808 391.284 449.296 390.812 449.64C390.34 449.976 389.74 450.144 389.012 450.144ZM388.964 444.912C388.476 444.912 388.08 445.052 387.776 445.332C387.472 445.612 387.284 446.012 387.212 446.532H390.596C390.596 446.044 390.448 445.652 390.152 445.356C389.856 445.06 389.46 444.912 388.964 444.912ZM396.344 444.084V445.116H395.84C395.304 445.116 394.88 445.272 394.568 445.584C394.264 445.896 394.112 446.332 394.112 446.892V450H392.984V444.144H394.04L394.112 445.032C394.232 444.72 394.436 444.472 394.724 444.288C395.012 444.104 395.352 444.012 395.744 444.012C395.92 444.012 396.12 444.036 396.344 444.084ZM396.922 448.296H398.002C398.002 448.592 398.106 448.828 398.314 449.004C398.53 449.172 398.826 449.256 399.202 449.256C399.594 449.256 399.898 449.18 400.114 449.028C400.338 448.876 400.45 448.664 400.45 448.392C400.45 448.184 400.39 448.02 400.27 447.9C400.15 447.772 399.942 447.672 399.646 447.6L398.614 447.36C397.59 447.112 397.078 446.568 397.078 445.728C397.078 445.192 397.282 444.764 397.69 444.444C398.098 444.124 398.63 443.964 399.286 443.964C399.926 443.964 400.438 444.132 400.822 444.468C401.214 444.796 401.418 445.24 401.434 445.8H400.354C400.338 445.504 400.234 445.272 400.042 445.104C399.85 444.928 399.586 444.84 399.25 444.84C398.898 444.84 398.626 444.916 398.434 445.068C398.242 445.212 398.146 445.42 398.146 445.692C398.146 446.084 398.434 446.352 399.01 446.496L400.042 446.748C400.554 446.868 400.93 447.052 401.17 447.3C401.41 447.548 401.53 447.888 401.53 448.32C401.53 448.872 401.314 449.316 400.882 449.652C400.45 449.98 399.882 450.144 399.178 450.144C398.49 450.144 397.942 449.976 397.534 449.64C397.126 449.304 396.922 448.856 396.922 448.296Z" fill="black"/>
<g opacity="0.8">
<rect x="176.25" y="463.25" width="233.5" height="7.5" rx="3.75" fill="#F2F8F5"/>
<rect x="176" y="463" width="180" height="8" fill="#86C1A1"/>
<rect x="176.25" y="463.25" width="233.5" height="7.5" rx="3.75" stroke="#D7EAE0" stroke-width="0.5"/>
</g>
<rect x="152.25" y="333.25" width="281.5" height="161.5" rx="7.75" stroke="#E9ECEF" stroke-width="0.5" shape-rendering="crispEdges"/>
</g>
<g filter="url(#filter5_d_1114_13779)">
<rect x="254" y="117" width="384" height="192" rx="8" fill="white" shape-rendering="crispEdges"/>
<path d="M306 152.333C296.8 152.333 289.333 159.8 289.333 169C289.333 178.2 296.8 185.667 306 185.667C315.2 185.667 322.667 178.2 322.667 169C322.667 159.8 315.2 152.333 306 152.333ZM306 157.333C308.767 157.333 311 159.567 311 162.333C311 165.1 308.767 167.333 306 167.333C303.233 167.333 301 165.1 301 162.333C301 159.567 303.233 157.333 306 157.333ZM306 181C301.833 181 298.15 178.867 296 175.633C296.05 172.317 302.667 170.5 306 170.5C309.317 170.5 315.95 172.317 316 175.633C313.85 178.867 310.167 181 306 181Z" fill="#6173E5"/>
<path d="M340.24 167.192C343.008 167.192 345.152 165.56 345.6 163.096H343.472C343.088 164.392 341.872 165.224 340.288 165.224C338.144 165.224 336.768 163.624 336.768 161.144C336.768 158.648 338.128 157.08 340.288 157.08C341.84 157.08 343.008 157.88 343.408 159.24H345.568C345.168 156.728 343.104 155.112 340.336 155.112C336.912 155.112 334.624 157.528 334.624 161.16C334.624 164.824 336.832 167.192 340.24 167.192ZM352.189 159.096V163.24C352.189 164.744 351.597 165.464 350.365 165.464C349.277 165.464 348.685 164.856 348.685 163.352V159.096H346.733V164.04C346.733 165.976 347.805 167.208 349.629 167.208C350.685 167.208 351.709 166.696 352.189 165.944L352.333 167H354.141V159.096H352.189ZM355.073 164.6C355.073 166.152 356.321 167.208 358.289 167.208C360.241 167.208 361.601 166.216 361.601 164.616C361.601 163.4 360.929 162.792 359.601 162.488L358.177 162.152C357.505 161.992 357.153 161.704 357.153 161.256C357.153 160.664 357.601 160.312 358.369 160.312C359.121 160.312 359.569 160.744 359.585 161.416H361.441C361.425 159.88 360.225 158.856 358.449 158.856C356.625 158.856 355.313 159.784 355.313 161.336C355.313 162.6 356.001 163.272 357.425 163.592L358.849 163.928C359.553 164.088 359.761 164.376 359.761 164.776C359.761 165.352 359.265 165.72 358.353 165.72C357.457 165.72 356.945 165.288 356.929 164.6H355.073ZM365.455 167V160.728H366.991V159.096H365.455V156.632H363.503V159.096H361.983V160.728H363.503V167H365.455ZM367.342 163.032C367.342 165.496 369.118 167.192 371.566 167.192C374.014 167.192 375.79 165.496 375.79 163.032C375.79 160.568 374.014 158.872 371.566 158.872C369.118 158.872 367.342 160.568 367.342 163.032ZM369.294 163.032C369.294 161.592 370.222 160.616 371.566 160.616C372.91 160.616 373.838 161.592 373.838 163.032C373.838 164.472 372.91 165.448 371.566 165.448C370.222 165.448 369.294 164.472 369.294 163.032ZM378.969 167V162.52C378.969 161.24 379.721 160.632 380.649 160.632C381.577 160.632 382.169 161.224 382.169 162.328V167H384.121V162.52C384.121 161.224 384.841 160.616 385.785 160.616C386.713 160.616 387.321 161.208 387.321 162.344V167H389.257V161.832C389.257 160.008 388.201 158.856 386.281 158.856C385.081 158.856 384.153 159.448 383.753 160.36C383.337 159.448 382.505 158.856 381.305 158.856C380.169 158.856 379.369 159.368 378.969 160.024L378.809 159.096H377.017V167H378.969ZM394.39 167.208C396.454 167.208 397.894 166.168 398.23 164.44H396.422C396.198 165.192 395.494 165.608 394.422 165.608C393.126 165.608 392.39 164.904 392.246 163.512L398.198 163.496V162.904C398.198 160.44 396.694 158.856 394.326 158.856C392.006 158.856 390.39 160.568 390.39 163.048C390.39 165.496 392.038 167.208 394.39 167.208ZM394.342 160.456C395.51 160.456 396.262 161.176 396.262 162.264H392.294C392.486 161.08 393.19 160.456 394.342 160.456ZM404.4 159.064C404.08 158.984 403.808 158.952 403.536 158.952C402.48 158.952 401.728 159.48 401.392 160.264L401.28 159.112H399.44V167H401.392V163.16C401.392 161.624 402.272 160.872 403.68 160.872H404.4V159.064ZM411.698 167V158.712L417.202 167H419.218V155.304H417.202V163.592L411.714 155.304H409.682V167H411.698ZM423.551 167.208C424.783 167.208 425.855 166.648 426.191 165.832L426.335 167H428.047V162.2C428.047 160.008 426.735 158.856 424.607 158.856C422.463 158.856 421.055 159.976 421.055 161.688H422.719C422.719 160.856 423.359 160.376 424.511 160.376C425.503 160.376 426.143 160.808 426.143 161.88V162.056L423.775 162.232C421.903 162.376 420.847 163.288 420.847 164.744C420.847 166.232 421.871 167.208 423.551 167.208ZM424.191 165.736C423.311 165.736 422.831 165.384 422.831 164.664C422.831 164.024 423.295 163.624 424.511 163.512L426.159 163.384V163.8C426.159 165.016 425.391 165.736 424.191 165.736ZM431.596 167V162.52C431.596 161.24 432.348 160.632 433.276 160.632C434.204 160.632 434.796 161.224 434.796 162.328V167H436.748V162.52C436.748 161.224 437.468 160.616 438.412 160.616C439.34 160.616 439.948 161.208 439.948 162.344V167H441.884V161.832C441.884 160.008 440.828 158.856 438.908 158.856C437.708 158.856 436.78 159.448 436.38 160.36C435.964 159.448 435.132 158.856 433.932 158.856C432.796 158.856 431.996 159.368 431.596 160.024L431.436 159.096H429.644V167H431.596ZM447.017 167.208C449.081 167.208 450.521 166.168 450.857 164.44H449.049C448.825 165.192 448.121 165.608 447.049 165.608C445.753 165.608 445.017 164.904 444.873 163.512L450.825 163.496V162.904C450.825 160.44 449.321 158.856 446.953 158.856C444.633 158.856 443.017 160.568 443.017 163.048C443.017 165.496 444.665 167.208 447.017 167.208ZM446.969 160.456C448.137 160.456 448.889 161.176 448.889 162.264H444.921C445.113 161.08 445.817 160.456 446.969 160.456Z" fill="black"/>
<path d="M339.376 186.154C337.929 186.154 336.767 185.678 335.89 184.726C335.013 183.774 334.574 182.514 334.574 180.946C334.574 179.387 335.022 178.127 335.918 177.166C336.823 176.195 337.999 175.71 339.446 175.71C340.585 175.71 341.555 176.023 342.358 176.648C343.17 177.273 343.669 178.104 343.856 179.14H342.386C342.199 178.487 341.84 177.973 341.308 177.6C340.776 177.217 340.141 177.026 339.404 177.026C338.377 177.026 337.556 177.381 336.94 178.09C336.324 178.799 336.016 179.747 336.016 180.932C336.016 182.117 336.324 183.065 336.94 183.774C337.556 184.483 338.377 184.838 339.404 184.838C340.141 184.838 340.785 184.656 341.336 184.292C341.887 183.919 342.255 183.419 342.442 182.794H343.898C343.683 183.802 343.161 184.614 342.33 185.23C341.499 185.846 340.515 186.154 339.376 186.154ZM345.636 185.16C344.964 184.488 344.628 183.625 344.628 182.57C344.628 181.515 344.964 180.652 345.636 179.98C346.308 179.308 347.162 178.972 348.198 178.972C349.225 178.972 350.074 179.308 350.746 179.98C351.418 180.652 351.754 181.515 351.754 182.57C351.754 183.625 351.418 184.488 350.746 185.16C350.074 185.832 349.225 186.168 348.198 186.168C347.162 186.168 346.308 185.832 345.636 185.16ZM346.574 180.82C346.164 181.268 345.958 181.851 345.958 182.57C345.958 183.289 346.164 183.872 346.574 184.32C346.994 184.768 347.536 184.992 348.198 184.992C348.861 184.992 349.398 184.768 349.808 184.32C350.228 183.863 350.438 183.279 350.438 182.57C350.438 181.861 350.228 181.282 349.808 180.834C349.398 180.377 348.861 180.148 348.198 180.148C347.536 180.148 346.994 180.372 346.574 180.82ZM354.247 186H352.931V179.154H354.107L354.233 180.05C354.41 179.714 354.676 179.448 355.031 179.252C355.395 179.056 355.81 178.958 356.277 178.958C357.341 178.958 358.064 179.42 358.447 180.344C358.606 179.915 358.881 179.579 359.273 179.336C359.665 179.084 360.127 178.958 360.659 178.958C361.443 178.958 362.059 179.187 362.507 179.644C362.955 180.101 363.179 180.727 363.179 181.52V186H361.891V181.842C361.891 181.31 361.751 180.895 361.471 180.596C361.2 180.297 360.832 180.148 360.365 180.148C359.87 180.148 359.469 180.311 359.161 180.638C358.862 180.965 358.713 181.399 358.713 181.94V186H357.411V181.828C357.411 181.296 357.276 180.885 357.005 180.596C356.734 180.307 356.366 180.162 355.899 180.162C355.395 180.162 354.994 180.325 354.695 180.652C354.396 180.969 354.247 181.399 354.247 181.94V186ZM364.723 189.066V179.154H365.913L366.011 180.386C366.235 179.929 366.567 179.579 367.005 179.336C367.444 179.084 367.939 178.958 368.489 178.958C369.46 178.958 370.23 179.289 370.799 179.952C371.378 180.605 371.667 181.464 371.667 182.528C371.667 183.601 371.383 184.479 370.813 185.16C370.253 185.841 369.479 186.182 368.489 186.182C367.939 186.182 367.449 186.07 367.019 185.846C366.59 185.622 366.263 185.3 366.039 184.88V189.066H364.723ZM366.053 182.584C366.053 183.293 366.245 183.872 366.627 184.32C367.019 184.768 367.547 184.992 368.209 184.992C368.872 184.992 369.395 184.768 369.777 184.32C370.16 183.872 370.351 183.293 370.351 182.584C370.351 181.865 370.16 181.282 369.777 180.834C369.395 180.386 368.872 180.162 368.209 180.162C367.547 180.162 367.019 180.386 366.627 180.834C366.245 181.273 366.053 181.856 366.053 182.584ZM374.84 186.168C374.112 186.168 373.538 185.981 373.118 185.608C372.707 185.225 372.502 184.721 372.502 184.096C372.502 183.471 372.721 182.971 373.16 182.598C373.608 182.215 374.238 181.991 375.05 181.926L377.206 181.758V181.562C377.206 180.526 376.669 180.008 375.596 180.008C375.045 180.008 374.616 180.125 374.308 180.358C374.009 180.591 373.86 180.913 373.86 181.324H372.712C372.712 180.615 372.978 180.045 373.51 179.616C374.051 179.177 374.765 178.958 375.652 178.958C376.529 178.958 377.22 179.191 377.724 179.658C378.237 180.125 378.494 180.806 378.494 181.702V186H377.374L377.234 184.894C377.057 185.286 376.749 185.599 376.31 185.832C375.881 186.056 375.391 186.168 374.84 186.168ZM375.218 185.146C375.843 185.146 376.333 184.959 376.688 184.586C377.043 184.203 377.22 183.69 377.22 183.046V182.682L375.47 182.822C374.378 182.925 373.832 183.335 373.832 184.054C373.832 184.409 373.953 184.679 374.196 184.866C374.439 185.053 374.779 185.146 375.218 185.146ZM381.352 186H380.036V179.154H381.226L381.366 180.204C381.581 179.812 381.889 179.509 382.29 179.294C382.701 179.07 383.149 178.958 383.634 178.958C384.512 178.958 385.17 179.21 385.608 179.714C386.047 180.209 386.266 180.909 386.266 181.814V186H384.95V182.108C384.95 180.811 384.4 180.162 383.298 180.162C382.692 180.162 382.216 180.363 381.87 180.764C381.525 181.165 381.352 181.702 381.352 182.374V186ZM387.014 189.066V187.988H387.896C388.27 187.988 388.568 187.927 388.792 187.806C389.016 187.685 389.203 187.423 389.352 187.022L389.59 186.364L386.832 179.154H388.218L390.206 184.67L392.236 179.154H393.594L390.36 187.54C390.127 188.119 389.833 188.539 389.478 188.8C389.133 189.071 388.694 189.206 388.162 189.206C387.789 189.206 387.406 189.159 387.014 189.066ZM399.229 186H397.913V179.154H399.103L399.243 180.204C399.458 179.812 399.766 179.509 400.167 179.294C400.578 179.07 401.026 178.958 401.511 178.958C402.389 178.958 403.047 179.21 403.485 179.714C403.924 180.209 404.143 180.909 404.143 181.814V186H402.827V182.108C402.827 180.811 402.277 180.162 401.175 180.162C400.569 180.162 400.093 180.363 399.747 180.764C399.402 181.165 399.229 181.702 399.229 182.374V186ZM407.688 186.168C406.96 186.168 406.386 185.981 405.966 185.608C405.555 185.225 405.35 184.721 405.35 184.096C405.35 183.471 405.569 182.971 406.008 182.598C406.456 182.215 407.086 181.991 407.898 181.926L410.054 181.758V181.562C410.054 180.526 409.517 180.008 408.444 180.008C407.893 180.008 407.464 180.125 407.156 180.358C406.857 180.591 406.708 180.913 406.708 181.324H405.56C405.56 180.615 405.826 180.045 406.358 179.616C406.899 179.177 407.613 178.958 408.5 178.958C409.377 178.958 410.068 179.191 410.572 179.658C411.085 180.125 411.342 180.806 411.342 181.702V186H410.222L410.082 184.894C409.905 185.286 409.597 185.599 409.158 185.832C408.729 186.056 408.239 186.168 407.688 186.168ZM408.066 185.146C408.691 185.146 409.181 184.959 409.536 184.586C409.891 184.203 410.068 183.69 410.068 183.046V182.682L408.318 182.822C407.226 182.925 406.68 183.335 406.68 184.054C406.68 184.409 406.801 184.679 407.044 184.866C407.287 185.053 407.627 185.146 408.066 185.146ZM414.2 186H412.884V179.154H414.06L414.186 180.05C414.364 179.714 414.63 179.448 414.984 179.252C415.348 179.056 415.764 178.958 416.23 178.958C417.294 178.958 418.018 179.42 418.4 180.344C418.559 179.915 418.834 179.579 419.226 179.336C419.618 179.084 420.08 178.958 420.612 178.958C421.396 178.958 422.012 179.187 422.46 179.644C422.908 180.101 423.132 180.727 423.132 181.52V186H421.844V181.842C421.844 181.31 421.704 180.895 421.424 180.596C421.154 180.297 420.785 180.148 420.318 180.148C419.824 180.148 419.422 180.311 419.114 180.638C418.816 180.965 418.666 181.399 418.666 181.94V186H417.364V181.828C417.364 181.296 417.229 180.885 416.958 180.596C416.688 180.307 416.319 180.162 415.852 180.162C415.348 180.162 414.947 180.325 414.648 180.652C414.35 180.969 414.2 181.399 414.2 181.94V186ZM427.631 186.168C426.623 186.168 425.801 185.837 425.167 185.174C424.541 184.511 424.229 183.648 424.229 182.584C424.229 181.511 424.537 180.638 425.153 179.966C425.778 179.294 426.585 178.958 427.575 178.958C428.545 178.958 429.325 179.266 429.913 179.882C430.501 180.498 430.795 181.315 430.795 182.332V182.822L425.503 182.836C425.549 183.555 425.755 184.11 426.119 184.502C426.492 184.885 427.005 185.076 427.659 185.076C428.704 185.076 429.343 184.675 429.577 183.872H430.809C430.641 184.609 430.281 185.179 429.731 185.58C429.18 185.972 428.48 186.168 427.631 186.168ZM427.575 180.064C427.005 180.064 426.543 180.227 426.189 180.554C425.834 180.881 425.615 181.347 425.531 181.954H429.479C429.479 181.385 429.306 180.927 428.961 180.582C428.615 180.237 428.153 180.064 427.575 180.064Z" fill="#6C757D"/>
<path d="M537.876 186H535.008V177.324H537.828C539.124 177.324 540.172 177.724 540.972 178.524C541.772 179.324 542.172 180.372 542.172 181.668C542.172 182.956 541.776 184 540.984 184.8C540.192 185.6 539.156 186 537.876 186ZM537.744 178.404H536.184V184.908H537.792C538.76 184.908 539.528 184.616 540.096 184.032C540.664 183.448 540.948 182.66 540.948 181.668C540.948 180.66 540.66 179.864 540.084 179.28C539.516 178.696 538.736 178.404 537.744 178.404ZM546.008 186.144C545.144 186.144 544.44 185.86 543.896 185.292C543.36 184.724 543.092 183.984 543.092 183.072C543.092 182.152 543.356 181.404 543.884 180.828C544.42 180.252 545.112 179.964 545.96 179.964C546.792 179.964 547.46 180.228 547.964 180.756C548.468 181.284 548.72 181.984 548.72 182.856V183.276L544.184 183.288C544.224 183.904 544.4 184.38 544.712 184.716C545.032 185.044 545.472 185.208 546.032 185.208C546.928 185.208 547.476 184.864 547.676 184.176H548.732C548.588 184.808 548.28 185.296 547.808 185.64C547.336 185.976 546.736 186.144 546.008 186.144ZM545.96 180.912C545.472 180.912 545.076 181.052 544.772 181.332C544.468 181.612 544.28 182.012 544.208 182.532H547.592C547.592 182.044 547.444 181.652 547.148 181.356C546.852 181.06 546.456 180.912 545.96 180.912ZM549.596 183.072C549.596 182.152 549.86 181.404 550.388 180.828C550.924 180.252 551.62 179.964 552.476 179.964C553.212 179.964 553.82 180.16 554.3 180.552C554.788 180.936 555.084 181.456 555.188 182.112H554.06C553.964 181.744 553.776 181.464 553.496 181.272C553.224 181.072 552.896 180.972 552.512 180.972C551.976 180.972 551.54 181.164 551.204 181.548C550.876 181.924 550.712 182.428 550.712 183.06C550.712 183.692 550.868 184.196 551.18 184.572C551.5 184.948 551.928 185.136 552.464 185.136C552.864 185.136 553.204 185.04 553.484 184.848C553.772 184.648 553.968 184.372 554.072 184.02H555.2C555.088 184.66 554.78 185.176 554.276 185.568C553.772 185.952 553.168 186.144 552.464 186.144C551.6 186.144 550.904 185.864 550.376 185.304C549.856 184.744 549.596 184 549.596 183.072ZM561.099 178.38H559.275V177.324H562.227V186H561.099V178.38ZM564.919 180.072L566.947 177.324H568.315L566.143 180.204C566.447 180.084 566.751 180.024 567.055 180.024C567.943 180.024 568.667 180.312 569.227 180.888C569.787 181.456 570.067 182.172 570.067 183.036C570.067 183.94 569.767 184.684 569.167 185.268C568.567 185.852 567.815 186.144 566.911 186.144C566.015 186.144 565.259 185.848 564.643 185.256C564.027 184.656 563.719 183.916 563.719 183.036C563.719 182.524 563.807 182.056 563.983 181.632C564.159 181.208 564.471 180.688 564.919 180.072ZM565.471 181.596C565.103 181.972 564.919 182.456 564.919 183.048C564.919 183.64 565.103 184.128 565.471 184.512C565.847 184.896 566.327 185.088 566.911 185.088C567.487 185.088 567.959 184.896 568.327 184.512C568.695 184.128 568.879 183.64 568.879 183.048C568.879 182.456 568.695 181.972 568.327 181.596C567.959 181.212 567.487 181.02 566.911 181.02C566.327 181.02 565.847 181.212 565.471 181.596ZM572.813 185.532C572.813 185.964 572.669 186.34 572.381 186.66C572.093 186.98 571.737 187.168 571.313 187.224V186.72C571.561 186.68 571.761 186.584 571.913 186.432C572.073 186.288 572.153 186.124 572.153 185.94C572.073 185.988 571.965 186.012 571.829 186.012C571.629 186.012 571.457 185.944 571.313 185.808C571.169 185.672 571.097 185.496 571.097 185.28C571.097 185.04 571.169 184.844 571.313 184.692C571.465 184.532 571.661 184.452 571.901 184.452C572.157 184.452 572.373 184.552 572.549 184.752C572.725 184.952 572.813 185.212 572.813 185.532ZM583.31 185.988L577.454 186V185.1L580.25 182.688C580.954 182.08 581.43 181.592 581.678 181.224C581.926 180.848 582.05 180.428 582.05 179.964C582.05 179.42 581.902 178.996 581.606 178.692C581.31 178.38 580.902 178.224 580.382 178.224C579.846 178.224 579.414 178.408 579.086 178.776C578.766 179.136 578.602 179.624 578.594 180.24H577.418C577.434 179.312 577.714 178.568 578.258 178.008C578.802 177.448 579.514 177.168 580.394 177.168C581.266 177.168 581.958 177.416 582.47 177.912C582.99 178.4 583.25 179.06 583.25 179.892C583.25 180.5 583.086 181.056 582.758 181.56C582.438 182.064 581.886 182.656 581.102 183.336L579.302 184.896H583.31V185.988ZM584.393 181.668C584.393 180.316 584.717 179.228 585.365 178.404C586.013 177.572 586.881 177.156 587.969 177.156C589.049 177.156 589.913 177.572 590.561 178.404C591.209 179.228 591.533 180.316 591.533 181.668C591.533 183.028 591.213 184.116 590.573 184.932C589.941 185.748 589.073 186.156 587.969 186.156C586.857 186.156 585.981 185.752 585.341 184.944C584.709 184.128 584.393 183.036 584.393 181.668ZM585.557 181.668C585.557 182.74 585.769 183.58 586.193 184.188C586.617 184.796 587.209 185.1 587.969 185.1C588.729 185.1 589.317 184.796 589.733 184.188C590.157 183.58 590.369 182.74 590.369 181.668C590.369 180.58 590.157 179.732 589.733 179.124C589.317 178.516 588.729 178.212 587.969 178.212C587.209 178.212 586.617 178.52 586.193 179.136C585.769 179.744 585.557 180.588 585.557 181.668ZM598.533 185.988L592.677 186V185.1L595.473 182.688C596.177 182.08 596.653 181.592 596.901 181.224C597.149 180.848 597.273 180.428 597.273 179.964C597.273 179.42 597.125 178.996 596.829 178.692C596.533 178.38 596.125 178.224 595.605 178.224C595.069 178.224 594.637 178.408 594.309 178.776C593.989 179.136 593.825 179.624 593.817 180.24H592.641C592.657 179.312 592.937 178.568 593.481 178.008C594.025 177.448 594.737 177.168 595.617 177.168C596.489 177.168 597.181 177.416 597.693 177.912C598.213 178.4 598.473 179.06 598.473 179.892C598.473 180.5 598.309 181.056 597.981 181.56C597.661 182.064 597.109 182.656 596.325 183.336L594.525 184.896H598.533V185.988ZM605.482 185.988L599.626 186V185.1L602.422 182.688C603.126 182.08 603.602 181.592 603.85 181.224C604.098 180.848 604.222 180.428 604.222 179.964C604.222 179.42 604.074 178.996 603.778 178.692C603.482 178.38 603.074 178.224 602.554 178.224C602.018 178.224 601.586 178.408 601.258 178.776C600.938 179.136 600.774 179.624 600.766 180.24H599.59C599.606 179.312 599.886 178.568 600.43 178.008C600.974 177.448 601.686 177.168 602.566 177.168C603.438 177.168 604.13 177.416 604.642 177.912C605.162 178.4 605.422 179.06 605.422 179.892C605.422 180.5 605.258 181.056 604.93 181.56C604.61 182.064 604.058 182.656 603.274 183.336L601.474 184.896H605.482V185.988Z" fill="#6C757D"/>
<path d="M291.232 224.488C291.232 223.456 290.56 222.832 289.696 222.832C289.432 222.832 289.216 222.88 289.024 222.952C289.024 222.112 289.744 221.464 290.776 221.272V220.12C288.856 220.36 287.512 221.92 287.512 223.936C287.512 225.376 288.328 226.288 289.456 226.288C290.512 226.288 291.232 225.544 291.232 224.488ZM295.984 224.488C295.984 223.456 295.288 222.832 294.424 222.832C294.16 222.832 293.944 222.88 293.752 222.976C293.752 222.112 294.496 221.464 295.528 221.272V220.12C293.608 220.36 292.264 221.92 292.264 223.936C292.264 225.376 293.08 226.288 294.208 226.288C295.264 226.288 295.984 225.544 295.984 224.488ZM301.972 238V225.568L310.228 238H313.252V220.456H310.228V232.888L301.996 220.456H298.948V238H301.972ZM324.264 226.144V232.36C324.264 234.616 323.376 235.696 321.528 235.696C319.896 235.696 319.008 234.784 319.008 232.528V226.144H316.08V233.56C316.08 236.464 317.688 238.312 320.424 238.312C322.008 238.312 323.544 237.544 324.264 236.416L324.48 238H327.192V226.144H324.264ZM332.688 238V220.144H329.784V238H332.688ZM338.232 238V220.144H335.328V238H338.232ZM344.351 238.312C346.199 238.312 347.807 237.472 348.311 236.248L348.527 238H351.095V230.8C351.095 227.512 349.127 225.784 345.935 225.784C342.719 225.784 340.607 227.464 340.607 230.032H343.103C343.103 228.784 344.063 228.064 345.791 228.064C347.279 228.064 348.239 228.712 348.239 230.32V230.584L344.687 230.848C341.879 231.064 340.295 232.432 340.295 234.616C340.295 236.848 341.831 238.312 344.351 238.312ZM345.311 236.104C343.991 236.104 343.271 235.576 343.271 234.496C343.271 233.536 343.967 232.936 345.791 232.768L348.263 232.576V233.2C348.263 235.024 347.111 236.104 345.311 236.104ZM356.419 238V231.28C356.419 229.36 357.547 228.448 358.939 228.448C360.331 228.448 361.219 229.336 361.219 230.992V238H364.147V231.28C364.147 229.336 365.227 228.424 366.643 228.424C368.035 228.424 368.947 229.312 368.947 231.016V238H371.851V230.248C371.851 227.512 370.267 225.784 367.387 225.784C365.587 225.784 364.195 226.672 363.595 228.04C362.971 226.672 361.723 225.784 359.923 225.784C358.219 225.784 357.019 226.552 356.419 227.536L356.179 226.144H353.491V238H356.419ZM379.323 234.4C379.323 236.728 381.195 238.312 384.147 238.312C387.075 238.312 389.115 236.824 389.115 234.424C389.115 232.6 388.107 231.688 386.115 231.232L383.979 230.728C382.971 230.488 382.443 230.056 382.443 229.384C382.443 228.496 383.115 227.968 384.267 227.968C385.395 227.968 386.067 228.616 386.091 229.624H388.875C388.851 227.32 387.051 225.784 384.387 225.784C381.651 225.784 379.683 227.176 379.683 229.504C379.683 231.4 380.715 232.408 382.851 232.888L384.987 233.392C386.043 233.632 386.355 234.064 386.355 234.664C386.355 235.528 385.611 236.08 384.243 236.08C382.899 236.08 382.131 235.432 382.107 234.4H379.323ZM392.328 223.768C393.288 223.768 394.08 222.976 394.08 221.992C394.08 221.008 393.288 220.24 392.328 220.24C391.32 220.24 390.528 221.008 390.528 221.992C390.528 222.976 391.32 223.768 392.328 223.768ZM390.864 238H393.792V226.144H390.864V238ZM400.369 238V228.592H402.673V226.144H400.369V222.448H397.441V226.144H395.161V228.592H397.441V238H400.369ZM413.53 238.312C415.378 238.312 416.986 237.472 417.49 236.248L417.706 238H420.274V230.8C420.274 227.512 418.306 225.784 415.114 225.784C411.898 225.784 409.786 227.464 409.786 230.032H412.282C412.282 228.784 413.242 228.064 414.97 228.064C416.458 228.064 417.418 228.712 417.418 230.32V230.584L413.866 230.848C411.058 231.064 409.474 232.432 409.474 234.616C409.474 236.848 411.01 238.312 413.53 238.312ZM414.49 236.104C413.17 236.104 412.45 235.576 412.45 234.496C412.45 233.536 413.146 232.936 414.97 232.768L417.442 232.576V233.2C417.442 235.024 416.29 236.104 414.49 236.104ZM425.598 238V231.28C425.598 229.36 426.726 228.448 428.118 228.448C429.51 228.448 430.398 229.336 430.398 230.992V238H433.326V231.28C433.326 229.336 434.406 228.424 435.822 228.424C437.214 228.424 438.126 229.312 438.126 231.016V238H441.03V230.248C441.03 227.512 439.446 225.784 436.566 225.784C434.766 225.784 433.374 226.672 432.774 228.04C432.15 226.672 430.902 225.784 429.102 225.784C427.398 225.784 426.198 226.552 425.598 227.536L425.358 226.144H422.67V238H425.598ZM448.729 238.312C451.825 238.312 453.985 236.752 454.489 234.16H451.777C451.441 235.288 450.385 235.912 448.777 235.912C446.833 235.912 445.729 234.856 445.513 232.768L454.441 232.744V231.856C454.441 228.16 452.185 225.784 448.633 225.784C445.153 225.784 442.729 228.352 442.729 232.072C442.729 235.744 445.201 238.312 448.729 238.312ZM448.657 228.184C450.409 228.184 451.537 229.264 451.537 230.896H445.585C445.873 229.12 446.929 228.184 448.657 228.184ZM460.219 238V228.592H462.523V226.144H460.219V222.448H457.291V226.144H455.011V228.592H457.291V238H460.219ZM472.78 238V231.28C472.78 229.36 473.908 228.448 475.3 228.448C476.692 228.448 477.58 229.336 477.58 230.992V238H480.508V231.28C480.508 229.336 481.588 228.424 483.004 228.424C484.396 228.424 485.308 229.312 485.308 231.016V238H488.212V230.248C488.212 227.512 486.628 225.784 483.748 225.784C481.948 225.784 480.556 226.672 479.956 228.04C479.332 226.672 478.084 225.784 476.284 225.784C474.58 225.784 473.38 226.552 472.78 227.536L472.54 226.144H469.852V238H472.78ZM494.134 238.312C495.982 238.312 497.59 237.472 498.094 236.248L498.31 238H500.878V230.8C500.878 227.512 498.91 225.784 495.718 225.784C492.502 225.784 490.39 227.464 490.39 230.032H492.886C492.886 228.784 493.846 228.064 495.574 228.064C497.062 228.064 498.022 228.712 498.022 230.32V230.584L494.47 230.848C491.662 231.064 490.078 232.432 490.078 234.616C490.078 236.848 491.614 238.312 494.134 238.312ZM495.094 236.104C493.774 236.104 493.054 235.576 493.054 234.496C493.054 233.536 493.75 232.936 495.574 232.768L498.046 232.576V233.2C498.046 235.024 496.894 236.104 495.094 236.104ZM502.603 231.808C502.603 235.24 504.811 237.76 508.171 237.76C509.875 237.76 511.339 237.064 512.083 235.96V237.928C512.083 239.896 510.787 241.168 508.771 241.168C506.971 241.168 505.795 240.256 505.603 238.72H502.675C503.035 241.888 505.363 243.832 508.771 243.832C512.611 243.832 514.987 241.36 514.987 237.4V226.144H512.275L512.107 227.776C511.411 226.504 510.019 225.76 508.243 225.76C504.859 225.76 502.603 228.352 502.603 231.808ZM505.555 231.736C505.555 229.792 506.803 228.328 508.747 228.328C510.787 228.328 512.011 229.72 512.011 231.736C512.011 233.8 510.763 235.216 508.747 235.216C506.827 235.216 505.555 233.728 505.555 231.736ZM520.465 238V231.616C520.465 229.696 521.569 228.448 523.369 228.448C524.881 228.448 525.865 229.408 525.865 231.4V238H528.793V230.704C528.793 227.632 527.257 225.784 524.281 225.784C522.673 225.784 521.233 226.48 520.489 227.68L520.249 226.144H517.537V238H520.465ZM534.718 238.312C536.566 238.312 538.174 237.472 538.678 236.248L538.894 238H541.462V230.8C541.462 227.512 539.494 225.784 536.302 225.784C533.086 225.784 530.974 227.464 530.974 230.032H533.47C533.47 228.784 534.43 228.064 536.158 228.064C537.646 228.064 538.606 228.712 538.606 230.32V230.584L535.054 230.848C532.246 231.064 530.662 232.432 530.662 234.616C530.662 236.848 532.198 238.312 534.718 238.312ZM535.678 236.104C534.358 236.104 533.638 235.576 533.638 234.496C533.638 233.536 534.334 232.936 536.158 232.768L538.63 232.576V233.2C538.63 235.024 537.478 236.104 535.678 236.104ZM548.935 234.4C548.935 236.728 550.807 238.312 553.759 238.312C556.687 238.312 558.727 236.824 558.727 234.424C558.727 232.6 557.719 231.688 555.727 231.232L553.591 230.728C552.583 230.488 552.055 230.056 552.055 229.384C552.055 228.496 552.727 227.968 553.879 227.968C555.007 227.968 555.679 228.616 555.703 229.624H558.487C558.463 227.32 556.663 225.784 553.999 225.784C551.263 225.784 549.295 227.176 549.295 229.504C549.295 231.4 550.327 232.408 552.463 232.888L554.599 233.392C555.655 233.632 555.967 234.064 555.967 234.664C555.967 235.528 555.223 236.08 553.855 236.08C552.511 236.08 551.743 235.432 551.719 234.4H548.935ZM561.94 223.768C562.9 223.768 563.692 222.976 563.692 221.992C563.692 221.008 562.9 220.24 561.94 220.24C560.932 220.24 560.14 221.008 560.14 221.992C560.14 222.976 560.932 223.768 561.94 223.768ZM560.476 238H563.404V226.144H560.476V238ZM569.982 238V228.592H572.286V226.144H569.982V222.448H567.054V226.144H564.774V228.592H567.054V238H569.982ZM572.714 234.4C572.714 236.728 574.586 238.312 577.538 238.312C580.466 238.312 582.506 236.824 582.506 234.424C582.506 232.6 581.498 231.688 579.506 231.232L577.37 230.728C576.362 230.488 575.834 230.056 575.834 229.384C575.834 228.496 576.506 227.968 577.658 227.968C578.786 227.968 579.458 228.616 579.482 229.624H582.266C582.242 227.32 580.442 225.784 577.778 225.784C575.042 225.784 573.074 227.176 573.074 229.504C573.074 231.4 574.106 232.408 576.242 232.888L578.378 233.392C579.434 233.632 579.746 234.064 579.746 234.664C579.746 235.528 579.002 236.08 577.634 236.08C576.29 236.08 575.522 235.432 575.498 234.4H572.714ZM586.153 238.288C587.209 238.288 588.097 237.424 588.097 236.392C588.097 235.336 587.209 234.472 586.153 234.472C585.097 234.472 584.209 235.336 584.209 236.392C584.209 237.424 585.097 238.288 586.153 238.288ZM592.159 222.472C592.159 221.032 591.343 220.12 590.215 220.12C589.159 220.12 588.439 220.864 588.439 221.92C588.439 222.976 589.135 223.576 589.999 223.576C590.263 223.576 590.479 223.528 590.671 223.456C590.671 224.296 589.927 224.944 588.895 225.136V226.288C590.815 226.048 592.159 224.488 592.159 222.472ZM596.911 222.472C596.911 221.032 596.095 220.12 594.967 220.12C593.911 220.12 593.191 220.864 593.191 221.92C593.191 222.976 593.863 223.576 594.727 223.576C594.991 223.576 595.207 223.528 595.399 223.456C595.399 224.296 594.679 224.944 593.647 225.136V226.288C595.567 226.048 596.911 224.488 596.911 222.472Z" fill="black"/>
<path d="M287.596 274H286.168L289.864 263.878H291.39L295.1 274H293.658L292.748 271.48H288.492L287.596 274ZM290.452 266.062L288.912 270.29H292.342L290.788 266.062C290.704 265.829 290.648 265.633 290.62 265.474C290.592 265.614 290.536 265.81 290.452 266.062ZM298.426 274.168C297.446 274.168 296.666 273.841 296.088 273.188C295.518 272.525 295.234 271.662 295.234 270.598C295.234 269.525 295.523 268.652 296.102 267.98C296.69 267.299 297.483 266.958 298.482 266.958C299.014 266.958 299.485 267.07 299.896 267.294C300.316 267.518 300.642 267.84 300.876 268.26V263.696H302.178V274H301.002L300.89 272.754C300.666 273.211 300.339 273.561 299.91 273.804C299.48 274.047 298.986 274.168 298.426 274.168ZM297.124 272.306C297.506 272.754 298.029 272.978 298.692 272.978C299.354 272.978 299.882 272.754 300.274 272.306C300.666 271.858 300.862 271.275 300.862 270.556C300.862 269.847 300.666 269.268 300.274 268.82C299.882 268.372 299.354 268.148 298.692 268.148C298.029 268.148 297.506 268.372 297.124 268.82C296.75 269.259 296.564 269.837 296.564 270.556C296.564 271.275 296.75 271.858 297.124 272.306ZM306.54 274.168C305.56 274.168 304.781 273.841 304.202 273.188C303.633 272.525 303.348 271.662 303.348 270.598C303.348 269.525 303.638 268.652 304.216 267.98C304.804 267.299 305.598 266.958 306.596 266.958C307.128 266.958 307.6 267.07 308.01 267.294C308.43 267.518 308.757 267.84 308.99 268.26V263.696H310.292V274H309.116L309.004 272.754C308.78 273.211 308.454 273.561 308.024 273.804C307.595 274.047 307.1 274.168 306.54 274.168ZM305.238 272.306C305.621 272.754 306.144 272.978 306.806 272.978C307.469 272.978 307.996 272.754 308.388 272.306C308.78 271.858 308.976 271.275 308.976 270.556C308.976 269.847 308.78 269.268 308.388 268.82C307.996 268.372 307.469 268.148 306.806 268.148C306.144 268.148 305.621 268.372 305.238 268.82C304.865 269.259 304.678 269.837 304.678 270.556C304.678 271.275 304.865 271.858 305.238 272.306ZM313.171 265.278C313.003 265.446 312.797 265.53 312.555 265.53C312.312 265.53 312.107 265.446 311.939 265.278C311.771 265.101 311.687 264.895 311.687 264.662C311.687 264.419 311.771 264.214 311.939 264.046C312.107 263.878 312.312 263.794 312.555 263.794C312.797 263.794 313.003 263.878 313.171 264.046C313.339 264.214 313.423 264.419 313.423 264.662C313.423 264.895 313.339 265.101 313.171 265.278ZM311.911 274V267.154H313.227V274H311.911ZM316.789 274H315.473V268.26H314.129V267.154H315.473V265.012H316.789V267.154H318.133V268.26H316.789V274ZM320.294 265.278C320.126 265.446 319.921 265.53 319.678 265.53C319.436 265.53 319.23 265.446 319.062 265.278C318.894 265.101 318.81 264.895 318.81 264.662C318.81 264.419 318.894 264.214 319.062 264.046C319.23 263.878 319.436 263.794 319.678 263.794C319.921 263.794 320.126 263.878 320.294 264.046C320.462 264.214 320.546 264.419 320.546 264.662C320.546 264.895 320.462 265.101 320.294 265.278ZM319.034 274V267.154H320.35V274H319.034ZM322.541 273.16C321.869 272.488 321.533 271.625 321.533 270.57C321.533 269.515 321.869 268.652 322.541 267.98C323.213 267.308 324.067 266.972 325.103 266.972C326.13 266.972 326.979 267.308 327.651 267.98C328.323 268.652 328.659 269.515 328.659 270.57C328.659 271.625 328.323 272.488 327.651 273.16C326.979 273.832 326.13 274.168 325.103 274.168C324.067 274.168 323.213 273.832 322.541 273.16ZM323.479 268.82C323.068 269.268 322.863 269.851 322.863 270.57C322.863 271.289 323.068 271.872 323.479 272.32C323.899 272.768 324.44 272.992 325.103 272.992C325.766 272.992 326.302 272.768 326.713 272.32C327.133 271.863 327.343 271.279 327.343 270.57C327.343 269.861 327.133 269.282 326.713 268.834C326.302 268.377 325.766 268.148 325.103 268.148C324.44 268.148 323.899 268.372 323.479 268.82ZM331.152 274H329.836V267.154H331.026L331.166 268.204C331.38 267.812 331.688 267.509 332.09 267.294C332.5 267.07 332.948 266.958 333.434 266.958C334.311 266.958 334.969 267.21 335.408 267.714C335.846 268.209 336.066 268.909 336.066 269.814V274H334.75V270.108C334.75 268.811 334.199 268.162 333.098 268.162C332.491 268.162 332.015 268.363 331.67 268.764C331.324 269.165 331.152 269.702 331.152 270.374V274ZM339.61 274.168C338.882 274.168 338.308 273.981 337.888 273.608C337.478 273.225 337.272 272.721 337.272 272.096C337.272 271.471 337.492 270.971 337.93 270.598C338.378 270.215 339.008 269.991 339.82 269.926L341.976 269.758V269.562C341.976 268.526 341.44 268.008 340.366 268.008C339.816 268.008 339.386 268.125 339.078 268.358C338.78 268.591 338.63 268.913 338.63 269.324H337.482C337.482 268.615 337.748 268.045 338.28 267.616C338.822 267.177 339.536 266.958 340.422 266.958C341.3 266.958 341.99 267.191 342.494 267.658C343.008 268.125 343.264 268.806 343.264 269.702V274H342.144L342.004 272.894C341.827 273.286 341.519 273.599 341.08 273.832C340.651 274.056 340.161 274.168 339.61 274.168ZM339.988 273.146C340.614 273.146 341.104 272.959 341.458 272.586C341.813 272.203 341.99 271.69 341.99 271.046V270.682L340.24 270.822C339.148 270.925 338.602 271.335 338.602 272.054C338.602 272.409 338.724 272.679 338.966 272.866C339.209 273.053 339.55 273.146 339.988 273.146ZM346.151 274H344.835V263.696H346.151V274ZM354.1 274.168C353.12 274.168 352.341 273.841 351.762 273.188C351.193 272.525 350.908 271.662 350.908 270.598C350.908 269.525 351.198 268.652 351.776 267.98C352.364 267.299 353.158 266.958 354.156 266.958C354.688 266.958 355.16 267.07 355.57 267.294C355.99 267.518 356.317 267.84 356.55 268.26V263.696H357.852V274H356.676L356.564 272.754C356.34 273.211 356.014 273.561 355.584 273.804C355.155 274.047 354.66 274.168 354.1 274.168ZM352.798 272.306C353.181 272.754 353.704 272.978 354.366 272.978C355.029 272.978 355.556 272.754 355.948 272.306C356.34 271.858 356.536 271.275 356.536 270.556C356.536 269.847 356.34 269.268 355.948 268.82C355.556 268.372 355.029 268.148 354.366 268.148C353.704 268.148 353.181 268.372 352.798 268.82C352.425 269.259 352.238 269.837 352.238 270.556C352.238 271.275 352.425 271.858 352.798 272.306ZM362.425 274.168C361.417 274.168 360.596 273.837 359.961 273.174C359.336 272.511 359.023 271.648 359.023 270.584C359.023 269.511 359.331 268.638 359.947 267.966C360.572 267.294 361.38 266.958 362.369 266.958C363.34 266.958 364.119 267.266 364.707 267.882C365.295 268.498 365.589 269.315 365.589 270.332V270.822L360.297 270.836C360.344 271.555 360.549 272.11 360.913 272.502C361.286 272.885 361.8 273.076 362.453 273.076C363.498 273.076 364.138 272.675 364.371 271.872H365.603C365.435 272.609 365.076 273.179 364.525 273.58C363.974 273.972 363.274 274.168 362.425 274.168ZM362.369 268.064C361.8 268.064 361.338 268.227 360.983 268.554C360.628 268.881 360.409 269.347 360.325 269.954H364.273C364.273 269.385 364.1 268.927 363.755 268.582C363.41 268.237 362.948 268.064 362.369 268.064ZM366.219 272.012H367.479C367.479 272.357 367.6 272.633 367.843 272.838C368.095 273.034 368.44 273.132 368.879 273.132C369.336 273.132 369.691 273.043 369.943 272.866C370.204 272.689 370.335 272.441 370.335 272.124C370.335 271.881 370.265 271.69 370.125 271.55C369.985 271.401 369.742 271.284 369.397 271.2L368.193 270.92C366.998 270.631 366.401 269.996 366.401 269.016C366.401 268.391 366.639 267.891 367.115 267.518C367.591 267.145 368.211 266.958 368.977 266.958C369.723 266.958 370.321 267.154 370.769 267.546C371.226 267.929 371.464 268.447 371.483 269.1H370.223C370.204 268.755 370.083 268.484 369.859 268.288C369.635 268.083 369.327 267.98 368.935 267.98C368.524 267.98 368.207 268.069 367.983 268.246C367.759 268.414 367.647 268.657 367.647 268.974C367.647 269.431 367.983 269.744 368.655 269.912L369.859 270.206C370.456 270.346 370.895 270.561 371.175 270.85C371.455 271.139 371.595 271.536 371.595 272.04C371.595 272.684 371.343 273.202 370.839 273.594C370.335 273.977 369.672 274.168 368.851 274.168C368.048 274.168 367.409 273.972 366.933 273.58C366.457 273.188 366.219 272.665 366.219 272.012ZM372.326 270.584C372.326 269.511 372.634 268.638 373.25 267.966C373.876 267.294 374.688 266.958 375.686 266.958C376.545 266.958 377.254 267.187 377.814 267.644C378.384 268.092 378.729 268.699 378.85 269.464H377.534C377.422 269.035 377.203 268.708 376.876 268.484C376.559 268.251 376.176 268.134 375.728 268.134C375.103 268.134 374.594 268.358 374.202 268.806C373.82 269.245 373.628 269.833 373.628 270.57C373.628 271.307 373.81 271.895 374.174 272.334C374.548 272.773 375.047 272.992 375.672 272.992C376.139 272.992 376.536 272.88 376.862 272.656C377.198 272.423 377.427 272.101 377.548 271.69H378.864C378.734 272.437 378.374 273.039 377.786 273.496C377.198 273.944 376.494 274.168 375.672 274.168C374.664 274.168 373.852 273.841 373.236 273.188C372.63 272.535 372.326 271.667 372.326 270.584ZM383.893 267.098V268.302H383.305C382.679 268.302 382.185 268.484 381.821 268.848C381.466 269.212 381.289 269.721 381.289 270.374V274H379.973V267.168H381.205L381.289 268.204C381.429 267.84 381.667 267.551 382.003 267.336C382.339 267.121 382.735 267.014 383.193 267.014C383.398 267.014 383.631 267.042 383.893 267.098ZM386.107 265.278C385.939 265.446 385.734 265.53 385.491 265.53C385.248 265.53 385.043 265.446 384.875 265.278C384.707 265.101 384.623 264.895 384.623 264.662C384.623 264.419 384.707 264.214 384.875 264.046C385.043 263.878 385.248 263.794 385.491 263.794C385.734 263.794 385.939 263.878 386.107 264.046C386.275 264.214 386.359 264.419 386.359 264.662C386.359 264.895 386.275 265.101 386.107 265.278ZM384.847 274V267.154H386.163V274H384.847ZM387.794 277.066V267.154H388.984L389.082 268.386C389.306 267.929 389.637 267.579 390.076 267.336C390.514 267.084 391.009 266.958 391.56 266.958C392.53 266.958 393.3 267.289 393.87 267.952C394.448 268.605 394.738 269.464 394.738 270.528C394.738 271.601 394.453 272.479 393.884 273.16C393.324 273.841 392.549 274.182 391.56 274.182C391.009 274.182 390.519 274.07 390.09 273.846C389.66 273.622 389.334 273.3 389.11 272.88V277.066H387.794ZM389.124 270.584C389.124 271.293 389.315 271.872 389.698 272.32C390.09 272.768 390.617 272.992 391.28 272.992C391.942 272.992 392.465 272.768 392.848 272.32C393.23 271.872 393.422 271.293 393.422 270.584C393.422 269.865 393.23 269.282 392.848 268.834C392.465 268.386 391.942 268.162 391.28 268.162C390.617 268.162 390.09 268.386 389.698 268.834C389.315 269.273 389.124 269.856 389.124 270.584ZM397.772 274H396.456V268.26H395.112V267.154H396.456V265.012H397.772V267.154H399.116V268.26H397.772V274ZM401.277 265.278C401.109 265.446 400.903 265.53 400.661 265.53C400.418 265.53 400.213 265.446 400.045 265.278C399.877 265.101 399.793 264.895 399.793 264.662C399.793 264.419 399.877 264.214 400.045 264.046C400.213 263.878 400.418 263.794 400.661 263.794C400.903 263.794 401.109 263.878 401.277 264.046C401.445 264.214 401.529 264.419 401.529 264.662C401.529 264.895 401.445 265.101 401.277 265.278ZM400.017 274V267.154H401.333V274H400.017ZM403.523 273.16C402.851 272.488 402.515 271.625 402.515 270.57C402.515 269.515 402.851 268.652 403.523 267.98C404.195 267.308 405.049 266.972 406.085 266.972C407.112 266.972 407.961 267.308 408.633 267.98C409.305 268.652 409.641 269.515 409.641 270.57C409.641 271.625 409.305 272.488 408.633 273.16C407.961 273.832 407.112 274.168 406.085 274.168C405.049 274.168 404.195 273.832 403.523 273.16ZM404.461 268.82C404.051 269.268 403.845 269.851 403.845 270.57C403.845 271.289 404.051 271.872 404.461 272.32C404.881 272.768 405.423 272.992 406.085 272.992C406.748 272.992 407.285 272.768 407.695 272.32C408.115 271.863 408.325 271.279 408.325 270.57C408.325 269.861 408.115 269.282 407.695 268.834C407.285 268.377 406.748 268.148 406.085 268.148C405.423 268.148 404.881 268.372 404.461 268.82ZM412.134 274H410.818V267.154H412.008L412.148 268.204C412.363 267.812 412.671 267.509 413.072 267.294C413.483 267.07 413.931 266.958 414.416 266.958C415.293 266.958 415.951 267.21 416.39 267.714C416.829 268.209 417.048 268.909 417.048 269.814V274H415.732V270.108C415.732 268.811 415.181 268.162 414.08 268.162C413.473 268.162 412.997 268.363 412.652 268.764C412.307 269.165 412.134 269.702 412.134 270.374V274ZM421.691 270.584C421.691 269.511 421.999 268.638 422.615 267.966C423.24 267.294 424.052 266.958 425.051 266.958C425.91 266.958 426.619 267.187 427.179 267.644C427.748 268.092 428.094 268.699 428.215 269.464H426.899C426.787 269.035 426.568 268.708 426.241 268.484C425.924 268.251 425.541 268.134 425.093 268.134C424.468 268.134 423.959 268.358 423.567 268.806C423.184 269.245 422.993 269.833 422.993 270.57C422.993 271.307 423.175 271.895 423.539 272.334C423.912 272.773 424.412 272.992 425.037 272.992C425.504 272.992 425.9 272.88 426.227 272.656C426.563 272.423 426.792 272.101 426.913 271.69H428.229C428.098 272.437 427.739 273.039 427.151 273.496C426.563 273.944 425.858 274.168 425.037 274.168C424.029 274.168 423.217 273.841 422.601 273.188C421.994 272.535 421.691 271.667 421.691 270.584ZM431.339 274.168C430.611 274.168 430.037 273.981 429.617 273.608C429.207 273.225 429.001 272.721 429.001 272.096C429.001 271.471 429.221 270.971 429.659 270.598C430.107 270.215 430.737 269.991 431.549 269.926L433.705 269.758V269.562C433.705 268.526 433.169 268.008 432.095 268.008C431.545 268.008 431.115 268.125 430.807 268.358C430.509 268.591 430.359 268.913 430.359 269.324H429.211C429.211 268.615 429.477 268.045 430.009 267.616C430.551 267.177 431.265 266.958 432.151 266.958C433.029 266.958 433.719 267.191 434.223 267.658C434.737 268.125 434.993 268.806 434.993 269.702V274H433.873L433.733 272.894C433.556 273.286 433.248 273.599 432.809 273.832C432.38 274.056 431.89 274.168 431.339 274.168ZM431.717 273.146C432.343 273.146 432.833 272.959 433.187 272.586C433.542 272.203 433.719 271.69 433.719 271.046V270.682L431.969 270.822C430.877 270.925 430.331 271.335 430.331 272.054C430.331 272.409 430.453 272.679 430.695 272.866C430.938 273.053 431.279 273.146 431.717 273.146ZM437.852 274H436.536V267.154H437.726L437.866 268.204C438.081 267.812 438.389 267.509 438.79 267.294C439.201 267.07 439.649 266.958 440.134 266.958C441.011 266.958 441.669 267.21 442.108 267.714C442.547 268.209 442.766 268.909 442.766 269.814V274H441.45V270.108C441.45 268.811 440.899 268.162 439.798 268.162C439.191 268.162 438.715 268.363 438.37 268.764C438.025 269.165 437.852 269.702 437.852 270.374V274ZM449.047 274H447.857V263.696H449.173V268.33C449.397 267.891 449.724 267.555 450.153 267.322C450.592 267.079 451.096 266.958 451.665 266.958C452.626 266.958 453.387 267.299 453.947 267.98C454.516 268.661 454.801 269.539 454.801 270.612C454.801 271.667 454.507 272.525 453.919 273.188C453.34 273.841 452.561 274.168 451.581 274.168C451.03 274.168 450.54 274.047 450.111 273.804C449.691 273.561 449.369 273.211 449.145 272.754L449.047 274ZM449.187 270.556C449.187 271.284 449.378 271.872 449.761 272.32C450.153 272.759 450.68 272.978 451.343 272.978C452.006 272.978 452.528 272.754 452.911 272.306C453.294 271.858 453.485 271.275 453.485 270.556C453.485 269.847 453.294 269.268 452.911 268.82C452.528 268.372 452.006 268.148 451.343 268.148C450.68 268.148 450.153 268.372 449.761 268.82C449.378 269.268 449.187 269.847 449.187 270.556ZM458.925 274.168C457.917 274.168 457.096 273.837 456.461 273.174C455.836 272.511 455.523 271.648 455.523 270.584C455.523 269.511 455.831 268.638 456.447 267.966C457.073 267.294 457.88 266.958 458.869 266.958C459.84 266.958 460.619 267.266 461.207 267.882C461.795 268.498 462.089 269.315 462.089 270.332V270.822L456.797 270.836C456.844 271.555 457.049 272.11 457.413 272.502C457.787 272.885 458.3 273.076 458.953 273.076C459.999 273.076 460.638 272.675 460.871 271.872H462.103C461.935 272.609 461.576 273.179 461.025 273.58C460.475 273.972 459.775 274.168 458.925 274.168ZM458.869 268.064C458.3 268.064 457.838 268.227 457.483 268.554C457.129 268.881 456.909 269.347 456.825 269.954H460.773C460.773 269.385 460.601 268.927 460.255 268.582C459.91 268.237 459.448 268.064 458.869 268.064ZM468.829 274.168C468.101 274.168 467.527 273.981 467.107 273.608C466.697 273.225 466.491 272.721 466.491 272.096C466.491 271.471 466.711 270.971 467.149 270.598C467.597 270.215 468.227 269.991 469.039 269.926L471.195 269.758V269.562C471.195 268.526 470.659 268.008 469.585 268.008C469.035 268.008 468.605 268.125 468.297 268.358C467.999 268.591 467.849 268.913 467.849 269.324H466.701C466.701 268.615 466.967 268.045 467.499 267.616C468.041 267.177 468.755 266.958 469.641 266.958C470.519 266.958 471.209 267.191 471.713 267.658C472.227 268.125 472.483 268.806 472.483 269.702V274H471.363L471.223 272.894C471.046 273.286 470.738 273.599 470.299 273.832C469.87 274.056 469.38 274.168 468.829 274.168ZM469.207 273.146C469.833 273.146 470.323 272.959 470.677 272.586C471.032 272.203 471.209 271.69 471.209 271.046V270.682L469.459 270.822C468.367 270.925 467.821 271.335 467.821 272.054C467.821 272.409 467.943 272.679 468.185 272.866C468.428 273.053 468.769 273.146 469.207 273.146ZM476.77 274.168C475.79 274.168 475.011 273.841 474.432 273.188C473.863 272.525 473.578 271.662 473.578 270.598C473.578 269.525 473.867 268.652 474.446 267.98C475.034 267.299 475.827 266.958 476.826 266.958C477.358 266.958 477.829 267.07 478.24 267.294C478.66 267.518 478.987 267.84 479.22 268.26V263.696H480.522V274H479.346L479.234 272.754C479.01 273.211 478.683 273.561 478.254 273.804C477.825 274.047 477.33 274.168 476.77 274.168ZM475.468 272.306C475.851 272.754 476.373 272.978 477.036 272.978C477.699 272.978 478.226 272.754 478.618 272.306C479.01 271.858 479.206 271.275 479.206 270.556C479.206 269.847 479.01 269.268 478.618 268.82C478.226 268.372 477.699 268.148 477.036 268.148C476.373 268.148 475.851 268.372 475.468 268.82C475.095 269.259 474.908 269.837 474.908 270.556C474.908 271.275 475.095 271.858 475.468 272.306ZM484.884 274.168C483.904 274.168 483.125 273.841 482.546 273.188C481.977 272.525 481.692 271.662 481.692 270.598C481.692 269.525 481.982 268.652 482.56 267.98C483.148 267.299 483.942 266.958 484.94 266.958C485.472 266.958 485.944 267.07 486.354 267.294C486.774 267.518 487.101 267.84 487.334 268.26V263.696H488.636V274H487.46L487.348 272.754C487.124 273.211 486.798 273.561 486.368 273.804C485.939 274.047 485.444 274.168 484.884 274.168ZM483.582 272.306C483.965 272.754 484.488 272.978 485.15 272.978C485.813 272.978 486.34 272.754 486.732 272.306C487.124 271.858 487.32 271.275 487.32 270.556C487.32 269.847 487.124 269.268 486.732 268.82C486.34 268.372 485.813 268.148 485.15 268.148C484.488 268.148 483.965 268.372 483.582 268.82C483.209 269.259 483.022 269.837 483.022 270.556C483.022 271.275 483.209 271.858 483.582 272.306ZM493.209 274.168C492.201 274.168 491.38 273.837 490.745 273.174C490.12 272.511 489.807 271.648 489.807 270.584C489.807 269.511 490.115 268.638 490.731 267.966C491.356 267.294 492.164 266.958 493.153 266.958C494.124 266.958 494.903 267.266 495.491 267.882C496.079 268.498 496.373 269.315 496.373 270.332V270.822L491.081 270.836C491.128 271.555 491.333 272.11 491.697 272.502C492.07 272.885 492.584 273.076 493.237 273.076C494.282 273.076 494.922 272.675 495.155 271.872H496.387C496.219 272.609 495.86 273.179 495.309 273.58C494.758 273.972 494.058 274.168 493.209 274.168ZM493.153 268.064C492.584 268.064 492.122 268.227 491.767 268.554C491.412 268.881 491.193 269.347 491.109 269.954H495.057C495.057 269.385 494.884 268.927 494.539 268.582C494.194 268.237 493.732 268.064 493.153 268.064ZM500.307 274.168C499.327 274.168 498.548 273.841 497.969 273.188C497.4 272.525 497.115 271.662 497.115 270.598C497.115 269.525 497.404 268.652 497.983 267.98C498.571 267.299 499.364 266.958 500.363 266.958C500.895 266.958 501.366 267.07 501.777 267.294C502.197 267.518 502.524 267.84 502.757 268.26V263.696H504.059V274H502.883L502.771 272.754C502.547 273.211 502.22 273.561 501.791 273.804C501.362 274.047 500.867 274.168 500.307 274.168ZM499.005 272.306C499.388 272.754 499.91 272.978 500.573 272.978C501.236 272.978 501.763 272.754 502.155 272.306C502.547 271.858 502.743 271.275 502.743 270.556C502.743 269.847 502.547 269.268 502.155 268.82C501.763 268.372 501.236 268.148 500.573 268.148C499.91 268.148 499.388 268.372 499.005 268.82C498.632 269.259 498.445 269.837 498.445 270.556C498.445 271.275 498.632 271.858 499.005 272.306ZM510.542 273.986H509.226V263.696H510.542V268.204C510.766 267.821 511.078 267.518 511.48 267.294C511.881 267.07 512.343 266.958 512.866 266.958C513.724 266.958 514.368 267.21 514.798 267.714C515.236 268.218 515.456 268.918 515.456 269.814V274H514.14V270.108C514.14 268.811 513.594 268.162 512.502 268.162C511.886 268.162 511.405 268.363 511.06 268.764C510.714 269.156 510.542 269.655 510.542 270.262V273.986ZM519.952 274.168C518.944 274.168 518.123 273.837 517.488 273.174C516.863 272.511 516.55 271.648 516.55 270.584C516.55 269.511 516.858 268.638 517.474 267.966C518.1 267.294 518.907 266.958 519.896 266.958C520.867 266.958 521.646 267.266 522.234 267.882C522.822 268.498 523.116 269.315 523.116 270.332V270.822L517.824 270.836C517.871 271.555 518.076 272.11 518.44 272.502C518.814 272.885 519.327 273.076 519.98 273.076C521.026 273.076 521.665 272.675 521.898 271.872H523.13C522.962 272.609 522.603 273.179 522.052 273.58C521.502 273.972 520.802 274.168 519.952 274.168ZM519.896 268.064C519.327 268.064 518.865 268.227 518.51 268.554C518.156 268.881 517.936 269.347 517.852 269.954H521.8C521.8 269.385 521.628 268.927 521.282 268.582C520.937 268.237 520.475 268.064 519.896 268.064ZM528.226 267.098V268.302H527.638C527.013 268.302 526.518 268.484 526.154 268.848C525.799 269.212 525.622 269.721 525.622 270.374V274H524.306V267.168H525.538L525.622 268.204C525.762 267.84 526 267.551 526.336 267.336C526.672 267.121 527.069 267.014 527.526 267.014C527.731 267.014 527.965 267.042 528.226 267.098ZM531.888 274.168C530.88 274.168 530.059 273.837 529.424 273.174C528.799 272.511 528.486 271.648 528.486 270.584C528.486 269.511 528.794 268.638 529.41 267.966C530.036 267.294 530.843 266.958 531.832 266.958C532.803 266.958 533.582 267.266 534.17 267.882C534.758 268.498 535.052 269.315 535.052 270.332V270.822L529.76 270.836C529.807 271.555 530.012 272.11 530.376 272.502C530.75 272.885 531.263 273.076 531.916 273.076C532.962 273.076 533.601 272.675 533.834 271.872H535.066C534.898 272.609 534.539 273.179 533.988 273.58C533.438 273.972 532.738 274.168 531.888 274.168ZM531.832 268.064C531.263 268.064 530.801 268.227 530.446 268.554C530.092 268.881 529.872 269.347 529.788 269.954H533.736C533.736 269.385 533.564 268.927 533.218 268.582C532.873 268.237 532.411 268.064 531.832 268.064Z" fill="#6C757D"/>
<rect x="254.5" y="117.5" width="383" height="191" rx="7.5" stroke="#E9ECEF" shape-rendering="crispEdges"/>
</g>
<defs>
<filter id="filter0_f_1114_13779" x="320.899" y="130.942" width="351.175" height="353.146" filterUnits="userSpaceOnUse" color-interpolation-filters="sRGB">
<feFlood flood-opacity="0" result="BackgroundImageFix"/>
<feBlend mode="normal" in="SourceGraphic" in2="BackgroundImageFix" result="shape"/>
<feGaussianBlur stdDeviation="58.5366" result="effect1_foregroundBlur_1114_13779"/>
</filter>
<filter id="filter1_f_1114_13779" x="0.853683" y="0.853683" width="702.35" height="706.293" filterUnits="userSpaceOnUse" color-interpolation-filters="sRGB">
<feFlood flood-opacity="0" result="BackgroundImageFix"/>
<feBlend mode="normal" in="SourceGraphic" in2="BackgroundImageFix" result="shape"/>
<feGaussianBlur stdDeviation="117.073" result="effect1_foregroundBlur_1114_13779"/>
</filter>
<filter id="filter2_f_1114_13779" x="342.841" y="212.755" width="307.289" height="308.521" filterUnits="userSpaceOnUse" color-interpolation-filters="sRGB">
<feFlood flood-opacity="0" result="BackgroundImageFix"/>
<feBlend mode="normal" in="SourceGraphic" in2="BackgroundImageFix" result="shape"/>
<feGaussianBlur stdDeviation="58.5366" result="effect1_foregroundBlur_1114_13779"/>
</filter>
<filter id="filter3_d_1114_13779" x="292" y="479" width="410" height="200" filterUnits="userSpaceOnUse" color-interpolation-filters="sRGB">
<feFlood flood-opacity="0" result="BackgroundImageFix"/>
<feColorMatrix in="SourceAlpha" type="matrix" values="0 0 0 0 0 0 0 0 0 0 0 0 0 0 0 0 0 0 127 0" result="hardAlpha"/>
<feOffset dy="24"/>
<feGaussianBlur stdDeviation="32"/>
<feComposite in2="hardAlpha" operator="out"/>
<feColorMatrix type="matrix" values="0 0 0 0 0.88 0 0 0 0 0.88 0 0 0 0 0.88 0 0 0 0.48 0"/>
<feBlend mode="normal" in2="BackgroundImageFix" result="effect1_dropShadow_1114_13779"/>
<feBlend mode="normal" in="SourceGraphic" in2="effect1_dropShadow_1114_13779" result="shape"/>
</filter>
<filter id="filter4_d_1114_13779" x="88" y="293" width="410" height="290" filterUnits="userSpaceOnUse" color-interpolation-filters="sRGB">
<feFlood flood-opacity="0" result="BackgroundImageFix"/>
<feColorMatrix in="SourceAlpha" type="matrix" values="0 0 0 0 0 0 0 0 0 0 0 0 0 0 0 0 0 0 127 0" result="hardAlpha"/>
<feOffset dy="24"/>
<feGaussianBlur stdDeviation="32"/>
<feComposite in2="hardAlpha" operator="out"/>
<feColorMatrix type="matrix" values="0 0 0 0 0.88 0 0 0 0 0.88 0 0 0 0 0.88 0 0 0 0.48 0"/>
<feBlend mode="normal" in2="BackgroundImageFix" result="effect1_dropShadow_1114_13779"/>
<feBlend mode="normal" in="SourceGraphic" in2="effect1_dropShadow_1114_13779" result="shape"/>
</filter>
<filter id="filter5_d_1114_13779" x="190" y="77" width="512" height="320" filterUnits="userSpaceOnUse" color-interpolation-filters="sRGB">
<feFlood flood-opacity="0" result="BackgroundImageFix"/>
<feColorMatrix in="SourceAlpha" type="matrix" values="0 0 0 0 0 0 0 0 0 0 0 0 0 0 0 0 0 0 127 0" result="hardAlpha"/>
<feOffset dy="24"/>
<feGaussianBlur stdDeviation="32"/>
<feComposite in2="hardAlpha" operator="out"/>
<feColorMatrix type="matrix" values="0 0 0 0 0.88 0 0 0 0 0.88 0 0 0 0 0.88 0 0 0 0.48 0"/>
<feBlend mode="normal" in2="BackgroundImageFix" result="effect1_dropShadow_1114_13779"/>
<feBlend mode="normal" in="SourceGraphic" in2="effect1_dropShadow_1114_13779" result="shape"/>
</filter>
</defs>
</svg>
