<svg width="305" height="540" viewBox="0 0 305 540" fill="none" xmlns="http://www.w3.org/2000/svg">
<path d="M183 540V443.25C183 429.995 172.255 419.25 159 419.25H105C91.7452 419.25 81 408.505 81 395.25V310" stroke="url(#paint0_linear_1131_4827)" stroke-width="5"/>
<path d="M285 5.96046e-06V138.75C285 152.005 274.255 162.75 261 162.75H27C13.7452 162.75 3 173.495 3 186.75V310" stroke="url(#paint1_linear_1131_4827)" stroke-width="5"/>
<rect x="23.25" y="185.25" width="281.5" height="161.5" rx="7.75" fill="white"/>
<path d="M48.458 228H53.786C56.504 228 58.07 226.686 58.07 224.436C58.07 222.906 57.368 221.862 55.982 221.412C57.224 220.89 57.872 219.846 57.872 218.388C57.872 216.192 56.288 214.842 53.696 214.842H48.458V228ZM53.498 216.876C54.794 216.876 55.514 217.488 55.514 218.622C55.514 219.792 54.812 220.458 53.552 220.458H50.762V216.876H53.498ZM53.696 222.402C54.974 222.402 55.712 223.032 55.712 224.148C55.712 225.336 54.992 225.966 53.696 225.966H50.762V222.402H53.696ZM62.1446 228.234C63.5306 228.234 64.7366 227.604 65.1146 226.686L65.2766 228H67.2026V222.6C67.2026 220.134 65.7266 218.838 63.3326 218.838C60.9206 218.838 59.3366 220.098 59.3366 222.024H61.2086C61.2086 221.088 61.9286 220.548 63.2246 220.548C64.3406 220.548 65.0606 221.034 65.0606 222.24V222.438L62.3966 222.636C60.2906 222.798 59.1026 223.824 59.1026 225.462C59.1026 227.136 60.2546 228.234 62.1446 228.234ZM62.8646 226.578C61.8746 226.578 61.3346 226.182 61.3346 225.372C61.3346 224.652 61.8566 224.202 63.2246 224.076L65.0786 223.932V224.4C65.0786 225.768 64.2146 226.578 62.8646 226.578ZM68.3159 225.3C68.3159 227.046 69.7199 228.234 71.9339 228.234C74.1299 228.234 75.6599 227.118 75.6599 225.318C75.6599 223.95 74.9039 223.266 73.4099 222.924L71.8079 222.546C71.0519 222.366 70.6559 222.042 70.6559 221.538C70.6559 220.872 71.1599 220.476 72.0239 220.476C72.8699 220.476 73.3739 220.962 73.3919 221.718H75.4799C75.4619 219.99 74.1119 218.838 72.1139 218.838C70.0619 218.838 68.5859 219.882 68.5859 221.628C68.5859 223.05 69.3599 223.806 70.9619 224.166L72.5639 224.544C73.3559 224.724 73.5899 225.048 73.5899 225.498C73.5899 226.146 73.0319 226.56 72.0059 226.56C70.9979 226.56 70.4219 226.074 70.4039 225.3H68.3159ZM78.07 217.326C78.79 217.326 79.384 216.732 79.384 215.994C79.384 215.256 78.79 214.68 78.07 214.68C77.314 214.68 76.72 215.256 76.72 215.994C76.72 216.732 77.314 217.326 78.07 217.326ZM76.972 228H79.168V219.108H76.972V228ZM80.5548 223.536C80.5548 226.362 82.3188 228.234 85.0188 228.234C87.3408 228.234 89.0688 226.812 89.3388 224.742H87.1248C86.8908 225.714 86.1168 226.254 85.0188 226.254C83.6148 226.254 82.7508 225.21 82.7508 223.536C82.7508 221.862 83.6868 220.8 85.0908 220.8C86.1348 220.8 86.8728 221.322 87.1248 222.33H89.3208C89.0868 220.188 87.4308 218.838 85.0008 218.838C82.3728 218.838 80.5548 220.782 80.5548 223.536ZM100.631 223.464C103.259 223.464 104.987 221.682 104.987 219.144C104.987 216.57 103.277 214.842 100.631 214.842H95.4289V228H97.7329V223.464H100.631ZM100.181 216.894C101.711 216.894 102.575 217.686 102.575 219.126C102.575 220.566 101.729 221.412 100.145 221.412H97.7329V216.894H100.181ZM108.455 228V214.608H106.277V228H108.455ZM113.045 228.234C114.431 228.234 115.637 227.604 116.015 226.686L116.177 228H118.103V222.6C118.103 220.134 116.627 218.838 114.233 218.838C111.821 218.838 110.237 220.098 110.237 222.024H112.109C112.109 221.088 112.829 220.548 114.125 220.548C115.241 220.548 115.961 221.034 115.961 222.24V222.438L113.297 222.636C111.191 222.798 110.003 223.824 110.003 225.462C110.003 227.136 111.155 228.234 113.045 228.234ZM113.765 226.578C112.775 226.578 112.235 226.182 112.235 225.372C112.235 224.652 112.757 224.202 114.125 224.076L115.979 223.932V224.4C115.979 225.768 115.115 226.578 113.765 226.578ZM122.096 228V223.212C122.096 221.772 122.924 220.836 124.274 220.836C125.408 220.836 126.146 221.556 126.146 223.05V228H128.342V222.528C128.342 220.224 127.19 218.838 124.958 218.838C123.752 218.838 122.672 219.36 122.114 220.26L121.934 219.108H119.9V228H122.096Z" fill="black"/>
<rect x="134" y="211" width="62" height="20" rx="10" fill="#F2F8F5"/>
<path d="M144.796 226V222.856C144.796 221.764 144.784 220.936 144.7 220.408L146.92 226H148.336L150.568 220.396C150.484 221.02 150.484 221.536 150.484 223.3V226H151.972V217.228H150.46L147.628 224.212L144.796 217.228H143.308V226H144.796ZM153.349 223.024C153.349 224.872 154.681 226.144 156.517 226.144C158.353 226.144 159.685 224.872 159.685 223.024C159.685 221.176 158.353 219.904 156.517 219.904C154.681 219.904 153.349 221.176 153.349 223.024ZM154.813 223.024C154.813 221.944 155.509 221.212 156.517 221.212C157.525 221.212 158.221 221.944 158.221 223.024C158.221 224.104 157.525 224.836 156.517 224.836C155.509 224.836 154.813 224.104 154.813 223.024ZM162.31 226V222.808C162.31 221.848 162.862 221.224 163.762 221.224C164.518 221.224 165.01 221.704 165.01 222.7V226H166.474V222.352C166.474 220.816 165.706 219.892 164.218 219.892C163.414 219.892 162.694 220.24 162.322 220.84L162.202 220.072H160.846V226H162.31ZM169.928 226V221.296H171.08V220.072H169.928V218.224H168.464V220.072H167.324V221.296H168.464V226H169.928ZM173.454 226V222.76C173.454 221.872 173.994 221.224 174.918 221.224C175.662 221.224 176.154 221.704 176.154 222.7V226H177.618V222.352C177.618 220.816 176.85 219.892 175.386 219.892C174.534 219.892 173.838 220.264 173.466 220.84V217.072H171.99V226H173.454ZM180.533 226V217.072H179.081V226H180.533ZM181.553 228.748C181.877 228.832 182.237 228.88 182.645 228.88C183.617 228.88 184.241 228.424 184.685 227.32L187.589 220.072H186.077L184.469 224.392L182.945 220.072H181.397L183.785 226.252L183.617 226.696C183.365 227.392 183.005 227.524 182.429 227.524H181.553V228.748Z" fill="#86C1A1"/>
<path d="M47.616 238.58C47.616 239.952 48.442 240.848 50.01 241.226L51.704 241.646C52.782 241.898 53.286 242.486 53.286 243.382C53.286 244.53 52.348 245.244 50.878 245.244C49.506 245.244 48.582 244.558 48.526 243.508H47.49C47.616 245.146 48.932 246.168 50.878 246.168C52.95 246.168 54.294 245.062 54.294 243.326C54.294 241.968 53.482 241.072 51.914 240.694L50.192 240.274C49.142 240.008 48.624 239.448 48.624 238.566C48.624 237.432 49.548 236.704 50.962 236.704C52.222 236.704 52.992 237.348 53.104 238.482H54.126C53.972 236.802 52.782 235.794 50.976 235.794C48.96 235.794 47.616 236.9 47.616 238.58ZM56.5827 245.986V242.304C56.5827 241.002 57.3387 239.924 58.7947 239.924C59.8447 239.924 60.5867 240.484 60.5867 242.066V246H61.5527V241.856C61.5527 240.148 60.7547 239.042 58.9767 239.042C57.8427 239.042 57.0167 239.588 56.5827 240.4V235.794H55.6167V245.986H56.5827ZM62.722 242.612C62.722 244.67 64.178 246.168 66.166 246.168C68.154 246.168 69.61 244.67 69.61 242.612C69.61 240.54 68.154 239.042 66.166 239.042C64.178 239.042 62.722 240.54 62.722 242.612ZM63.702 242.598C63.702 241.03 64.71 239.91 66.166 239.91C67.608 239.91 68.63 241.03 68.63 242.598C68.63 244.194 67.608 245.3 66.166 245.3C64.71 245.3 63.702 244.194 63.702 242.598ZM74.417 239.14C74.179 239.084 73.997 239.07 73.787 239.07C72.835 239.07 72.121 239.546 71.855 240.274L71.785 239.224H70.875V246H71.841V242.136C71.841 240.848 72.639 240.008 73.885 240.008H74.417V239.14ZM77.2486 246V240.036H78.6066V239.224H77.2486V237.082H76.2966V239.224H74.9386V240.036H76.2966V246H77.2486ZM85.8474 246.168C86.9814 246.168 87.9334 245.664 88.4094 244.614L88.5074 246H89.3474V235.794H88.3814V240.512C87.9054 239.532 87.0094 239.042 85.8894 239.042C83.8734 239.042 82.7114 240.582 82.7114 242.626C82.7114 244.656 83.8734 246.168 85.8474 246.168ZM86.0154 245.286C84.5454 245.286 83.6914 244.166 83.6914 242.598C83.6914 241.044 84.5454 239.91 86.0154 239.91C87.4994 239.91 88.3674 241.044 88.3674 242.598C88.3674 244.166 87.4994 245.286 86.0154 245.286ZM93.9252 246.168C95.5212 246.168 96.5712 245.398 96.9352 243.97H96.0112C95.7592 244.866 95.0452 245.342 93.9392 245.342C92.4832 245.342 91.6152 244.39 91.5452 242.738H96.9352V242.262C96.9352 240.344 95.6892 239.042 93.8552 239.042C91.9232 239.042 90.6072 240.498 90.6072 242.612C90.6072 244.74 91.9372 246.168 93.9252 246.168ZM93.8552 239.868C95.1292 239.868 95.9692 240.736 95.9692 242.038H91.5732C91.7412 240.708 92.5812 239.868 93.8552 239.868ZM97.6256 244.096C97.6256 245.356 98.5776 246.168 100.104 246.168C101.644 246.168 102.68 245.37 102.68 244.152C102.68 243.172 102.148 242.626 100.972 242.332L99.8096 242.038C99.0676 241.856 98.7036 241.492 98.7036 240.974C98.7036 240.246 99.2356 239.84 100.188 239.84C101.098 239.84 101.644 240.302 101.672 241.086H102.61C102.568 239.826 101.644 239.042 100.216 239.042C98.7596 239.042 97.7656 239.798 97.7656 240.988C97.7656 241.912 98.3396 242.528 99.5156 242.822L100.678 243.116C101.476 243.312 101.756 243.634 101.756 244.194C101.756 244.922 101.14 245.37 100.09 245.37C99.1376 245.37 98.5496 244.88 98.5496 244.096H97.6256ZM103.514 242.626C103.514 244.754 104.816 246.168 106.734 246.168C108.274 246.168 109.478 245.258 109.8 243.872H108.82C108.554 244.74 107.742 245.3 106.734 245.3C105.362 245.3 104.466 244.222 104.466 242.612C104.466 240.946 105.432 239.896 106.804 239.896C107.742 239.896 108.554 240.414 108.806 241.352H109.772C109.506 239.952 108.358 239.042 106.79 239.042C104.816 239.042 103.514 240.498 103.514 242.626ZM114.525 239.14C114.287 239.084 114.105 239.07 113.895 239.07C112.943 239.07 112.229 239.546 111.963 240.274L111.893 239.224H110.983V246H111.949V242.136C111.949 240.848 112.747 240.008 113.993 240.008H114.525V239.14ZM116.006 237.362C116.398 237.362 116.734 237.04 116.734 236.648C116.734 236.256 116.398 235.92 116.006 235.92C115.614 235.92 115.292 236.256 115.292 236.648C115.292 237.04 115.614 237.362 116.006 237.362ZM115.53 246H116.496V239.224H115.53V246ZM118.23 248.954H119.196V244.698C119.672 245.678 120.582 246.168 121.73 246.168C123.732 246.168 124.866 244.628 124.866 242.584C124.866 240.54 123.69 239.042 121.73 239.042C120.596 239.042 119.644 239.546 119.168 240.596L119.07 239.224H118.23V248.954ZM119.21 242.612C119.21 241.044 120.078 239.924 121.562 239.924C123.032 239.924 123.886 241.044 123.886 242.612C123.886 244.166 123.032 245.3 121.562 245.3C120.078 245.3 119.21 244.166 119.21 242.612ZM127.611 246V240.036H128.969V239.224H127.611V237.082H126.659V239.224H125.301V240.036H126.659V246H127.611ZM130.423 237.362C130.815 237.362 131.151 237.04 131.151 236.648C131.151 236.256 130.815 235.92 130.423 235.92C130.031 235.92 129.709 236.256 129.709 236.648C129.709 237.04 130.031 237.362 130.423 237.362ZM129.947 246H130.913V239.224H129.947V246ZM132.172 242.612C132.172 244.67 133.628 246.168 135.616 246.168C137.604 246.168 139.06 244.67 139.06 242.612C139.06 240.54 137.604 239.042 135.616 239.042C133.628 239.042 132.172 240.54 132.172 242.612ZM133.152 242.598C133.152 241.03 134.16 239.91 135.616 239.91C137.058 239.91 138.08 241.03 138.08 242.598C138.08 244.194 137.058 245.3 135.616 245.3C134.16 245.3 133.152 244.194 133.152 242.598ZM141.291 246V242.458C141.291 240.932 142.075 239.924 143.461 239.924C144.581 239.924 145.295 240.484 145.295 242.066V246H146.261V241.856C146.261 240.148 145.491 239.042 143.629 239.042C142.649 239.042 141.753 239.532 141.305 240.4L141.165 239.224H140.325V246H141.291ZM152.475 245.986V242.304C152.475 241.002 153.231 239.924 154.687 239.924C155.737 239.924 156.479 240.484 156.479 242.066V246H157.445V241.856C157.445 240.148 156.647 239.042 154.869 239.042C153.735 239.042 152.909 239.588 152.475 240.4V235.794H151.509V245.986H152.475ZM161.932 246.168C163.528 246.168 164.578 245.398 164.942 243.97H164.018C163.766 244.866 163.052 245.342 161.946 245.342C160.49 245.342 159.622 244.39 159.552 242.738H164.942V242.262C164.942 240.344 163.696 239.042 161.862 239.042C159.93 239.042 158.614 240.498 158.614 242.612C158.614 244.74 159.944 246.168 161.932 246.168ZM161.862 239.868C163.136 239.868 163.976 240.736 163.976 242.038H159.58C159.748 240.708 160.588 239.868 161.862 239.868ZM169.749 239.14C169.511 239.084 169.329 239.07 169.119 239.07C168.167 239.07 167.453 239.546 167.187 240.274L167.117 239.224H166.207V246H167.173V242.136C167.173 240.848 167.971 240.008 169.217 240.008H169.749V239.14ZM173.335 246.168C174.931 246.168 175.981 245.398 176.345 243.97H175.421C175.169 244.866 174.455 245.342 173.349 245.342C171.893 245.342 171.025 244.39 170.955 242.738H176.345V242.262C176.345 240.344 175.099 239.042 173.265 239.042C171.333 239.042 170.017 240.498 170.017 242.612C170.017 244.74 171.347 246.168 173.335 246.168ZM173.265 239.868C174.539 239.868 175.379 240.736 175.379 242.038H170.983C171.151 240.708 171.991 239.868 173.265 239.868Z" fill="#343A40"/>
<rect x="241" y="209" width="40" height="40" rx="20" fill="#F8F9FA"/>
<path d="M257 227.667C256.267 227.667 255.667 228.267 255.667 229C255.667 229.733 256.267 230.333 257 230.333C257.733 230.333 258.333 229.733 258.333 229C258.333 228.267 257.733 227.667 257 227.667ZM265 227.667C264.267 227.667 263.667 228.267 263.667 229C263.667 229.733 264.267 230.333 265 230.333C265.733 230.333 266.333 229.733 266.333 229C266.333 228.267 265.733 227.667 265 227.667ZM261 227.667C260.267 227.667 259.667 228.267 259.667 229C259.667 229.733 260.267 230.333 261 230.333C261.733 230.333 262.333 229.733 262.333 229C262.333 228.267 261.733 227.667 261 227.667Z" fill="#343A40"/>
<path d="M55.32 308.04H57.784V305.32C62.072 304.84 64.824 302.152 64.824 298.248C64.824 294.856 62.968 292.872 58.872 291.976L57.784 291.72V284.84C59.448 285.192 60.408 286.312 60.472 288.04H64.44C64.312 284.2 61.816 281.672 57.784 281.256V278.536H55.32V281.256C51.064 281.704 48.248 284.392 48.248 288.136C48.248 291.656 50.264 293.896 54.296 294.76L55.32 294.984V301.8C53.24 301.544 52.056 300.392 52.024 298.568H47.928C48.024 302.472 50.872 305.064 55.32 305.384V308.04ZM55.192 291.144C53.144 290.696 52.248 289.704 52.248 288.008C52.248 286.28 53.4 285.128 55.32 284.808V291.176L55.192 291.144ZM58.008 295.56C59.928 295.976 60.856 296.968 60.856 298.6C60.856 300.232 59.704 301.352 57.784 301.736V295.496L58.008 295.56ZM66.3215 298.376C66.3215 302.632 69.8095 305.384 75.2175 305.384C80.6575 305.384 84.1455 302.6 84.1455 298.376C84.1455 295.56 82.5455 293.288 80.0815 292.424C82.1615 291.56 83.3135 289.8 83.3135 287.528C83.3135 283.72 80.0815 281.192 75.2815 281.192C70.4495 281.192 67.1535 283.752 67.1535 287.464C67.1535 289.736 68.2735 291.496 70.3215 292.424C67.8895 293.352 66.3215 295.592 66.3215 298.376ZM70.8655 287.816C70.8655 285.896 72.5615 284.68 75.2175 284.68C77.8415 284.68 79.5055 285.896 79.5055 287.848C79.5055 289.8 77.8415 291.016 75.2175 291.016C72.5615 291.016 70.8655 289.768 70.8655 287.816ZM70.3215 298.088C70.3215 295.816 72.2095 294.408 75.2175 294.408C78.2255 294.408 80.1135 295.816 80.1135 298.088C80.1135 300.36 78.2255 301.768 75.2495 301.768C72.2095 301.768 70.3215 300.36 70.3215 298.088Z" fill="black"/>
<path d="M88.816 302L92.188 293.408H91.348L88 302H88.816ZM93.2779 302V298.4C93.2779 297.512 93.8659 296.792 94.8379 296.792C95.7139 296.792 96.2779 297.368 96.2779 298.352V302H97.0939V298.412C97.0939 297.512 97.6699 296.78 98.6419 296.78C99.5299 296.78 100.082 297.368 100.082 298.364V302H100.886V298.196C100.886 296.852 100.058 296.036 98.7979 296.036C97.8619 296.036 97.1539 296.516 96.8899 297.272C96.6139 296.516 95.9299 296.036 95.0179 296.036C94.2019 296.036 93.5539 296.408 93.2659 297.02L93.1699 296.192H92.4499V302H93.2779ZM102.144 299.096C102.144 300.86 103.392 302.144 105.096 302.144C106.8 302.144 108.048 300.86 108.048 299.096C108.048 297.32 106.8 296.036 105.096 296.036C103.392 296.036 102.144 297.32 102.144 299.096ZM102.984 299.084C102.984 297.74 103.848 296.78 105.096 296.78C106.332 296.78 107.208 297.74 107.208 299.084C107.208 300.452 106.332 301.4 105.096 301.4C103.848 301.4 102.984 300.452 102.984 299.084ZM110.2 302V298.964C110.2 297.656 110.872 296.792 112.06 296.792C113.02 296.792 113.632 297.272 113.632 298.628V302H114.46V298.448C114.46 296.984 113.8 296.036 112.204 296.036C111.364 296.036 110.596 296.456 110.212 297.2L110.092 296.192H109.372V302H110.2ZM117.442 302V296.888H118.606V296.192H117.442V294.356H116.626V296.192H115.462V296.888H116.626V302H117.442ZM120.512 301.988V298.832C120.512 297.716 121.16 296.792 122.408 296.792C123.308 296.792 123.944 297.272 123.944 298.628V302H124.772V298.448C124.772 296.984 124.088 296.036 122.564 296.036C121.592 296.036 120.884 296.504 120.512 297.2V293.252H119.684V301.988H120.512Z" fill="#343A40"/>
<path d="M200.244 294.38H198.42V293.324H201.372V302H200.244V294.38ZM204.063 296.072L206.091 293.324H207.459L205.287 296.204C205.591 296.084 205.895 296.024 206.199 296.024C207.087 296.024 207.811 296.312 208.371 296.888C208.931 297.456 209.211 298.172 209.211 299.036C209.211 299.94 208.911 300.684 208.311 301.268C207.711 301.852 206.959 302.144 206.055 302.144C205.159 302.144 204.403 301.848 203.787 301.256C203.171 300.656 202.863 299.916 202.863 299.036C202.863 298.524 202.951 298.056 203.127 297.632C203.303 297.208 203.615 296.688 204.063 296.072ZM204.615 297.596C204.247 297.972 204.063 298.456 204.063 299.048C204.063 299.64 204.247 300.128 204.615 300.512C204.991 300.896 205.471 301.088 206.055 301.088C206.631 301.088 207.103 300.896 207.471 300.512C207.839 300.128 208.023 299.64 208.023 299.048C208.023 298.456 207.839 297.972 207.471 297.596C207.103 297.212 206.631 297.02 206.055 297.02C205.471 297.02 204.991 297.212 204.615 297.596ZM214.284 301.28C213.708 300.704 213.42 299.964 213.42 299.06C213.42 298.156 213.708 297.416 214.284 296.84C214.86 296.264 215.592 295.976 216.48 295.976C217.36 295.976 218.088 296.264 218.664 296.84C219.24 297.416 219.528 298.156 219.528 299.06C219.528 299.964 219.24 300.704 218.664 301.28C218.088 301.856 217.36 302.144 216.48 302.144C215.592 302.144 214.86 301.856 214.284 301.28ZM215.088 297.56C214.736 297.944 214.56 298.444 214.56 299.06C214.56 299.676 214.736 300.176 215.088 300.56C215.448 300.944 215.912 301.136 216.48 301.136C217.048 301.136 217.508 300.944 217.86 300.56C218.22 300.168 218.4 299.668 218.4 299.06C218.4 298.452 218.22 297.956 217.86 297.572C217.508 297.18 217.048 296.984 216.48 296.984C215.912 296.984 215.448 297.176 215.088 297.56ZM220.118 296.132H220.982V295.196C220.982 294.508 221.15 294 221.486 293.672C221.822 293.336 222.274 293.168 222.842 293.168C223.106 293.168 223.338 293.184 223.538 293.216V294.188H223.034C222.69 294.188 222.45 294.272 222.314 294.44C222.178 294.6 222.11 294.852 222.11 295.196V296.132H223.502V297.08H222.11V302H220.982V297.08H220.118V296.132ZM233.424 301.988L227.568 302V301.1L230.364 298.688C231.068 298.08 231.544 297.592 231.792 297.224C232.04 296.848 232.164 296.428 232.164 295.964C232.164 295.42 232.016 294.996 231.72 294.692C231.424 294.38 231.016 294.224 230.496 294.224C229.96 294.224 229.528 294.408 229.2 294.776C228.88 295.136 228.716 295.624 228.708 296.24H227.532C227.548 295.312 227.828 294.568 228.372 294.008C228.916 293.448 229.628 293.168 230.508 293.168C231.38 293.168 232.072 293.416 232.584 293.912C233.104 294.4 233.364 295.06 233.364 295.892C233.364 296.5 233.2 297.056 232.872 297.56C232.552 298.064 232 298.656 231.216 299.336L229.416 300.896H233.424V301.988ZM240.74 300.248H239.708V302H238.58V300.248H234.092V299.204L238.184 293.324H239.708V299.204H240.74V300.248ZM235.364 299.204H238.58V294.572L235.364 299.204ZM249.466 296.132H250.582V302H249.574L249.454 301.112C249.286 301.424 249.022 301.676 248.662 301.868C248.302 302.052 247.906 302.144 247.474 302.144C246.802 302.144 246.278 301.932 245.902 301.508C245.526 301.084 245.338 300.508 245.338 299.78V296.132H246.466V299.408C246.466 300.568 246.934 301.148 247.87 301.148C248.39 301.148 248.786 300.984 249.058 300.656C249.33 300.328 249.466 299.852 249.466 299.228V296.132ZM251.621 300.296H252.701C252.701 300.592 252.805 300.828 253.013 301.004C253.229 301.172 253.525 301.256 253.901 301.256C254.293 301.256 254.597 301.18 254.813 301.028C255.037 300.876 255.149 300.664 255.149 300.392C255.149 300.184 255.089 300.02 254.969 299.9C254.849 299.772 254.641 299.672 254.345 299.6L253.313 299.36C252.289 299.112 251.777 298.568 251.777 297.728C251.777 297.192 251.981 296.764 252.389 296.444C252.797 296.124 253.329 295.964 253.985 295.964C254.625 295.964 255.137 296.132 255.521 296.468C255.913 296.796 256.117 297.24 256.133 297.8H255.053C255.037 297.504 254.933 297.272 254.741 297.104C254.549 296.928 254.285 296.84 253.949 296.84C253.597 296.84 253.325 296.916 253.133 297.068C252.941 297.212 252.845 297.42 252.845 297.692C252.845 298.084 253.133 298.352 253.709 298.496L254.741 298.748C255.253 298.868 255.629 299.052 255.869 299.3C256.109 299.548 256.229 299.888 256.229 300.32C256.229 300.872 256.013 301.316 255.581 301.652C255.149 301.98 254.581 302.144 253.877 302.144C253.189 302.144 252.641 301.976 252.233 301.64C251.825 301.304 251.621 300.856 251.621 300.296ZM260.012 302.144C259.148 302.144 258.444 301.86 257.9 301.292C257.364 300.724 257.096 299.984 257.096 299.072C257.096 298.152 257.36 297.404 257.888 296.828C258.424 296.252 259.116 295.964 259.964 295.964C260.796 295.964 261.464 296.228 261.968 296.756C262.472 297.284 262.724 297.984 262.724 298.856V299.276L258.188 299.288C258.228 299.904 258.404 300.38 258.716 300.716C259.036 301.044 259.476 301.208 260.036 301.208C260.932 301.208 261.48 300.864 261.68 300.176H262.736C262.592 300.808 262.284 301.296 261.812 301.64C261.34 301.976 260.74 302.144 260.012 302.144ZM259.964 296.912C259.476 296.912 259.08 297.052 258.776 297.332C258.472 297.612 258.284 298.012 258.212 298.532H261.596C261.596 298.044 261.448 297.652 261.152 297.356C260.856 297.06 260.46 296.912 259.964 296.912ZM267.344 296.084V297.116H266.84C266.304 297.116 265.88 297.272 265.568 297.584C265.264 297.896 265.112 298.332 265.112 298.892V302H263.984V296.144H265.04L265.112 297.032C265.232 296.72 265.436 296.472 265.724 296.288C266.012 296.104 266.352 296.012 266.744 296.012C266.92 296.012 267.12 296.036 267.344 296.084ZM267.922 300.296H269.002C269.002 300.592 269.106 300.828 269.314 301.004C269.53 301.172 269.826 301.256 270.202 301.256C270.594 301.256 270.898 301.18 271.114 301.028C271.338 300.876 271.45 300.664 271.45 300.392C271.45 300.184 271.39 300.02 271.27 299.9C271.15 299.772 270.942 299.672 270.646 299.6L269.614 299.36C268.59 299.112 268.078 298.568 268.078 297.728C268.078 297.192 268.282 296.764 268.69 296.444C269.098 296.124 269.63 295.964 270.286 295.964C270.926 295.964 271.438 296.132 271.822 296.468C272.214 296.796 272.418 297.24 272.434 297.8H271.354C271.338 297.504 271.234 297.272 271.042 297.104C270.85 296.928 270.586 296.84 270.25 296.84C269.898 296.84 269.626 296.916 269.434 297.068C269.242 297.212 269.146 297.42 269.146 297.692C269.146 298.084 269.434 298.352 270.01 298.496L271.042 298.748C271.554 298.868 271.93 299.052 272.17 299.3C272.41 299.548 272.53 299.888 272.53 300.32C272.53 300.872 272.314 301.316 271.882 301.652C271.45 301.98 270.882 302.144 270.178 302.144C269.49 302.144 268.942 301.976 268.534 301.64C268.126 301.304 267.922 300.856 267.922 300.296Z" fill="black"/>
<g opacity="0.8">
<rect x="47.25" y="315.25" width="233.5" height="7.5" rx="3.75" fill="#F2F8F5"/>
<rect x="47" y="315" width="180" height="8" fill="#86C1A1"/>
<rect x="47.25" y="315.25" width="233.5" height="7.5" rx="3.75" stroke="#D7EAE0" stroke-width="0.5"/>
</g>
<rect x="23.25" y="185.25" width="281.5" height="161.5" rx="7.75" stroke="#E9ECEF" stroke-width="0.5"/>
<defs>
<linearGradient id="paint0_linear_1131_4827" x1="81" y1="310" x2="177.245" y2="542.383" gradientUnits="userSpaceOnUse">
<stop stop-color="#EDEFFC" stop-opacity="0"/>
<stop offset="0.329512" stop-color="#A7B1F1"/>
<stop offset="1" stop-color="#EDEFFC" stop-opacity="0"/>
</linearGradient>
<linearGradient id="paint1_linear_1131_4827" x1="3" y1="310" x2="74.1867" y2="-42.5654" gradientUnits="userSpaceOnUse">
<stop stop-color="#EDEFFC" stop-opacity="0"/>
<stop offset="0.658688" stop-color="#A7B1F1"/>
<stop offset="1" stop-color="#EDEFFC" stop-opacity="0"/>
</linearGradient>
</defs>
</svg>
